<?xml version="1.0" encoding="utf-8"?>
<!-- Generator: Adobe Illustrator 28.0.0, SVG Export Plug-In . SVG Version: 6.00 Build 0)  -->
<svg version="1.1" id="レイヤー_1" xmlns="http://www.w3.org/2000/svg" xmlns:xlink="http://www.w3.org/1999/xlink" x="0px"
	 y="0px" viewBox="0 0 150 150" style="enable-background:new 0 0 150 150;" xml:space="preserve">
<style type="text/css">
	.st0{fill:#8BEFCA;}
	.st1{fill:#80393C;}
	.st2{fill:#803B3C;}
	.st3{fill:#FFFFFF;}
	.st4{fill:#FFE380;}
</style>
<g>
	<path class="st0" d="M108.1,150H41.9C18.8,150,0,131.2,0,108.1V41.9C0,18.8,18.8,0,41.9,0h66.3c23,0,41.9,18.8,41.9,41.9v66.3
		C150,131.2,131.2,150,108.1,150z"/>
	<g>
		<g>
			<path class="st1" d="M45.4,132.3c-1.9,0-3.8-0.4-5.5-1.3c-3.2-1.5-5.5-4.2-6.6-7.5l-4.2-12.9c-2.1-6.5,1.2-13.5,7.5-15.9
				c7.8-3,14-6.1,20.2-10.3c7.5-5,11.9-9.9,14.3-13.1C57.7,71.5,44.4,72,32.6,73c-3.4,0.3-6.7-0.8-9.3-3c-2.6-2.2-4.2-5.4-4.4-8.8
				l-0.9-13.5c-0.5-6.9,4.7-13,11.6-13.6c17.1-1.5,36.2-2.1,55.3-1.8c7.9,0.1,15.3,3.4,20.9,9.2c5.8,6.1,8.9,14.2,8.6,23
				c-0.5,17.9-14.2,38-35.8,52.4c-8.8,5.9-17.6,10.3-28.5,14.5C48.5,132,47,132.3,45.4,132.3z"/>
		</g>
		<g>
			<g>
				<path class="st1" d="M108.6,64.8c-13,0-23.5-10.6-23.5-23.5c0-13,10.6-23.5,23.5-23.5s23.5,10.6,23.5,23.5
					C132.1,54.3,121.5,64.8,108.6,64.8z"/>
			</g>
		</g>
		<path class="st2" d="M44.1,119.3c-1.2,0-2.3-0.8-2.7-1.9l-4.2-12.9c-0.5-1.4,0.2-2.9,1.6-3.5c8.5-3.3,15.4-6.7,22.2-11.3
			c6.8-4.6,12.6-9.9,16.8-15.4c2.3-3,2.7-7.1,1-10.5c-1.7-3.4-5.1-5.5-8.9-5.5c-13.8,0.1-27.3,0.7-39.3,1.7c-0.1,0-0.2,0-0.2,0
			c-1.4,0-2.6-1.1-2.7-2.6L26.6,44c-0.1-1.5,1-2.8,2.5-3c13.8-1.2,29.3-1.8,44.8-1.8c3.2,0,6.3,0,9.5,0.1c5.2,0.1,10.1,2.2,13.8,6.1
			c3.9,4.1,6,9.7,5.9,15.8C102.6,76,90.6,93,71.6,105.6c-8.2,5.4-16.3,9.6-26.5,13.5C44.8,119.2,44.4,119.3,44.1,119.3L44.1,119.3z"
			/>
		<path class="st3" d="M107.2,52.8c-7.5,0-13.6-6.1-13.6-13.6s6.1-13.6,13.6-13.6c7.5,0,13.6,6.1,13.6,13.6S114.7,52.8,107.2,52.8z"
			/>
		<path class="st3" d="M44.1,119.3c-1.2,0-2.3-0.8-2.7-1.9l-4.2-12.9c-0.5-1.4,0.2-2.9,1.6-3.5c8.5-3.3,15.4-6.7,22.2-11.3
			c6.8-4.6,12.6-9.9,16.8-15.4c2.3-3,2.7-7.1,1-10.5c-1.7-3.4-5.1-5.5-8.9-5.5c-13.8,0.1-27.3,0.7-39.3,1.7c-0.1,0-0.2,0-0.2,0
			c-1.4,0-2.6-1.1-2.7-2.6L26.6,44c-0.1-1.5,1-2.8,2.5-3c13.8-1.2,29.3-1.8,44.8-1.8c3.2,0,6.3,0,9.5,0.1c5.2,0.1,10.1,2.2,13.8,6.1
			c3.9,4.1,6,9.7,5.9,15.8C102.6,76,90.6,93,71.6,105.6c-8.2,5.4-16.3,9.6-26.5,13.5C44.8,119.2,44.4,119.3,44.1,119.3L44.1,119.3z"
			/>
		<path class="st4" d="M94.3,42.6c-0.1,0-0.2-0.1-0.3-0.1c0.1,0.1,0.2,0.1,0.4,0.2C94.3,42.7,94.3,42.7,94.3,42.6z"/>
		<g>
			<path class="st4" d="M101.2,51.2c-0.1-0.2-0.6-0.8-0.7-1c-1.3-1.3-3.2-3.2-3.2-3.2l-2.5-2.8c-0.2-0.5-0.4-1-0.5-1.5
				c-0.1-0.1-0.2-0.1-0.4-0.2c-2.2-0.9-4.6-1.5-7.1-1.5c-18.6-0.3-37.7,0.3-54.3,1.7c-1.5,0.1-2.7,1.5-2.6,3.1l0.9,13.5
				c0,0.2,0.1,0.4,0.1,0.7c11.9-1,25.3-1.6,39-1.7c2.6,0,4.9,1,6.7,2.6c2.3,0.8,4.3,2.5,5.4,4.8c1.7,3.4,1.3,7.3-0.9,10.3
				c-4.1,5.5-9.9,10.8-16.7,15.4c-6.8,4.5-13.7,8-22.2,11.3c-1.4,0.5-2.1,2.1-1.7,3.6l4.2,12.8c0.1,0,0.3-0.1,0.4-0.1
				c10.2-3.9,18.4-8,26.5-13.5c19-12.6,31-29.7,31.4-44.4C103.2,57.6,102.6,54.2,101.2,51.2z"/>
			<path class="st4" d="M115.4,28.3c-1.5-0.5-3-0.8-4.7-0.8c-7.5,0-13.7,6.1-13.7,13.7c0,1.2,0.2,2.3,0.4,3.4
				c0.2,0.6,0.3,1.2,0.6,1.7c0.3,0.8,0.7,1.5,1.1,2.2c0,0.2-0.1,0.2-0.2,0.1c0,0,0.3,1.6,1.6,2.4c1.3,0.8,2,1,2,1l-0.1-0.1
				c0.6,0.2,1.2,0.4,1.9,0.6c1,0.2,2,0.4,3.1,0.4c7.5,0,13.6-6.1,13.6-13.6C120.9,34.7,118.7,30.8,115.4,28.3z"/>
		</g>
		<path class="st1" d="M61.5,108.1c-0.8,0-1.5-0.4-1.9-1.1c-0.6-1.1-0.2-2.4,0.8-3c2.5-1.4,4.9-2.9,7.4-4.5c1-0.7,2.1-1.4,3-2.1
			c1-0.7,2.4-0.5,3.1,0.5c0.7,1,0.5,2.4-0.5,3.1c-1,0.8-2.1,1.5-3.2,2.2c-2.6,1.7-5.1,3.2-7.6,4.7C62.3,108,61.9,108.1,61.5,108.1z"
			/>
		<path class="st1" d="M96.2,50c-0.2,0-0.5-0.1-0.7-0.3c-3.8-3.4-5.3-6.6-5.3-11.1c0-0.6,0.4-1,1-1c0.6,0,1,0.4,1,1
			c0,4.6,1.8,7.1,4.7,9.6c0.4,0.4,0.5,1,0.1,1.4C96.7,49.8,96.4,50,96.2,50z"/>
		<path class="st1" d="M106,21.7c-8.9,1.5-12.1,6.8-13.1,8.8c-0.2,0.5-0.3,1-0.3,1.5l-2.2,4.3c-1.8-2.5,1.9,6.1,5.2,10.3
			c0.6,0.8-2.8-5.8-0.9-12c1.3-4.2,3.8-5.8,6.3-6.6c6.3-2.1,7.6,1.2,7.5,4c0,0.3,0,0.6,0,0.9c-0.2,0.9-0.4,1.4-1,1.8
			c-1.3,0.6-2.4,1.6-2.6,3.7c-0.3,2.5,2.1,4.5,4.6,4.5c2.5,0,4.6-2,4.6-4.5c0-0.8,0-1.8-0.2-2.8c1.5-1.5,4.9-3.2,6.9,1.6
			C121.3,38.5,122.5,18.9,106,21.7z"/>
		<path class="st1" d="M80.2,34.7C72.1,35.3,33,37,33,37s-6.1-0.2-8,2c-1.2,1.3-1.4,2.4-1.2,3.3c-0.1,0.3-0.2,0.6,0,1.1
			c0.9,2.1,0.1,10.4,3.1,7.6c0.2-0.2-0.7-3.7,2-4.4c1-0.3,2,0,2.9,0.6c3,2,9,1,10.1-0.1c4.6-2.1,7.5-5.6,16.3-7.3
			c4.4-0.9,9.3-1.3,14.4,3.8c3.8,3.8,8.8,5.9,14,3.1c2.6-1.4,5.5-5.3,5.5-5.3S88.2,34,80.2,34.7z"/>
		<path class="st1" d="M56,110.7c-1,0-1.7-0.7-1.9-1.2c-0.4-0.8-0.4-2.2,1.2-3c0,0,0,0,0,0c1.6-0.7,2.7,0.2,3,1
			c0.4,0.8,0.4,2.2-1.2,3C56.7,110.6,56.4,110.7,56,110.7z"/>
	</g>
</g>
</svg>
