<?xml version="1.0" encoding="utf-8"?>
<!-- Generator: Adobe Illustrator 28.0.0, SVG Export Plug-In . SVG Version: 6.00 Build 0)  -->
<svg version="1.1" id="レイヤー_1" xmlns="http://www.w3.org/2000/svg" xmlns:xlink="http://www.w3.org/1999/xlink" x="0px"
	 y="0px" viewBox="0 0 26 26" style="enable-background:new 0 0 26 26;" xml:space="preserve">
<style type="text/css">
	.st0{fill:#804F4E;}
</style>
<path class="st0" d="M16.7,14.2l-5.2,5.2c-0.6,0.6-1.7,0.6-2.3,0c-0.6-0.6-0.6-1.7,0-2.3l4.1-4.1L9.3,8.9c-0.6-0.6-0.6-1.7,0-2.3
	c0.6-0.6,1.7-0.6,2.3,0l5.2,5.2c0.3,0.3,0.5,0.8,0.5,1.2v0.1C17.2,13.5,17,13.9,16.7,14.2z M13,0C9.6,0,6.2,1.4,3.8,3.8
	C1.4,6.2,0,9.6,0,13s1.4,6.8,3.8,9.2C6.2,24.6,9.6,26,13,26s6.8-1.4,9.2-3.8c2.4-2.4,3.8-5.7,3.8-9.2s-1.4-6.8-3.8-9.2
	C19.8,1.4,16.4,0,13,0z"/>
</svg>
