<?xml version="1.0" encoding="UTF-8"?>
<svg id="_レイヤー_2" data-name=" レイヤー 2" xmlns="http://www.w3.org/2000/svg" viewBox="0 0 1920.35 3009.69">
  <defs>
    <style>
      .cls-1 {
        fill: #ffe1c0;
      }

      .cls-2 {
        fill: #ffc880;
      }

      .cls-3 {
        fill: #ffd39a;
      }

      .cls-4 {
        fill: #804f4e;
      }
    </style>
  </defs>
  <rect class="cls-2" x=".34" y="1.44" width="1920" height="3008.25"/>
  <path class="cls-4" d="M.34,243.5s91.24-59.54,324.7-64.76c231.75-5.19,355.48,43.11,563.47,42.54,167.45-.46,365.13-42.58,465.06-42.58,117.96,0,165.35,32.59,330.02,25.62,153.25-6.48,236.76-45.88,236.76-45.88V0l-269.5,.7H356.53C267.83,.7,0,0,0,0L.33,243.5h0Z"/>
  <path class="cls-3" d="M0,1075.32v727.26s462.03,93.18,1075.86-78.99c613.83-172.16,687.69-213.6,843.45-194.44V656.7s-462.03-93.18-1075.86,78.99C229.62,907.86,156.1,950.08,.34,930.92"/>
  <path class="cls-1" d="M0,1718.1v727.26s462.03,93.18,1075.86-78.99c613.83-172.16,688.38-214.14,844.14-194.98l.06-144.88h0l-.75-727.03s-462.03-93.18-1075.86,78.99C229.62,1550.64,155.76,1592.31,0,1573.15"/>
</svg>