<?xml version="1.0" encoding="UTF-8"?>
<svg id="_レイヤー_2" data-name="レイヤー 2" xmlns="http://www.w3.org/2000/svg" viewBox="0 0 376 1980">
  <defs>
    <style>
      .cls-1 {
        fill: #ffe1c0;
      }

      .cls-2 {
        fill: #ffc880;
      }

      .cls-3 {
        fill: #ffd39a;
      }

      .cls-4 {
        fill: #804f4e;
      }
    </style>
  </defs>
  <g id="_スマホ_デザイン" data-name="スマホ・デザイン">
    <g>
      <rect class="cls-2" y="0" width="376" height="1980"/>
      <g>
        <path class="cls-3" d="M165.23,619.15C44.98,697.46,31.37,716.59,.86,707.88l-.27,65.75H0v330.79s90.51,42.38,210.77-35.93c120.25-78.31,133.86-97.44,164.38-88.73l.27-65.75h.59v-330.79s-90.51-42.38-210.77,35.93Z"/>
        <path class="cls-1" d="M165.23,911.51C44.98,989.82,31.37,1008.95,.86,1000.24l-.27,65.75H0v330.79s90.51,42.38,210.77-35.93c120.25-78.31,133.86-97.44,164.38-88.73l.27-65.75h.59v-330.79s-90.51-42.38-210.77,35.93Z"/>
      </g>
      <path class="cls-4" d="M0,53.81s17.88-5.92,63.61-7.29c45.4-1.36,69.64,11.27,110.39,11.12,32.8-.12,71.53-11.13,91.11-11.13,23.11,0,32.39,8.52,64.65,6.7,30.02-1.69,46.25-11.81,46.25-11.81V0s-52.66,0-52.66,0H191.78s-104.62,0-122,0C52.4,0,0,0,0,0V53.81Z"/>
    </g>
  </g>
</svg>