<?xml version="1.0" encoding="UTF-8"?>
<svg id="_レイヤー_2" data-name="レイヤー 2" xmlns="http://www.w3.org/2000/svg" viewBox="0 0 1160.18 4834.15">
  <defs>
    <style>
      .cls-1 {
        fill: #ffe1c0;
      }

      .cls-2 {
        fill: #ffc880;
      }

      .cls-3 {
        fill: #ffd39a;
      }

      .cls-4 {
        fill: #804f4e;
      }
    </style>
  </defs>
  <g id="_スマホ_デザイン" data-name="スマホ・デザイン">
    <g>
      <rect class="cls-2" x="0" y="0" width="1160.18" height="4834.15"/>
      <g>
        <path class="cls-3" d="M509.85,1511.65C138.8,1702.83,96.81,1749.54,2.65,1728.27l-.83,160.52H0v807.63s279.29,103.47,650.34-87.72c371.05-191.18,413.04-237.9,507.2-216.62l.83-160.52h1.82v-807.63s-279.29-103.47-650.34,87.72Z"/>
        <path class="cls-1" d="M509.85,2225.45c-371.05,191.18-413.04,237.9-507.2,216.62l-.83,160.52H0v807.63s279.29,103.47,650.34-87.72c371.05-191.18,413.04-237.9,507.2-216.62l.83-160.52h1.82v-807.63s-279.29-103.47-650.34,87.72Z"/>
      </g>
      <path class="cls-4" d="M0,131.39s55.16-14.46,196.27-17.79c140.09-3.31,214.88,27.51,340.61,27.15,101.22-.29,220.71-27.17,281.12-27.17,71.31,0,99.95,20.79,199.49,16.35,92.64-4.14,142.69-28.83,142.69-28.83V0s-162.49,0-162.49,0h-405.95s-322.82,0-376.43,0C161.7,0,0,0,0,0V131.39Z"/>
    </g>
  </g>
</svg>