<?xml version="1.0" encoding="UTF-8"?>
<svg id="_レイヤー_1" data-name=" レイヤー 1" xmlns="http://www.w3.org/2000/svg" viewBox="0 0 100 100">
  <defs>
    <style>
      .cls-1 {
        fill: #fff;
      }
    </style>
  </defs>
  <rect class="cls-1" x="77.26" y="24.79" width="7.86" height="35.01"/>
  <polygon class="cls-1" points="74.2 -.12 59.09 -.12 59.09 7.84 14.99 7.84 14.99 13.46 74.2 13.46 74.2 -.12"/>
  <polygon class="cls-1" points="74.2 62.46 54.29 62.46 54.29 66.44 36.63 66.44 36.63 62.46 14.99 62.46 14.99 73.38 74.2 73.38 74.2 62.46"/>
  <polygon class="cls-1" points="74.2 76.03 54.29 76.03 54.29 80.01 36.63 80.01 36.63 76.03 14.99 76.03 14.99 86.85 74.2 86.85 74.2 76.03"/>
  <polygon class="cls-1" points="74.2 89.51 54.29 89.51 54.29 93.49 36.63 93.49 36.63 89.51 14.99 89.51 14.99 100.12 74.2 100.12 74.2 89.51"/>
  <path class="cls-1" d="M74.2,16.11H14.99V59.8h59.31l-.1-43.69h0Zm-3.88,8.06h-15.01v-4.39h15.01s0,4.39,0,4.39Z"/>
</svg>