<?xml version="1.0" encoding="UTF-8"?>
<svg id="_レイヤー_1" data-name=" レイヤー 1" xmlns="http://www.w3.org/2000/svg" viewBox="0 0 100 100">
  <defs>
    <style>
      .cls-1 {
        fill: #fff;
      }
    </style>
  </defs>
  <path class="cls-1" d="M79.9,67.11v.41c0,5.24-2.57,9.97-6.27,13.26h-29.39c-1.23-1.03-2.36-2.06-3.08-3.19-3.08-4.42-20.55-30.94-20.66-31.24-.41-.62-.51-1.44-.31-2.36,.21-.92,.82-1.75,1.75-2.47,.72-.41,1.44-.72,2.36-.72h.51c.82,.1,1.54,.51,1.95,1.23l8.94,13.46c.62,.92,1.75,1.34,2.88,1.03,1.03-.31,1.75-1.23,1.75-2.47V8.84c0-2.06,1.64-3.8,3.8-3.8s3.8,1.64,3.8,3.8V44.91c0,1.34,1.13,2.57,2.57,2.57,1.34,0,2.57-1.13,2.57-2.57v-10.69c.62-.31,1.23-.51,1.95-.51,1.44,0,2.88,.92,3.49,2.36v9.56c0,1.34,1.13,2.57,2.57,2.57,1.34,0,2.57-1.13,2.57-2.57v-8.94c.62-.51,1.44-.82,2.36-.82,1.64,0,3.08,1.03,3.6,2.67v8.43c0,1.34,1.13,2.57,2.57,2.57,1.34,0,2.57-1.13,2.57-2.57v-7.61c.62-.41,1.34-.72,2.26-.72,2.26,0,3.39,1.85,3.39,3.8v24.87l-.51-.21h.01Zm-3.39-33.6c-1.23,0-2.57,.31-3.7,.82-1.54-2.26-4.21-3.6-7.09-3.6-1.44,0-2.88,.31-4.01,1.03-1.64-1.95-4.11-3.19-6.78-3.19-.62,0-1.34,.1-1.95,.21V8.84c0-4.83-4.01-8.84-8.84-8.84s-8.84,4.01-8.84,8.84V45.84l-4.32-6.47c-1.23-1.85-3.19-3.08-5.45-3.49-2.26-.31-4.52,.21-6.37,1.44s-3.29,3.19-3.91,5.34c-.62,2.26-.21,4.52,.92,6.37,.21,.31,17.68,26.72,20.76,31.24,.51,.82,1.13,1.54,1.85,2.36v12.74c0,2.57,1.95,4.62,4.62,4.62h28.88c2.57,0,4.62-1.95,4.62-4.62v-10.79c4.83-4.11,8.02-10.17,8.12-16.96v-25.18c-.1-5.04-3.7-8.94-8.53-8.94h.02Z"/>
</svg>