<?xml version="1.0" encoding="utf-8"?>
<!-- Generator: Adobe Illustrator 22.1.0, SVG Export Plug-In . SVG Version: 6.00 Build 0)  -->
<svg version="1.1" id="レイヤー_1" xmlns="http://www.w3.org/2000/svg" xmlns:xlink="http://www.w3.org/1999/xlink" x="0px"
	 y="0px" viewBox="0 0 22 22" width="22" height="22" style="enable-background:new 0 0 22 22;" xml:space="preserve">
<style type="text/css">
	.st0{fill:#FFFFFF;}
</style>
<g>
	<path class="st0" d="M11,2c2.9,0,3.3,0,4.4,0.1c1.1,0,1.7,0.2,2,0.4c0.5,0.2,0.9,0.4,1.3,0.8c0.4,0.4,0.6,0.8,0.8,1.3
		c0.2,0.4,0.3,1,0.4,2C20,7.7,20,8.1,20,11c0,2.9,0,3.3-0.1,4.4c0,1.1-0.2,1.7-0.4,2c-0.2,0.5-0.4,0.9-0.8,1.3
		c-0.4,0.4-0.8,0.6-1.3,0.8c-0.4,0.2-1,0.3-2,0.4C14.3,20,13.9,20,11,20c-2.9,0-3.3,0-4.4-0.1c-1.1,0-1.7-0.2-2-0.4
		c-0.5-0.2-0.9-0.4-1.3-0.8c-0.4-0.4-0.6-0.8-0.8-1.3c-0.2-0.4-0.3-1-0.4-2C2,14.3,2,13.9,2,11C2,8.1,2,7.7,2,6.6
		c0-1.1,0.2-1.7,0.4-2C2.6,4,2.9,3.6,3.2,3.2C3.6,2.9,4,2.6,4.5,2.4c0.4-0.2,1-0.3,2-0.4C7.7,2,8.1,2,11,2 M11,0C8,0,7.6,0,6.5,0.1
		c-1.2,0.1-2,0.2-2.7,0.5C3.1,0.9,2.5,1.2,1.8,1.8c-0.6,0.6-1,1.2-1.3,1.9C0.3,4.5,0.1,5.3,0.1,6.5C0,7.6,0,8,0,11s0,3.4,0.1,4.5
		c0.1,1.2,0.2,2,0.5,2.7c0.3,0.7,0.7,1.3,1.3,1.9c0.6,0.6,1.2,1,1.9,1.3c0.7,0.3,1.5,0.5,2.7,0.5C7.6,22,8,22,11,22s3.4,0,4.5-0.1
		c1.2-0.1,2-0.2,2.7-0.5c0.7-0.3,1.3-0.7,1.9-1.3c0.6-0.6,1-1.2,1.3-1.9c0.3-0.7,0.5-1.5,0.5-2.7C22,14.4,22,14,22,11s0-3.4-0.1-4.5
		c-0.1-1.2-0.2-2-0.5-2.7c-0.3-0.7-0.7-1.3-1.3-1.9c-0.6-0.6-1.2-1-1.9-1.3c-0.7-0.3-1.5-0.5-2.7-0.5C14.4,0,14,0,11,0L11,0z"/>
	<path class="st0" d="M11,5.4c-3.1,0-5.6,2.5-5.6,5.6c0,3.1,2.5,5.6,5.6,5.6s5.6-2.5,5.6-5.6C16.6,7.9,14.1,5.4,11,5.4z M11,14.7
		c-2,0-3.7-1.6-3.7-3.7C7.3,9,9,7.3,11,7.3S14.7,9,14.7,11C14.7,13,13,14.7,11,14.7z"/>
	<path class="st0" d="M18.2,5.1c0,0.7-0.6,1.3-1.3,1.3c-0.7,0-1.3-0.6-1.3-1.3c0-0.7,0.6-1.3,1.3-1.3C17.6,3.8,18.2,4.4,18.2,5.1z"
		/>
</g>
</svg>
