<?xml version="1.0" encoding="UTF-8"?>
<svg id="_レイヤー_1" data-name=" レイヤー 1" xmlns="http://www.w3.org/2000/svg" viewBox="0 0 100 100">
  <defs>
    <style>
      .cls-1 {
        fill: #fff;
      }
    </style>
  </defs>
  <path class="cls-1" d="M73.62,24.65c0-3.07-1.02-5.62-3.07-7.46-2.04-1.84-5.01-2.76-8.59-2.76-3.37,0-6.13,.82-8.18,2.35-1.84,1.43-2.76,3.37-2.97,6.03,0,.61,.41,1.12,1.02,1.12l4.91,.1c.82,0,1.53-.51,1.74-1.23,.2-.61,.51-1.12,.92-1.53,.72-.61,1.53-.92,2.56-.92,1.23,0,2.25,.41,2.86,1.12,.72,.72,1.02,1.74,1.02,3.07,0,1.23-.31,2.25-.92,3.27-.61,.92-1.33,1.74-2.35,2.35-1.94,1.33-3.27,2.56-4.19,3.78-.61,.82-.92,1.94-1.02,3.48-.2,.82,.51,1.33,1.23,1.33h5.32c.61,0,1.12-.41,1.23-1.02,.1-.82,.2-1.43,.51-1.94,.31-.72,1.02-1.43,1.94-2.04,1.74-.92,3.17-2.15,4.4-3.78,1.12-1.64,1.64-3.48,1.64-5.32h-.01Zm-8.69,19.22c0-.92-.72-1.64-1.64-1.64h-4.4c-.92,0-1.64,.72-1.64,1.64v2.76c0,.92,.72,1.64,1.64,1.64h4.4c.92,0,1.64-.72,1.64-1.64v-2.76ZM100,15.14V47.76c0,5.21-3.78,9.51-8.59,10.53v9.61c0,1.12-.51,2.15-1.23,2.97-.82,.61-1.84,1.02-2.86,1.02s-2.04-.41-2.86-1.23l-12.27-11.96H35.28c-6.03,0-10.74-4.91-10.74-10.74V15.24c-.1-6.13,4.81-10.94,10.74-10.94h53.89c5.93-.1,10.84,4.81,10.84,10.84h0Zm-30.78,50.61l6.24,6.24c-.31,5.73-5.11,10.12-10.74,10.12H27.71l-12.27,12.37c-.72,.82-1.74,1.23-2.76,1.23-2.25,0-4.09-1.84-4.09-4.09v-9.61C3.68,80.99,0,76.59,0,71.48V38.76C0,32.73,4.91,28.02,10.74,28.02h6.54v7.57h-6.54c-1.84,0-3.27,1.43-3.27,3.17v32.62c0,1.74,1.43,3.27,3.27,3.27h5.42v8.49l8.49-8.49h40.08c1.74,0,3.27-1.43,3.27-3.27v-5.62h1.22Z"/>
</svg>