<?xml version="1.0" encoding="utf-8"?>
<!-- Generator: Adobe Illustrator 28.0.0, SVG Export Plug-In . SVG Version: 6.00 Build 0)  -->
<svg version="1.1" id="レイヤー_1" xmlns="http://www.w3.org/2000/svg" xmlns:xlink="http://www.w3.org/1999/xlink" x="0px"
	 y="0px" viewBox="0 0 682 232" style="enable-background:new 0 0 682 232;" xml:space="preserve">
<style type="text/css">
	.st0{fill:#80D4AF;}
	.st1{fill:#FFFFFF;}
	.st2{fill:#FFCB80;}
	.st3{fill:#80393C;}
	.st4{fill:#FFC780;}
	.st5{fill:#803B3C;}
	.st6{fill:none;stroke:#FFFFFF;stroke-width:3;stroke-linecap:round;stroke-miterlimit:10;}
	.st7{fill:#D6C880;}
	.st8{fill:#FFC880;}
	.st9{fill:none;stroke:#80393C;stroke-width:4;stroke-linecap:round;stroke-linejoin:round;stroke-miterlimit:10;}
</style>
<g>
	<g>
		<path class="st0" d="M158.3,218.3c-9.7,0-19.5-0.4-29.1-1.1c-56.7-4.5-98.5-21-117.7-46.5C1.6,157.5-2,142.4,1.1,126.9
			c2.8-13.8,14.3-28,30.2-27.3c7.8,0.4,13.9,7,13.5,14.8c-0.3,7.4-6.3,13.2-13.5,13.5c-0.8,0.7-2,2.5-2.4,4.6
			c-1.5,7.5,0.2,14.4,5.3,21.1c14,18.6,49.5,31.4,97.3,35.3c60.1,4.8,130.2-8.5,158-23.9c6.9-3.8,15.5-1.3,19.3,5.5
			c3.8,6.8,1.3,15.5-5.5,19.3C275.8,205,217.5,218.3,158.3,218.3z"/>
		<path class="st0" d="M660.9,79.6c-7.2,0-13.2-5.7-13.5-12.9c-0.2-3.6-7.6-12.1-27.4-20.6c-20-8.6-47.3-15-75.1-17.7
			c-48.2-4.6-114.8,2.7-145.5,16c-6.9,3-14.8-0.2-17.8-7c-3-6.8,0.2-14.8,7-17.8c34.7-15.1,106-23.2,158.8-18.1
			c60,5.8,125.3,28.2,126.9,63.9c0.3,7.5-5.4,13.8-12.9,14.1C661.3,79.6,661.1,79.6,660.9,79.6z"/>
	</g>
	<g>
		<g>
			<g>
				<path class="st1" d="M61.8,189.2c-9.4,0-17.8-5.9-21-14.8c-4.1-11.6,1.9-24.3,13.5-28.5c6.3-2.3,23.2-12,36.9-25.6
					c-2.7-1.3-5.6-2.4-9-3.5c-5.6-1.9-10.2-5.9-12.8-11.2c-2.6-5.3-3-11.4-1.1-17c3.1-9,11.5-15.1,21.1-15.1c2.4,0,4.8,0.4,7.1,1.2
					c8.4,2.9,15.1,5.8,22.1,9.7c4.6-7.9,9-16.7,14.3-28.3c3.6-7.9,11.6-13.1,20.3-13.1c3.2,0,6.3,0.7,9.2,2
					c5.4,2.5,9.6,6.9,11.7,12.4c2.1,5.6,1.9,11.6-0.6,17c-6.9,15.2-12.9,26.8-19.3,37.2c12.3,13.4,19.5,26.8,19.8,27.4
					c2.8,5.2,3.4,11.3,1.6,17c-1.7,5.7-5.6,10.4-10.8,13.1c-3.2,1.7-6.8,2.6-10.4,2.6c-8.3,0-15.8-4.5-19.7-11.8
					c0,0-3.1-5.6-8.1-12.1c-17.9,19.3-42.3,34.7-57.3,40.1C66.9,188.7,64.4,189.2,61.8,189.2z"/>
			</g>
			<g>
				<g>
					<path class="st2" d="M61.8,187.2c-8.6,0-16.3-5.4-19.2-13.5c-3.8-10.6,1.7-22.2,12.3-26c7.2-2.6,26.6-13.8,40.9-29.4
						c18.2-19.8,28.1-37.6,38.9-61.5c3.3-7.3,10.6-12,18.5-12c2.9,0,5.7,0.6,8.4,1.8c5,2.2,8.7,6.3,10.7,11.4
						c1.9,5.1,1.7,10.6-0.5,15.6c-12.2,27-24.2,48.5-46,72.3c-17.8,19.3-42.2,34.9-57.1,40.2C66.5,186.8,64.2,187.2,61.8,187.2z"/>
					<path class="st3" d="M61.8,178c-5.1,0-9.9-3.2-11.8-8.3c-2.3-6.5,1.1-13.6,7.5-16c9.1-3.2,29.3-15.5,44-31.5
						c18.9-20.6,29.1-38.9,40.3-63.6c2.8-6.3,10.2-9.1,16.5-6.2c6.3,2.8,9.1,10.2,6.2,16.5c-11.9,26.3-23.5,47.2-44.6,70.2
						c-16.7,18.2-40.3,33.2-54,38.1C64.6,177.8,63.2,178,61.8,178z"/>
					<path class="st2" d="M154.4,169.8c-7.5,0-14.4-4.1-18-10.8c-0.1-0.1-9.3-17.1-22.7-27c-13.4-10-21.4-13.8-30.8-16.9
						c-5.1-1.7-9.3-5.4-11.7-10.3c-2.4-4.9-2.8-10.4-1-15.5c2.8-8.3,10.5-13.8,19.3-13.8c2.2,0,4.4,0.4,6.5,1.1
						c12.9,4.4,24.4,9.7,42,22.9c20.9,15.6,33.8,39.6,34.4,40.6c2.6,4.8,3.1,10.3,1.5,15.5s-5.1,9.5-9.9,12
						C161,168.9,157.7,169.8,154.4,169.8z"/>
					<path class="st3" d="M154.4,160.5c-4.5,0-8.8-2.4-11-6.6c-0.1-0.2-10-18.5-25-29.7c-14.2-10.6-22.9-14.7-32.9-18.1
						c-6.5-2.2-10-9.3-7.8-15.8c2.2-6.5,9.3-10,15.8-7.8c12.1,4.1,23,9.2,39.8,21.7c19.5,14.6,31.6,37,32.1,38
						c3.2,6.1,0.9,13.6-5.2,16.9C158.4,160,156.4,160.5,154.4,160.5z"/>
				</g>
			</g>
			<g>
				<path class="st2" d="M96.4,127.6c0,0,3.9-5.6,8.5-1.9c4.7,3.7-4.6-4.5-4.6-4.5L96.4,127.6z"/>
				<path class="st2" d="M116.2,133.9c0,0,2.8,1.8,2.8,4.2c0,1.8-1.2,3.3-2.4,5s4.5-4.1,4.5-4.1l0.3-1.8L116.2,133.9z"/>
				<path class="st2" d="M127.7,86.2c0,1.7-2.7,3.8,1,6.3c3.3,2.2-5-2.1-5-2.1L127.7,86.2z"/>
				<path class="st4" d="M142.6,103.1c0.5,0.3,2.9,2.1,5.1-1.2c1.8-2.7,1.9-0.8,1.9-0.8l-4.2,6.4l-4.5-3.6
					C141.1,104,141.3,102.4,142.6,103.1z"/>
				<path class="st2" d="M92,118.6c1.4,0.7,2.2,1.6,0.6,3.1c-1.2,1.2,2.9-1.1,2.9-1.1l0.4-1.9C95.9,118.7,89.9,117.5,92,118.6z"/>
				<path class="st2" d="M125.2,146.5c0.2-0.2,0.8-0.8,1.3-0.9c0.6-0.1,0.9,0.1,1.1,0.4c0.2,0.2,0.8,0.9,0.8,0.9l0.2-0.3l-1.7-2.4
					l-0.4,0.1L125.2,146.5z"/>
				<path class="st2" d="M117,85.6c1.1,0.4,1.7,0.8,2.7,0.2c0.9-0.6,1-1,1.2-1.3s1.2,0.4,1.2,0.4l-2.7,3.5l-2.9-1.9L117,85.6z"/>
				<path class="st2" d="M152.8,110c-0.2,0.4-0.8,1.6-0.3,2.3c0.5,0.8,1.1,1.5,1.1,1.5l-0.4,0.5l-2.4-2.6l1.3-1.8L152.8,110z"/>
			</g>
			<g>
				<path class="st1" d="M57.1,169.4c-0.8,0-1.6-0.5-1.9-1.3c-2.7-7,3.7-10.2,5.8-11.2c2.9-1.4,4.6-2.2,4.6-2.2c1-0.5,2.2,0,2.7,1
					c0.5,1,0,2.2-1,2.7c0,0-1.7,0.8-4.5,2.2c-4.3,2.2-4.7,3.9-3.8,6.1c0.4,1-0.1,2.2-1.2,2.6C57.5,169.3,57.3,169.4,57.1,169.4z"/>
				<path class="st1" d="M145.3,66.9c-0.2,0-0.5,0-0.7-0.1c-1-0.4-1.6-1.6-1.2-2.6c0-0.1,0.8-2.1,2.8-5.3c1.5-2.4,3.4-3.3,3.6-3.3
					c1-0.4,2.2,0.1,2.6,1.1c0.4,1-0.1,2.2-1.1,2.6l0,0c0,0-0.9,0.4-1.7,1.7c-1.7,2.8-2.4,4.6-2.4,4.6
					C146.9,66.4,146.1,66.9,145.3,66.9z"/>
				<path class="st1" d="M159.8,147.9c-0.9,0-1.7-0.6-1.9-1.4c-0.8-2.5-4.1-7-5.3-8.4c-0.7-0.9-0.6-2.1,0.3-2.9
					c0.9-0.7,2.1-0.6,2.8,0.3c0.5,0.6,4.9,6.1,6,9.8c0.3,1.1-0.3,2.2-1.3,2.5C160.2,147.9,160,147.9,159.8,147.9z"/>
				<path class="st1" d="M104.7,97.6c-0.4,0-0.7-0.1-1.1-0.3c-2.1-1.3-4.2-2.3-6.7-3.5c-1.8-0.8-3.6-1.4-4.6-1.6
					c-1.1-0.2-1.8-1.3-1.5-2.4c0.2-1.1,1.3-1.8,2.4-1.5c1.3,0.3,3.4,0.9,5.5,1.9c2.5,1.1,4.9,2.3,7.1,3.7c0.9,0.6,1.2,1.9,0.6,2.8
					C106,97.3,105.4,97.6,104.7,97.6z"/>
			</g>
		</g>
		<g>
			<g>
				<g>
					<path class="st1" d="M191.9,175.6c-6.4,0-12.5-2.8-16.6-7.7c-7.7-9.2-6.6-22.9,2.6-30.6c9.7-8.2,16.3-18.5,22.1-28.4
						c7.9-13.5,15.9-47.5,16.4-57.7c0.6-11.6,10.1-20.7,21.7-20.7c0.3,0,0.7,0,1,0c12,0.6,21.3,10.8,20.7,22.7
						c-0.8,16.8-10.7,57.6-22.3,77.5c-7.7,13.3-16.9,27.3-31.7,39.8C202,173.8,197.1,175.6,191.9,175.6z"/>
					<path class="st1" d="M242.6,182.1c-2.5,0-5-0.3-7.5-0.8c-10.2-2.3-18-9.1-21.6-18.7c-4.1-11.2,1.6-23.8,12.9-27.9
						c2.4-0.9,4.9-1.3,7.5-1.3c2.6,0,5.2,0.5,7.6,1.4c5.3-9.7,7.9-24,7.9-27.2c0-0.6,0-1,0-1.4c-1.7-0.5-6.8-1.5-16-1.5
						c-9.5,0-19.9,1.1-29.3,3.2c-1.5,0.3-3.1,0.5-4.7,0.5c-10.1,0-19.1-7.2-21.2-17.1c-1.2-5.7-0.2-11.5,2.9-16.4
						c3.1-4.9,8-8.3,13.6-9.5c12.4-2.7,26-4.2,38.5-4.2c11.8,0,28.1,1.4,39,7.9c20.5,12.3,20.5,32.1,20.5,38.6
						c0,7.9-4.5,44.1-25.6,64.4C260.7,178.4,251.7,182.1,242.6,182.1z"/>
					<g>
						<path class="st1" d="M295.5,100c-7.2,0-9.8-5.3-12.2-12c-0.6-1.8,0,0-4-4c-3.2-3.2-10.1-7.3-10.8-11.9
							c-0.6-4.5,0.5-9,3.3-12.7c3.2-4.3,8.3-6.8,13.7-6.8c3.7,0,7.3,1.2,10.3,3.5c7.9,6,12.8,12.5,15.9,21.1
							c3.2,8.9-1.4,18.7-10.3,21.9C299.4,99.6,297.5,100,295.5,100z"/>
						<path class="st1" d="M314.2,86.6c-7.2,0-13.7-4.6-16.1-11.3c-0.6-1.8-1.2-3-4.3-5.3c-7.5-5.7-9-16.4-3.3-24
							c3.2-4.3,8.3-6.8,13.7-6.8c3.7,0,7.3,1.2,10.3,3.5c7.9,6,12.8,12.5,15.9,21.1c3.2,8.9-1.4,18.7-10.3,21.9
							C318.1,86.3,316.2,86.6,314.2,86.6z"/>
					</g>
				</g>
			</g>
			<g>
				<path class="st2" d="M191.9,173.7c-5.9,0-11.4-2.6-15.2-7c-7-8.4-6-20.9,2.4-27.9c9.9-8.4,16.7-18.8,22.5-28.9
					c8-13.7,16.2-48.2,16.7-58.6c0.5-10.6,9.2-18.9,19.8-18.9c0.3,0,0.6,0,0.9,0c10.9,0.5,19.4,9.8,18.9,20.7
					c-0.8,16.6-10.6,57-22,76.6c-7.6,13.1-16.7,27-31.2,39.3C201.1,172,196.6,173.7,191.9,173.7z"/>
				<path class="st3" d="M191.9,164.7c-3.5,0-6.9-1.5-9.3-4.3c-4.3-5.1-3.7-12.8,1.5-17.1c10.8-9.1,18-20.2,24.2-30.9
					c8.6-14.9,17.2-50.8,17.7-62.1c0.3-6.7,6-11.9,12.7-11.6c6.7,0.3,11.9,6,11.6,12.7c-0.8,15.9-10.5,55-21,73.2
					c-7.3,12.5-15.9,25.7-29.5,37.3C197.5,163.7,194.7,164.7,191.9,164.7z"/>
				<path class="st2" d="M242.6,180.1c-2.4,0-4.7-0.3-7-0.8c-9.5-2.2-16.9-8.6-20.2-17.5c-3.8-10.3,1.5-21.7,11.7-25.4
					c2.2-0.8,4.5-1.2,6.9-1.2c2.9,0,5.8,0.7,8.4,1.9c6.1-10,9-25.8,9-29.6c0-1.5,0-2.2-0.1-2.7c-0.1,0-0.1-0.1-0.2-0.2
					c-1.2-0.6-7.1-2-17.6-2c-9.6,0-20.2,1.1-29.7,3.2c-1.4,0.3-2.8,0.5-4.2,0.5c-9.2,0-17.4-6.6-19.4-15.6
					c-2.3-10.7,4.4-21.3,15.1-23.6c12.2-2.7,25.8-4.1,38.1-4.1c11.6,0,27.5,1.3,38,7.6C291,82.4,291,101.3,291,107.5
					c0,7.7-4.4,43.2-25,63.1C259.7,176.7,251.2,180.1,242.6,180.1z"/>
				<path class="st3" d="M242.6,171.1c-1.8,0-3.6-0.2-5.3-0.6c-7-1.6-12.3-6.2-14.7-12.7c-2.3-6.3,0.9-13.3,7.2-15.6
					c5.2-1.9,10.8-0.1,13.9,4.1c0,0,0.1-0.1,0.1-0.1c11-10.7,15.2-34.9,15.2-40.1c0-5-0.4-7.3-4.1-9.5c-5.6-3.4-29-4.9-52.9,0.3
					c-6.6,1.4-13-2.7-14.5-9.3c-1.4-6.6,2.7-13,9.3-14.5c24.1-5.3,56.1-6.1,70.6,2.6c15.9,9.5,15.9,24.7,15.9,30.4
					c0,5.9-3.9,39.5-22.6,57.6C255.8,168.5,249.1,171.1,242.6,171.1z"/>
				<g>
					<path class="st4" d="M295.5,100c-7.2,0-9.8-5.3-12.2-12c-0.6-1.8,0,0-4-4c-3.2-3.2-10.1-7.3-10.8-11.9c-0.6-4.5,0.5-9,3.3-12.7
						c3.2-4.3,8.3-6.8,13.7-6.8c3.7,0,7.3,1.2,10.3,3.5c7.9,6,12.8,12.5,15.9,21.1c3.2,8.9-1.4,18.7-10.3,21.9
						C299.4,99.6,297.5,100,295.5,100z"/>
					<path class="st4" d="M314.2,86.6c-7.2,0-13.7-4.6-16.1-11.3c-0.6-1.8-1.2-3-4.3-5.3c-7.5-5.7-9-16.4-3.3-24
						c3.2-4.3,8.3-6.8,13.7-6.8c3.7,0,7.3,1.2,10.3,3.5c7.9,6,12.8,12.5,15.9,21.1c3.2,8.9-1.4,18.7-10.3,21.9
						C318.1,86.3,316.2,86.6,314.2,86.6z"/>
					<path class="st4" d="M298.6,88.6c-3.1-0.1-6-1.4-8.2-3.6c-2.2-2.3-3.3-5.2-3.2-8.4l0.4-18.5c0.1-6.3,5.4-11.5,11.7-11.5
						c0.1,0,0.3,0,0.3,0c3.1,0.1,6,1.4,8.2,3.6c2.2,2.3,3.3,5.2,3.2,8.4l-0.4,18.5c-0.1,6.3-5.4,11.5-11.7,11.5
						C298.8,88.6,298.6,88.6,298.6,88.6z"/>
				</g>
				<g>
					<path class="st5" d="M295.5,91c-3.9,0-5.7-1.8-7.2-4.6c-1.6-2.9-5.2-7.3-8.6-10.6c-3.8-3.6-5-9.1-1.9-13.2
						c3.1-4.2,9.1-5,13.2-1.9c6.7,5.1,10.8,10.3,13.3,17.6c1.9,5.7-0.8,10.3-5.7,12.1C297.7,90.8,296.6,91,295.5,91z"/>
					<path class="st5" d="M314.2,77.6c-3.9,0-5.7-1.8-7.2-4.6c-1.6-2.9-5.2-7.3-8.6-10.6c-3.8-3.6-5-9.1-1.9-13.2
						c3.1-4.2,9.1-5,13.2-1.9c6.7,5.1,10.8,10.3,13.3,17.6c1.9,5.7-0.8,10.3-5.7,12.1C316.3,77.4,315.2,77.6,314.2,77.6z"/>
					<path class="st5" d="M299.9,82C299.9,82,299.8,82,299.9,82c-2.3-0.1-4-2-3.9-4.3l0.6-21.5c0.7-2.4,2.1-1.5,4.3-1.5
						c0,0,0.1,0,0.1,0c2.2,0.1,3.9,2,3.8,4.3l-1.1,22C303.5,83.3,302.1,82.1,299.9,82z"/>
				</g>
			</g>
			<g>
				<path class="st1" d="M186.1,156.5c-0.3-0.2-1.9-1.7-1.9-4.9c0-2.9,2.3-5.2,4-6.6c0.9-0.7,2.1-0.6,2.9,0.3
					c0.7,0.9,0.6,2.1-0.3,2.9c-1.7,1.4-2.6,2.6-2.6,3.5c0,1.3,0.4,1.7,0.5,1.8l-1.3,1.5L186.1,156.5z"/>
				<path class="st1" d="M231.9,56c-0.1,0-0.2,0-0.2,0c-1.1-0.1-1.9-1.1-1.8-2.2c0-0.1,0.2-2.1,1-5.6c0.4-1.7,1.2-3.2,1.3-3.3
					c0.6-1,1.8-1.3,2.8-0.7c1,0.6,1.3,1.8,0.7,2.8c0,0-0.6,1-0.8,2c-0.7,3.2-0.9,5.2-0.9,5.2C233.7,55.3,232.9,56,231.9,56z"/>
				<path class="st1" d="M198.8,81.6c-0.8,0-1.6-0.5-1.9-1.3c-0.4-1,0.1-2.2,1.2-2.6c0.2-0.1,5.3-1.9,14.6-2.3
					c1.1,0,2.1,0.8,2.1,1.9c0.1,1.1-0.8,2.1-1.9,2.1c-8.6,0.4-13.3,2.1-13.3,2.1C199.3,81.6,199,81.6,198.8,81.6z"/>
				<path class="st1" d="M242,166.2c-3.8,0-6.3-1.3-9.1-3.6c-0.9-0.7-1-2-0.3-2.9c0.7-0.9,2-1,2.9-0.3c2.6,2.1,4.3,3.1,8.5,2.6
					c3.6-0.4,6.8-2,8.9-4.4c0.7-0.8,2-0.9,2.9-0.2s0.9,2,0.2,2.9c-3.8,4.3-8.8,5.5-11.5,5.8C243.5,166.2,242.7,166.2,242,166.2z"/>
				<path class="st1" d="M309.3,56.7c-0.6,0-1.2-0.3-1.6-0.8c-2-2.5-3.6-3.2-3.6-3.2c-1-0.4-1.6-1.5-1.2-2.6c0.4-1,1.5-1.6,2.5-1.3
					c0.3,0.1,2.8,1,5.5,4.5c0.7,0.9,0.5,2.2-0.4,2.8C310.1,56.6,309.7,56.7,309.3,56.7z"/>
				<path class="st1" d="M291.2,69.8c-0.6,0-1.2-0.3-1.6-0.8c-2-2.5-3.6-3.2-3.6-3.2c-1-0.4-1.6-1.5-1.2-2.6c0.4-1,1.5-1.6,2.5-1.3
					c0.3,0.1,2.8,1,5.5,4.5c0.7,0.9,0.5,2.2-0.4,2.8C292.1,69.7,291.7,69.8,291.2,69.8z"/>
			</g>
			<g>
				<path class="st6" d="M291.7,68.2"/>
				<path class="st2" d="M224.9,58.5c-0.3,3.1,0.1,4.4,2.5,4.5c5,0.1-4.8,2.1-4.8,2.1L224.9,58.5z"/>
				<path class="st2" d="M245.3,63.6c3,0,3.4-0.5,4.2-3.8c0.6-2.4,1.9-0.4,1.9-0.4l-1.8,4.7L245.3,63.6z"/>
				<path class="st2" d="M246,106.5c0.6-1.4,1-2.7,2.5-2.5c1.2,0.1,1.4,0.2,1.6,0.3c0.6,0.2,1.3,1,1.1,3.2c-0.2,2.3-0.2,3-0.2,3
					l1.7-7.6l-7.1-1.2l-1.5,4.5L246,106.5z"/>
				<path class="st3" d="M304.5,78.7c0,0-0.8-1.1-0.7-5.7c0.1-4.5-1.1,4.1-1.1,4.1L304.5,78.7z"/>
				<path class="st3" d="M295.6,58.4c0.4,1.2,1,1.8,0.9,3.5c-0.2,1.9,1.1,0.7,1.1,0.7l0-2.9C297.6,59.6,295.1,56.8,295.6,58.4z"/>
				<path class="st2" d="M237.7,135.7c1.3,0.2,4.9,1.4,6.6-2.5c1.7-3.9,1.3,0.9,1.3,0.9l-2.6,4.7L237.7,135.7z"/>
				<path class="st4" d="M290.9,104.3c0-1.4-0.9-4.8,2.1-4.7c2.9,0.1-2.8-2.1-2.8-2.1L290.9,104.3z"/>
				<path class="st4" d="M282.8,52.8c0.3-0.1,1.3-0.3,2.3-0.3c1.5-0.2,2.3-0.5,2.9-2.1c0.5-1,1.3-0.9,1.3-0.9l-1.3,4.7l-4.3-0.5
					C283.6,53.7,281.3,53.2,282.8,52.8z"/>
				<path class="st4" d="M311,89.9c0.6-1.1,0.7-2.1,1.4-2.8c0.7-0.6,1.1-0.6,2.1-0.6c1.2,0,1.8-0.5,1.8-0.5l-5.1-1.5l-0.6,3.3
					L311,89.9z"/>
				<path class="st2" d="M211.4,64.6c2.4-0.4,3.9-0.6,4.7-1.4c0.8-0.8,1.1-1.8,1.3-3.6c0.1-0.9,0.3,4.6,0.3,4.6L211.4,64.6z"/>
				<path class="st2" d="M257.2,60.3c-0.2,1.7-0.7,3.5-0.1,4.4s1.9,1.1,2.6,1.3c0.8,0.2-2.6,0.2-2.6,0.2l-1.4-0.4L257.2,60.3z"/>
				<path class="st4" d="M266.1,68c0.9,0.4,1.5,0.6,1.9,0.4s0.4-0.5,0.5-0.9s0.2-0.8,0.2-0.8l0.7,3.1l-0.8,0.2l-2.7-1.6L266.1,68z"
					/>
				<path class="st7" d="M201.9,106.1c0.3,0,1.5-0.3,1.2,0.9c-0.2,1.2,0.3,1.3,0.3,1.3l1.4-3.3l-2.1,0.2L201.9,106.1z"/>
				<path class="st4" d="M210.9,107c0.2-0.3,0.5-0.9,0.7-1.2c0.3-0.7,1.1-1.6,2.7-1.8s1.7-0.4,1.7-0.4l-0.2-0.5l-3.4-0.1l-0.9,0.8
					l-0.9,2.9L210.9,107z"/>
				<path class="st2" d="M233.6,102.4c0.1,0.2,0.5,0.2,2.1,0.3c1.2,0.1,2.3,1.4,1.9,3.3c-0.2,1.2-0.3,1.5-0.3,1.5l0.8,0.2l2.1-5.9
					l-0.4-0.4l-6-0.1l-0.3,0.9L233.6,102.4z"/>
				<path class="st2" d="M234.4,132.3c-0.3,0.7-0.8,1.4-0.7,1.9c0,0.3,0.2,1,1.2,1c0.3,0,0.6,1,0.6,1l-3.4,0.1l-0.6-0.6l1.3-2.8
					L234.4,132.3z"/>
				<path class="st2" d="M212.6,161.7c0.6-0.6,1.4-1.1,2-0.9c0.6,0.3,0.9,0.9,1.1,1.6s0.9,0.8,0.9,0.8l0.6-1.6l-1.5-3.8l-2.2,0.3
					l-1.7,3L212.6,161.7z"/>
			</g>
		</g>
	</g>
	<g>
		<g>
			<path class="st1" d="M575.6,188.7c-9.3,0-17-7.2-17.6-16.5l-1.1-16.7c-0.3-4.7,1.3-9.3,4.4-12.8c3.2-3.6,7.6-5.7,12.3-5.9
				c13.6-0.7,23.6-3.5,33.4-9.5l0.3-0.2c4.4-2.6,18.9-12.5,22.6-33.6c1.5-8.5,8.8-14.7,17.4-14.7c0.4,0,0.8,0,1.2,0l16.7,1.1
				c4.9,0.3,9.5,2.7,12.6,6.5c3.1,3.8,4.4,8.7,3.7,13.6c-6.7,44.6-38.3,66.2-47.8,71.8c-17,10.3-35.2,15.6-57.2,16.8
				C576.2,188.7,575.9,188.7,575.6,188.7z"/>
		</g>
		<g>
			<path class="st1" d="M589.8,124.4c-16.9,0-30.7-13.8-30.7-30.7c0-16.9,13.8-30.7,30.7-30.7c16.9,0,30.7,13.8,30.7,30.7
				C620.6,110.6,606.8,124.4,589.8,124.4z"/>
		</g>
	</g>
	<g>
		<path class="st1" d="M464,178.8c-3.1-0.1-6.1-1-8.7-2.5c-4.4-2.7-7.4-7.2-8.3-12.3c-1.9-11.9-2-28.1-0.4-49.7
			c0.2-2.7,0.5-6.3,0.8-10.1c0.1-0.8,0.2-1.7,0.4-2.6l0.1-0.9c0.5-6.1,5.2-11,11.3-11.8c1.9-0.7,3.8-1,5.8-1l0.4,0l16.7,0.4
			c4.9,0.1,9.4,2.2,12.6,5.8c3.3,3.6,4.9,8.3,4.5,13.2c-0.3,4-0.6,7.9-0.8,10.8c-1.4,19.3-1,30.1-0.4,35.7c0.9,8.3-4,15.9-11.9,18.6
			l-16.1,5.4c-1.8,0.6-3.7,0.9-5.6,0.9L464,178.8z"/>
		<path class="st1" d="M507.7,231.6c-1.7,0-3.4-0.3-5-0.9c-4.8-1.6-8.6-5.1-10.7-9.7l-6.7-15.4c-1.6-3.6-1.9-7.6-1-11.3
			c0.1-4.2,2.2-8,5.7-10.3c5.9-3.9,10-11.4,11.7-21.8c1.5-13.2,1.5-45.9,1.5-55.6c0-1.4,0.2-2.8,0.5-4.2c0.1-3.4,1.4-6.5,3.9-8.9
			c2-2,4.6-3.2,7.4-3.6c1.9-0.7,3.8-1,5.8-1l0.4,0l16.7,0.4c9.6,0.2,17.1,7.9,17.2,17.5c0.1,16.7-0.1,47-1.9,62
			c-4.2,35-22,52.1-36.2,60.3c-2.7,1.5-5.7,2.4-8.8,2.4L507.7,231.6z"/>
	</g>
	<g>
		<g>
			<path class="st1" d="M357.7,193.6c-2.6,0-5.2-0.6-7.6-1.7c-4.4-2.1-7.6-5.8-9.1-10.4l-5.2-15.8c-2.9-8.9,1.6-18.6,10.4-21.9
				c9.4-3.6,17-7.4,24.5-12.4c6.8-4.5,11.5-9,14.6-12.5c-15,0.2-29.9,0.9-43.1,2c-0.5,0-1,0.1-1.5,0.1c-4.2,0-8.2-1.5-11.4-4.2
				c-3.6-3.1-5.8-7.4-6.1-12.2L322,87.8c-0.7-9.5,6.5-17.9,16-18.8c17.4-1.5,36.8-2.3,56.3-2.3c4,0,8,0,11.9,0.1
				c10.3,0.2,19.9,4.4,27,11.9c7.5,7.8,11.4,18.4,11.1,29.6c-0.6,22.7-17.8,48-44.9,66c-11,7.3-21.9,12.9-35.5,18
				C362,193.2,359.9,193.6,357.7,193.6z"/>
		</g>
		<g>
			<g>
				<path class="st1" d="M435.4,110.7c-17,0-30.9-13.8-30.9-30.9c0-17,13.8-30.9,30.9-30.9c17,0,30.9,13.8,30.9,30.9
					C466.3,96.8,452.4,110.7,435.4,110.7z"/>
			</g>
		</g>
	</g>
	<g>
		<g>
			<path class="st1" d="M542.5,191.1c-0.5,0-1.3-0.2-2-0.9c-3.1-3.2-5.8-30.2-2.3-40.7l0.1-0.4c5-15.1,8.4-18,11.9-17.8
				c0.7,0,1.4,0.2,2.1,0.6c3.1,1.7,3,6.5,2.6,13.2l0,0.2c-0.3,4,0,6.1,0.3,7.1c0.6-0.7,1.6-1.9,2.8-4.3c0.8-1.5,2.3-1.5,2.8-1.5
				c5,0.3,6.8,13.6,6.8,13.7c0.8,18.2-1.8,20.1-2.7,20.7c-0.7,0.5-1.5,0.7-2.4,0.7c-0.8,0-1.6-0.3-2.4-0.9c-0.7-0.5-1.6-0.8-2.6-0.9
				c-4.1-0.2-10,3.5-12.2,9.3C544.7,191,543.3,191.1,542.5,191.1C542.5,191.1,542.5,191.1,542.5,191.1z"/>
			<path class="st1" d="M502.9,173.9c-0.6,0-1.1-0.2-1.4-0.7c-0.6-0.7-0.6-0.7,0.1-5.9c0.2-3.3-0.4-6.1-1.6-7.3
				c-0.3-0.3-0.6-0.6-1.1-0.6c-0.4,0-0.9,0.3-1.3,0.9l-0.3,0.5c-1.9,2.8-3.8,5.7-6.5,5.7c-3,0-4.5-3.5-5.3-6.1
				c-0.3-1.1-0.2-3.9,0.6-14.4c0.5-6,1-12.8,1.2-18.9c0-0.2,1.6-23.8,7.6-23.8c2.9,0,3.4,4.1,3.6,6.1c0.8,7,1.5,8.1,2.3,8.5
				c0.1,0,0.2,0,0.3,0c1,0,2.1-2.6,2.1-6c0-1.9,0.7-2.8,2-2.8c1.4,0,2.6,0,3.1,12.4c1.3,1.7,2,4.1,2,7.4c0.1,3.1-2.1,19.2-4.4,35.3
				l-0.5,3.3c-0.1,1.1-0.2,2.3-0.4,3.5C504.8,172.5,504.6,173.9,502.9,173.9z"/>
			<path class="st1" d="M448.7,129.9c-2.7,0-2.7-3-2.8-5.7c0-5.3-0.5-7.8-3.3-7.8l-0.2,0c-1.6,0.1-3.1,4.7-3.7,6.5
				c-0.8,2.2-1.2,3.7-2.9,3.7c-2.4,0-2.6-2.1-3.3-12c-0.3-4.7,0.9-8.5,3.6-11.5c3.3-3.5,8.8-5.5,15.4-5.5c6.6,0,14.5,2.1,16.7,6.2
				c4.7,8.8-16,24.5-18,25.6C449.7,129.7,449.2,129.9,448.7,129.9L448.7,129.9z"/>
		</g>
		<g>
			<path class="st3" d="M543.2,188.7c3.1-8.1,13.2-13.1,18.6-9.1c4.4,3.2,3.7-15.4,3.6-19.3s-3.8-14.3-5.2-11.6
				c-4.4,8.7-8.3,8.3-7.4-3.7c0.3-4.4,0.8-10.6-1.6-11.9c-4.5-2.5-9.6,13.5-10.7,16.8C536.3,162.1,541,194.4,543.2,188.7z"/>
			<path class="st3" d="M508.4,129.2c-0.1-3.8-1-5.7-2-6.7c-0.2-5.6-1.3-14-1.3-10.4c0,4.5-1.7,8.8-5,7.8c-1.9-0.9-2.7-2.6-3.5-10.1
				c-1.4-12.2-6.7,3.2-7.3,17.5c-0.6,13.5-2.5,31-2,32.5c2.9,8.9,6.1,3.4,8.8-0.6c2.8-4.2,9.2-1,7.1,11.7
				C501.7,179.5,508.6,134.2,508.4,129.2z"/>
			<path class="st3" d="M434.5,114.4c1.6,22.8,1.5,0.2,7.9,0c8.9-0.3,3.4,15.3,6.9,13.3c3.5-2,20.8-16.5,17.3-23.1
				C463,98.1,433.1,94.6,434.5,114.4z"/>
		</g>
	</g>
	<g>
		<g>
			<path class="st3" d="M589.8,122.4c-15.9,0-28.8-12.9-28.8-28.8c0-15.9,12.9-28.8,28.8-28.8c15.9,0,28.8,12.9,28.8,28.8
				C618.6,109.5,605.7,122.4,589.8,122.4z"/>
		</g>
	</g>
	<g>
		<g>
			<path class="st3" d="M575.6,186.8c-8.2,0-15.1-6.4-15.7-14.7l-1.1-16.7c-0.3-4.2,1.1-8.3,3.9-11.4c2.8-3.2,6.7-5,11-5.3
				c13.9-0.7,24.2-3.6,34.3-9.8l0.3-0.2c0,0,0,0,0,0l0,0c4.5-2.6,19.6-12.9,23.4-34.9c1.4-8,8.5-13.6,16.5-13.1l16.7,1.1
				c4.4,0.3,8.5,2.4,11.2,5.8c2.7,3.4,3.9,7.8,3.3,12.1c-6.6,43.8-37.6,64.9-46.9,70.4c-16.7,10.1-34.7,15.4-56.3,16.5
				C576.2,186.8,575.9,186.8,575.6,186.8z"/>
		</g>
	</g>
	<path class="st3" d="M574,178.3c-5.7,0-10.6-4.5-11-10.2l-1.1-16.7c-0.2-2.9,0.8-5.8,2.7-8c2-2.2,4.7-3.5,7.7-3.7
		c14.7-0.7,25.7-3.9,36.5-10.4l0.3-0.2c0,0,0,0,0,0c5-2.9,21.6-14.2,25.7-38.1c1-5.6,5.9-9.5,11.5-9.2l16.7,1.1
		c3.1,0.2,5.9,1.7,7.8,4.1c1.9,2.4,2.7,5.4,2.3,8.4c-6.3,41.7-35.7,61.8-44.6,67c-16.1,9.7-33.3,14.8-54.2,15.9
		C574.4,178.3,574.2,178.3,574,178.3z"/>
	<path class="st1" d="M588.2,106.4c-9.1,0-16.6-7.4-16.6-16.6s7.4-16.5,16.6-16.5c9.1,0,16.6,7.4,16.6,16.5S597.3,106.4,588.2,106.4
		z"/>
	<path class="st1" d="M574.2,170.8c-1.9,0.1-3.5-1.4-3.6-3.3l-1.1-16.6c-0.1-0.9,0.2-1.8,0.9-2.5c0.6-0.7,1.5-1.1,2.4-1.2
		c16.1-0.8,28.1-4.2,40.1-11.5l0.2-0.1c15.2-8.8,26.1-25,29.3-43.3c0.3-1.7,1.7-3,3.4-3l0.2,0l16.7,1.1c1,0.1,1.9,0.5,2.5,1.3
		c0.3,0.4,0.9,1.3,0.7,2.6c-5.8,38.4-32.8,56.9-41,61.6C609.9,165,593.7,169.8,574.2,170.8L574.2,170.8z"/>
	<path class="st8" d="M575.8,92.1c0,5.2,2.4,9.8,6.1,12.9c2,0.9,4.2,1.3,6.5,1.3c9.1,0,16.6-7.4,16.6-16.6c0-5.5-2.7-10.3-6.8-13.3
		c-1.8-0.7-3.7-1-5.7-1C583.2,75.4,575.8,82.9,575.8,92.1z"/>
	<path class="st8" d="M666,94.4c0.1-0.7,0-1.3-0.2-1.7l-10.8-0.7l-4.9-0.3c-1.8-0.1-3.3,1.2-3.7,3.1c-3.2,18.3-14.1,34.5-29.3,43.3
		l-0.2,0.1c-12,7.3-24,10.7-40,11.5c-1,0-1.9,0.5-2.5,1.2c-0.6,0.7-0.9,1.6-0.9,2.6l1.1,16.6c0,0.3,0.1,0.6,0.2,0.9
		c19.3-1.1,35.3-5.8,50.3-14.8C633.2,151.2,660.2,132.7,666,94.4z M577.1,154.2C577.1,154.2,577.2,154.2,577.1,154.2
		C577.2,154.2,577.1,154.2,577.1,154.2z"/>
	<path class="st3" d="M631.2,146.7c-0.8,0-1.5-0.3-2.1-1c-1-1.1-0.8-2.8,0.3-3.8c6-5.1,14.5-13.7,20.5-26.4c0.6-1.3,2.3-1.9,3.6-1.3
		c1.3,0.6,1.9,2.3,1.3,3.6c-6.4,13.5-15.5,22.8-21.9,28.2C632.4,146.5,631.8,146.7,631.2,146.7z"/>
	<path class="st3" d="M625.5,151.3c-1,0-1.9-0.6-2.3-1.2c-0.6-0.9-0.8-2.7,1-3.8c0,0,0,0,0.1,0c1.8-1.1,3.3-0.1,3.8,0.8
		c0.6,0.9,0.8,2.7-1,3.8C626.6,151.2,626,151.3,625.5,151.3z"/>
	<path class="st3" d="M570.6,87c11.1-13.7,14.1,3.2,22.2,4.4c6.3,0.9,10.4-6.1,13.8,0.8c0.6,1.3,0.5,0.8,1.9-2.9
		c1.2-3.2,2.2-8.7,1.2-11c-0.8-1.8-0.8-0.3-0.8-0.3c-1.5-1.1-2.8-1.8-4-3c-1.2-1.2-3.5-2.5-7.2-2c-3.7,0.5-6.1-7.1-7.7-4.8
		c-1.7,2.3-15.9,8.1-17.1,9.1C572.3,77.9,570,87.8,570.6,87z"/>
	<path class="st3" d="M614.6,127.2c-2.3,2.3-1.7,6.9,2,4.4c1.7-1.2,10.5,2.1,15.9-8.5c2.6-5.1,3.1-10,6.4-14.2
		c1.8-2.3,5.2-6.2,9.9-5.7c6.1,0.7,9.6-2,10.3-5.8c1.1-5.9,5.6-7.5,7.3-4.4c1.4,2.6,4.8,2.4,4.4-2.1c-0.8-8.1-16-6.4-20.7-6.5
		c-8.2-0.1-8,3.9-10.9,8.5c-2.9,4.5-10.4,19.7-12.1,23.3C626.3,118,621.7,121.7,614.6,127.2z"/>
	<g>
		<path class="st8" d="M509.1,212.1L509.1,212.1L509.1,212.1z"/>
		<g>
			<g>
				<path class="st3" d="M464.2,172.2c-1.9,0-3.7-0.6-5.4-1.6c-2.8-1.7-4.6-4.5-5.1-7.6c-1.8-11.4-1.9-27.1-0.3-48.2
					c0.2-2.7,0.5-6.3,0.8-10c0.5-5.8,5.4-10.3,11.2-10.1l16.7,0.4c3,0.1,5.8,1.4,7.9,3.6c2,2.3,3,5.2,2.8,8.2
					c-0.3,4-0.6,7.9-0.8,10.8c-1.5,19.8-1,31-0.4,36.9c0.6,5.2-2.5,9.9-7.4,11.6l-16.1,5.4C466.7,172,465.4,172.2,464.2,172.2z
					 M456.4,115L456.4,115L456.4,115z"/>
				<path class="st3" d="M464.4,176.9c-0.1,0-0.3,0-0.4,0c0,0,0,0,0,0c-2.7-0.1-5.4-0.9-7.7-2.3c-4-2.4-6.6-6.4-7.4-10.9
					c-1.9-11.7-2-27.9-0.4-49.3c0.2-2.7,0.5-6.3,0.8-10.1c0.7-8.3,7.8-14.7,16-14.5l16.7,0.4c4.3,0.1,8.3,2,11.3,5.2
					c2.9,3.2,4.3,7.4,4,11.7c-0.3,4-0.6,7.9-0.8,10.8c-1.5,19.5-1,30.4-0.4,36.1c0.8,7.4-3.5,14.2-10.6,16.6l-16.1,5.4
					C467.8,176.6,466.1,176.9,464.4,176.9z"/>
			</g>
		</g>
		<g>
			<g>
				<path class="st3" d="M508.2,229.7c-0.1,0-0.3,0-0.4,0h0c-1.5,0-3-0.3-4.5-0.8c-4.2-1.4-7.7-4.5-9.5-8.6l-6.7-15.4
					c-3.1-7-0.7-15.2,5.6-19.3c5.8-3.8,9.5-11.6,10.9-22.6c1.6-13.2,1.6-46.4,1.5-56.3c0-4.3,1.7-8.3,4.7-11.3
					c3.1-3,7.1-4.6,11.4-4.5l16.7,0.4c8.5,0.2,15.3,7.1,15.3,15.6c0.1,16.7-0.1,46.9-1.9,61.8c-4.2,34.2-21.5,50.9-35.3,58.9
					C513.6,229,510.9,229.7,508.2,229.7z"/>
			</g>
		</g>
		<g>
			<path class="st3" d="M459.9,168.3c-1.9,0-3.7-0.6-5.4-1.6c-2.8-1.7-4.6-4.5-5.1-7.6c-1.8-11.4-1.9-27.1-0.3-48.2
				c0.2-2.7,0.5-6.3,0.8-10c0.5-5.8,5.4-10.3,11.2-10.1l16.7,0.4c3,0.1,5.8,1.4,7.9,3.6c2,2.3,3,5.2,2.8,8.2
				c-0.3,4-0.6,7.9-0.8,10.8c-1.5,19.8-1,31-0.4,36.9c0.6,5.2-2.5,9.9-7.4,11.6l-16.1,5.4C462.5,168.2,461.2,168.4,459.9,168.3z
				 M460.9,97c-2.5-0.1-4.6,1.8-4.8,4.4c-0.3,3.7-0.6,7.3-0.8,10l0,0c-1.5,20.6-1.4,35.9,0.3,46.7c0.2,1.4,1,2.6,2.2,3.3
				c1.2,0.7,2.6,0.9,4,0.4l16.1-5.4c2.1-0.7,3.4-2.8,3.2-5c-0.7-6.2-1.2-17.8,0.3-38.1c0.2-2.9,0.5-6.8,0.8-10.8
				c0.1-1.3-0.3-2.6-1.2-3.5c-0.9-1-2.1-1.5-3.4-1.6L460.9,97z M452.2,111.2L452.2,111.2L452.2,111.2z"/>
		</g>
		<g>
			<path class="st3" d="M503.7,221.1c-1.1,0-2.1-0.2-3.1-0.5c-3-1-5.4-3.2-6.6-6l-6.7-15.4c-2.2-4.9-0.5-10.6,3.9-13.5
				c7-4.6,11.5-13.6,13-26c1.6-13.5,1.6-46.9,1.6-56.9c0-3,1.2-5.8,3.3-7.9c2.1-2.1,5-3.2,8-3.1l16.7,0.4c6,0.2,10.7,4.9,10.7,10.9
				c0.1,16.6-0.1,46.6-1.8,61.2c-3.9,32.3-20.1,47.9-32.9,55.3C507.7,220.7,505.7,221.2,503.7,221.1z M516.7,98
				c-1.3,0-2.5,0.4-3.4,1.3c-0.9,0.9-1.4,2.1-1.4,3.4c0,10,0.1,43.8-1.6,57.7c-2.2,18.1-9.8,26.6-15.8,30.5
				c-1.8,1.2-2.5,3.6-1.6,5.7l6.7,15.4c0.5,1.3,1.6,2.2,2.9,2.6c1.3,0.4,2.6,0.3,3.8-0.4c11.6-6.7,26.3-21,29.9-50.7
				c1.7-14.3,1.9-44,1.8-60.4c0-2.6-2-4.6-4.6-4.7L516.7,98z"/>
		</g>
		<path class="st1" d="M460.1,160.8c-1.4,0-3-1-3.3-2.9c-1.7-10.8-1.8-26-0.3-46.4c0.2-2.7,0.5-6.3,0.8-10c0.1-1.8,1.7-3.2,3.5-3.2
			l16.7,0.4c0.9,0,1.8,0.4,2.5,1.1c0.6,0.7,0.9,1.6,0.9,2.6c-0.3,4-0.6,7.9-0.8,10.8c-1.5,20.4-1,32.1-0.3,38.3
			c0.2,1.6-0.8,3.1-2.3,3.6l-16.1,5.4C460.9,160.8,460.5,160.8,460.1,160.8L460.1,160.8z"/>
		<path class="st1" d="M503.9,213.6c-1.3,0-2.5-0.8-3.1-2.1l-6.7-15.4c-0.7-1.5-0.2-3.3,1.1-4.1c6.2-4.1,14.1-12.8,16.4-31.4
			c1.7-13.9,1.7-47.8,1.6-57.8c0-0.9,0.4-1.8,1-2.5c0.7-0.7,1.5-1,2.5-1l16.7,0.4c1.9,0,3.3,1.5,3.3,3.4c0.1,13.2,0,45.5-1.8,60.3
			c-3.5,29.2-17.8,43.1-29.2,49.7C505.1,213.5,504.5,213.6,503.9,213.6L503.9,213.6z"/>
		<path class="st8" d="M477.5,155.1c1.5-0.5,2.5-2,2.3-3.6c-0.7-6.2-1.2-17.9,0.3-38.3c0.2-2.9,0.5-6.8,0.8-10.8c0-0.5,0-1-0.2-1.4
			l-15.8-0.4c-1.9,0-3.5,1.4-3.6,3.3c-0.3,3.7-0.6,7.3-0.8,10c-1.5,20.5-1.4,35.7,0.3,46.5c0,0.1,0.1,0.2,0.1,0.3
			c0.2,0,0.3-0.1,0.5-0.1L477.5,155.1z M464,158.7C464,158.7,464,158.7,464,158.7C464,158.7,464,158.7,464,158.7z"/>
		<path class="st8" d="M535,163.3c1.8-14.8,1.8-47.1,1.8-60.3c0-0.4-0.1-0.8-0.2-1.1l-15.8-0.4c-1,0-1.9,0.3-2.6,1
			c-0.7,0.7-1.1,1.6-1.1,2.5c0,10.1,0.1,44-1.6,57.8c-2.3,18.6-10.1,27.3-16.3,31.3c-1.3,0.9-1.8,2.7-1.1,4.3l6.5,14.9
			c0.4-0.1,0.8-0.2,1.2-0.4C517.2,206.5,531.5,192.5,535,163.3z M521.9,105.1C521.9,105.1,521.9,105.1,521.9,105.1
			C521.9,105.1,521.9,105.1,521.9,105.1z"/>
		<path class="st3" d="M513,201.9c-0.7,0-1.3-0.2-1.8-0.7c-1.1-1-1.2-2.7-0.1-3.8c4.5-4.9,8.1-10.8,10.7-17.7
			c0.4-1.2,0.8-2.4,1.2-3.6c0.2-0.6,0.3-1,0.5-1.6c0.4-1.4,1.9-2.3,3.3-1.9c1.4,0.4,2.3,1.9,1.9,3.3c-0.2,0.6-0.3,1.1-0.5,1.8
			c-0.4,1.3-0.8,2.6-1.3,3.8c-2.8,7.6-6.8,14.2-11.8,19.5C514.4,201.6,513.7,201.9,513,201.9z"/>
		<path class="st3" d="M469.7,153.6c-1.1,0-2.2-0.7-2.6-1.8c-0.5-1.4,0.3-2.9,1.7-3.4l1.2-0.4c0.2-0.1,0.4-0.3,0.4-0.6
			c-0.2-2.5-0.3-5.3-0.3-8.3c0-1.5,1.2-2.7,2.7-2.7c0,0,0,0,0,0c1.5,0,2.7,1.2,2.7,2.7c0,2.9,0.1,5.6,0.3,8c0.2,2.7-1.5,5.2-4,6.1
			l-1.2,0.4C470.3,153.6,470,153.6,469.7,153.6z"/>
		<path class="st3" d="M482.5,99.3c-0.8,0.2-1.5,0.4-2.3,0.7c-0.9-1.1-1.9-2.1-2.6-2.4c-2.7-1.2-3.8-0.1-5.1-0.1
			c-1.3,0-12.5-1.2-13.5-0.2c-1,1-5.2,3.2-5.9,5.8c-0.7,2.6-1.8,7.6-1.8,7.6c0.1,2.1-2.6,12.3-0.1,11.8c2.5-0.6,4.8-3.3,4.9-6
			c0.1-3.6,0.1-8.2,3.4-7.2c3,0.9,6.5,1.9,11.2-0.2c2.4-1.1,2.8-2.4,5.7-5.4c0.5-0.5,0.9-0.8,1.3-0.9c0,0,0,0,0,0
			c0,0,3.3-0.5,3.2,4.9c-0.1,5.7,1.6,4,2.1,2.8S485.9,98.5,482.5,99.3z"/>
		<path class="st3" d="M510.7,114.9c-0.8-2.5,0-8.2,0.7-10.7c0.6-2.4,2.3-7.2,4.9-8c2.6-0.7,16.2,0.2,21.9,4.8
			c4.9,4,4.9,12.8,5.2,15.5c0.3,2.8-1.6,6.8-1.6,3c0-1.8-4.2-2.5-4.6-3.1c-1.9-2.3-3.2,4.8-9.4,3.5c-3.3-0.7-5.1-6-5.9-7.7
			c-2.7-6.3-8.7-2.5-8.7,2.5C513.1,114.9,511.9,119.1,510.7,114.9z"/>
		<path class="st3" d="M527.8,170.5c-0.1,0-0.2,0-0.4,0c-1.1-0.2-2.6-1.1-2.3-3.2c0,0,0,0,0-0.1c0.3-2.1,2-2.6,3.1-2.4
			c1.1,0.2,2.5,1.2,2.2,3.2C530.2,169.9,528.8,170.5,527.8,170.5z"/>
	</g>
	<g>
		<g>
			<path class="st3" d="M357.7,191.7c-2.3,0-4.6-0.5-6.8-1.5c-3.9-1.9-6.8-5.2-8.1-9.3l-5.2-15.8c-2.6-8,1.5-16.5,9.2-19.5
				c9.6-3.7,17.2-7.6,24.9-12.6c9.2-6.1,14.6-12.1,17.6-16.1c-16.5,0.1-32.9,0.8-47.3,2.1c-4.2,0.4-8.3-1-11.5-3.7
				c-3.2-2.8-5.2-6.6-5.4-10.8l-1.2-16.6c-0.6-8.5,5.8-16,14.3-16.7c21-1.8,44.5-2.5,68-2.2c9.7,0.2,18.9,4.2,25.7,11.3
				c7.1,7.5,10.9,17.5,10.6,28.3c-0.6,22.1-17.5,46.8-44.1,64.5c-10.8,7.2-21.7,12.7-35.1,17.8C361.5,191.4,359.6,191.7,357.7,191.7
				z"/>
		</g>
		<g>
			<g>
				<path class="st3" d="M435.4,108.7c-16,0-29-13-29-29c0-16,13-29,29-29s29,13,29,29C464.4,95.8,451.4,108.7,435.4,108.7z"/>
			</g>
		</g>
		<g>
			<path class="st3" d="M436.9,58.1c-9.9,0-18,8.1-18,18s8.1,18,18,18c9.9,0,18-8.1,18-18S446.8,58.1,436.9,58.1z M436.9,100.3
				c-13.4,0-24.2-10.9-24.2-24.2c0-13.4,10.9-24.2,24.2-24.2c13.4,0,24.2,10.9,24.2,24.2C461.1,89.4,450.3,100.3,436.9,100.3z"/>
		</g>
		<path class="st5" d="M356.1,175.7c-1.5,0-2.8-0.9-3.3-2.4l-5.2-15.8c-0.6-1.7,0.3-3.6,2-4.3c10.5-4,18.9-8.3,27.3-13.9
			c8.4-5.6,15.5-12.1,20.6-18.9c2.8-3.7,3.3-8.7,1.2-12.9c-2.1-4.2-6.3-6.8-11-6.8c-16.9,0.1-33.6,0.9-48.4,2.1c-0.1,0-0.2,0-0.3,0
			c-1.8,0-3.3-1.4-3.4-3.2l-1.2-16.6c-0.1-1.9,1.3-3.5,3.1-3.6c17-1.4,36-2.2,55.1-2.2c3.9,0,7.8,0,11.7,0.1
			c6.4,0.1,12.5,2.8,17,7.5c4.8,5.1,7.4,12,7.2,19.4c-0.5,18.2-15.3,39.1-38.6,54.6c-10,6.7-20.1,11.8-32.6,16.6
			C356.9,175.6,356.5,175.7,356.1,175.7L356.1,175.7z"/>
		<path class="st3" d="M356.1,183.2c-1.6,0-3.2-0.4-4.7-1.1c-2.7-1.3-4.8-3.6-5.7-6.5l-5.2-15.8c-1.8-5.6,1-11.6,6.4-13.6
			c9.9-3.8,17.9-7.8,25.8-13.1c9.7-6.5,15.6-12.9,18.8-17.2c1.1-1.5,1.3-3.3,0.4-5c-0.8-1.6-2.4-2.6-4.2-2.6c0,0,0,0,0,0
			c-16.6,0.1-33.1,0.9-47.7,2.1c-2.9,0.2-5.8-0.7-8-2.6c-2.2-1.9-3.6-4.6-3.8-7.6L327,83.6c-0.4-5.9,4.1-11.2,10-11.7
			c20.9-1.8,44.3-2.5,67.5-2.1c8.5,0.1,16.4,3.6,22.3,9.8l0,0c6.3,6.5,9.5,15.4,9.3,24.9c-0.6,20.6-16.6,43.8-42,60.7
			c-10.5,7-21.1,12.4-34.2,17.3C358.7,183,357.4,183.2,356.1,183.2z M387.7,102.1c4.2,0,7.9,2.3,9.8,6c1.9,3.7,1.5,8.2-1,11.5
			c-5,6.6-12,13.1-20.3,18.6c-8.3,5.5-16.6,9.8-27,13.8c-2.3,0.9-3.5,3.5-2.7,5.9l5.2,15.8c0.4,1.2,1.3,2.2,2.5,2.8
			c1.2,0.6,2.5,0.6,3.7,0.2c12.6-4.8,22.8-9.9,32.9-16.7c23.7-15.8,38.7-37.1,39.2-55.7c0.2-7.8-2.5-15.1-7.6-20.4
			c-4.8-5-11.1-7.8-17.9-7.9c-23-0.4-46.2,0.4-66.9,2.1c-2.5,0.2-4.5,2.5-4.3,5l1.2,16.6c0.1,1.3,0.7,2.4,1.6,3.3
			c1,0.8,2.2,1.2,3.4,1.1C354.2,103,370.9,102.2,387.7,102.1C387.7,102.1,387.7,102.1,387.7,102.1z"/>
		<path class="st1" d="M433.8,93.9c-9.2,0-16.7-7.5-16.7-16.7s7.5-16.7,16.7-16.7c9.2,0,16.7,7.5,16.7,16.7S443,93.9,433.8,93.9z"/>
		<path class="st1" d="M356.1,175.7c-1.5,0-2.8-0.9-3.3-2.4l-5.2-15.8c-0.6-1.7,0.3-3.6,2-4.3c10.5-4,18.9-8.3,27.3-13.9
			c8.4-5.6,15.5-12.1,20.6-18.9c2.8-3.7,3.3-8.7,1.2-12.9c-2.1-4.2-6.3-6.8-11-6.8c-16.9,0.1-33.6,0.9-48.4,2.1c-0.1,0-0.2,0-0.3,0
			c-1.8,0-3.3-1.4-3.4-3.2l-1.2-16.6c-0.1-1.9,1.3-3.5,3.1-3.6c17-1.4,36-2.2,55.1-2.2c3.9,0,7.8,0,11.7,0.1
			c6.4,0.1,12.5,2.8,17,7.5c4.8,5.1,7.4,12,7.2,19.4c-0.5,18.2-15.3,39.1-38.6,54.6c-10,6.7-20.1,11.8-32.6,16.6
			C356.9,175.6,356.5,175.7,356.1,175.7L356.1,175.7z"/>
		<path class="st8" d="M417.8,81.4c-0.1-0.1-0.3-0.1-0.4-0.2c0.1,0.1,0.3,0.2,0.4,0.3C417.8,81.5,417.8,81.5,417.8,81.4z"/>
		<g>
			<path class="st8" d="M426.4,92c-0.1-0.2-0.7-1-0.8-1.2c-1.6-1.6-4-3.9-4-3.9l-3.1-3.5c-0.2-0.6-0.5-1.2-0.6-1.8
				c-0.1-0.1-0.3-0.2-0.4-0.3c-2.8-1.1-5.7-1.8-8.8-1.8c-22.9-0.4-46.3,0.4-66.8,2.1c-1.9,0.2-3.3,1.9-3.2,3.8l1.2,16.6
				c0,0.3,0.1,0.5,0.2,0.8c14.6-1.2,31.2-1.9,47.9-2.1c3.1,0,6.1,1.2,8.3,3.2c2.9,1,5.3,3.1,6.7,5.9c2.1,4.1,1.6,9-1.2,12.7
				c-5.1,6.7-12.2,13.3-20.6,18.9c-8.4,5.6-16.8,9.9-27.3,13.9c-1.7,0.7-2.6,2.6-2,4.4l5.1,15.8c0.2,0,0.4-0.1,0.5-0.2
				c12.6-4.8,22.6-9.9,32.6-16.6c23.3-15.5,38.1-36.5,38.6-54.6C428.9,99.8,428,95.7,426.4,92z"/>
			<path class="st8" d="M443.8,63.8c-1.8-0.7-3.7-1-5.8-1c-9.3,0-16.8,7.5-16.8,16.8c0,1.4,0.2,2.8,0.5,4.2c0.2,0.7,0.4,1.5,0.7,2.1
				c0.4,0.9,0.9,1.8,1.4,2.7c0,0.2-0.2,0.3-0.3,0.2c0,0,0.4,2,1.9,2.9c1.6,1,2.5,1.2,2.5,1.2l-0.1-0.1c0.7,0.3,1.5,0.5,2.3,0.7
				c1.2,0.3,2.5,0.4,3.8,0.4c9.2,0,16.7-7.5,16.7-16.7C450.6,71.7,447.9,66.9,443.8,63.8z"/>
		</g>
		<path class="st3" d="M377.6,161.9c-0.9,0-1.9-0.5-2.4-1.4c-0.7-1.3-0.3-2.9,1-3.7c3.1-1.7,6-3.6,9.1-5.6c1.3-0.9,2.5-1.7,3.8-2.6
			c1.2-0.9,2.9-0.6,3.8,0.6c0.9,1.2,0.6,2.9-0.6,3.8c-1.3,0.9-2.6,1.8-3.9,2.7c-3.1,2.1-6.2,4-9.4,5.8
			C378.5,161.8,378,161.9,377.6,161.9z"/>
		<path class="st9" d="M420.2,89.2c-4-3.5-6.1-7-6.1-12.7"/>
		<path class="st3" d="M432.3,55.7c-10.9,1.9-14.9,8.4-16.1,10.8c-0.3,0.6-0.4,1.2-0.4,1.8l-2.7,5.2c-2.3-3.1,2.4,7.4,6.3,12.6
			c0.7,1-3.5-7.2-1.1-14.8c1.6-5.1,4.6-7.1,7.8-8.2c7.8-2.5,9.4,1.4,9.2,4.9c0,0.4,0,0.8,0,1.2c-0.2,1.1-0.5,1.7-1.2,2.2
			c-1.6,0.8-3,2-3.2,4.5c-0.3,3,2.5,5.5,5.7,5.5c3.1,0,5.7-2.5,5.7-5.5c0-1-0.1-2.2-0.2-3.4c1.9-1.8,6.1-3.9,8.4,1.9
			C451.1,76.4,452.6,52.3,432.3,55.7z"/>
		<path class="st3" d="M400.5,71.6c-9.9,0.8-57.9,2.9-57.9,2.9s-7.5-0.2-9.9,2.5c-1.4,1.6-1.7,3-1.4,4c-0.2,0.4-0.2,0.8,0,1.3
			c1.2,2.6,0.2,12.9,3.8,9.4c0.3-0.3-0.9-4.5,2.4-5.4c1.2-0.3,2.5,0,3.5,0.8c3.7,2.5,11.1,1.2,12.5-0.1c5.7-2.6,9.2-6.9,20.1-9
			c5.5-1.1,11.5-1.6,17.8,4.7c4.7,4.7,10.9,7.2,17.2,3.8c3.2-1.7,6.7-6.5,6.7-6.5S410.3,70.8,400.5,71.6z"/>
		<path class="st3" d="M370.8,165.2c-1.2,0-2-0.8-2.4-1.5c-0.5-1-0.5-2.8,1.4-3.7c0,0,0,0,0,0c1.9-0.9,3.3,0.2,3.7,1.2
			c0.5,1,0.5,2.8-1.4,3.7C371.7,165.1,371.2,165.2,370.8,165.2z"/>
	</g>
</g>
</svg>
