<?xml version="1.0" encoding="utf-8"?>
<!-- Generator: Adobe Illustrator 24.0.3, SVG Export Plug-In . SVG Version: 6.00 Build 0)  -->
<svg version="1.1" id="レイヤー_1" xmlns="http://www.w3.org/2000/svg" xmlns:xlink="http://www.w3.org/1999/xlink" x="0px"
	 y="0px" viewBox="0 0 592 86" width="592" height="86" style="enable-background:new 0 0 592 86;" xml:space="preserve">
<style type="text/css">
	.st0{fill:#00A041;}
	.st1{fill:#008CD6;}
</style>
<polygon id="path758" class="st0" points="102.7,34.2 0,34.2 0,0 102.7,0 102.7,34.2 "/>
<polygon id="path760" class="st1" points="102.7,76.1 0,76.1 0,41.8 102.7,41.8 102.7,76.1 "/>
<polygon id="path764" class="st1" points="140.7,2.7 140.7,73.4 155.1,73.4 155.1,42.5 185,42.5 185,28.8 155.1,28.8 155.1,16.3 
	185.5,16.3 185.5,2.7 "/>
<path class="st1" d="M227.3,63.2v-23c0-7.6-3.9-17.2-20.5-17.2c-6.5,0-11.8,1.5-15.4,2.9v12.5c4.1-2.6,8.6-3.9,13.6-3.9
	c4.5,0,9,1.5,9,6.8v0.3c-2.2-0.8-5-1.3-7.9-1.3c-11.3,0-19.6,5.9-19.6,17.6c0,11.4,9.3,15.7,16.8,15.7c4.7,0,8.7-1.5,11.3-3.6
	c0.3,1.5,0.6,2.7,1.1,3.3h14.8C228.6,71.9,227.3,69.1,227.3,63.2 M199.8,56.4c0-3.9,3.4-6.5,8.1-6.5c2.4,0,4.4,0.5,5.9,1.4v8.4
	c-1.4,1.2-3.7,2.7-7.1,2.7C202.4,62.3,199.8,59.8,199.8,56.4"/>
<path class="st1" d="M519.1,63.2v-23c0-7.6-3.9-17.2-20.5-17.2c-6.5,0-11.9,1.5-15.4,2.9v12.5c4.1-2.6,8.7-3.9,13.6-3.9
	c4.5,0,8.9,1.5,8.9,6.8v0.3c-2.2-0.8-5-1.3-7.9-1.3c-11.3,0-19.6,5.9-19.6,17.6c0,11.4,9.3,15.7,16.8,15.7c4.7,0,8.7-1.5,11.3-3.6
	c0.3,1.5,0.7,2.7,1.1,3.3h14.8C520.4,71.9,519.1,69.1,519.1,63.2 M491.6,56.4c0-3.9,3.4-6.5,8.1-6.5c2.4,0,4.4,0.5,5.9,1.4v8.4
	c-1.4,1.2-3.7,2.7-7.1,2.7C494.1,62.3,491.6,59.8,491.6,56.4"/>
<path id="path784" class="st1" d="M287,23.5c-5.8,0-10.1,1.4-14.1,5.7c-2.8-3.6-7.3-5.7-12.7-5.7c-4.4,0-8.5,1.3-12.3,4.6V24h-12.6
	v49.3h13.5V40.1c1.6-2,3.9-3.7,7.1-3.7c4.1,0,6.4,2.8,6.4,7.8v29.2h13.8V39.8c1.6-2,3.8-3.4,7-3.4c4.4,0,6.4,3.1,6.4,7.8v29.2h13.8
	V39.2C303.3,29.9,297.4,23.5,287,23.5"/>
<rect id="path786" x="335" y="2.7" class="st1" width="13.5" height="70.7"/>
<polygon id="path790" class="st1" points="439.6,24.7 421.7,2.7 406.9,2.7 406.9,73.4 421.7,73.4 421.7,24.7 439.6,48.3 457.4,24.7 
	457.4,73.4 472.2,73.4 472.2,2.7 457.4,2.7 "/>
<rect id="path792" x="312.2" y="24" class="st1" width="13.5" height="49.3"/>
<path id="path804" class="st1" d="M318.9,1.6c-4.8,0-8.8,3.9-8.8,8.8c0,4.8,3.9,8.7,8.8,8.7c4.8,0,8.8-3.9,8.8-8.7
	C327.7,5.5,323.8,1.6,318.9,1.6"/>
<path id="path808" class="st1" d="M539.5,29.2V24h-12.9v49.3h13.5v-31c2-2.5,5.1-4.8,9.7-4.8c3.5,0,6.1,1.4,7.6,2.5V25.2
	c-1.7-1.2-4.3-1.8-6.6-1.8C547,23.4,542.8,24.9,539.5,29.2"/>
<path id="path812" class="st1" d="M586.3,60.8c-4.3,0-5.9-3.3-5.9-7V37h11.5V24h-11.5V5.4l-13.3,5.7v13h-7.3V37h7.3v18.8
	c0,10.2,4.1,18.2,16.1,18.2c3.6,0,6.7-0.5,8.8-1.4V58.9C591.1,60,589.3,60.8,586.3,60.8"/>
<polygon id="path816" class="st1" points="364.8,86.2 379.9,86.2 402.7,24 387.9,24 378.5,50.7 368.3,24 352.9,24 371.5,68.8 "/>
</svg>
