<?xml version="1.0" encoding="utf-8"?>
<!-- Generator: Adobe Illustrator 24.0.3, SVG Export Plug-In . SVG Version: 6.00 Build 0)  -->
<svg version="1.1" id="レイヤー_1" xmlns="http://www.w3.org/2000/svg" xmlns:xlink="http://www.w3.org/1999/xlink" x="0px"
	 y="0px" viewBox="0 0 1716 271" width="1716" height="271" style="enable-background:new 0 0 1716 271;" xml:space="preserve">
<style type="text/css">
	.st0{fill-rule:evenodd;clip-rule:evenodd;fill:#497DBB;}
</style>
<path class="st0" d="M1637.8,166.7V54.6l-1.4-1.4h-1.4l-22.4-1.4h-7c0-1.4-1.4-1.4-2.8-2.8c0,0-1.4-1.4-1.4-2.8
	c-1.4-1.4-1.4-2.8-1.4-5.6V9.8c0-1.4,0-2.8,1.4-4.2c0-1.4,0-1.4,1.4-2.8c1.4,0,2.8-1.4,2.8-1.4c1.4-1.4,2.8-1.4,4.2-1.4h98.1
	c0,0,1.4,0,1.4,1.4c1.4,0,1.4,0,2.8,1.4c1.4,0,2.8,1.4,2.8,2.8s1.4,2.8,1.4,5.6V42c0,1.4,0,2.8-1.4,4.2c0,1.4,0,1.4-1.4,2.8
	l-1.4,1.4c-1.4,1.4-2.8,1.4-2.8,1.4h-4.2l-19.6,1.4h-2.8c-1.4,0-1.4,1.4-2.8,1.4v161.1l2.8,2.8h26.6c0,1.4,1.4,1.4,2.8,1.4
	c0,1.4,1.4,1.4,1.4,2.8c1.4,0,1.4,1.4,1.4,1.4l1.4,1.4v35c0,1.4-1.4,2.8-1.4,4.2c-1.4,1.4-1.4,2.8-2.8,2.8c0,1.4-1.4,1.4-2.8,1.4
	c-1.4,1.4-2.8,1.4-2.8,1.4h-96.7c-1.4,0-2.8,0-2.8-1.4c-1.4,0-2.8,0-4.2-1.4c0-1.4-1.4-1.4-1.4-2.8c-1.4-1.4-1.4-4.2-1.4-5.6v-33.6
	c0-1.4,1.4-2.8,1.4-2.8c0-1.4,1.4-1.4,1.4-1.4c1.4-1.4,1.4-1.4,2.8-1.4c1.4-1.4,2.8-1.4,4.2-1.4h19.6c0,0,1.4,0,1.4-1.4v-1.4
	c0-1.4-1.4-1.4-2.8-2.8l-117.7-106.5h-2.8v107.9c0,0,0,1.4,1.4,2.8h1.4c0,1.4,0,1.4,1.4,1.4h26.6c1.4,0,2.8,0,4.2,1.4
	c0,0,1.4,0,1.4,1.4c1.4,0,1.4,1.4,1.4,1.4c1.4,1.4,1.4,1.4,1.4,2.8s0,1.4,1.4,2.8l-1.4,32.2v4.2l-2.8,2.8c0,0-1.4,1.4-2.8,1.4
	s-1.4,1.4-2.8,1.4h-98.1c-1.4,0-2.8-1.4-4.2-1.4c-1.4-1.4-2.8-1.4-2.8-2.8c-1.4,0-1.4-1.4-2.8-2.8l1.4-39.2c0,0,0-1.4,1.4-1.4
	c0-1.4,1.4-2.8,1.4-2.8c1.4,0,2.8-1.4,4.2-1.4h2.8l22.4-1.4h1.4c0-1.4,1.4-2.8,1.4-4.2V57.4c0-1.4-1.4-2.8-1.4-2.8
	c-1.4-1.4-1.4-1.4-2.8-1.4h-23.8c-1.4-1.4-1.4-1.4-2.8-1.4c0-1.4-1.4-1.4-1.4-1.4c-1.4-1.4-2.8-2.8-2.8-4.2V5.6c0,0,0-1.4,1.4-1.4
	c0-1.4,1.4-1.4,2.8-2.8h4.2c0,0,0-1.4,1.4-1.4h92.4c1.4,0,2.8,1.4,5.6,1.4h1.4c1.4,0,1.4,0,1.4,1.4c1.4,0,2.8,1.4,2.8,2.8
	c1.4,0,1.4,1.4,1.4,2.8v37.8c0,1.4-1.4,1.4-1.4,2.8c0,1.4-1.4,1.4-1.4,1.4c-1.4,1.4-1.4,1.4-2.8,1.4c0,1.4-1.4,1.4-2.8,1.4h-21h-2.8
	l-1.4,1.4L1637.8,166.7L1637.8,166.7z M1224.5,270.4c-2.8,0-5.6-1.4-7-1.4c-2.8,0-4.2-1.4-5.6-2.8c-2.8,0-4.2-1.4-5.6-1.4
	c0-1.4-1.4-1.4-1.4-2.8c-1.4,0-2.8-1.4-4.2-2.8c-1.7-1.6-3.2-3.5-4.2-5.6c-1.4-1.4-1.4-4.2-2.8-5.6c0-2.8-1.4-4.2-1.4-7
	c0-2.8,0-5.6-1.4-8.4l1.4-200.3c0-2.8,0-8.4,1.4-9.8c0-1.4,1.4-4.2,2.8-7c1.1-2.5,3.1-4.5,5.6-5.6l4.2-4.2c1.4-1.4,4.2-2.8,5.6-4.2
	c2.8,0,4.2-1.4,5.6-1.4h154.1c2.8,0,5.6,0,7,1.4c2.8,0,4.2,0,5.6,1.4c2.8,1.4,4.2,2.8,7,4.2c1.4,1.4,4.2,4.2,5.6,4.2v1.4
	c1.4,1.4,1.4,2.8,2.8,2.8c1.4,2.8,2.8,4.2,2.8,7c1.4,1.4,1.4,4.2,2.8,5.6v203.1c0,4.2,0,8.4-1.4,11.2c0,1.4-1.4,4.2-1.4,7
	c-1.4,1.4-2.8,4.2-4.2,5.6c0,1.4-1.4,1.4-1.4,2.8c-1.4,1.4-2.8,2.8-4.2,4.2c0,0-1.4,1.4-2.8,1.4c-1.4,1.4-4.2,2.8-5.6,4.2
	c-2.8,0-4.2,1.4-5.6,1.4c-2.8,0-7,1.4-11.2,1.4L1224.5,270.4L1224.5,270.4z M1352,218.6c1.4-1.4,4.2-1.4,5.6-1.4
	c1.4-1.4,2.8-2.8,4.2-2.8c0-1.4,0-1.4,1.4-2.8c0-1.4,1.4-2.8,1.4-2.8V65.9v-5.6c-1.4-1.4-1.4-2.8-2.8-2.8c0-1.4-1.4-2.8-2.8-2.8
	c0,0-1.4-1.4-2.8-1.4c-1.4,0-2.8-1.4-2.8-1.4h-106.5c-1.4,0-5.6,1.4-7,1.4c0,0-1.4,0-2.8,1.4l-1.4,1.4c-1.4,1.4-2.8,2.8-2.8,4.2
	c-1.4,0-1.4,1.4-1.4,2.8v141.5c0,1.4,1.4,4.2,1.4,5.6c0,1.4,1.4,2.8,2.8,4.2l1.4,1.4c1.4,0,2.8,1.4,4.2,1.4c1.4,0,4.2,1.4,5.6,1.4
	L1352,218.6L1352,218.6L1352,218.6z M1119.4,109.3c2.8,0,4.2,0,5.6,1.4c2.8,0,8.4,1.4,8.4,1.4c2.8,1.4,4.2,2.8,7,4.2l5.6,5.6
	l2.8,2.8c0,1.4,1.4,2.8,1.4,4.2c1.4,2.8,2.8,4.2,2.8,5.6c0,2.8,1.4,4.2,1.4,5.6v98.1c0,1.4-1.4,4.2-1.4,5.6c0,2.6-1,5.1-2.8,7
	c0,1.4-1.4,2.8-2.8,5.6c-1.7,1.6-3.2,3.5-4.2,5.6c-1.4,1.4-2.8,1.4-4.2,2.8c-1.4,1.4-4.2,2.8-5.6,2.8c-2.8,1.4-5.6,2.8-8.4,2.8
	H969.5h-2.8c-2.8-1.4-4.2-1.4-7-2.8c-1.4-1.4-4.2-2.8-5.6-4.2c-2.1-1-4-2.5-5.6-4.2l-2.8-2.8c0-1.4-2.8-5.6-2.8-8.4
	c-1.4-1.4-1.4-2.8-1.4-4.2c-1.4-2.8-1.4-7-1.4-9.8v-46.3v-9.8c1.4-1.4,1.4-2.8,1.4-2.8c0-1.4,1.4-1.4,1.4-2.8c1.4,0,1.4-1.4,2.8-1.4
	c0-1.4,1.4-1.4,2.8-2.8h21c1.4,1.4,2.8,1.4,4.2,1.4c1.4,0,2.8,1.4,2.8,1.4c1.4,1.4,2.8,2.8,2.8,2.8c1.4,1.4,1.4,2.8,1.4,4.2v25.2
	c1.4,1.4,1.4,2.8,1.4,4.2c0,1.4,1.4,2.8,1.4,4.2c1.4,0,1.4,1.4,2.8,2.8c0,0,1.4,0,2.8,1.4h2.8c0,0,107.9,1.4,109.3,1.4
	c2.8,0,4.2-1.4,5.6-1.4c1.4,0,1.4-1.4,2.8-1.4c0-1.4,1.4-1.4,1.4-2.8c1.4,0,1.4-1.4,1.4-2.8c1.4-1.4,1.4-1.4,1.4-2.8v-46.2
	c0-1.4,0-2.8-1.4-4.2c0,0,0-1.4-1.4-1.4c0-1.4-2.8-4.2-4.2-4.2H975.1c-2.8,0-7,0-9.8-1.4c-1.4,0-4.2-1.4-5.6-1.4
	c-1.4-1.4-2.8-1.4-4.2-2.8c-1.4,0-2.8-1.4-4.2-2.8c-1.4-1.4-1.4-2.8-2.8-2.8c-1.4-1.4-2.8-2.8-2.8-4.2c-1.4-1.4-2.8-4.2-2.8-5.6
	c-1.4-2.8-1.4-4.2-2.8-7V35c0-2.8,1.4-5.6,1.4-8.4c0-1.4,1.4-4.2,1.4-5.6c1.4-1.4,2.8-4.2,4.2-5.6c0-1.4,1.4-2.8,1.4-2.8l5.6-5.6
	c1.4-1.4,7-2.8,8.4-4.2c1.4,0,2.8-1.4,4.2-2.8l155.5,1.4c1.4,0,4.2,0,7,1.4c2-0.1,3.9,0.4,5.6,1.4c1.4,0,2.8,1.4,4.2,2.8
	c1.4,1.4,4.2,2.8,5.6,4.2c1.4,1.4,2.8,2.8,4.2,5.6c0,0,1.4,1.4,1.4,2.8c1.4,2.8,2.8,5.6,2.8,8.4c1.4,2.8,1.4,5.6,1.4,8.4V84
	c-1.4,1.4-1.4,2.8-2.8,4.2c-1.4,1.4-2.8,2.8-4.2,2.8c-1.4,0-2.8,1.4-4.2,1.4H1125c-1.4,0-2.8-1.4-4.2-1.4c0,0-1.4-1.4-2.8-1.4
	c0-1.4,0-1.4-1.4-1.4c0-1.4-1.4-2.8-1.4-2.8c0-1.4-1.4-4.2-1.4-5.6v-14c0-2.8,0-4.2-1.4-5.6c0-1.4-1.4-2.8-1.4-2.8
	c-1.4-1.4-2.8-1.4-4.2-2.8c-1.4,0-4.2,0-5.6-1.4H991.9c-1.4,1.4-2.8,1.4-4.2,1.4c-1.4,1.4-2.8,1.4-4.2,2.8c-1.4,1.4-1.4,2.8-1.4,4.2
	c-1.4,1.4-1.4,2.8-1.4,4.2v35c1.4,0,1.4,1.4,1.4,2.8c0,0,1.4,1.4,1.4,2.8c1.4,0,2.8,1.4,2.8,1.4c1.4,0,1.4,1.4,2.8,1.4L1119.4,109.3
	L1119.4,109.3L1119.4,109.3z M525.4,58.9c0,0,0-1.4-1.4-2.8l-2.8-2.8h-2.8c-1.4-1.4-1.4-1.4-2.8-1.4h-25.2c-1.4-1.4-1.4-1.4-2.8-1.4
	c0-1.4-1.4-1.4-1.4-2.8l-1.4-1.4V9.8V5.6c1.4,0,1.4-1.4,2.8-2.8c0,0,1.4,0,1.4-1.4H594l2.8,2.8c1.4,1.4,1.4,2.8,2.8,4.2v37.8
	c0,0-1.4,1.4-1.4,2.8l-1.4,1.4c-1.4,0-1.4,1.4-2.8,1.4c0,0-1.4,1.4-2.8,1.4h-22.4v2.8l50.4,109.3c0,1.4,1.4,2.8,1.4,4.2h1.4l1.4-1.4
	l51.8-110.7v-1.4c0-1.4,1.4-1.4,0-2.8l-1.4-1.4h-22.4c-1.4,0-2.8,0-2.8-1.4h-1.4l-1.4-1.4c-1.4-1.4-1.4-1.4-1.4-2.8
	c-1.4-1.4-1.4-2.8-1.4-2.8V9.8c0-1.4,1.4-2.8,1.4-2.8c0-1.4,1.4-1.4,1.4-2.8l2.8-2.8h2.8c1.4,0,2.8-1.4,4.2-1.4l93.9,1.4
	c1.4,0,2.8,0,4.2,1.4h1.4l1.4,1.4c0.8,0.7,1.3,1.7,1.4,2.8c1.4,1.4,1.4,4.2,1.4,5.6v30.8c0,1.4-1.4,2.8-1.4,4.2l-1.4,1.4
	c-1.4,1.4-1.4,2.8-2.8,2.8c-1.4,0-2.8,1.4-4.2,1.4h-22.4c-1.4,0-1.4,0-1.4,1.4v1.4c0,1.4,1.4,2.8,1.4,4.2l50.5,107.9
	c0,0,0,1.4,1.4,1.4h1.4c0-1.4,1.4-1.4,1.4-2.8l51.9-110.7v-2.8l-1.4-1.4h-23.8c0-1.4-1.4-1.4-2.8-2.8l-1.4-1.4
	c-1.4-1.4-1.4-1.4-1.4-2.8v-35c0-1.4,0-2.8,1.4-2.8c0-1.4,1.4-2.8,1.4-4.2c1.4,0,2.8-1.4,2.8-1.4h102.3c1.4,0,2.8,1.4,2.8,1.4
	c1.4,1.4,1.4,2.8,2.8,2.8c0,1.4,0,1.4,1.4,2.8v33.6c0,1.4,0,2.8-1.4,4.2c0,1.4-1.4,1.4-1.4,2.8l-1.4,1.4h-1.4
	c-1.4,1.4-2.8,1.4-4.2,1.4h-23.8c-1.4,0-2.8,0-2.8,1.4c-1.4,0-1.4,1.4-2.8,2.8l-72.9,155.5c-1.4,1.4-1.4,2.8-2.8,4.2
	c0,1.4,0,1.4,1.4,1.4v1.4h21c1.4,0,2.8,0,4.2,1.4c1.4,0,2.8,1.4,2.8,1.4c1.4,1.4,2.8,2.8,2.8,4.2c1.4,0,1.4,1.4,1.4,2.8v32.2
	c0,1.4-1.4,2.8-1.4,4.2c0,0-1.4,1.4-1.4,2.8c-1.4,0-2.8,1.4-2.8,1.4c-1.4,1.4-2.8,1.4-4.2,1.4H730c-1.4,0-2.8,0-4.2-1.4
	c-1.4,0-1.4,0-2.8-1.4l-1.4-1.4c0-1.4-1.4-2.8-1.4-4.2v-33.6c0-1.4,0-2.8,1.4-4.2c0,0,1.4-1.4,1.4-2.8c0,0,1.4,0,1.4-1.4
	c1.4,0,2.8-1.4,4.2-1.4h25.2c1.4,0,1.4,0,1.4-1.4v-1.4v-1.4l-53.2-113.5v-1.4c-1.4,0-1.4,0-1.4,1.4l-1.4,1.4l-53.2,113.5v1.4
	c0,0,0,1.4,1.4,1.4h25.2c1.4,0,2.8,1.4,4.2,2.8l1.4,1.4c0,1.4,1.4,2.8,1.4,4.2v33.6c0,1.4,0,2.8-1.4,4.2c0,0,0,1.4-1.4,2.8
	c-1.4,0-1.4,1.4-2.8,1.4c-1.4,1.4-2.8,1.4-4.2,1.4h-95.3c-1.4,0-2.8,0-4.2-1.4c-1.4,0-1.4,0-2.8-1.4c0,0-1.4-1.4-1.4-2.8
	c-1.4,0-1.4-1.4-1.4-2.8v-35c0,0,0-1.4,1.4-2.8c0-1.4,1.4-2.8,1.4-2.8c1.4-1.4,1.4-1.4,2.8-1.4c1.4-1.4,1.4-1.4,2.8-1.4h22.4
	c1.4-1.4,1.4-1.4,1.4-2.8v-1.4L525.4,58.9L525.4,58.9z M318,213v2.8l1.4,1.4H339c2.8,0,4.2,0,5.6,1.4h2.8c0,1.4,1.4,1.4,2.8,2.8
	c0,1.4,1.4,1.4,1.4,2.8v36.4c0,1.4,0,2.8-1.4,4.2v1.4c-1.4,0-1.4,1.4-2.8,1.4c0,1.4-1.4,1.4-2.8,1.4c-1.4,1.4-1.4,1.4-2.8,1.4h-98.1
	c-1.4-1.4-2.8-1.4-4.2-2.8c-1.4,0-1.4-1.4-1.4-1.4c-1.4-1.4-1.4-2.8-1.4-2.8v-37.8v-2.8l2.8-2.8c0,0,1.4-1.4,2.8-1.4
	c1.4-1.4,2.8-1.4,2.8-1.4h19.6c1.4,0,1.4-1.4,1.4-1.4c1.4,0,2.8-1.4,5.6-2.8l86.9-159.7h-2.8c-1.4-1.4-2.8-1.4-4.2-1.4h-16.8
	c-1.4,0-2.8-1.4-4.2-1.4c-1.4-1.4-1.4-2.8-2.8-2.8v-4.2V9.8V7c0-1.4,1.4-1.4,1.4-2.8c0,0,1.4-1.4,2.8-1.4c0-1.4,1.4-1.4,1.4-1.4
	c1.4-1.4,2.8-1.4,2.8-1.4h96.7c2.8,0,4.2,1.4,5.6,1.4c1.4,0,1.4,1.4,2.8,2.8c0,0,1.4,1.4,1.4,2.8v37.8c0,1.4,0,1.4-1.4,2.8
	c0,1.4-1.4,1.4-1.4,2.8c-1.4,1.4-2.8,1.4-4.2,1.4h-22.4c-1.4,0-1.4,1.4-1.4,1.4h-1.4v2.8l88.3,161.1h21c1.4,0,2.8,0,4.2,1.4h2.8
	l2.8,2.8c0,1.4,1.4,1.4,1.4,2.8c0,1.4,1.4,2.8,1.4,4.2v30.8c0,1.4-1.4,2.8-1.4,4.2s-1.4,1.4-1.4,2.8l-2.8,2.8
	c-1.4,0-2.8,1.4-2.8,1.4h-99.5c0,0-1.4,0-2.8-1.4c0,0-1.4,0-2.8-1.4l-1.4-1.4l-1.4-1.4c0-1.4,0-2.8-1.4-5.6l1.4-30.8
	c0-2.8,0-4.2,1.4-5.6v-1.4c1.4-1.4,2.8-1.4,2.8-2.8c1.4,0,1.4,0,2.8-1.4h25.2l1.4-1.4v-1.4l-12.6-23.8l-2.8-2.8
	c-1.4-1.4-2.8-1.4-2.8-1.4h-95.3c-1.4,0-1.4,1.4-2.8,1.4s-1.4,1.4-2.8,2.8L318,213L318,213z M354.5,142.9c-1.4,1.4,0,2.8,0,4.2
	c0,0,1.4,0,1.4,1.4h53.2c1.4,0,2.8-1.4,4.2-1.4l1.4-1.4v-2.8l-28-49l-1.4-1.4h-1.4c-1.4,0-2.8,1.4-2.8,1.4L354.5,142.9L354.5,142.9z
	 M114.9,40.6v5.6l-4.2,4.2c-1.4,0-2.8,1.4-4.2,1.4H81.3c-1.4,1.4-2.8,1.4-2.8,1.4c0,1.4,0,1.4-1.4,2.8V213c0,1.4,1.4,1.4,1.4,2.8
	c0,0,0,1.4,1.4,1.4h91.1c1.4,0,1.4-1.4,2.8-1.4V213c1.4-5.6,0-37.8,0-42c0-1.4,1.4-1.4,1.4-2.8c0,0,1.4-1.4,1.4-2.8
	c1.4,0,1.4-1.4,2.8-1.4c1.4-1.4,2.8-1.4,4.2-1.4h21c1.4,0,2.8,0,2.8,1.4h1.4c1.4,1.4,2.8,1.4,2.8,2.8s1.4,1.4,1.4,2.8v93.9
	c-1.4,0-1.4,1.4-1.4,1.4c-0.1,1.5-1.3,2.7-2.8,2.8c0,1.4-1.4,1.4-2.8,1.4c-1.4,1.4-1.4,1.4-2.8,1.4h-192C9.8,269,8.4,269,7,269
	s-1.4-1.4-2.8-1.4l-1.4-1.4c0,0-1.4-1.4-1.4-2.8C0,262,0,260.6,0,257.8V227c0-1.4,1.4-1.4,1.4-2.8c0-1.4,0-1.4,1.4-1.4
	c0-1.4,1.4-2.8,1.4-2.8c1.4-1.4,2.8-1.4,4.2-1.4h22.4c1.4,0,1.4,0,2.8-1.4l1.4-1.4c1.4-1.4,1.4-1.4,1.4-2.8V56.1v-1.4L35,53.3
	c-1.4,0-2.8-1.4-2.8-1.4H9.8c-1.4,0-2.8,0-4.2-1.4c-1.4,0-1.4-1.4-2.8-1.4c0-1.4-1.4-2.8-1.4-2.8c0-1.4-1.4-2.8-1.4-4.2V9.8
	C0,8.4,0,7,1.4,7c0-1.4,0-2.8,1.4-2.8c0-1.4,1.4-1.4,2.8-2.8H7C8.4,0,8.4,0,9.8,0h96.7c0.7,0.8,1.7,1.3,2.8,1.4c1.4,0,1.4,0,2.8,1.4
	c0,0,1.4,1.4,1.4,2.8c1.4,1.4,1.4,1.4,1.4,2.8L114.9,40.6L114.9,40.6L114.9,40.6z"/>
</svg>
