<?xml version="1.0" encoding="utf-8"?>
<!-- Generator: Adobe Illustrator 28.0.0, SVG Export Plug-In . SVG Version: 6.00 Build 0)  -->
<svg version="1.1" id="レイヤー_1" xmlns="http://www.w3.org/2000/svg" xmlns:xlink="http://www.w3.org/1999/xlink" x="0px"
	 y="0px" viewBox="0 0 145 307" style="enable-background:new 0 0 145 307;" xml:space="preserve">
<style type="text/css">
	.st0{fill:#D7C9BB;}
	.st1{fill:#5FC494;}
	.st2{fill:#FFFFFF;}
</style>
<g>
	<g>
		<g>
			<rect x="0.4" y="0.6" class="st0" width="144.1" height="305.8"/>
			<path class="st1" d="M114,182.6H31.2c-7.7,0-14.4-5.2-16.4-12.6c-2-7.4,1.2-15.3,7.9-19.2c1.3-0.7,2.2-2,2.4-3.5
				c0.2-1.5-0.3-3-1.3-4.1c-3.6-3.8-5.3-9-4.6-14.2c0.7-5.2,3.8-9.7,8.3-12.3c1.3-0.7,2.2-2,2.4-3.5c0.2-1.5-0.3-3-1.3-4.1
				c-4.2-4.4-5.7-10.6-4.1-16.4c1.7-5.8,6.2-10.3,12.1-11.8c1.6-0.4,2.8-1.5,3.3-3.1c0.5-1.5,0.3-3.2-0.6-4.5
				c-2.1-2.9-3.3-6.4-3.3-10c0-7.5,4.9-14.1,12.1-16.3c6.9-2.1,12-7.2,13.8-13.8c1.5-5.4,1-11.1-1.2-16.2h8.9
				c9.5,0,17.3,7.5,17.5,16.7h0c0,2-0.3,4.1-1,6c-0.5,1.5-0.3,3.1,0.6,4.4c0.9,1.3,2.4,2.1,4,2.1h1.3c6.4,0,12.3,3.6,15.2,9.3
				c2.9,5.7,2.4,12.6-1.4,17.8c-0.9,1.3-1.2,3-0.7,4.5c0.5,1.5,1.8,2.7,3.4,3.1c5.8,1.5,10.4,6,12.1,11.8c1.7,5.8,0.1,12-4.1,16.4
				c-1,1.1-1.5,2.6-1.3,4.1c0.2,1.5,1.1,2.8,2.4,3.5c4.5,2.6,7.6,7.2,8.3,12.3c0.7,5.2-0.9,10.4-4.5,14.2c-1,1.1-1.5,2.6-1.3,4.1
				c0.2,1.5,1.1,2.8,2.4,3.5c6.7,3.9,9.9,11.7,7.9,19.2C128.4,177.4,121.7,182.6,114,182.6L114,182.6z M116.4,192.3v19.5
				c0,5.4-4.4,9.7-9.7,9.7H43.4c-5.4,0-9.7-4.4-9.7-9.7v-19.5H116.4z M92.7,289.6H57.3L49,231.2h52.1L92.7,289.6z"/>
		</g>
		<path class="st2" d="M72.5,0.6H0.4v51v51v51v51v51v51h72.1h72.1v-51v-51v-51v-51v-51v-51H72.5z M73.4,1.5h70.3v49.2H73.4V1.5z
			 M1.3,1.5h70.3v49.2H1.3V1.5z M71.6,52.4v49.2H1.3V52.4H71.6z M71.6,103.4v49.2H1.3v-49.2H71.6z M71.6,154.4v49.2H1.3v-49.2H71.6z
			 M71.6,205.3v49.2H1.3v-49.2H71.6z M71.6,305.5H1.3v-49.2h70.3V305.5z M143.7,305.5H73.4v-49.2h70.3V305.5z M73.4,254.6v-49.2
			h70.3v49.2H73.4z M73.4,203.6v-49.2h70.3v49.2H73.4z M73.4,152.6v-49.2h70.3v49.2H73.4z M73.4,101.7V52.4h70.3v49.2H73.4z"/>
	</g>
	<g>
		<g>
			<path class="st2" d="M100.6,19.7c0.3-1.1,0.9-2.1,1.6-2.9c0.7-0.8,1.6-1.5,2.6-2s2.3-0.7,3.6-0.7c1,0,2,0.2,3,0.5
				c0.9,0.3,1.8,0.8,2.5,1.4c0.7,0.6,1.3,1.4,1.7,2.3c0.4,0.9,0.6,1.9,0.6,3c0,1.2-0.2,2.1-0.6,3c-0.4,0.8-0.9,1.6-1.5,2.2
				c-0.6,0.6-1.3,1.2-2.1,1.8c-0.8,0.5-1.6,1-2.3,1.6c-0.8,0.5-1.5,1.1-2.3,1.7c-0.7,0.6-1.4,1.3-2,2.1h10.8v4H99.7
				c0-1.3,0.2-2.5,0.6-3.5c0.4-1,0.9-1.9,1.6-2.6c0.7-0.8,1.4-1.5,2.3-2.1s1.8-1.3,2.8-2c0.5-0.3,1-0.7,1.6-1.1s1.1-0.8,1.6-1.2
				c0.5-0.4,0.9-0.9,1.2-1.5c0.3-0.5,0.5-1.2,0.5-1.9c0-1.1-0.3-2-1-2.6c-0.6-0.6-1.5-0.9-2.5-0.9c-0.7,0-1.2,0.2-1.7,0.5
				s-0.8,0.7-1.1,1.2c-0.3,0.5-0.5,1.1-0.6,1.7c-0.1,0.6-0.2,1.2-0.2,1.8h-4.4C100.1,22.1,100.3,20.9,100.6,19.7z"/>
		</g>
		<g>
			<path class="st2" d="M36.6,37.5V22.6h-5.8v-3.5c0.8,0,1.6,0,2.3-0.2c0.8-0.1,1.4-0.4,2-0.8c0.6-0.4,1.1-0.8,1.5-1.4
				c0.4-0.6,0.7-1.3,0.8-2.2h3.7v22.9H36.6z"/>
		</g>
		<g>
			<path class="st2" d="M99.5,82.9v-4.3l9.9-13.3h4.2v13.8h3v3.8h-3v5.3h-4.4v-5.3H99.5z M109.1,71.1l-5.9,7.9h6L109.1,71.1
				L109.1,71.1z"/>
		</g>
		<g>
			<path class="st2" d="M37.5,74.6c0.6,0,1.1-0.2,1.6-0.4c0.5-0.2,0.9-0.5,1.2-0.9s0.5-0.9,0.5-1.6c0-1-0.3-1.7-1-2.3
				s-1.4-0.8-2.3-0.8c-1.2,0-2.1,0.4-2.7,1.2s-0.9,1.8-0.9,2.9h-4.4c0-1.2,0.3-2.3,0.6-3.2c0.4-1,0.9-1.8,1.6-2.5s1.5-1.2,2.5-1.6
				c1-0.4,2-0.6,3.2-0.6c0.9,0,1.8,0.1,2.7,0.4c0.9,0.3,1.7,0.7,2.5,1.2s1.3,1.2,1.8,2c0.5,0.8,0.7,1.7,0.7,2.7
				c0,1.1-0.3,2.1-0.8,2.9c-0.5,0.9-1.3,1.4-2.4,1.7v0.1c1.3,0.3,2.3,0.9,3,1.8c0.7,0.9,1.1,2.1,1.1,3.4c0,1.2-0.2,2.3-0.7,3.2
				s-1.1,1.7-1.9,2.4s-1.7,1.1-2.7,1.4c-1,0.3-2.1,0.5-3.2,0.5c-1.3,0-2.5-0.2-3.5-0.6c-1.1-0.4-2-0.9-2.7-1.6
				c-0.7-0.7-1.3-1.6-1.7-2.6c-0.4-1-0.6-2.2-0.6-3.5h4.4c0,0.6,0.1,1.2,0.3,1.8c0.2,0.6,0.4,1,0.8,1.4c0.3,0.4,0.7,0.7,1.2,1
				s1.1,0.4,1.8,0.4c1,0,1.9-0.3,2.7-1c0.7-0.6,1.1-1.5,1.1-2.6c0-0.9-0.2-1.5-0.5-2c-0.3-0.5-0.8-0.8-1.3-1
				c-0.5-0.2-1.1-0.3-1.7-0.4s-1.2,0-1.8,0v-3.3C36.4,74.6,36.9,74.6,37.5,74.6z"/>
		</g>
		<g>
			<path class="st2" d="M110.6,120.3c-0.5-0.6-1.2-0.9-2-0.9c-0.8,0-1.5,0.2-2.1,0.7c-0.6,0.5-1,1.1-1.3,1.8
				c-0.3,0.7-0.6,1.5-0.7,2.3c-0.2,0.8-0.2,1.5-0.3,2.2l0.1,0.1c0.6-0.9,1.4-1.6,2.2-2s1.8-0.6,2.9-0.6c1,0,1.9,0.2,2.9,0.6
				s1.7,1,2.4,1.7c0.6,0.7,1.1,1.5,1.3,2.4c0.3,0.9,0.4,1.8,0.4,2.7c0,1.2-0.2,2.3-0.6,3.3c-0.4,1-0.9,1.9-1.6,2.6
				c-0.7,0.8-1.6,1.3-2.5,1.8c-1,0.4-2.1,0.6-3.3,0.6c-1.7,0-3.2-0.3-4.3-1c-1.1-0.7-2-1.6-2.7-2.7c-0.7-1.1-1.1-2.4-1.4-3.8
				c-0.3-1.4-0.4-2.8-0.4-4.3c0-1.4,0.2-2.8,0.5-4.3c0.3-1.4,0.8-2.7,1.6-3.8c0.7-1.1,1.6-2.1,2.8-2.8c1.1-0.7,2.5-1.1,4.2-1.1
				c1,0,1.9,0.1,2.7,0.4c0.9,0.3,1.6,0.7,2.3,1.2c0.7,0.5,1.2,1.2,1.6,2c0.4,0.8,0.7,1.7,0.8,2.7h-4.4
				C111.5,121.5,111.2,120.8,110.6,120.3z M106.7,127.7c-0.5,0.2-0.9,0.5-1.2,0.9c-0.3,0.4-0.5,0.8-0.7,1.4
				c-0.2,0.5-0.2,1.1-0.2,1.6c0,0.5,0.1,1,0.2,1.6s0.4,1,0.7,1.4c0.3,0.4,0.7,0.7,1.2,1c0.5,0.2,1,0.4,1.6,0.4
				c0.6,0,1.1-0.1,1.5-0.4c0.4-0.2,0.8-0.6,1.1-0.9c0.3-0.4,0.5-0.8,0.7-1.3c0.2-0.5,0.2-1,0.2-1.5c0-0.5-0.1-1.1-0.2-1.6
				c-0.1-0.5-0.4-1-0.6-1.4c-0.3-0.4-0.6-0.7-1.1-1c-0.4-0.3-1-0.4-1.6-0.4C107.7,127.4,107.2,127.5,106.7,127.7z"/>
		</g>
		<g>
			<path class="st2" d="M35.3,120.2l-0.9,5.2l0.1,0.1c0.6-0.6,1.3-1.1,2-1.4c0.7-0.3,1.5-0.4,2.5-0.4c1.1,0,2.1,0.2,3,0.6
				c0.9,0.4,1.6,1,2.2,1.7c0.6,0.7,1.1,1.5,1.4,2.5c0.3,0.9,0.5,2,0.5,3c0,1.2-0.2,2.3-0.7,3.3c-0.5,1-1.1,1.9-1.8,2.6
				c-0.8,0.7-1.7,1.3-2.7,1.7c-1,0.4-2.1,0.6-3.3,0.6c-1.1,0-2.2-0.1-3.2-0.4c-1-0.3-1.9-0.7-2.7-1.4c-0.8-0.6-1.4-1.4-1.9-2.3
				c-0.5-0.9-0.7-2-0.7-3.2h4.6c0.1,1,0.5,1.9,1.2,2.5c0.7,0.6,1.5,0.9,2.6,0.9c0.6,0,1.2-0.1,1.7-0.4c0.5-0.2,0.9-0.6,1.2-1
				c0.3-0.4,0.6-0.9,0.8-1.4c0.2-0.5,0.3-1.1,0.3-1.7c0-0.6-0.1-1.1-0.3-1.7c-0.2-0.5-0.4-1-0.8-1.4c-0.3-0.4-0.8-0.7-1.2-0.9
				c-0.5-0.2-1-0.3-1.7-0.3c-0.8,0-1.5,0.1-2,0.4s-1,0.8-1.5,1.4h-4.2l2.3-12.7h12.8v3.8H35.3z"/>
		</g>
		<g>
			<path class="st2" d="M101.1,169c0.5-0.8,1.1-1.4,1.8-2c0.7-0.5,1.6-0.9,2.5-1.2s1.8-0.4,2.8-0.4c1.4,0,2.6,0.2,3.6,0.7
				c1,0.4,1.8,1,2.4,1.6s1,1.3,1.3,2c0.3,0.7,0.4,1.3,0.4,1.9c0,1.1-0.3,2.1-0.8,3c-0.6,0.9-1.4,1.5-2.5,1.8v0.1
				c1.4,0.3,2.4,1,3.2,1.9c0.7,1,1.1,2.2,1.1,3.6c0,1.2-0.2,2.3-0.7,3.2c-0.5,0.9-1.1,1.6-1.9,2.2s-1.7,1-2.7,1.3
				c-1,0.3-2.1,0.4-3.1,0.4c-1.1,0-2.2-0.1-3.2-0.4c-1-0.3-2-0.7-2.8-1.3s-1.5-1.3-2-2.2c-0.5-0.9-0.7-2-0.7-3.2
				c0-1.5,0.4-2.7,1.1-3.7c0.8-1,1.8-1.6,3.2-2v-0.1c-1.1-0.3-2-0.9-2.5-1.7c-0.6-0.9-0.9-1.8-0.9-3
				C100.4,170.7,100.6,169.8,101.1,169z M104.4,183.5c0.2,0.5,0.5,0.9,0.9,1.2c0.4,0.3,0.8,0.6,1.3,0.8c0.5,0.2,1,0.3,1.6,0.3
				c0.6,0,1.1-0.1,1.6-0.3c0.5-0.2,0.9-0.4,1.2-0.8c0.4-0.3,0.6-0.7,0.8-1.2c0.2-0.5,0.3-1,0.3-1.6c0-0.5-0.1-1-0.3-1.5
				c-0.2-0.4-0.5-0.8-0.8-1.2c-0.4-0.3-0.8-0.6-1.2-0.8s-1-0.3-1.5-0.3c-1.1,0-2.1,0.3-2.9,0.9c-0.8,0.6-1.2,1.5-1.2,2.7
				C104.1,182.4,104.2,183,104.4,183.5z M105.6,174.4c0.7,0.5,1.5,0.8,2.5,0.8c1,0,1.8-0.3,2.5-0.8c0.7-0.5,1-1.3,1-2.2
				c0-0.3,0-0.6-0.1-1c-0.1-0.4-0.3-0.7-0.5-1c-0.3-0.3-0.6-0.6-1-0.8c-0.4-0.2-1-0.3-1.8-0.3c-0.5,0-0.9,0.1-1.3,0.2
				c-0.4,0.1-0.8,0.3-1.1,0.6s-0.6,0.6-0.8,1c-0.2,0.4-0.3,0.9-0.3,1.4C104.6,173.1,104.9,173.8,105.6,174.4z"/>
		</g>
		<g>
			<path class="st2" d="M42.1,173.7c-0.9,1.5-1.7,3.2-2.3,4.9s-1.1,3.5-1.4,5.2c-0.3,1.8-0.5,3.4-0.5,4.9h-5
				c0.3-3.4,1.1-6.7,2.4-9.9c1.3-3.2,3.1-6.1,5.3-8.7H29.7v-4.3h15.6v4C44.1,170.9,43,172.2,42.1,173.7z"/>
		</g>
		<g>
			<path class="st2" d="M96.7,240.5v-14.9h-5.8v-3.5c0.8,0,1.6,0,2.3-0.2c0.8-0.1,1.4-0.4,2-0.8s1.1-0.8,1.5-1.4
				c0.4-0.6,0.7-1.3,0.8-2.2h3.7v22.9H96.7z"/>
			<path class="st2" d="M108,223.3c0.4-1.5,1.1-2.7,1.8-3.6s1.7-1.6,2.7-2c1-0.4,2.1-0.6,3.2-0.6c1.2,0,2.2,0.2,3.3,0.6s1.9,1,2.7,2
				c0.8,0.9,1.4,2.1,1.8,3.6c0.4,1.5,0.7,3.4,0.7,5.6c0,2.3-0.2,4.2-0.7,5.7c-0.4,1.5-1.1,2.8-1.8,3.7c-0.8,0.9-1.7,1.6-2.7,2
				s-2.1,0.6-3.3,0.6c-1.1,0-2.2-0.2-3.2-0.6c-1-0.4-1.9-1-2.7-2s-1.4-2.1-1.8-3.7c-0.4-1.5-0.7-3.5-0.7-5.7
				C107.4,226.7,107.6,224.8,108,223.3z M112.1,231.3c0,0.9,0.2,1.8,0.4,2.7s0.6,1.6,1.1,2.2c0.5,0.6,1.2,0.9,2.2,0.9
				c1,0,1.7-0.3,2.2-0.9c0.5-0.6,0.9-1.3,1.1-2.2c0.2-0.9,0.4-1.8,0.4-2.7c0-0.9,0.1-1.7,0.1-2.4c0-0.4,0-0.9,0-1.4
				c0-0.6-0.1-1.1-0.1-1.7c-0.1-0.6-0.2-1.2-0.3-1.8s-0.4-1.1-0.6-1.6c-0.3-0.5-0.6-0.8-1.1-1.1c-0.4-0.3-1-0.4-1.6-0.4
				c-0.6,0-1.2,0.1-1.6,0.4s-0.8,0.7-1,1.1c-0.3,0.5-0.5,1-0.6,1.6c-0.2,0.6-0.3,1.2-0.3,1.8s-0.1,1.2-0.1,1.7s0,1,0,1.4
				C112,229.6,112,230.4,112.1,231.3z"/>
		</g>
		<g>
			<path class="st2" d="M34.9,236.6c0.5,0.6,1.2,0.9,2,0.9c0.8,0,1.5-0.2,2.1-0.7c0.5-0.5,1-1.1,1.3-1.8c0.3-0.7,0.6-1.5,0.7-2.3
				c0.1-0.8,0.2-1.5,0.3-2.2l-0.1-0.1c-0.6,0.9-1.4,1.6-2.2,2s-1.8,0.6-2.9,0.6c-1,0-1.9-0.2-2.9-0.6s-1.7-1-2.4-1.7
				c-0.6-0.7-1.1-1.5-1.3-2.4c-0.3-0.9-0.4-1.8-0.4-2.7c0-1.2,0.2-2.3,0.6-3.3c0.4-1,0.9-1.9,1.6-2.6c0.7-0.8,1.6-1.3,2.5-1.8
				c1-0.4,2.1-0.7,3.3-0.7c1.7,0,3.2,0.3,4.3,1c1.1,0.7,2,1.6,2.7,2.7s1.1,2.4,1.4,3.8c0.3,1.4,0.4,2.8,0.4,4.3
				c0,1.4-0.2,2.8-0.5,4.3c-0.3,1.4-0.9,2.7-1.6,3.8c-0.7,1.1-1.6,2.1-2.8,2.8c-1.1,0.7-2.5,1.1-4.2,1.1c-1,0-1.9-0.1-2.7-0.4
				c-0.8-0.3-1.6-0.7-2.3-1.2c-0.7-0.5-1.2-1.2-1.6-2s-0.7-1.7-0.8-2.7h4.4C34,235.4,34.4,236,34.9,236.6z M38.9,229.1
				c0.5-0.2,0.8-0.5,1.1-0.9c0.3-0.4,0.5-0.8,0.7-1.4c0.2-0.5,0.2-1.1,0.2-1.6c0-0.5-0.1-1-0.2-1.6c-0.2-0.5-0.4-1-0.7-1.4
				s-0.7-0.7-1.2-1c-0.5-0.2-1-0.4-1.6-0.4c-0.5,0-1,0.1-1.5,0.4c-0.4,0.2-0.8,0.6-1.1,0.9s-0.5,0.8-0.7,1.3c-0.2,0.5-0.2,1-0.2,1.5
				c0,0.5,0.1,1.1,0.2,1.6s0.4,1,0.6,1.4s0.6,0.7,1.1,1c0.4,0.3,1,0.4,1.6,0.4C37.9,229.5,38.4,229.3,38.9,229.1z"/>
		</g>
		<g>
			<path class="st2" d="M96.7,290.6v-14.9h-5.8v-3.5c0.8,0,1.6,0,2.3-0.2c0.8-0.1,1.4-0.4,2-0.8s1.1-0.8,1.5-1.4
				c0.4-0.6,0.7-1.3,0.8-2.2h3.7v22.9H96.7z"/>
			<path class="st2" d="M108.4,272.9c0.3-1.1,0.9-2.1,1.6-2.9c0.7-0.8,1.6-1.5,2.6-2c1.1-0.5,2.3-0.7,3.6-0.7c1,0,2,0.2,3,0.5
				s1.8,0.8,2.5,1.4c0.7,0.6,1.3,1.4,1.7,2.3c0.4,0.9,0.6,1.9,0.6,3c0,1.2-0.2,2.1-0.6,3c-0.4,0.8-0.9,1.6-1.5,2.2
				c-0.6,0.6-1.3,1.2-2.1,1.8s-1.6,1-2.3,1.6s-1.5,1.1-2.3,1.7c-0.7,0.6-1.4,1.3-2,2.1h10.8v4h-16.8c0-1.3,0.2-2.5,0.6-3.5
				c0.4-1,0.9-1.9,1.6-2.6c0.7-0.8,1.4-1.5,2.3-2.1c0.9-0.7,1.8-1.3,2.8-2c0.5-0.3,1-0.7,1.6-1.1c0.6-0.4,1.1-0.8,1.6-1.2
				c0.5-0.4,0.9-0.9,1.2-1.5c0.3-0.5,0.5-1.2,0.5-1.9c0-1.1-0.3-2-1-2.6s-1.5-0.9-2.5-0.9c-0.7,0-1.2,0.2-1.7,0.5s-0.8,0.7-1.1,1.2
				c-0.3,0.5-0.5,1.1-0.6,1.7c-0.1,0.6-0.2,1.2-0.2,1.8h-4.4C107.9,275.2,108,274,108.4,272.9z"/>
		</g>
		<g>
			<path class="st2" d="M26.1,290.6v-14.9h-5.8v-3.5c0.8,0,1.6,0,2.3-0.2s1.4-0.4,2-0.8c0.6-0.4,1.1-0.8,1.5-1.4
				c0.4-0.6,0.7-1.3,0.8-2.2h3.7v22.9H26.1z"/>
			<path class="st2" d="M44.3,290.6v-14.9h-5.8v-3.5c0.8,0,1.6,0,2.3-0.2c0.8-0.1,1.4-0.4,2-0.8s1.1-0.8,1.5-1.4
				c0.4-0.6,0.7-1.3,0.8-2.2h3.7v22.9H44.3z"/>
		</g>
	</g>
</g>
</svg>
