<?xml version="1.0" encoding="utf-8"?>
<!-- Generator: Adobe Illustrator 28.0.0, SVG Export Plug-In . SVG Version: 6.00 Build 0)  -->
<svg version="1.1" id="レイヤー_1" xmlns="http://www.w3.org/2000/svg" xmlns:xlink="http://www.w3.org/1999/xlink" x="0px"
	 y="0px" viewBox="0 0 145 409" style="enable-background:new 0 0 145 409;" xml:space="preserve">
<style type="text/css">
	.st0{fill:#D7C9BB;}
	.st1{fill:#5FC494;}
	.st2{fill:#FFFFFF;}
</style>
<g>
	<g>
		<rect x="0.4" y="0.7" class="st0" width="144.1" height="407.7"/>
		<g>
			<path class="st1" d="M44.8,356.4h57.2l28.3-231c0.2-1.6-0.3-3.2-1.4-4.5c-1.1-1.2-2.6-1.9-4.3-1.9H22.1c-1.6,0-3.2,0.7-4.3,1.9
				c-1.1,1.2-1.6,2.8-1.4,4.5L44.8,356.4z M105.8,360.7H41L12.3,125.9c-0.3-2.8,0.5-5.7,2.4-7.8c1.9-2.1,4.6-3.4,7.5-3.4h102.6
				c2.8,0,5.6,1.2,7.5,3.4c1.9,2.1,2.8,5,2.4,7.8L105.8,360.7z"/>
			<path class="st1" d="M25.4,128.3l23.5,215h48.4l23.5-215H25.4L25.4,128.3z"/>
			<path class="st1" d="M120,378.4H24.2v-4.3c9.3,0,16.8-7.6,16.8-16.8h4.3c0,6.9-3.3,13-8.4,16.8h83L120,378.4z"/>
			<path class="st1" d="M122.9,378.4c-11.7,0-21.1-9.5-21.1-21.1h4.3c0,9.3,7.6,16.8,16.8,16.8L122.9,378.4z"/>
			<rect x="117.1" y="374.1" class="st1" width="5.9" height="4.3"/>
			<path class="st1" d="M78.2,115.4h-4.3c0-12.7-10.3-23-23-23c-12.7,0-23,10.3-23,23h-4.3c0-15,12.2-27.3,27.3-27.3
				C66,88.1,78.2,100.4,78.2,115.4L78.2,115.4z"/>
			<path class="st1" d="M125.1,115.1h-4.3c0-17-10.5-31.6-26.6-37.2c-14.5-5.3-32.3,0-43.4,12.9L47.6,88c12.2-14.2,32-20,48.1-14.1
				C113.5,80.1,125.1,96.3,125.1,115.1L125.1,115.1z"/>
			<path class="st1" d="M32.3,112.9c-0.4-2.4-0.1-4.9,0.7-7.3c0.8-2.3,2.2-4.6,4-6.3c0.4-0.5,1-0.8,1.4-1.2l0.8-0.6
				c0.3-0.2,0.5-0.3,0.8-0.5c0.5-0.3,1.1-0.6,1.6-0.9c0.6-0.2,1.2-0.4,1.7-0.7c0.3-0.1,0.6-0.2,0.9-0.3l0.9-0.2l1.8-0.3
				c1.2-0.1,2.4-0.1,3.6-0.1c-1.1,0.5-2.2,0.9-3.3,1.3l-1.6,0.7L45,96.9l-0.8,0.4c-0.5,0.3-1,0.5-1.5,0.8l-1.4,0.9
				c-0.2,0.2-0.5,0.3-0.7,0.5l-0.6,0.5c-0.4,0.4-0.9,0.7-1.2,1.1c-1.6,1.5-2.9,3.3-4,5.3C33.8,108.5,33,110.6,32.3,112.9L32.3,112.9
				z"/>
			<path class="st1" d="M59.4,88.2c1.3-2.2,3.3-4,5.5-5.5c2.2-1.5,4.6-2.6,7-3.4c1.3-0.3,2.5-0.7,3.8-0.9c0.7-0.1,1.3-0.2,1.9-0.3
				c0.7-0.1,1.3-0.1,2-0.1c1.3-0.1,2.6,0,3.9,0.1c1.3,0.1,2.6,0.3,3.8,0.6c-1.3,0.3-2.5,0.4-3.8,0.6l-1.9,0.3
				c-0.3,0.1-0.6,0.1-0.9,0.1l-0.9,0.2c-0.6,0.1-1.2,0.3-1.8,0.4c-0.6,0.1-1.2,0.3-1.8,0.4c-1.2,0.3-2.4,0.7-3.5,1
				c-2.3,0.8-4.6,1.6-6.8,2.7C63.7,85.5,61.5,86.7,59.4,88.2L59.4,88.2z"/>
			<path class="st1" d="M98.1,72.8l1.5,1.8l5.8-35.4c0-0.1,0.2-1.7,1.7-3c1.6-1.4,4.2-1.9,7.5-1.4c5.1,0.8,11,1.9,16.9,3.2l0.3-1.8
				c-5.9-1.3-11.9-2.4-17-3.2c-3.6-0.6-6.5,0-8.4,1.6c-1.9,1.6-2.3,3.8-2.4,4.3L98.1,72.8z M101.2,80.5l-5.9-7.1l6.1-34.9
				c0.1-0.8,0.7-3.6,3.2-5.8c2.5-2.2,6.1-2.9,10.5-2.2c5.4,0.9,11.8,2.1,18,3.4l1.5,0.3l-1,6.9l-1.3-0.2c0,0-0.1,0-0.3-0.1
				c-6.1-1.3-12.4-2.5-17.8-3.4c-2.5-0.4-4.4-0.1-5.4,0.8c-0.7,0.6-0.9,1.4-0.9,1.4l0,0.1L101.2,80.5z"/>
		</g>
	</g>
	<g>
		<path class="st2" d="M0.4,102.6v51v51v51v51v51v51h72.1h72.1v-51v-51v-51v-51v-51v-51H72.5H0.4z M1.3,103.4h70.3v49.2H1.3V103.4z
			 M71.6,154.4v49.2H1.3v-49.2H71.6z M71.6,205.4v49.2H1.3v-49.2H71.6z M71.6,256.3v49.2H1.3v-49.2H71.6z M71.6,307.3v49.2H1.3
			v-49.2H71.6z M71.6,407.5H1.3v-49.2h70.3V407.5z M143.7,407.5H73.4v-49.2h70.3V407.5z M73.4,356.5v-49.2h70.3v49.2H73.4z
			 M73.4,305.6v-49.2h70.3v49.2H73.4z M73.4,254.6v-49.2h70.3v49.2H73.4z M73.4,203.6v-49.2h70.3v49.2H73.4z M73.4,103.4h70.3v49.2
			H73.4V103.4z"/>
		<path class="st2" d="M72.5,0.7H0.4v51v51h72.1h72.1v-51v-51H72.5z M73.4,1.5h70.3v49.2H73.4V1.5z M1.3,1.5h70.3v49.2H1.3V1.5z
			 M71.6,101.7H1.3V52.5h70.3V101.7z M143.7,101.7H73.4V52.5h70.3V101.7z"/>
	</g>
</g>
<g>
	<g>
		<path class="st2" d="M101.7,18.6c0.3-1.1,0.9-2.1,1.6-2.9c0.7-0.8,1.6-1.5,2.6-2s2.3-0.7,3.6-0.7c1,0,2,0.2,3,0.5s1.8,0.8,2.5,1.4
			c0.7,0.6,1.3,1.4,1.7,2.3c0.4,0.9,0.6,1.9,0.6,3c0,1.2-0.2,2.1-0.6,3c-0.4,0.8-0.9,1.6-1.5,2.2c-0.6,0.6-1.3,1.2-2.1,1.8
			c-0.8,0.5-1.6,1-2.3,1.6c-0.8,0.5-1.5,1.1-2.3,1.7c-0.7,0.6-1.4,1.3-2,2.1h10.8v4h-16.8c0-1.3,0.2-2.5,0.6-3.5
			c0.4-1,0.9-1.9,1.6-2.6c0.7-0.8,1.4-1.5,2.3-2.1c0.9-0.7,1.8-1.3,2.8-2c0.5-0.3,1-0.7,1.6-1.1c0.6-0.4,1.1-0.8,1.6-1.2
			c0.5-0.4,0.9-0.9,1.2-1.5c0.3-0.5,0.5-1.2,0.5-1.9c0-1.1-0.3-2-1-2.6c-0.6-0.6-1.5-0.9-2.5-0.9c-0.7,0-1.2,0.2-1.7,0.5
			c-0.5,0.3-0.8,0.7-1.1,1.2c-0.3,0.5-0.5,1.1-0.6,1.7c-0.1,0.6-0.2,1.2-0.2,1.8h-4.4C101.2,21,101.4,19.7,101.7,18.6z"/>
	</g>
	<g>
		<path class="st2" d="M37.7,36.4V21.5h-5.8V18c0.8,0,1.6,0,2.3-0.2c0.8-0.1,1.4-0.4,2-0.8c0.6-0.4,1.1-0.8,1.5-1.4
			c0.4-0.6,0.7-1.3,0.8-2.2h3.7v22.9H37.7z"/>
	</g>
	<g>
		<path class="st2" d="M100.6,81.8v-4.3l9.9-13.3h4.2V78h3v3.8h-3v5.3h-4.4v-5.3H100.6z M110.2,70l-5.9,7.9h6L110.2,70L110.2,70z"/>
	</g>
	<g>
		<path class="st2" d="M38.6,73.5c0.6,0,1.1-0.2,1.6-0.4c0.5-0.2,0.9-0.5,1.2-0.9s0.5-0.9,0.5-1.6c0-1-0.3-1.7-1-2.3
			s-1.4-0.8-2.3-0.8c-1.2,0-2.1,0.4-2.7,1.2c-0.6,0.8-0.9,1.8-0.9,2.9h-4.4c0-1.2,0.3-2.3,0.6-3.2c0.4-1,0.9-1.8,1.6-2.5
			c0.7-0.7,1.5-1.2,2.5-1.6c1-0.4,2-0.6,3.2-0.6c0.9,0,1.8,0.1,2.7,0.4c0.9,0.3,1.7,0.7,2.5,1.2c0.7,0.5,1.3,1.2,1.8,2
			c0.5,0.8,0.7,1.7,0.7,2.7c0,1.1-0.3,2.1-0.8,2.9c-0.5,0.8-1.3,1.4-2.4,1.7v0.1c1.3,0.3,2.3,0.9,3,1.8s1.1,2.1,1.1,3.4
			c0,1.2-0.2,2.3-0.7,3.2c-0.5,0.9-1.1,1.7-1.9,2.4c-0.8,0.6-1.7,1.1-2.7,1.4c-1,0.3-2.1,0.5-3.2,0.5c-1.3,0-2.5-0.2-3.5-0.6
			c-1.1-0.4-2-0.9-2.7-1.6c-0.7-0.7-1.3-1.6-1.7-2.6c-0.4-1-0.6-2.2-0.6-3.5h4.4c0,0.6,0.1,1.2,0.3,1.8c0.2,0.6,0.4,1,0.8,1.4
			c0.3,0.4,0.7,0.7,1.2,1c0.5,0.2,1.1,0.4,1.8,0.4c1,0,1.9-0.3,2.6-1s1.1-1.5,1.1-2.6c0-0.9-0.2-1.5-0.5-2s-0.8-0.8-1.3-1
			s-1.1-0.3-1.7-0.4c-0.6,0-1.2,0-1.8,0v-3.3C37.5,73.5,38,73.5,38.6,73.5z"/>
	</g>
	<g>
		<path class="st2" d="M111.7,119.2c-0.5-0.6-1.2-0.9-2-0.9c-0.8,0-1.5,0.2-2.1,0.7c-0.6,0.5-1,1.1-1.3,1.8
			c-0.3,0.7-0.6,1.5-0.7,2.3c-0.2,0.8-0.2,1.5-0.3,2.2l0.1,0.1c0.6-0.9,1.4-1.6,2.2-2s1.8-0.6,2.9-0.6c1,0,1.9,0.2,2.9,0.6
			s1.7,1,2.4,1.7c0.6,0.7,1.1,1.5,1.3,2.4c0.3,0.9,0.4,1.8,0.4,2.7c0,1.2-0.2,2.3-0.6,3.3c-0.4,1-0.9,1.9-1.6,2.6s-1.6,1.3-2.5,1.8
			c-1,0.4-2.1,0.6-3.3,0.6c-1.7,0-3.2-0.3-4.3-1c-1.1-0.7-2-1.6-2.7-2.7c-0.7-1.1-1.1-2.4-1.4-3.8c-0.3-1.4-0.4-2.8-0.4-4.3
			c0-1.4,0.2-2.8,0.5-4.3s0.9-2.7,1.6-3.8s1.6-2.1,2.8-2.8c1.1-0.7,2.5-1.1,4.2-1.1c1,0,1.9,0.1,2.7,0.4s1.6,0.7,2.3,1.2
			c0.7,0.5,1.2,1.2,1.6,2c0.4,0.8,0.7,1.7,0.8,2.7h-4.4C112.6,120.4,112.3,119.7,111.7,119.2z M107.8,126.6
			c-0.5,0.2-0.9,0.5-1.2,0.9s-0.5,0.8-0.7,1.4c-0.2,0.5-0.2,1.1-0.2,1.6c0,0.5,0.1,1,0.2,1.6c0.2,0.5,0.4,1,0.7,1.4
			c0.3,0.4,0.7,0.7,1.2,1c0.5,0.2,1,0.4,1.6,0.4c0.6,0,1.1-0.1,1.5-0.4c0.4-0.2,0.8-0.6,1.1-0.9c0.3-0.4,0.5-0.8,0.7-1.3
			s0.2-1,0.2-1.5c0-0.5-0.1-1.1-0.2-1.6c-0.1-0.5-0.4-1-0.6-1.4c-0.3-0.4-0.6-0.7-1.1-1c-0.4-0.3-1-0.4-1.6-0.4
			C108.8,126.3,108.3,126.4,107.8,126.6z"/>
	</g>
	<g>
		<path class="st2" d="M36.4,119.1l-0.9,5.2l0.1,0.1c0.6-0.6,1.3-1.1,2-1.4c0.7-0.3,1.5-0.4,2.5-0.4c1.1,0,2.1,0.2,3,0.6
			c0.9,0.4,1.6,1,2.2,1.7c0.6,0.7,1.1,1.5,1.4,2.5c0.3,0.9,0.5,2,0.5,3c0,1.2-0.2,2.3-0.7,3.3c-0.5,1-1.1,1.9-1.8,2.6
			c-0.8,0.7-1.7,1.3-2.7,1.7s-2.1,0.6-3.3,0.6c-1.1,0-2.2-0.1-3.2-0.4c-1-0.3-1.9-0.7-2.7-1.4c-0.8-0.6-1.4-1.4-1.9-2.3
			c-0.5-0.9-0.7-2-0.7-3.2h4.6c0.1,1,0.5,1.9,1.2,2.5c0.7,0.6,1.5,0.9,2.6,0.9c0.6,0,1.2-0.1,1.7-0.4c0.5-0.2,0.9-0.6,1.2-1
			c0.3-0.4,0.6-0.9,0.8-1.4c0.2-0.5,0.3-1.1,0.3-1.7c0-0.6-0.1-1.1-0.3-1.7c-0.2-0.5-0.4-1-0.8-1.4s-0.8-0.7-1.2-0.9
			c-0.5-0.2-1-0.3-1.7-0.3c-0.8,0-1.5,0.1-2,0.4s-1,0.8-1.5,1.4h-4.2l2.3-12.7h12.8v3.8H36.4z"/>
	</g>
	<g>
		<path class="st2" d="M102.2,167.9c0.5-0.8,1.1-1.4,1.8-2c0.7-0.5,1.6-0.9,2.5-1.2s1.8-0.4,2.8-0.4c1.4,0,2.6,0.2,3.6,0.7
			c1,0.4,1.8,1,2.4,1.6s1,1.3,1.3,2c0.3,0.7,0.4,1.3,0.4,1.9c0,1.1-0.3,2.1-0.8,3c-0.6,0.9-1.4,1.5-2.5,1.8v0.1
			c1.4,0.3,2.4,1,3.2,1.9c0.7,1,1.1,2.2,1.1,3.6c0,1.2-0.2,2.3-0.7,3.2c-0.5,0.9-1.1,1.6-1.9,2.2s-1.7,1-2.7,1.3
			c-1,0.3-2.1,0.4-3.1,0.4c-1.1,0-2.2-0.1-3.2-0.4c-1-0.3-2-0.7-2.8-1.3c-0.8-0.6-1.5-1.3-2-2.2c-0.5-0.9-0.7-2-0.7-3.2
			c0-1.5,0.4-2.7,1.1-3.7c0.8-1,1.8-1.6,3.2-2v-0.1c-1.1-0.3-2-0.9-2.5-1.7c-0.6-0.9-0.9-1.8-0.9-3
			C101.5,169.5,101.7,168.6,102.2,167.9z M105.5,182.3c0.2,0.5,0.5,0.9,0.9,1.2c0.4,0.3,0.8,0.6,1.3,0.8c0.5,0.2,1,0.3,1.6,0.3
			c0.6,0,1.1-0.1,1.6-0.3c0.5-0.2,0.9-0.4,1.2-0.8c0.4-0.3,0.6-0.7,0.8-1.2c0.2-0.5,0.3-1,0.3-1.6c0-0.5-0.1-1-0.3-1.5
			c-0.2-0.4-0.5-0.8-0.9-1.2c-0.4-0.3-0.8-0.6-1.2-0.8s-1-0.3-1.5-0.3c-1.1,0-2.1,0.3-2.9,0.9c-0.8,0.6-1.2,1.5-1.2,2.7
			C105.2,181.3,105.3,181.9,105.5,182.3z M106.7,173.2c0.7,0.5,1.5,0.8,2.5,0.8c1,0,1.8-0.3,2.5-0.8c0.7-0.5,1-1.3,1-2.2
			c0-0.3,0-0.6-0.1-1s-0.3-0.7-0.5-1s-0.6-0.6-1-0.8c-0.4-0.2-1-0.3-1.8-0.3c-0.5,0-0.9,0.1-1.3,0.2c-0.4,0.1-0.8,0.3-1.1,0.6
			s-0.6,0.6-0.8,1c-0.2,0.4-0.3,0.9-0.3,1.4C105.7,172,106,172.7,106.7,173.2z"/>
	</g>
	<g>
		<path class="st2" d="M43.2,172.6c-0.9,1.5-1.7,3.2-2.3,4.9c-0.6,1.7-1.1,3.5-1.4,5.2c-0.3,1.8-0.5,3.4-0.5,4.9h-5
			c0.3-3.4,1.1-6.7,2.4-9.9s3.1-6.1,5.3-8.7H30.8v-4.3h15.6v4C45.2,169.8,44.1,171.1,43.2,172.6z"/>
	</g>
	<g>
		<path class="st2" d="M97.8,239.4v-14.9H92V221c0.8,0,1.6,0,2.3-0.2c0.8-0.1,1.4-0.4,2-0.8s1.1-0.8,1.5-1.4
			c0.4-0.6,0.7-1.3,0.8-2.2h3.7v22.9H97.8z"/>
		<path class="st2" d="M109.1,222.2c0.4-1.5,1.1-2.7,1.8-3.6c0.8-0.9,1.7-1.6,2.7-2c1-0.4,2.1-0.6,3.2-0.6c1.2,0,2.2,0.2,3.3,0.6
			s1.9,1,2.7,2c0.8,0.9,1.4,2.1,1.8,3.6c0.4,1.5,0.7,3.4,0.7,5.6c0,2.3-0.2,4.2-0.7,5.7c-0.4,1.5-1.1,2.8-1.8,3.7
			c-0.8,0.9-1.7,1.6-2.7,2s-2.1,0.6-3.3,0.6c-1.1,0-2.2-0.2-3.2-0.6c-1-0.4-1.9-1-2.7-2c-0.8-0.9-1.4-2.1-1.8-3.7s-0.7-3.5-0.7-5.7
			C108.5,225.6,108.7,223.7,109.1,222.2z M113.2,230.2c0,0.9,0.2,1.8,0.4,2.7c0.2,0.9,0.6,1.6,1.1,2.2c0.5,0.6,1.2,0.9,2.2,0.9
			c1,0,1.7-0.3,2.2-0.9c0.5-0.6,0.9-1.3,1.1-2.2s0.4-1.8,0.4-2.7c0-0.9,0.1-1.7,0.1-2.4c0-0.4,0-0.9,0-1.4c0-0.6-0.1-1.1-0.1-1.7
			c-0.1-0.6-0.2-1.2-0.3-1.8c-0.1-0.6-0.4-1.1-0.6-1.6c-0.3-0.5-0.6-0.8-1.1-1.1c-0.4-0.3-1-0.4-1.6-0.4c-0.6,0-1.2,0.1-1.6,0.4
			c-0.4,0.3-0.8,0.7-1,1.1s-0.5,1-0.6,1.6c-0.2,0.6-0.3,1.2-0.3,1.8s-0.1,1.2-0.1,1.7c0,0.6,0,1,0,1.4
			C113.1,228.5,113.1,229.3,113.2,230.2z"/>
	</g>
	<g>
		<path class="st2" d="M36,235.5c0.5,0.6,1.2,0.8,2,0.8c0.8,0,1.5-0.2,2.1-0.7c0.5-0.5,1-1.1,1.3-1.8c0.3-0.7,0.6-1.5,0.7-2.3
			s0.2-1.5,0.3-2.2l-0.1-0.1c-0.6,0.9-1.4,1.6-2.2,2s-1.8,0.6-2.9,0.6c-1,0-1.9-0.2-2.9-0.6c-0.9-0.4-1.7-1-2.4-1.7
			c-0.6-0.7-1.1-1.5-1.3-2.4s-0.4-1.8-0.4-2.7c0-1.2,0.2-2.3,0.6-3.3c0.4-1,0.9-1.9,1.6-2.6c0.7-0.8,1.6-1.3,2.5-1.8
			c1-0.4,2.1-0.7,3.3-0.7c1.7,0,3.2,0.3,4.3,1c1.1,0.7,2,1.6,2.7,2.7s1.1,2.4,1.4,3.8c0.3,1.4,0.4,2.8,0.4,4.3
			c0,1.4-0.2,2.8-0.5,4.3c-0.3,1.4-0.9,2.7-1.6,3.8s-1.6,2.1-2.8,2.8c-1.1,0.7-2.5,1.1-4.2,1.1c-1,0-1.9-0.1-2.7-0.4
			c-0.9-0.3-1.6-0.7-2.3-1.2c-0.7-0.5-1.2-1.2-1.6-2c-0.4-0.8-0.7-1.7-0.8-2.7H35C35.1,234.2,35.5,234.9,36,235.5z M40,228
			c0.5-0.2,0.8-0.5,1.1-0.9c0.3-0.4,0.5-0.8,0.7-1.4c0.2-0.5,0.2-1.1,0.2-1.6c0-0.5-0.1-1-0.2-1.6c-0.2-0.5-0.4-1-0.7-1.4
			c-0.3-0.4-0.7-0.7-1.2-1s-1-0.4-1.6-0.4c-0.5,0-1,0.1-1.5,0.4s-0.8,0.6-1.1,0.9s-0.5,0.8-0.7,1.3c-0.2,0.5-0.2,1-0.2,1.5
			c0,0.5,0.1,1.1,0.2,1.6c0.1,0.5,0.4,1,0.6,1.4c0.3,0.4,0.6,0.7,1.1,1c0.4,0.2,1,0.4,1.6,0.4C39,228.3,39.5,228.2,40,228z"/>
	</g>
	<g>
		<path class="st2" d="M97.8,290.7v-14.9H92v-3.5c0.8,0,1.6,0,2.3-0.2c0.8-0.1,1.4-0.4,2-0.8s1.1-0.8,1.5-1.4
			c0.4-0.6,0.7-1.3,0.8-2.2h3.7v22.9H97.8z"/>
		<path class="st2" d="M109.5,273c0.3-1.1,0.9-2.1,1.6-2.9c0.7-0.8,1.6-1.5,2.6-2s2.3-0.7,3.6-0.7c1,0,2,0.2,3,0.5s1.8,0.8,2.5,1.4
			c0.7,0.6,1.3,1.4,1.7,2.3c0.4,0.9,0.6,1.9,0.6,3c0,1.2-0.2,2.1-0.6,3c-0.4,0.8-0.9,1.6-1.5,2.2c-0.6,0.6-1.3,1.2-2.1,1.8
			c-0.8,0.5-1.6,1-2.3,1.6c-0.8,0.5-1.5,1.1-2.3,1.7c-0.7,0.6-1.4,1.3-2,2.1h10.8v4h-16.8c0-1.3,0.2-2.5,0.6-3.5
			c0.4-1,0.9-1.9,1.6-2.6c0.7-0.8,1.4-1.5,2.3-2.1c0.9-0.7,1.8-1.3,2.8-2c0.5-0.3,1-0.7,1.6-1.1c0.6-0.4,1.1-0.8,1.6-1.2
			c0.5-0.4,0.9-0.9,1.2-1.5c0.3-0.5,0.5-1.2,0.5-1.9c0-1.1-0.3-2-1-2.6c-0.6-0.6-1.5-0.9-2.5-0.9c-0.7,0-1.2,0.2-1.7,0.5
			c-0.5,0.3-0.8,0.7-1.1,1.2c-0.3,0.5-0.5,1.1-0.6,1.7c-0.1,0.6-0.2,1.2-0.2,1.8H109C109,275.3,109.1,274.1,109.5,273z"/>
	</g>
	<g>
		<path class="st2" d="M27.2,290.7v-14.9h-5.8v-3.5c0.8,0,1.6,0,2.3-0.2c0.8-0.1,1.4-0.4,2-0.8s1.1-0.8,1.5-1.4
			c0.4-0.6,0.7-1.3,0.8-2.2h3.7v22.9H27.2z"/>
		<path class="st2" d="M45.4,290.7v-14.9h-5.8v-3.5c0.8,0,1.6,0,2.3-0.2c0.8-0.1,1.4-0.4,2-0.8c0.6-0.4,1.1-0.8,1.5-1.4
			c0.4-0.6,0.7-1.3,0.8-2.2H50v22.9H45.4z"/>
	</g>
	<g>
		<path class="st2" d="M97.8,340.9V326H92v-3.5c0.8,0,1.6,0,2.3-0.2c0.8-0.1,1.4-0.4,2-0.8s1.1-0.8,1.5-1.4c0.4-0.6,0.7-1.3,0.8-2.2
			h3.7v22.9H97.8z"/>
		<path class="st2" d="M108.3,335.6v-4.3l9.9-13.3h4.2v13.8h3v3.8h-3v5.3H118v-5.3H108.3z M117.9,323.8l-5.9,7.9h6L117.9,323.8
			L117.9,323.8z"/>
	</g>
	<g>
		<path class="st2" d="M27.2,340.9V326h-5.8v-3.5c0.8,0,1.6,0,2.3-0.2c0.8-0.1,1.4-0.4,2-0.8s1.1-0.8,1.5-1.4
			c0.4-0.6,0.7-1.3,0.8-2.2h3.7v22.9H27.2z"/>
		<path class="st2" d="M46.3,327.3c0.6,0,1.1-0.2,1.6-0.4c0.5-0.2,0.9-0.5,1.2-0.9s0.5-0.9,0.5-1.6c0-1-0.3-1.7-1-2.3
			s-1.4-0.8-2.3-0.8c-1.2,0-2.1,0.4-2.7,1.2c-0.6,0.8-0.9,1.8-0.9,2.9h-4.4c0-1.2,0.3-2.3,0.6-3.2c0.4-1,0.9-1.8,1.6-2.5
			c0.7-0.7,1.5-1.2,2.5-1.6c1-0.4,2-0.6,3.2-0.6c0.9,0,1.8,0.1,2.7,0.4s1.7,0.7,2.5,1.2c0.7,0.5,1.3,1.2,1.8,2
			c0.5,0.8,0.7,1.7,0.7,2.7c0,1.1-0.3,2.1-0.8,2.9c-0.5,0.8-1.3,1.4-2.4,1.7v0.1c1.3,0.3,2.3,0.9,3,1.8s1.1,2.1,1.1,3.4
			c0,1.2-0.2,2.3-0.7,3.2c-0.5,0.9-1.1,1.7-1.9,2.4c-0.8,0.6-1.7,1.1-2.7,1.4c-1,0.3-2.1,0.5-3.2,0.5c-1.3,0-2.5-0.2-3.5-0.6
			c-1.1-0.4-2-0.9-2.7-1.6s-1.3-1.6-1.7-2.6c-0.4-1-0.6-2.2-0.6-3.5h4.4c0,0.6,0.1,1.2,0.3,1.8c0.2,0.6,0.4,1,0.8,1.4
			c0.3,0.4,0.7,0.7,1.2,1c0.5,0.2,1.1,0.4,1.8,0.4c1,0,1.9-0.3,2.6-1s1.1-1.5,1.1-2.6c0-0.9-0.2-1.5-0.5-2s-0.8-0.8-1.3-1
			s-1.1-0.3-1.7-0.4c-0.6,0-1.2,0-1.8,0v-3.3C45.2,327.3,45.7,327.3,46.3,327.3z"/>
	</g>
	<g>
		<path class="st2" d="M97.8,392.6v-14.9H92v-3.5c0.8,0,1.6,0,2.3-0.2c0.8-0.1,1.4-0.4,2-0.8s1.1-0.8,1.5-1.4
			c0.4-0.6,0.7-1.3,0.8-2.2h3.7v22.9H97.8z"/>
		<path class="st2" d="M119.4,373.6c-0.5-0.6-1.2-0.9-2-0.9c-0.8,0-1.5,0.2-2.1,0.7c-0.6,0.5-1,1.1-1.3,1.8
			c-0.3,0.7-0.6,1.5-0.7,2.3c-0.2,0.8-0.2,1.5-0.3,2.2l0.1,0.1c0.6-0.9,1.4-1.6,2.2-2s1.8-0.6,2.9-0.6c1,0,1.9,0.2,2.9,0.6
			s1.7,1,2.4,1.7c0.6,0.7,1.1,1.5,1.3,2.4c0.3,0.9,0.4,1.8,0.4,2.7c0,1.2-0.2,2.3-0.6,3.3c-0.4,1-0.9,1.9-1.6,2.6s-1.6,1.3-2.5,1.8
			c-1,0.4-2.1,0.6-3.3,0.6c-1.7,0-3.2-0.3-4.3-1c-1.1-0.7-2-1.6-2.7-2.7c-0.7-1.1-1.1-2.4-1.4-3.8c-0.3-1.4-0.4-2.8-0.4-4.3
			c0-1.4,0.2-2.8,0.5-4.3s0.9-2.7,1.6-3.8s1.6-2.1,2.8-2.8c1.1-0.7,2.5-1.1,4.2-1.1c1,0,1.9,0.1,2.7,0.4s1.6,0.7,2.3,1.2
			c0.7,0.5,1.2,1.2,1.6,2c0.4,0.8,0.7,1.7,0.8,2.7h-4.4C120.3,374.8,120,374.2,119.4,373.6z M115.5,381.1c-0.5,0.2-0.9,0.5-1.2,0.9
			s-0.5,0.8-0.7,1.4c-0.2,0.5-0.2,1.1-0.2,1.6c0,0.5,0.1,1,0.2,1.6c0.2,0.5,0.4,1,0.7,1.4c0.3,0.4,0.7,0.7,1.2,1
			c0.5,0.2,1,0.4,1.6,0.4c0.6,0,1.1-0.1,1.5-0.4c0.4-0.2,0.8-0.6,1.1-0.9c0.3-0.4,0.5-0.8,0.7-1.3s0.2-1,0.2-1.5
			c0-0.5-0.1-1.1-0.2-1.6c-0.1-0.5-0.4-1-0.6-1.4c-0.3-0.4-0.6-0.7-1.1-1c-0.4-0.3-1-0.4-1.6-0.4C116.5,380.7,116,380.8,115.5,381.1
			z"/>
	</g>
	<g>
		<path class="st2" d="M27.2,392.6v-14.9h-5.8v-3.5c0.8,0,1.6,0,2.3-0.2c0.8-0.1,1.4-0.4,2-0.8s1.1-0.8,1.5-1.4
			c0.4-0.6,0.7-1.3,0.8-2.2h3.7v22.9H27.2z"/>
		<path class="st2" d="M44.1,373.5l-0.9,5.2l0.1,0.1c0.6-0.6,1.3-1.1,2-1.4c0.7-0.3,1.5-0.4,2.5-0.4c1.1,0,2.1,0.2,3,0.6
			c0.9,0.4,1.6,1,2.2,1.7c0.6,0.7,1.1,1.5,1.4,2.5c0.3,0.9,0.5,2,0.5,3c0,1.2-0.2,2.3-0.7,3.3c-0.5,1-1.1,1.9-1.8,2.6
			c-0.8,0.7-1.7,1.3-2.7,1.7s-2.1,0.6-3.3,0.6c-1.1,0-2.2-0.1-3.2-0.4c-1-0.3-1.9-0.7-2.7-1.4c-0.8-0.6-1.4-1.4-1.9-2.3
			c-0.5-0.9-0.7-2-0.7-3.2h4.6c0.1,1,0.5,1.9,1.2,2.5c0.7,0.6,1.5,0.9,2.6,0.9c0.6,0,1.2-0.1,1.7-0.4c0.5-0.2,0.9-0.6,1.2-1
			c0.3-0.4,0.6-0.9,0.8-1.4c0.2-0.5,0.3-1.1,0.3-1.7c0-0.6-0.1-1.1-0.3-1.7c-0.2-0.5-0.4-1-0.8-1.4s-0.8-0.7-1.2-0.9
			c-0.5-0.2-1-0.3-1.7-0.3c-0.8,0-1.5,0.1-2,0.4s-1,0.8-1.5,1.4h-4.2l2.3-12.7h12.8v3.8H44.1z"/>
	</g>
</g>
</svg>
