<?xml version="1.0" encoding="utf-8"?>
<!-- Generator: Adobe Illustrator 28.0.0, SVG Export Plug-In . SVG Version: 6.00 Build 0)  -->
<svg version="1.1" id="レイヤー_1" xmlns="http://www.w3.org/2000/svg" xmlns:xlink="http://www.w3.org/1999/xlink" x="0px"
	 y="0px" viewBox="0 0 145 154" style="enable-background:new 0 0 145 154;" xml:space="preserve">
<style type="text/css">
	.st0{fill:#D7C9BB;}
	.st1{fill:#5FC494;}
	.st2{fill:#73D9A7;}
	.st3{fill:#FFFFFF;}
</style>
<g>
	<g>
		<rect x="0.4" y="0.5" class="st0" width="144.1" height="152.9"/>
		<path class="st1" d="M90.7,40C77.7,40,72,50.7,72,62c0,13.9,8.6,20.8,8.6,25.6c0,2.1-1.5,4.3-4.9,6l-19,10.2
			c-5.7,3.1-3.4,17.6-3.4,17.6H128c0,0,2.7-14.4-3.4-17.6l-19-10.2c-3.5-1.9-5.1-3.9-5.1-5.8c0-4.3,8.9-10.9,8.9-25.9
			C109.3,48.5,102.4,40,90.7,40L90.7,40z"/>
		<path class="st2" d="M51.1,53.5c-10.8,0-15.5,8.9-15.5,18.3c0,11.6,7.2,17.3,7.2,21.3c0,1.5-1,4.2-4,5.7l-16,7.8
			c-5.7,2.7-2.7,14.8-2.7,14.8H45c3.5,0-3.5-11.7,4.6-20.6c5.1-5.7,17.2-11.4,17.2-28.4C66.7,60.6,61,53.5,51.1,53.5L51.1,53.5z"/>
	</g>
	<path class="st3" d="M72.5,0.5H0.4v51v51v51h72.1h72.1v-51V51.5v-51L72.5,0.5L72.5,0.5z M73.4,1.3h70.3v49.2H73.4V1.3z M1.3,1.3
		h70.3v49.2H1.3V1.3z M71.6,52.3v49.2H1.3V52.3H71.6z M71.6,152.7H1.3v-49.2h70.3C71.6,103.4,71.6,152.7,71.6,152.7z M143.7,152.7
		H73.4v-49.2h70.3L143.7,152.7L143.7,152.7z M73.4,101.6V52.3h70.3v49.2C143.7,101.6,73.4,101.6,73.4,101.6z"/>
</g>
<g>
	<g>
		<path class="st3" d="M100.1,21.1c0.3-1.1,0.9-2.1,1.6-2.9s1.6-1.5,2.6-2c1.1-0.5,2.3-0.7,3.6-0.7c1,0,2,0.2,3,0.5s1.8,0.8,2.5,1.4
			s1.3,1.4,1.7,2.3c0.4,0.9,0.6,1.9,0.6,3c0,1.2-0.2,2.1-0.6,3c-0.4,0.8-0.9,1.6-1.5,2.2s-1.3,1.2-2.1,1.8c-0.8,0.5-1.6,1-2.3,1.6
			s-1.5,1.1-2.3,1.7c-0.7,0.6-1.4,1.3-2,2.1h10.8v4H99.1c0-1.3,0.2-2.5,0.6-3.5s0.9-1.9,1.6-2.6c0.7-0.8,1.4-1.5,2.3-2.1
			c0.9-0.7,1.8-1.3,2.8-2c0.5-0.3,1-0.7,1.6-1.1s1.1-0.8,1.6-1.2c0.5-0.4,0.9-0.9,1.2-1.5c0.3-0.5,0.5-1.2,0.5-1.9
			c0-1.1-0.3-2-1-2.6c-0.6-0.6-1.5-0.9-2.5-0.9c-0.7,0-1.2,0.2-1.7,0.5s-0.8,0.7-1.1,1.2c-0.3,0.5-0.5,1.1-0.6,1.7s-0.2,1.2-0.2,1.8
			h-4.4C99.6,23.4,99.7,22.2,100.1,21.1z"/>
	</g>
	<g>
		<path class="st3" d="M36,38.8V24h-5.8v-3.5c0.8,0,1.6,0,2.3-0.2c0.7-0.2,1.4-0.4,2-0.8s1.1-0.8,1.5-1.4s0.7-1.3,0.8-2.2h3.7v22.9
			H36z"/>
	</g>
	<g>
		<path class="st3" d="M99,84.4v-4.3l9.9-13.3h4.2v13.8h3v3.8h-3v5.3h-4.4v-5.3H99z M108.5,72.6l-5.9,7.9h6L108.5,72.6L108.5,72.6z"
			/>
	</g>
	<g>
		<path class="st3" d="M36.9,76.1c0.6,0,1.1-0.2,1.6-0.4s0.9-0.5,1.2-0.9c0.3-0.4,0.5-0.9,0.5-1.6c0-1-0.3-1.7-1-2.3
			c-0.7-0.5-1.4-0.8-2.3-0.8c-1.2,0-2.1,0.4-2.7,1.2c-0.6,0.8-0.9,1.8-0.9,2.9h-4.4c0-1.2,0.3-2.3,0.6-3.2c0.4-1,0.9-1.8,1.6-2.5
			s1.5-1.2,2.5-1.6c1-0.4,2-0.6,3.2-0.6c0.9,0,1.8,0.1,2.7,0.4s1.7,0.7,2.5,1.2s1.3,1.2,1.8,2s0.7,1.7,0.7,2.7
			c0,1.1-0.3,2.1-0.8,2.9c-0.5,0.9-1.3,1.4-2.4,1.7v0.2c1.3,0.3,2.3,0.9,3,1.8c0.7,0.9,1.1,2.1,1.1,3.4c0,1.2-0.2,2.3-0.7,3.2
			s-1.1,1.7-1.9,2.4c-0.8,0.7-1.7,1.1-2.7,1.4s-2.1,0.5-3.2,0.5c-1.3,0-2.5-0.2-3.5-0.6c-1.1-0.4-2-0.9-2.7-1.6s-1.3-1.6-1.7-2.6
			c-0.4-1-0.6-2.2-0.6-3.5h4.4c0,0.6,0.1,1.2,0.3,1.8s0.4,1,0.8,1.4c0.3,0.4,0.7,0.7,1.2,1s1.1,0.4,1.8,0.4c1,0,1.9-0.3,2.6-1
			c0.7-0.6,1.1-1.5,1.1-2.6c0-0.9-0.2-1.5-0.5-2s-0.8-0.8-1.3-1s-1.1-0.3-1.7-0.4c-0.6,0-1.2,0-1.8,0v-3.3
			C35.8,76.1,36.4,76.1,36.9,76.1z"/>
	</g>
	<g>
		<path class="st3" d="M110.1,121.6c-0.5-0.6-1.2-0.9-2-0.9s-1.5,0.2-2.1,0.7s-1,1.1-1.3,1.8c-0.3,0.7-0.6,1.5-0.7,2.3
			c-0.2,0.8-0.2,1.5-0.3,2.2l0.1,0.1c0.6-0.9,1.4-1.6,2.2-2c0.8-0.4,1.8-0.6,2.9-0.6c1,0,1.9,0.2,2.9,0.6c0.9,0.4,1.7,1,2.4,1.7
			c0.6,0.7,1.1,1.5,1.3,2.4c0.3,0.9,0.4,1.8,0.4,2.7c0,1.2-0.2,2.3-0.6,3.3s-0.9,1.9-1.6,2.6c-0.7,0.8-1.6,1.3-2.5,1.8
			c-1,0.4-2.1,0.6-3.3,0.6c-1.7,0-3.2-0.3-4.3-1c-1.1-0.7-2-1.6-2.7-2.7c-0.7-1.1-1.1-2.4-1.4-3.8c-0.3-1.4-0.4-2.8-0.4-4.3
			c0-1.4,0.2-2.8,0.5-4.3s0.9-2.7,1.6-3.8s1.6-2.1,2.8-2.8c1.1-0.7,2.5-1.1,4.2-1.1c1,0,1.9,0.1,2.7,0.4s1.6,0.7,2.3,1.2
			c0.7,0.5,1.2,1.2,1.6,2s0.7,1.7,0.8,2.7h-4.4C111,122.9,110.6,122.2,110.1,121.6z M106.2,129.2c-0.5,0.2-0.9,0.5-1.2,0.9
			c-0.3,0.4-0.5,0.8-0.7,1.4c-0.2,0.5-0.2,1.1-0.2,1.6s0.1,1,0.2,1.6s0.4,1,0.7,1.4c0.3,0.4,0.7,0.7,1.2,1c0.5,0.2,1,0.4,1.6,0.4
			s1.1-0.1,1.5-0.4c0.4-0.2,0.8-0.6,1.1-0.9s0.5-0.8,0.7-1.3s0.2-1,0.2-1.5s-0.1-1.1-0.2-1.6s-0.4-1-0.6-1.4c-0.3-0.4-0.6-0.7-1.1-1
			c-0.4-0.3-1-0.4-1.6-0.4C107.2,128.9,106.6,128.9,106.2,129.2z"/>
	</g>
	<g>
		<path class="st3" d="M34.8,121.6l-0.9,5.2l0.1,0.1c0.6-0.6,1.3-1.1,2-1.4s1.5-0.4,2.5-0.4c1.1,0,2.1,0.2,3,0.6
			c0.9,0.4,1.6,1,2.2,1.7c0.6,0.7,1.1,1.5,1.4,2.5c0.3,0.9,0.5,2,0.5,3c0,1.2-0.2,2.3-0.7,3.3s-1.1,1.9-1.8,2.6
			c-0.8,0.7-1.7,1.3-2.7,1.7s-2.1,0.6-3.3,0.6c-1.1,0-2.2-0.1-3.2-0.4s-1.9-0.7-2.7-1.4c-0.8-0.6-1.4-1.4-1.9-2.3
			c-0.5-0.9-0.7-2-0.7-3.2h4.6c0.1,1,0.5,1.9,1.2,2.5s1.5,0.9,2.6,0.9c0.6,0,1.2-0.1,1.7-0.4c0.5-0.2,0.9-0.6,1.2-1s0.6-0.9,0.8-1.4
			s0.3-1.1,0.3-1.7c0-0.6-0.1-1.1-0.3-1.7c-0.2-0.5-0.4-1-0.8-1.4c-0.3-0.4-0.8-0.7-1.2-0.9c-0.5-0.2-1-0.3-1.7-0.3
			c-0.8,0-1.5,0.1-2,0.4s-1,0.8-1.5,1.4h-4.2l2.3-12.7h12.8v3.8h-9.6C34.8,121.3,34.8,121.6,34.8,121.6z"/>
	</g>
</g>
</svg>
