<?xml version="1.0" encoding="utf-8"?>
<!-- Generator: Adobe Illustrator 28.0.0, SVG Export Plug-In . SVG Version: 6.00 Build 0)  -->
<svg version="1.1" id="レイヤー_1" xmlns="http://www.w3.org/2000/svg" xmlns:xlink="http://www.w3.org/1999/xlink" x="0px"
	 y="0px" viewBox="0 0 289 205" style="enable-background:new 0 0 289 205;" xml:space="preserve">
<style type="text/css">
	.st0{clip-path:url(#SVGID_00000003816085447751132540000000010734843419230358_);}
	.st1{fill:#D7C9BB;}
	.st2{fill:#5FC494;}
	.st3{fill:#FFFFFF;}
</style>
<g>
	<g>
		<g>
			<g>
				<defs>
					<rect id="SVGID_1_" x="0.3" y="0.5" width="288.3" height="203.8"/>
				</defs>
				<clipPath id="SVGID_00000159468878095665683690000009833473898371809451_">
					<use xlink:href="#SVGID_1_"  style="overflow:visible;"/>
				</clipPath>
				
					<g id="XMLID_00000129898077488631196180000007139455507759120259_" style="clip-path:url(#SVGID_00000159468878095665683690000009833473898371809451_);">
					
						<rect id="XMLID_00000031205611211233048060000008404315273423434163_" x="-19" y="-14.5" class="st1" width="324.2" height="226"/>
					<path class="st2" d="M212.4,155.6c-45.7,8-92.3,8-138,0c-7.9-1.4-13.2-8.9-12-16.8l14.1-70.7l0,0c7.2,1.3,12.4,7.5,12.5,14.8
						v19.5c0,10.9,8.8,19.8,19.8,19.8c10.9,0,19.8-8.8,19.8-19.8V87.6c0-5.5,4.4-9.9,9.9-9.9c2.6,0,5.1,1,7,2.9s2.9,4.4,2.9,7v32.1
						c0,12.3,10,22.2,22.2,22.2c12.2-0.1,22-10,22.1-22.2V83.1c0-8.4,6.8-15.2,15.3-15.3h2.1l14.2,70.9
						C225.5,146.6,220.3,154.1,212.4,155.6L212.4,155.6z M233.3,133.8L215,42.4c-1.9-12-12.3-20.8-24.4-20.7H95.9
						c-12,0-22.3,8.7-24.3,20.6l-18.4,91.6c-19.1,5.5-28.4,12.4-28.4,21.1c0,21.5,61.4,31.3,118.5,31.3s118.5-9.9,118.5-31.3
						C261.8,146.2,252.4,139.3,233.3,133.8L233.3,133.8z"/>
				</g>
			</g>
		</g>
	</g>
	<path class="st3" d="M216.5,0.5h-72.1H72.3h-72v51v51v51v51h72.1h72.1h72.1h72.1v-51v-51V51.4v-51h-72.2V0.5z M217.3,1.3h70.3v49.2
		h-70.3L217.3,1.3L217.3,1.3z M145.3,1.3h70.3v49.2h-70.3V1.3z M215.6,152.6h-70.3v-49.2h70.3V152.6z M143.5,152.6H73.2v-49.2h70.3
		V152.6z M73.2,52.3h70.3v49.2H73.2V52.3z M215.6,101.5h-70.3V52.3h70.3V101.5z M73.2,1.3h70.3v49.2H73.2V1.3z M1.1,1.3h70.3v49.2
		H1.1V1.3z M71.5,52.3v49.2H1.1V52.3H71.5z M71.5,103.3v49.2H1.1v-49.2C1.1,103.4,71.5,103.4,71.5,103.3z M71.5,203.6H1.1v-49.2
		h70.3L71.5,203.6L71.5,203.6z M143.5,203.6H73.2v-49.2h70.3V203.6z M215.6,203.6h-70.3v-49.2h70.3V203.6z M287.7,203.6h-70.3v-49.2
		h70.3V203.6z M217.3,152.6v-49.2h70.3v49.2H217.3z M217.3,101.5V52.3h70.3v49.2C287.6,101.6,217.3,101.6,217.3,101.5z"/>
</g>
<g>
	<path class="st3" d="M101.3,17.5c0.5-0.8,1.1-1.4,1.8-2c0.7-0.5,1.6-0.9,2.5-1.2s1.8-0.4,2.8-0.4c1.4,0,2.6,0.2,3.6,0.7
		c1,0.4,1.8,1,2.4,1.6s1,1.3,1.3,2s0.4,1.3,0.4,1.9c0,1.1-0.3,2.1-0.8,3s-1.4,1.5-2.5,1.8V25c1.4,0.3,2.4,1,3.2,1.9
		c0.7,1,1.1,2.2,1.1,3.6c0,1.2-0.2,2.3-0.7,3.2c-0.5,0.9-1.1,1.6-1.9,2.2c-0.8,0.6-1.7,1-2.7,1.3s-2.1,0.4-3.1,0.4
		c-1.1,0-2.2-0.1-3.2-0.4c-1-0.3-2-0.7-2.8-1.3s-1.5-1.3-2-2.2s-0.7-2-0.7-3.2c0-1.5,0.4-2.7,1.1-3.7c0.8-1,1.8-1.6,3.2-2v-0.1
		c-1.1-0.3-2-0.9-2.5-1.7c-0.6-0.9-0.9-1.8-0.9-3C100.6,19.1,100.9,18.2,101.3,17.5z M104.6,31.9c0.2,0.5,0.5,0.9,0.9,1.2
		s0.8,0.6,1.3,0.8s1,0.3,1.6,0.3s1.1-0.1,1.6-0.3s0.9-0.4,1.2-0.8c0.4-0.3,0.6-0.7,0.8-1.2c0.2-0.5,0.3-1,0.3-1.6
		c0-0.5-0.1-1-0.3-1.5c-0.2-0.4-0.5-0.8-0.9-1.2c-0.4-0.3-0.8-0.6-1.2-0.8c-0.5-0.2-1-0.3-1.5-0.3c-1.1,0-2.1,0.3-2.9,0.9
		s-1.2,1.5-1.2,2.7C104.3,30.9,104.4,31.5,104.6,31.9z M105.9,22.8c0.7,0.5,1.5,0.8,2.5,0.8s1.8-0.3,2.5-0.8s1-1.3,1-2.2
		c0-0.3,0-0.6-0.1-1s-0.3-0.7-0.5-1c-0.3-0.3-0.6-0.6-1-0.8c-0.4-0.2-1-0.3-1.8-0.3c-0.5,0-0.9,0.1-1.3,0.2s-0.8,0.3-1.1,0.6
		s-0.6,0.6-0.8,1c-0.2,0.4-0.3,0.9-0.3,1.4C104.8,21.6,105.2,22.3,105.9,22.8z"/>
</g>
<g>
	<path class="st3" d="M27.2,32v-4.3l9.9-13.3h4.2v13.8h3V32h-3v5.3h-4.4V32C36.9,32,27.2,32,27.2,32z M36.8,20.2l-5.9,8h6L36.8,20.2
		L36.8,20.2z"/>
</g>
<g>
	<path class="st3" d="M112.9,73c-0.9,1.5-1.7,3.2-2.3,4.9s-1.1,3.5-1.4,5.2c-0.3,1.8-0.5,3.4-0.5,4.9h-5c0.3-3.4,1.1-6.7,2.4-9.9
		c1.3-3.2,3.1-6.1,5.3-8.7h-10.9v-4.3h15.6v4C114.9,70.1,113.9,71.4,112.9,73z"/>
</g>
<g>
	<path class="st3" d="M35.7,74.4c0.6,0,1.1-0.2,1.6-0.4s0.9-0.5,1.2-0.9s0.5-0.9,0.5-1.6c0-1-0.3-1.7-1-2.3s-1.4-0.8-2.3-0.8
		c-1.2,0-2.1,0.4-2.7,1.2c-0.6,0.8-0.9,1.8-0.9,2.9h-4.4c0-1.2,0.3-2.3,0.6-3.2c0.4-1,0.9-1.8,1.6-2.5s1.5-1.2,2.5-1.6
		c1-0.4,2-0.6,3.2-0.6c0.9,0,1.8,0.1,2.7,0.4s1.7,0.7,2.5,1.2c0.7,0.5,1.3,1.2,1.8,2s0.7,1.7,0.7,2.7c0,1.1-0.3,2.1-0.8,2.9
		s-1.3,1.4-2.4,1.7v0.1c1.3,0.3,2.3,0.9,3,1.8s1.1,2.1,1.1,3.4c0,1.2-0.2,2.3-0.7,3.2c-0.5,0.9-1.1,1.7-1.9,2.4
		c-0.8,0.6-1.7,1.1-2.7,1.4s-2.1,0.5-3.2,0.5c-1.3,0-2.5-0.2-3.5-0.6c-1.1-0.4-2-0.9-2.7-1.6s-1.3-1.6-1.7-2.6
		c-0.4-1-0.6-2.2-0.6-3.5h4.4c0,0.6,0.1,1.2,0.3,1.8c0.2,0.6,0.4,1,0.8,1.4c0.3,0.4,0.7,0.7,1.2,1c0.5,0.2,1.1,0.4,1.8,0.4
		c1,0,1.9-0.3,2.6-1s1.1-1.5,1.1-2.6c0-0.9-0.2-1.5-0.5-2s-0.8-0.8-1.3-1s-1.1-0.3-1.7-0.4s-1.2,0-1.8,0v-3.2
		C34.6,74.4,35.2,74.4,35.7,74.4z"/>
</g>
<g>
	<path class="st3" d="M110.9,120.1c-0.5-0.6-1.2-0.9-2-0.9s-1.5,0.2-2.1,0.7s-1,1.1-1.3,1.8c-0.3,0.7-0.6,1.5-0.7,2.3
		c-0.2,0.8-0.2,1.5-0.3,2.2l0.1,0.1c0.6-0.9,1.4-1.6,2.2-2s1.8-0.6,2.9-0.6c1,0,1.9,0.2,2.9,0.6c0.9,0.4,1.7,1,2.4,1.7
		c0.6,0.7,1.1,1.5,1.3,2.4c0.3,0.9,0.4,1.8,0.4,2.7c0,1.2-0.2,2.3-0.6,3.3s-0.9,1.9-1.6,2.6c-0.7,0.8-1.6,1.3-2.5,1.8
		c-1,0.4-2.1,0.6-3.3,0.6c-1.7,0-3.2-0.3-4.3-1c-1.1-0.7-2-1.6-2.7-2.7c-0.7-1.1-1.1-2.4-1.4-3.8c-0.3-1.4-0.4-2.8-0.4-4.3
		c0-1.4,0.2-2.8,0.5-4.3s0.9-2.7,1.6-3.8c0.7-1.1,1.6-2.1,2.8-2.8c1.1-0.7,2.5-1.1,4.2-1.1c1,0,1.9,0.1,2.7,0.4s1.6,0.7,2.3,1.2
		c0.7,0.5,1.2,1.2,1.6,2s0.7,1.7,0.8,2.7h-4.5C111.8,121.3,111.4,120.6,110.9,120.1z M107,127.5c-0.5,0.2-0.9,0.5-1.2,0.9
		c-0.3,0.4-0.5,0.8-0.7,1.4c-0.2,0.5-0.2,1.1-0.2,1.6s0.1,1,0.2,1.6s0.4,1,0.7,1.4c0.3,0.4,0.7,0.7,1.2,1c0.5,0.2,1,0.4,1.6,0.4
		s1.1-0.1,1.5-0.4c0.4-0.2,0.8-0.6,1.1-0.9c0.3-0.4,0.5-0.8,0.7-1.3s0.2-1,0.2-1.5s-0.1-1.1-0.2-1.6s-0.4-1-0.6-1.4
		c-0.3-0.4-0.6-0.7-1.1-1c-0.4-0.3-1-0.4-1.6-0.4C108,127.2,107.4,127.3,107,127.5z"/>
</g>
<g>
	<path class="st3" d="M28.3,121.3c0.3-1.1,0.9-2.1,1.6-2.9s1.6-1.5,2.6-2c1.1-0.5,2.3-0.7,3.6-0.7c1,0,2,0.2,3,0.5
		c0.9,0.3,1.8,0.8,2.5,1.4s1.3,1.4,1.7,2.3s0.6,1.9,0.6,3c0,1.2-0.2,2.1-0.6,3c-0.4,0.8-0.9,1.6-1.5,2.2c-0.6,0.6-1.3,1.2-2.1,1.8
		c-0.8,0.5-1.6,1-2.3,1.6s-1.5,1.1-2.3,1.7c-0.7,0.6-1.4,1.3-2,2.1h10.8v4H27.4c0-1.3,0.2-2.5,0.6-3.5s0.9-1.9,1.6-2.6
		c0.7-0.8,1.4-1.5,2.3-2.1c0.9-0.7,1.8-1.3,2.8-2c0.5-0.3,1-0.7,1.6-1.1c0.6-0.4,1.1-0.8,1.6-1.2c0.5-0.4,0.9-0.9,1.2-1.5
		c0.3-0.5,0.5-1.2,0.5-1.9c0-1.1-0.3-2-1-2.6c-0.6-0.6-1.5-0.9-2.5-0.9c-0.7,0-1.2,0.2-1.7,0.5s-0.8,0.7-1.1,1.2s-0.5,1.1-0.6,1.7
		s-0.2,1.2-0.2,1.8h-4.6C27.8,123.8,28,122.4,28.3,121.3z"/>
</g>
<g>
	<path class="st3" d="M106.1,169.6l-0.9,5.2l0.1,0.1c0.6-0.6,1.3-1.1,2-1.4c0.7-0.3,1.5-0.4,2.5-0.4c1.1,0,2.1,0.2,3,0.6
		c0.9,0.4,1.6,1,2.2,1.7s1.1,1.5,1.4,2.5c0.3,0.9,0.5,2,0.5,3c0,1.2-0.2,2.3-0.7,3.3s-1.1,1.9-1.8,2.6c-0.8,0.7-1.7,1.3-2.7,1.7
		s-2.1,0.6-3.3,0.6c-1.1,0-2.2-0.1-3.2-0.4c-1-0.3-1.9-0.7-2.7-1.4c-0.8-0.6-1.4-1.4-1.9-2.3c-0.5-0.9-0.7-2-0.7-3.2h4.6
		c0.1,1,0.5,1.9,1.2,2.5s1.5,0.9,2.6,0.9c0.6,0,1.2-0.1,1.7-0.4c0.5-0.2,0.9-0.6,1.2-1c0.3-0.4,0.6-0.9,0.8-1.4
		c0.2-0.5,0.3-1.1,0.3-1.7c0-0.6-0.1-1.1-0.3-1.7c-0.2-0.5-0.4-1-0.8-1.4c-0.3-0.4-0.8-0.7-1.2-0.9c-0.5-0.2-1-0.3-1.7-0.3
		c-0.8,0-1.5,0.1-2,0.4s-1,0.8-1.5,1.4h-4.2l2.3-12.7h12.8v3.8h-9.6V169.6z"/>
</g>
<g>
	<path class="st3" d="M34.9,188.6v-14.9h-5.8v-3.5c0.8,0,1.6,0,2.3-0.2c0.8-0.1,1.4-0.4,2-0.8c0.6-0.4,1.1-0.8,1.5-1.4
		c0.4-0.6,0.7-1.3,0.8-2.2h3.7v22.9L34.9,188.6L34.9,188.6z"/>
</g>
<g>
	<path class="st3" d="M241.2,37.3V22.4h-5.8v-3.5c0.8,0,1.6,0,2.3-0.2c0.8-0.1,1.4-0.4,2-0.8s1.1-0.8,1.5-1.4s0.7-1.3,0.8-2.2h3.7
		v22.9h-4.5V37.3z"/>
	<path class="st3" d="M262.9,18.3c-0.5-0.6-1.2-0.8-2-0.8s-1.5,0.2-2.1,0.7s-1,1.1-1.3,1.8s-0.6,1.5-0.7,2.3
		c-0.2,0.8-0.2,1.5-0.3,2.2l0.1,0.1c0.6-0.9,1.4-1.6,2.2-2s1.8-0.6,2.9-0.6c1,0,1.9,0.2,2.9,0.6s1.7,1,2.4,1.7
		c0.6,0.7,1.1,1.5,1.3,2.4c0.3,0.9,0.4,1.8,0.4,2.7c0,1.2-0.2,2.3-0.6,3.3c-0.4,1-0.9,1.9-1.6,2.7s-1.6,1.3-2.5,1.8
		c-1,0.4-2.1,0.6-3.3,0.6c-1.7,0-3.2-0.3-4.3-1c-1.1-0.7-2-1.6-2.7-2.7c-0.7-1.1-1.1-2.4-1.4-3.8s-0.4-2.9-0.4-4.4
		c0-1.4,0.2-2.8,0.5-4.3c0.3-1.4,0.8-2.7,1.6-3.8c0.7-1.1,1.6-2.1,2.8-2.8c1.1-0.7,2.5-1.1,4.2-1.1c1,0,1.9,0.1,2.7,0.4
		c0.9,0.3,1.6,0.7,2.3,1.2s1.2,1.2,1.6,2s0.7,1.7,0.8,2.7h-4.5C263.8,19.5,263.4,18.8,262.9,18.3z M259,25.7
		c-0.5,0.2-0.9,0.5-1.2,0.9c-0.3,0.4-0.5,0.8-0.7,1.4c-0.2,0.5-0.2,1.1-0.2,1.6s0.1,1,0.2,1.6c0.2,0.5,0.4,1,0.7,1.4
		c0.3,0.4,0.7,0.7,1.2,1s1,0.4,1.6,0.4s1.1-0.1,1.5-0.4s0.8-0.6,1.1-0.9c0.3-0.4,0.5-0.8,0.7-1.3s0.2-1,0.2-1.5s-0.1-1.1-0.2-1.6
		s-0.4-1-0.6-1.4c-0.3-0.4-0.6-0.7-1.1-1c-0.4-0.2-1-0.4-1.6-0.4C260,25.4,259.5,25.5,259,25.7z"/>
</g>
<g>
	<path class="st3" d="M169.7,37.3V22.4h-5.8v-3.5c0.8,0,1.6,0,2.3-0.2c0.8-0.1,1.4-0.4,2-0.8s1.1-0.8,1.5-1.4s0.7-1.3,0.8-2.2h3.7
		v22.9h-4.5V37.3z"/>
	<path class="st3" d="M181.4,19.5c0.3-1.1,0.9-2.1,1.6-2.9s1.6-1.5,2.6-2s2.3-0.7,3.6-0.7c1,0,2,0.2,3,0.5c0.9,0.3,1.8,0.8,2.5,1.4
		s1.3,1.4,1.7,2.3s0.6,1.9,0.6,3c0,1.2-0.2,2.1-0.6,3c-0.4,0.8-0.9,1.6-1.5,2.2s-1.3,1.2-2.1,1.8c-0.8,0.5-1.6,1-2.3,1.6
		c-0.8,0.5-1.5,1.1-2.3,1.7c-0.7,0.6-1.4,1.3-2,2.1H197v4h-16.8c0-1.3,0.2-2.5,0.6-3.5c0.4-1,0.9-1.9,1.6-2.6
		c0.7-0.8,1.4-1.5,2.3-2.1c0.9-0.7,1.8-1.3,2.8-2c0.5-0.3,1-0.7,1.6-1.1s1.1-0.8,1.6-1.2c0.5-0.4,0.9-0.9,1.2-1.5
		c0.3-0.5,0.5-1.2,0.5-1.9c0-1.1-0.3-2-1-2.6c-0.6-0.6-1.5-0.9-2.5-0.9c-0.7,0-1.2,0.2-1.7,0.5s-0.8,0.7-1.1,1.2s-0.5,1.1-0.6,1.7
		s-0.2,1.2-0.2,1.8h-4.4C180.9,21.9,181,20.7,181.4,19.5z"/>
</g>
<g>
	<path class="st3" d="M241.2,88V73.1h-5.8v-3.5c0.8,0,1.6,0,2.3-0.2s1.4-0.4,2-0.8s1.1-0.8,1.5-1.4s0.7-1.3,0.8-2.2h3.7v22.9
		L241.2,88L241.2,88z"/>
	<path class="st3" d="M258.2,68.9l-0.9,5.2l0.1,0.1c0.6-0.6,1.3-1.1,2-1.4s1.5-0.4,2.5-0.4c1.1,0,2.1,0.2,3,0.6s1.6,1,2.2,1.7
		s1.1,1.5,1.4,2.5c0.3,0.9,0.5,2,0.5,3c0,1.2-0.2,2.3-0.7,3.3s-1.1,1.9-1.8,2.6c-0.8,0.7-1.7,1.3-2.7,1.7c-1,0.4-2.1,0.6-3.3,0.6
		c-1.1,0-2.2-0.1-3.2-0.4s-1.9-0.7-2.7-1.4c-0.8-0.6-1.4-1.4-1.9-2.3s-0.7-2-0.7-3.2h4.6c0.1,1,0.5,1.9,1.2,2.5s1.5,0.9,2.6,0.9
		c0.6,0,1.2-0.1,1.7-0.4c0.5-0.2,0.9-0.6,1.2-1s0.6-0.9,0.8-1.4c0.2-0.5,0.3-1.1,0.3-1.7s-0.1-1.1-0.3-1.7c-0.2-0.5-0.4-1-0.8-1.4
		c-0.3-0.4-0.8-0.7-1.2-0.9c-0.5-0.2-1-0.3-1.7-0.3c-0.8,0-1.5,0.1-2,0.4s-1,0.8-1.5,1.4h-4.2l2.3-12.7h12.8v3.8h-9.6V68.9z"/>
</g>
<g>
	<path class="st3" d="M169.7,88V73.1h-5.8v-3.5c0.8,0,1.6,0,2.3-0.2s1.4-0.4,2-0.8s1.1-0.8,1.5-1.4s0.7-1.3,0.8-2.2h3.7v22.9
		L169.7,88L169.7,88z"/>
	<path class="st3" d="M187.9,88V73.1h-5.8v-3.5c0.8,0,1.6,0,2.3-0.2s1.4-0.4,2-0.8s1.1-0.8,1.5-1.4s0.7-1.3,0.8-2.2h3.7v22.9
		L187.9,88L187.9,88z"/>
</g>
<g>
	<path class="st3" d="M241.2,139.1v-14.9h-5.8v-3.5c0.8,0,1.6,0,2.3-0.2s1.4-0.4,2-0.8s1.1-0.8,1.5-1.4s0.7-1.3,0.8-2.2h3.7V139
		h-4.5V139.1z"/>
	<path class="st3" d="M251.8,133.8v-4.3l9.9-13.3h4.2V130h3v3.8h-3v5.3h-4.4v-5.3H251.8z M261.4,122l-5.9,7.9h6L261.4,122L261.4,122
		z"/>
</g>
<g>
	<path class="st3" d="M169.7,139.1v-14.9h-5.8v-3.5c0.8,0,1.6,0,2.3-0.2s1.4-0.4,2-0.8s1.1-0.8,1.5-1.4s0.7-1.3,0.8-2.2h3.7V139
		h-4.5V139.1z"/>
	<path class="st3" d="M181,121.9c0.4-1.5,1.1-2.7,1.8-3.6s1.7-1.6,2.7-2s2.1-0.6,3.2-0.6c1.2,0,2.2,0.2,3.3,0.6c1,0.4,1.9,1,2.7,2
		c0.8,0.9,1.4,2.1,1.8,3.6s0.7,3.4,0.7,5.6c0,2.3-0.2,4.2-0.7,5.7s-1.1,2.8-1.8,3.7c-0.8,0.9-1.7,1.6-2.7,2s-2.1,0.6-3.3,0.6
		c-1.1,0-2.2-0.2-3.2-0.6c-1-0.4-1.9-1-2.7-2s-1.4-2.1-1.8-3.7c-0.4-1.5-0.7-3.5-0.7-5.7C180.4,125.3,180.6,123.4,181,121.9z
		 M185.1,129.9c0,0.9,0.2,1.8,0.4,2.7s0.6,1.6,1.1,2.2c0.5,0.6,1.2,0.9,2.2,0.9s1.7-0.3,2.2-0.9c0.5-0.6,0.9-1.3,1.1-2.2
		s0.4-1.8,0.4-2.7s0.1-1.7,0.1-2.4c0-0.4,0-0.9,0-1.4c0-0.6-0.1-1.1-0.1-1.7c-0.1-0.6-0.2-1.2-0.3-1.8c-0.1-0.6-0.4-1.1-0.6-1.6
		c-0.3-0.5-0.6-0.8-1.1-1.1c-0.4-0.3-1-0.4-1.6-0.4s-1.2,0.1-1.6,0.4c-0.4,0.3-0.8,0.7-1,1.1c-0.3,0.5-0.5,1-0.6,1.6
		c-0.2,0.6-0.3,1.2-0.3,1.8c-0.1,0.6-0.1,1.2-0.1,1.7c0,0.6,0,1,0,1.4C185,128.2,185,129.1,185.1,129.9z"/>
</g>
<g>
	<path class="st3" d="M241.2,188.6v-14.9h-5.8v-3.5c0.8,0,1.6,0,2.3-0.2s1.4-0.4,2-0.8c0.6-0.4,1.1-0.8,1.5-1.4
		c0.4-0.6,0.7-1.3,0.8-2.2h3.7v22.9L241.2,188.6L241.2,188.6z"/>
	<path class="st3" d="M260.3,174.9c0.6,0,1.1-0.2,1.6-0.4s0.9-0.5,1.2-0.9s0.5-0.9,0.5-1.6c0-1-0.3-1.7-1-2.3s-1.4-0.8-2.3-0.8
		c-1.2,0-2.1,0.4-2.7,1.2s-0.9,1.8-0.9,2.9h-4.4c0-1.2,0.3-2.3,0.6-3.2c0.4-1,0.9-1.8,1.6-2.5c0.7-0.7,1.5-1.2,2.5-1.6
		c1-0.4,2-0.6,3.2-0.6c0.9,0,1.8,0.1,2.7,0.4s1.7,0.7,2.5,1.2c0.7,0.5,1.3,1.2,1.8,2s0.7,1.7,0.7,2.7c0,1.1-0.3,2.1-0.8,2.9
		c-0.5,0.8-1.3,1.4-2.4,1.7v0.1c1.3,0.3,2.3,0.9,3,1.8c0.7,0.9,1.1,2.1,1.1,3.4c0,1.2-0.2,2.3-0.7,3.2s-1.1,1.7-1.9,2.4
		c-0.8,0.6-1.7,1.1-2.7,1.4c-1,0.3-2.1,0.5-3.2,0.5c-1.3,0-2.5-0.2-3.5-0.6c-1.1-0.4-2-0.9-2.7-1.6c-0.7-0.7-1.3-1.6-1.7-2.6
		s-0.6-2.2-0.6-3.5h4.4c0,0.6,0.1,1.2,0.3,1.8c0.2,0.6,0.4,1,0.8,1.4c0.3,0.4,0.7,0.7,1.2,1c0.5,0.2,1.1,0.4,1.8,0.4
		c1,0,1.9-0.3,2.6-1s1.1-1.5,1.1-2.6c0-0.9-0.2-1.5-0.5-2s-0.8-0.8-1.3-1s-1.1-0.3-1.7-0.4c-0.6,0-1.2,0-1.8,0v-3.3
		C259.2,175.1,259.8,175.1,260.3,174.9z"/>
</g>
<g>
	<path class="st3" d="M177.1,184.8c0.5,0.6,1.2,0.8,2,0.8s1.5-0.2,2.1-0.7c0.5-0.5,1-1.1,1.3-1.8s0.6-1.5,0.7-2.3s0.2-1.5,0.3-2.2
		l-0.1-0.1c-0.6,0.9-1.4,1.6-2.2,2s-1.8,0.6-2.9,0.6c-1,0-1.9-0.2-2.9-0.6c-0.9-0.4-1.7-1-2.4-1.7c-0.6-0.7-1.1-1.5-1.3-2.4
		s-0.4-1.8-0.4-2.7c0-1.2,0.2-2.3,0.6-3.3c0.4-1,0.9-1.9,1.6-2.6c0.7-0.8,1.6-1.3,2.5-1.8c1-0.4,2.1-0.7,3.3-0.7
		c1.7,0,3.2,0.3,4.3,1s2,1.6,2.7,2.7s1.1,2.4,1.4,3.8c0.3,1.4,0.4,2.8,0.4,4.3c0,1.4-0.2,2.8-0.5,4.3c-0.3,1.4-0.9,2.7-1.6,3.8
		s-1.6,2.1-2.8,2.8c-1.1,0.7-2.5,1.1-4.2,1.1c-1,0-1.9-0.1-2.7-0.4c-0.9-0.3-1.6-0.7-2.3-1.2s-1.2-1.2-1.6-2
		c-0.4-0.8-0.7-1.7-0.8-2.7h4.4C176.2,183.6,176.6,184.1,177.1,184.8z M181.1,177.2c0.5-0.2,0.8-0.5,1.1-0.9s0.5-0.8,0.7-1.4
		c0.2-0.5,0.2-1.1,0.2-1.6s-0.1-1-0.2-1.6c-0.2-0.5-0.4-1-0.7-1.4s-0.7-0.7-1.2-1s-1-0.4-1.6-0.4c-0.5,0-1,0.1-1.5,0.4
		s-0.8,0.6-1.1,0.9s-0.5,0.8-0.7,1.3s-0.2,1-0.2,1.5s0.1,1.1,0.2,1.6c0.1,0.5,0.4,1,0.6,1.4c0.3,0.4,0.6,0.7,1.1,1
		c0.4,0.2,1,0.4,1.6,0.4C180.1,177.6,180.6,177.4,181.1,177.2z"/>
</g>
</svg>
