<?xml version="1.0" encoding="utf-8"?>
<!-- Generator: Adobe Illustrator 28.0.0, SVG Export Plug-In . SVG Version: 6.00 Build 0)  -->
<svg version="1.1" id="レイヤー_1" xmlns="http://www.w3.org/2000/svg" xmlns:xlink="http://www.w3.org/1999/xlink" x="0px"
	 y="0px" viewBox="0 0 49 86" style="enable-background:new 0 0 49 86;" xml:space="preserve">
<style type="text/css">
	.st0{fill:#FFC880;}
</style>
<g>
	<path class="st0" d="M24.9,85.8c1-0.1,1.9-0.5,2.6-1.1L47,68c1-0.8,1.6-1.9,1.7-3.2s-0.3-2.5-1.1-3.4c-0.8-1-2-1.5-3.2-1.6
		c-1.3-0.1-2.5,0.4-3.4,1.2L24.5,75L8,60.9c-0.9-0.8-2.2-1.3-3.4-1.2c-1.3,0.1-2.4,0.7-3.2,1.6c-0.8,1-1.2,2.2-1.1,3.5
		C0.4,66,1,67.2,2,68l19.5,16.7C22.4,85.5,23.7,85.9,24.9,85.8z"/>
	<circle class="st0" cx="24.5" cy="47.4" r="6.8"/>
	<circle class="st0" cx="24.5" cy="27.2" r="6.8"/>
	<circle class="st0" cx="24.5" cy="7.1" r="6.8"/>
</g>
</svg>
