<?xml version="1.0" encoding="utf-8"?>
<!-- Generator: Adobe Illustrator 28.0.0, SVG Export Plug-In . SVG Version: 6.00 Build 0)  -->
<svg version="1.1" id="レイヤー_1" xmlns="http://www.w3.org/2000/svg" xmlns:xlink="http://www.w3.org/1999/xlink" x="0px"
	 y="0px" viewBox="0 0 500 440" style="enable-background:new 0 0 500 440;" xml:space="preserve">
<style type="text/css">
	.st0{fill:#FFC880;}
	.st1{fill:#FFFFFF;}
</style>
<g>
	<g>
		<path class="st0" d="M72.3,274.1c0.3,0,0.6,0,0.9,0c0-0.2-0.1-0.4-0.1-0.6c0-1.3,1.1-2.4,2.4-2.4c1.3,0,2.4,1.1,2.4,2.4
			c0,1.4-1.1,2.4-2.4,2.4c-0.2,0-0.4,0-0.5-0.1l-0.1,0.4c-0.5,2.2-1.5,5.5-3.2,7.7c-1.9,2.5-4.6,4.5-8.4,5.7l-1.8-2
			c4.1-1,6.5-2.8,8.2-5c1.5-1.9,2.4-4.6,2.6-6.5H62c-0.9,0-1.8,0-2.3,0.1V274c0.6,0.1,1.6,0.1,2.3,0.1H72.3z M76.8,273.5
			c0-0.7-0.6-1.3-1.3-1.3c-0.7,0-1.3,0.6-1.3,1.3c0,0.7,0.6,1.3,1.3,1.3C76.2,274.8,76.8,274.2,76.8,273.5z"/>
		<path class="st0" d="M86.3,272.8c0,0.4-0.1,1-0.1,1.6v7.1c0,0.5,0,1.3,0.1,1.7h-2.5c0-0.4,0.1-1.1,0.1-1.7v-7.1
			c0-0.4,0-1.1-0.1-1.6H86.3z M96,272.6c0,0.5-0.1,1.2-0.1,1.9v3.8c0,4.8-0.8,6.6-2.3,8.4c-1.4,1.6-3.5,2.6-5,3.1l-1.8-1.8
			c2-0.5,3.8-1.3,5.1-2.8c1.5-1.7,1.8-3.3,1.8-7v-3.6c0-0.8-0.1-1.4-0.1-1.9H96z"/>
		<path class="st0" d="M112.6,284.2c3.4-2.1,6-5.3,7.3-8l1.3,2.3c-1.5,2.7-4.1,5.6-7.4,7.6c-2.1,1.3-4.8,2.6-8.1,3.1l-1.4-2.2
			C107.8,286.7,110.6,285.5,112.6,284.2z M111.9,277.5l-1.7,1.7c-1.1-1.1-3.7-3.4-5.3-4.5l1.5-1.6
			C108,274.1,110.7,276.3,111.9,277.5z"/>
		<path class="st0" d="M140.8,283.6c-2.2-1.2-5.7-2.5-8-3.3v6.5c0,0.7,0.1,1.9,0.2,2.7h-2.6c0.1-0.7,0.2-1.9,0.2-2.7v-12.2
			c0-0.7-0.1-1.6-0.2-2.4h2.6c-0.1,0.7-0.1,1.6-0.1,2.4v3.3c2.8,0.8,6.8,2.3,8.9,3.4L140.8,283.6z"/>
		<path class="st0" d="M159.2,278.5c1.9,1.5,4.6,2.7,7,3.4c-0.4,0.4-1,1.1-1.3,1.6c-0.6-0.2-1.2-0.4-1.7-0.7v7.5h-2v-0.6h-9.6v0.7
			h-1.9v-7.7c-0.7,0.3-1.3,0.6-2,0.8c-0.3-0.4-0.8-1.1-1.2-1.5c2.4-0.7,5-2.1,6.8-3.6h-6.3v-1.6h4.3c-0.3-0.7-0.9-1.7-1.4-2.4
			l1.1-0.4c-0.8,0-1.6,0.1-2.4,0.1c0-0.4-0.2-1.1-0.4-1.5c5-0.1,10.9-0.6,14.3-1.3l1.3,1.4c-1.9,0.4-4.2,0.7-6.6,0.9v3.2h2.6
			l-0.7-0.2c0.5-0.9,1.2-2.2,1.6-3.2l2.1,0.6c-0.6,1-1.3,2-1.8,2.8h4.5v1.6H159.2z M162.1,282.3c-1.8-0.9-3.5-2.1-4.8-3.4v3.1h-1.9
			v-3c-1.3,1.2-2.9,2.4-4.6,3.3H162.1z M155.4,283.9h-3.7v1.5h3.7V283.9z M151.7,288.3h3.7v-1.6h-3.7V288.3z M155.4,273.8
			c-1.1,0.1-2.3,0.1-3.4,0.2c0.6,0.8,1.2,1.8,1.5,2.5l-0.9,0.3h2.8V273.8z M161.3,283.9h-4v1.5h4V283.9z M161.3,288.3v-1.6h-4v1.6
			H161.3z"/>
		<path class="st0" d="M175.6,281.4c-0.2,0.5-0.3,1.1-0.5,1.6h10.4c0,0,0,0.6-0.1,0.9c-0.5,3.6-1,5.2-1.8,5.9
			c-0.5,0.5-1.1,0.6-2,0.7c-0.7,0-2.1,0-3.6,0c0-0.6-0.3-1.4-0.7-1.9c1.5,0.1,3,0.1,3.6,0.1c0.5,0,0.8,0,1-0.2
			c0.5-0.4,0.9-1.5,1.2-3.7h-8.7c-0.2,0.5-0.3,0.9-0.5,1.3l-2.1-0.3c0.5-1.1,1.1-2.8,1.6-4.3h-4.3v-1.8h18.8v1.8H175.6z
			 M185.4,278.2h-13.5v-6.3h13.5V278.2z M183.4,273.6h-9.5v2.9h9.5V273.6z"/>
	</g>
	<g>
		<path class="st1" d="M271.8,289.4h-11c-3.9,0-7.1,3.2-7.1,7.1c0,3.9,3.2,7.1,7.1,7.1h11c3.9,0,7.1-3.2,7.1-7.1
			C278.8,292.5,275.7,289.4,271.8,289.4z"/>
		<path class="st1" d="M271.8,220.5h-11c-3.9,0-7.1,3.2-7.1,7.1s3.2,7.1,7.1,7.1h11c3.9,0,7.1-3.2,7.1-7.1S275.7,220.5,271.8,220.5z
			"/>
		<path class="st1" d="M271.8,356.3h-11c-3.9,0-7.1,3.2-7.1,7.1c0,3.9,3.2,7.1,7.1,7.1h11c3.9,0,7.1-3.2,7.1-7.1
			C278.8,359.5,275.7,356.3,271.8,356.3z"/>
		<path class="st1" d="M432,398.1H236.5v-52.6h160.4c3.9,0,7.1-3.2,7.1-7.1s-3.2-7.1-7.1-7.1H236.5v-53.5h160.4
			c3.9,0,7.1-3.2,7.1-7.1c0-3.9-3.2-7.1-7.1-7.1H236.5v-53.4h160.4c3.9,0,7.1-3.2,7.1-7.1c0-3.9-3.2-7.1-7.1-7.1H236.5v-67.9H432
			V398.1z M405.5,421.9h-18.8v-9.6h18.8V421.9z M281.7,421.9h-18.8v-9.6h18.8V421.9z M236.5,89.2c0-3.9,3.2-7.1,7.1-7.1h92
			c1.9,0,3.7,0.7,5,2.1c1.3,1.3,2.1,3.1,2.1,5V114H236.5L236.5,89.2z M445.6,189.7v-68.6c0-3.9-3.2-7.1-7.1-7.1h-81.7v-11.7H439
			c3.9-0.1,7-3.2,7.1-7.1c0-3.9-3.2-7.1-7.1-7.1h-82.4c-0.6-11.2-9.9-20-21.1-20.1h-92c-11.7,0-21.2,9.5-21.2,21.2v86.2h-18.8
			c-0.8-0.1-1.6-0.1-2.4,0l-30-19.4c-3.3-2.1-7.6-1.3-9.8,2c-2.1,3.3-1.3,7.7,2,9.9l59,38.9V405c0,3.9,3.2,7.1,7.1,7.1h19.3v16.8
			c0,3.9,3.2,7.1,7.1,7.1h33c3.9,0,7.1-3.2,7.1-7.1v-16.7h76.7v16.7c0,3.9,3.2,7.1,7.1,7.1h33c3.9,0,7.1-3.2,7.1-7.1v-16.7H439
			c3.9,0,7.1-3.2,7.1-7.1L445.6,189.7z"/>
		<path class="st1" d="M291.3,88.1h-14.2c-3.9,0-7.1,3.2-7.1,7.1c0,3.9,3.2,7.1,7.1,7.1h14.2c3.9,0,7.1-3.2,7.1-7.1
			C298.4,91.3,295.2,88.1,291.3,88.1z"/>
	</g>
	<g>
		<g>
			<path class="st1" d="M122.2,12.9c-15.8,0-30.9,6.3-42.1,17.4C69,41.5,62.7,56.7,62.7,72.5s6.3,30.9,17.4,42.1
				c11.2,11.2,26.3,17.4,42.1,17.4s30.9-6.3,42.1-17.4c11.2-11.2,17.4-26.3,17.4-42.1c0-15.8-6.3-30.9-17.5-42.1S138,13,122.2,12.9
				L122.2,12.9z M122.2,140.9c-21.2,0-41.2-9.9-54.1-26.7c-12.9-16.8-17.4-38.6-12-59.1c5.4-20.5,19.9-37.4,39.4-45.7
				c22.5-9.5,48.4-6.3,67.9,8.5c19.5,14.7,29.7,38.8,26.7,63.1c-3,24.3-18.8,45.1-41.3,54.6C140.4,139.1,131.4,140.9,122.2,140.9
				L122.2,140.9z"/>
			<path class="st1" d="M121.6,18.1h1.2c0.9,0,1.6,0.9,1.6,1.6v8.4c0,0.9-0.7,1.6-1.6,1.6h-1.2c-0.9,0-1.6-0.9-1.6-1.6v-8.4
				C120,18.9,120.7,18.1,121.6,18.1z"/>
			<path class="st1" d="M121.6,115.1h1.2c0.9,0,1.6,0.9,1.6,1.6v8.4c0,0.9-0.7,1.6-1.6,1.6h-1.2c-0.9,0-1.6-0.9-1.6-1.6v-8.4
				C120,115.9,120.7,115.1,121.6,115.1z"/>
			<path class="st1" d="M160.2,33.6l0.8,0.8c0.6,0.6,0.5,1.8,0,2.3l-5.9,5.9c-0.6,0.6-1.7,0.6-2.3,0l-0.8-0.8
				c-0.6-0.6-0.5-1.8,0-2.3l5.9-5.9C158.5,33,159.6,33,160.2,33.6z"/>
			<path class="st1" d="M91.6,102.2l0.8,0.8c0.6,0.6,0.5,1.8,0,2.3l-5.9,5.9c-0.6,0.6-1.7,0.6-2.3,0l-0.8-0.8
				c-0.6-0.6-0.5-1.8,0-2.3l5.9-5.9C89.9,101.6,91,101.6,91.6,102.2z"/>
			<path class="st1" d="M176.5,71.9V73c0,0.9-0.9,1.6-1.6,1.6h-8.4c-0.9,0-1.6-0.7-1.6-1.6v-1.2c0-0.9,0.9-1.6,1.6-1.6h8.4
				C175.8,70.2,176.5,71,176.5,71.9z"/>
			<path class="st1" d="M79.5,71.9V73c0,0.9-0.9,1.6-1.6,1.6h-8.4c-0.9,0-1.6-0.7-1.6-1.6v-1.2c0-0.9,0.9-1.6,1.6-1.6h8.4
				C78.8,70.2,79.5,71,79.5,71.9z"/>
			<path class="st1" d="M161,110.5l-0.8,0.8c-0.6,0.6-1.8,0.5-2.3,0l-5.9-5.9c-0.6-0.6-0.6-1.7,0-2.3l0.8-0.8c0.6-0.6,1.8-0.5,2.3,0
				l5.9,5.9C161.7,108.8,161.7,109.8,161,110.5z"/>
			<path class="st1" d="M92.4,41.9l-0.8,0.8c-0.6,0.6-1.8,0.5-2.3,0l-5.9-5.9c-0.6-0.6-0.6-1.7,0-2.3l0.8-0.8c0.6-0.6,1.8-0.5,2.3,0
				l5.9,5.9C93.1,40.2,93.1,41.2,92.4,41.9z"/>
		</g>
		<g>
			<path class="st1" d="M118,84.7V93H88.6l14.2-17.9c1.2-1.4,2.2-2.5,3-3.5c0.8-1,1.4-1.8,1.8-2.6c0.4-0.8,0.8-1.5,0.9-2.2
				c0.2-0.7,0.3-1.4,0.3-2.2c0-0.5-0.1-1-0.3-1.6c-0.2-0.6-0.5-1.1-0.9-1.5c-0.4-0.5-0.9-0.8-1.5-1.1c-0.6-0.3-1.4-0.4-2.2-0.4
				c-0.7,0-1.3,0.2-1.9,0.5c-0.6,0.3-1.1,0.7-1.5,1.3c-0.4,0.5-0.8,1.2-1.1,1.9C99.1,64.4,99,65.2,99,66h-8.8c0-2.1,0.4-4.1,1.1-5.8
				c0.7-1.7,1.7-3.2,3-4.5c1.3-1.3,2.7-2.2,4.4-2.9c1.7-0.7,3.5-1,5.5-1c2,0,3.8,0.3,5.4,1c1.6,0.7,3.1,1.6,4.3,2.8
				c1.2,1.2,2.1,2.5,2.8,4.1c0.7,1.6,1,3.2,1,5c0,1.5-0.1,2.7-0.3,3.8c-0.2,1.1-0.5,2.1-1,3.1c-0.5,1-1.2,2.1-2.1,3.2
				c-0.9,1.1-2,2.4-3.3,3.9l-4.9,6.1H118z"/>
			<path class="st1" d="M151.6,85.3v7.9h-7.8v-7.9h-19V78l16-25.6h10.8v25.1h4.3v7.8H151.6z M143.8,61.8l-10.1,15.7h10.1V61.8z"/>
		</g>
	</g>
	<g>
		<path class="st0" d="M170.9,426.2h7.6l0,7.6h-7.6L170.9,426.2z M155.6,426.2h7.6v7.6h-7.6V426.2z M140.4,426.2h7.6l0,7.6h-7.6
			L140.4,426.2z M163.2,418.6h7.6v7.6h-7.6V418.6z M155.6,410.9h7.6v7.6h-7.6V410.9z M148,418.6h7.6v7.6H148V418.6z M140.4,410.9
			h7.6v7.6h-7.6V410.9z M178.5,418.6h7.6v7.6h-7.6V418.6z M170.9,395.7h7.6v7.6h-7.6V395.7z M163.2,403.3h7.6v7.6h-7.6V403.3z
			 M155.6,395.7h7.6v7.6h-7.6V395.7z M140.4,395.7h7.6v7.6h-7.6V395.7z M132.7,403.3h7.6v7.6h-7.6V403.3z M178.5,403.3h7.6v7.6h-7.6
			V403.3z M170.9,380.4h7.6v7.6h-7.6V380.4z M163.2,388.1h7.6v7.6h-7.6V388.1z M148,388.1h7.6v7.6H148V388.1z M140.4,380.4h7.6v7.6
			h-7.6V380.4z M132.7,388.1h7.6v7.6h-7.6V388.1z M178.5,388.1h7.6v7.6h-7.6V388.1z M170.9,365.2h7.6l0,7.6h-7.6L170.9,365.2z
			 M163.2,372.8h7.6v7.6h-7.6V372.8z M155.6,365.2h7.6v7.6h-7.6V365.2z M148,372.8h7.6v7.6H148V372.8z M140.4,365.2h7.6l0,7.6h-7.6
			L140.4,365.2z M132.7,372.8h7.6v7.6h-7.6V372.8z M110,365.2h7.6l0,7.6H110L110,365.2z M102.3,372.8h7.6v7.6h-7.6V372.8z
			 M94.7,365.2h7.6v7.6h-7.6V365.2z M64.2,365.2h7.6v7.6h-7.6V365.2z M79.5,365.2h7.6l0,7.6h-7.6L79.5,365.2z M71.8,372.8h7.6v7.6
			h-7.6V372.8z M178.5,372.8h7.6v7.6h-7.6V372.8z M125.1,426.2h7.6v7.6h-7.6V426.2z M117.6,418.6h7.6v7.6h-7.6V418.6z M125.1,410.9
			h7.6v7.6l-7.6,0V410.9z M117.6,403.3h7.6v7.6h-7.6V403.3z M125.1,395.7h7.6v7.6h-7.6V395.7z M117.6,388.1h7.6v7.6h-7.6V388.1z
			 M125.1,380.4h7.6v7.6l-7.6,0V380.4z M117.6,372.8h7.6v7.6h-7.6V372.8z M117.6,357.7h7.6v7.6h-7.6V357.7z M125.1,350h7.6v7.6
			l-7.6,0V350z M117.6,342.4h7.6v7.6h-7.6V342.4z M125.1,334.8h7.6v7.6h-7.6V334.8z M117.6,327.2h7.6v7.6h-7.6V327.2z M125.1,319.5
			h7.6v7.6l-7.6,0V319.5z M117.6,311.9h7.6v7.6h-7.6V311.9z M79.5,403.3h15.3v15.3H79.5V403.3z M110,388.1v45.6H64.2v-45.6H110z
			 M102.3,395.7H71.8v30.5h30.5V395.7z M155.6,327.2h15.3v15.3h-15.3V327.2z M186.1,311.9v45.8h-45.6v-45.8H186.1z M178.5,319.5H148
			V350h30.5V319.5z M79.5,327.2h15.3v15.3H79.5V327.2z M110,311.9v45.8H64.2v-45.8H110z M102.3,319.5H71.8V350h30.5V319.5z"/>
	</g>
</g>
</svg>
