<?xml version="1.0" standalone="no"?>
<!DOCTYPE svg PUBLIC "-//W3C//DTD SVG 20010904//EN"
 "http://www.w3.org/TR/2001/REC-SVG-20010904/DTD/svg10.dtd">
<svg version="1.0" xmlns="http://www.w3.org/2000/svg"
 width="300.000000pt" height="300.000000pt" viewBox="0 0 300.000000 300.000000"
 preserveAspectRatio="xMidYMid meet">
<metadata>
Created by potrace 1.14, written by Peter Selinger 2001-2017
</metadata>
<g transform="translate(0.000000,300.000000) scale(0.100000,-0.100000)"
fill="#000000" stroke="none">
<path d="M2060 2633 c-14 -2 -56 -20 -95 -38 -79 -38 -156 -110 -203 -190
l-29 -50 -79 2 c-121 4 -749 -15 -924 -27 -85 -6 -174 -17 -197 -25 -89 -29
-157 -108 -169 -196 -8 -56 13 -351 28 -402 17 -56 78 -120 140 -147 53 -23
54 -23 238 -11 280 18 640 26 640 14 0 -6 -42 -50 -92 -99 -141 -136 -306
-239 -533 -335 -110 -46 -160 -86 -191 -153 -37 -80 -33 -132 31 -324 62 -188
86 -227 169 -269 81 -42 146 -38 279 16 220 89 453 220 622 350 334 257 558
599 589 902 l7 66 42 14 c59 20 147 79 191 130 21 24 54 77 74 117 30 63 36
86 40 167 4 76 1 106 -17 163 -41 134 -131 236 -266 299 -52 24 -74 28 -165
29 -58 1 -116 0 -130 -3z m84 -202 c10 -11 20 -37 23 -59 5 -36 2 -43 -31 -72
-27 -25 -36 -41 -36 -66 0 -46 8 -63 41 -79 41 -22 73 -18 108 10 25 22 30 34
33 78 3 46 6 53 32 66 61 29 113 -33 103 -125 -17 -167 -171 -269 -349 -231
l-36 8 14 -47 c32 -106 8 -285 -56 -422 -69 -147 -196 -310 -342 -440 -160
-142 -443 -313 -675 -407 -126 -51 -126 -51 -189 139 -59 179 -59 178 57 225
301 120 606 340 721 520 23 37 28 56 28 106 0 81 -37 142 -105 175 -47 23 -50
23 -319 17 -149 -3 -341 -11 -426 -18 -190 -14 -185 -17 -195 126 -7 84 -5 98
10 115 23 25 31 25 90 -1 76 -34 146 -23 248 37 164 96 247 124 358 124 78 0
125 -20 199 -85 69 -60 122 -84 181 -85 57 0 103 19 148 60 26 24 36 28 42 18
5 -7 9 -16 9 -21 0 -14 82 -97 96 -97 23 0 27 21 7 43 -49 54 -63 220 -26 292
12 22 32 50 45 62 55 52 159 70 192 34z"/>
<path d="M1360 1017 c-36 -24 -86 -56 -113 -71 -56 -33 -72 -57 -57 -86 19
-36 60 -24 178 50 113 72 132 93 112 130 -16 31 -49 24 -120 -23z"/>
<path d="M1098 869 c-26 -14 -23 -65 3 -79 16 -9 26 -8 45 5 29 19 32 60 5 75
-24 12 -31 12 -53 -1z"/>
</g>
</svg>
