<?xml version="1.0" encoding="utf-8"?>
<!-- Generator: Adobe Illustrator 28.0.0, SVG Export Plug-In . SVG Version: 6.00 Build 0)  -->
<svg version="1.1" id="レイヤー_1" xmlns="http://www.w3.org/2000/svg" xmlns:xlink="http://www.w3.org/1999/xlink" x="0px"
	 y="0px" viewBox="0 0 26 26" style="enable-background:new 0 0 26 26;" xml:space="preserve">
<style type="text/css">
	.st0{fill:#804F4E;}
</style>
<path class="st0" d="M11.8,16.7l-5.2-5.2C6,10.9,6,9.9,6.6,9.3c0.6-0.6,1.7-0.6,2.3,0l4.1,4.1l4.1-4.1c0.6-0.6,1.7-0.6,2.3,0
	c0.6,0.6,0.6,1.7,0,2.3l-5.2,5.2c-0.3,0.3-0.8,0.5-1.2,0.5h-0.1C12.5,17.2,12.1,17,11.8,16.7z M26,13c0-3.4-1.4-6.8-3.8-9.2
	C19.8,1.4,16.4,0,13,0S6.2,1.4,3.8,3.8C1.4,6.2,0,9.6,0,13s1.4,6.8,3.8,9.2C6.2,24.6,9.6,26,13,26s6.8-1.4,9.2-3.8
	C24.6,19.8,26,16.4,26,13z"/>
</svg>
