<?xml version="1.0" encoding="utf-8"?>
<!-- Generator: Adobe Illustrator 28.0.0, SVG Export Plug-In . SVG Version: 6.00 Build 0)  -->
<svg version="1.1" id="レイヤー_1" xmlns="http://www.w3.org/2000/svg" xmlns:xlink="http://www.w3.org/1999/xlink" x="0px"
	 y="0px" viewBox="0 0 28 16" style="enable-background:new 0 0 28 16;" xml:space="preserve">
<style type="text/css">
	.st0{fill:#5FC494;}
</style>
<path class="st0" d="M28,8c0-0.3-0.1-0.6-0.3-0.8l-6.6-6.8c-0.4-0.4-1.3-0.6-1.8-0.1c-0.5,0.4-0.5,1.3,0,1.8l4.6,4.8H1.2
	C0.6,6.8,0,7.3,0,8s0.6,1.2,1.2,1.2h22.7L19.3,14c-0.4,0.4-0.5,1.3,0,1.8c0.5,0.4,1.4,0.3,1.8-0.1l6.6-6.8C27.9,8.6,28,8.3,28,8
	L28,8z"/>
</svg>
