<?xml version="1.0" encoding="UTF-8"?>
<svg id="_レイヤー_1" data-name="レイヤー 1" xmlns="http://www.w3.org/2000/svg" viewBox="0 0 26 26">
  <defs>
    <style>
      .cls-1 {
        fill: #804f4e;
      }
    </style>
  </defs>
  <path class="cls-1" d="M12.9,8.7h.1c.4,0,.9,.2,1.2,.5l5.2,5.2c.6,.6,.6,1.7,0,2.3-.6,.6-1.7,.6-2.3,0l-4.1-4.1-4.1,4.1c-.6,.6-1.7,.6-2.3,0-.6-.6-.6-1.6,0-2.2l5.2-5.2c.3-.3,.7-.5,1.1-.6ZM22.2,3.8C19.8,1.4,16.4,0,13,0S6.2,1.4,3.8,3.8C1.4,6.2,0,9.6,0,13s1.4,6.8,3.8,9.2c2.4,2.4,5.8,3.8,9.2,3.8s6.8-1.4,9.2-3.8c2.4-2.4,3.8-5.8,3.8-9.2s-1.4-6.8-3.8-9.2Z"/>
</svg>