<?xml version="1.0" encoding="utf-8"?>
<!-- Generator: Adobe Illustrator 28.0.0, SVG Export Plug-In . SVG Version: 6.00 Build 0)  -->
<svg version="1.1" id="レイヤー_1" xmlns="http://www.w3.org/2000/svg" xmlns:xlink="http://www.w3.org/1999/xlink" x="0px"
	 y="0px" viewBox="0 0 322 105" style="enable-background:new 0 0 322 105;" xml:space="preserve">
<style type="text/css">
	.st0{fill:#80D4AF;}
</style>
<path class="st0" d="M174.2,99.9c-9.8,1.6-19.8,2.8-29.6,3.6c-58,4.6-103-5.3-126.5-27.9C5.9,63.9-0.2,49.1,0.5,33
	C1,18.6,10.4,2.3,26.6,0.5c8-0.9,15.2,4.8,16.1,12.8c0.8,7.5-4.2,14.3-11.5,15.8c-0.7,0.9-1.6,2.8-1.7,5C29.2,42,32,48.7,38.2,54.6
	c17.2,16.5,55.1,23.8,104,19.9c61.5-4.9,130.2-29.7,155.8-49.8c6.3-5,15.4-3.9,20.4,2.4c5,6.3,3.9,15.4-2.4,20.4
	C290.8,67.4,234,90.3,174.2,99.9z"/>
</svg>
