<?xml version="1.0" encoding="utf-8"?>
<!-- Generator: Adobe Illustrator 28.0.0, SVG Export Plug-In . SVG Version: 6.00 Build 0)  -->
<svg version="1.1" id="レイヤー_1" xmlns="http://www.w3.org/2000/svg" xmlns:xlink="http://www.w3.org/1999/xlink" x="0px"
	 y="0px" viewBox="0 0 376 837" style="enable-background:new 0 0 376 837;" xml:space="preserve">
<style type="text/css">
	.st0{fill:#FFD39A;}
	.st1{fill:#FFE1C0;}
</style>
<g>
	<path class="st0" d="M165.2,47.7C45,126,31.4,145.1,0.9,136.4l-0.3,65.7l-0.6,0v330.8c0,0,90.5,42.4,210.8-35.9
		c120.3-78.3,133.9-97.4,164.4-88.7l0.3-65.7l0.6,0V11.7C376,11.7,285.5-30.7,165.2,47.7z"/>
	<path class="st1" d="M165.2,340C45,418.3,31.4,437.5,0.9,428.7l-0.3,65.7l-0.6,0v330.8c0,0,90.5,42.4,210.8-35.9
		C331,711,344.6,691.9,375.1,700.6l0.3-65.7l0.6,0V304.1C376,304.1,285.5,261.7,165.2,340z"/>
</g>
</svg>
