<?xml version="1.0" encoding="utf-8"?>
<!-- Generator: Adobe Illustrator 28.0.0, SVG Export Plug-In . SVG Version: 6.00 Build 0)  -->
<svg version="1.1" id="レイヤー_1" xmlns="http://www.w3.org/2000/svg" xmlns:xlink="http://www.w3.org/1999/xlink" x="0px"
	 y="0px" viewBox="0 0 1440 1841" style="enable-background:new 0 0 1440 1841;" xml:space="preserve">
<style type="text/css">
	.st0{fill:#FFD39A;}
	.st1{fill:#FFE1C0;}
</style>
<g>
	<path class="st0" d="M632.8,104.5C172.3,276.8,120.2,318.9,3.3,299.7l-1,144.7l-2.3,0v727.9c0,0,346.7,93.3,807.2-79.1
		c460.5-172.3,512.7-214.4,629.5-195.2l1-144.7l2.3,0V25.4C1440,25.4,1093.3-67.9,632.8,104.5z"/>
	<path class="st1" d="M632.8,747.8C172.3,920.1,120.2,962.2,3.3,943l-1,144.7l-2.3,0v727.9c0,0,346.7,93.3,807.2-79.1
		c460.5-172.3,512.7-214.4,629.5-195.2l1-144.7l2.3,0V668.7C1440,668.7,1093.3,575.5,632.8,747.8z"/>
</g>
</svg>
