<?xml version="1.0" encoding="UTF-8"?>
<svg id="_レイヤー_2" data-name="レイヤー 2" xmlns="http://www.w3.org/2000/svg" viewBox="0 0 1440.25 3009.77">
  <defs>
    <style>
      .cls-1 {
        fill: #ffe1c0;
      }

      .cls-2 {
        fill: #ffc880;
      }

      .cls-3 {
        fill: #ffd39a;
      }

      .cls-4 {
        fill: #804f4e;
      }
    </style>
  </defs>
  <g id="PC_デザイン" data-name="PC・デザイン">
    <g>
      <g>
        <rect class="cls-2" x=".25" width="1440" height="3009.77"/>
        <path class="cls-4" d="M.25,206.1s68.46-22.68,243.61-27.91c173.88-5.19,266.7,43.15,422.75,42.58,125.63-.46,273.94-42.62,348.92-42.62,88.5,0,124.06,32.62,247.61,25.64,114.98-6.49,177.11-45.23,177.11-45.23V0s-201.67,0-201.67,0h-503.86s-400.67,0-467.22,0S.25,0,.25,0V206.1Z"/>
      </g>
      <path class="cls-3" d="M0,1074.81v727.89s346.65,93.26,807.19-79.06c460.53-172.31,515.95-213.78,632.81-194.61V655.83s-346.65-93.26-807.19,79.06C172.28,907.2,117.12,949.46,.25,930.29"/>
      <path class="cls-1" d="M0,1718.15v727.89s346.65,93.26,807.19-79.06c460.53-172.31,516.21-213.88,633.07-194.71l-.25-145.2h0v-727.9s-346.65-93.26-807.19,79.06C172.28,1550.54,116.86,1592.25,0,1573.08"/>
    </g>
  </g>
</svg>