<?xml version="1.0" encoding="UTF-8"?>
<svg id="_レイヤー_2" data-name=" レイヤー 2" xmlns="http://www.w3.org/2000/svg" viewBox="0 0 420 1980">
  <defs>
    <style>
      .cls-1 {
        fill: #ffe1c0;
      }

      .cls-2 {
        fill: #ffc880;
      }

      .cls-3 {
        fill: #ffd39a;
      }

      .cls-4 {
        fill: #804f4e;
      }
    </style>
  </defs>
  <rect class="cls-2" y="99.71" width="420.94" height="1880.29"/>
  <g>
    <path class="cls-3" d="M184.98,687.68C50.36,762.05,35.12,780.21,.96,771.94l-.3,62.43H0v314.13s101.33,40.25,235.96-34.12c134.62-74.36,149.86-92.53,184.02-84.26l.3-62.43h.66v-314.13s-101.33-40.25-235.96,34.12Z"/>
    <path class="cls-1" d="M184.98,965.32C50.36,1039.68,35.12,1057.85,.96,1049.58l-.3,62.43H0v314.13s101.33,40.25,235.96-34.12c134.62-74.36,149.86-92.53,184.02-84.26l.3-62.43h.66v-314.13s-101.33-40.25-235.96,34.12Z"/>
  </g>
  <path class="cls-4" d="M0,150.82s20.01-5.62,71.21-6.92c50.83-1.29,77.96,10.7,123.58,10.56,36.73-.11,80.08-10.57,102-10.57,25.87,0,36.27,8.09,72.38,6.36,33.61-1.61,51.77-11.21,51.77-11.21V0s-58.95,0-58.95,0H214.7s-117.13,0-136.58,0C58.67,0,0,0,0,0V150.82Z"/>
</svg>