<?xml version="1.0" encoding="UTF-8"?>
<svg id="_レイヤー_2" data-name=" レイヤー 2" xmlns="http://www.w3.org/2000/svg" viewBox="0 0 1160.18 4834.15">
  <defs>
    <style>
      .cls-1 {
        fill: #ffe1c0;
      }

      .cls-2 {
        fill: #ffc880;
      }

      .cls-3 {
        fill: #ffd39a;
      }

      .cls-4 {
        fill: #804f4e;
      }
    </style>
  </defs>
  <rect class="cls-2" x="0" y="243.45" width="1160.2" height="4590.7"/>
  <g>
    <path class="cls-3" d="M509.85,1678.97C138.8,1860.53,96.81,1904.88,2.65,1884.68l-.83,152.43H0v766.96s279.29,98.26,650.34-83.3c371.05-181.56,413.05-225.92,507.2-205.71l.83-152.43h1.82v-766.95s-279.29-98.26-650.34,83.3Z"/>
    <path class="cls-1" d="M509.85,2356.82c-371.05,181.56-413.05,225.92-507.2,205.71l-.83,152.43H0v766.96s279.29,98.26,650.34-83.3c371.05-181.56,413.05-225.92,507.2-205.71l.83-152.43h1.82v-766.95s-279.29-98.26-650.34,83.3Z"/>
  </g>
  <path class="cls-4" d="M0,368.22s55.16-13.73,196.28-16.9c140.09-3.14,214.88,26.12,340.61,25.78,101.22-.28,220.71-25.8,281.12-25.8,71.31,0,99.95,19.75,199.5,15.52,92.64-3.93,142.7-27.38,142.7-27.38V0s-162.49,0-162.49,0h-405.96s-322.82,0-376.44,0C161.7,0,0,0,0,0V368.22Z"/>
</svg>