<?xml version="1.0" encoding="UTF-8"?>
<svg id="_レイヤー_2" data-name=" レイヤー 2" xmlns="http://www.w3.org/2000/svg" viewBox="0 0 420 1980">
  <defs>
    <style>
      .cls-1 {
        fill: #ffe1c0;
      }

      .cls-2 {
        fill: #ffc880;
      }

      .cls-3 {
        fill: #ffd39a;
      }

      .cls-4 {
        fill: #804f4e;
      }
    </style>
  </defs>
  <g id="_スマホ_デザイン" data-name=" スマホ デザイン">
    <g>
      <rect class="cls-2" width="419.99" height="1980"/>
      <g>
        <path class="cls-3" d="M184.56,619.15C50.24,697.46,35.04,716.59,.96,707.88l-.3,65.75H0v330.79s101.1,42.38,235.43-35.93c134.32-78.31,149.52-97.44,183.61-88.73l.3-65.75h.66v-330.79s-101.1-42.38-235.43,35.93h-.01Z"/>
        <path class="cls-1" d="M184.56,911.51C50.24,989.82,35.04,1008.95,.96,1000.24l-.3,65.75H0v330.79s101.1,42.38,235.43-35.93c134.32-78.31,149.52-97.44,183.61-88.73l.3-65.75h.66v-330.79s-101.1-42.38-235.43,35.93h-.01Z"/>
      </g>
      <path class="cls-4" d="M0,53.81s19.97-5.92,71.05-7.29c50.71-1.36,77.79,11.27,123.3,11.12,36.64-.12,79.9-11.13,101.77-11.13,25.81,0,36.18,8.52,72.21,6.7,33.53-1.69,51.66-11.81,51.66-11.81V0H0V53.81Z"/>
    </g>
  </g>
</svg>