<svg width="54" height="53" viewBox="0 0 54 53" fill="none" xmlns="http://www.w3.org/2000/svg">
<path fill-rule="evenodd" clip-rule="evenodd" d="M53.6573 26.3893C53.6573 11.816 41.644 -3.75632e-05 26.828 -3.75632e-05C12.012 -3.75632e-05 0 11.816 0 26.3893C0 39.56 9.80933 50.4773 22.6373 52.46V34.0186H15.8227V26.3893H22.6373V20.5746C22.6373 13.9613 26.644 10.3053 32.7707 10.3053C35.7053 10.3053 38.7773 10.8213 38.7773 10.8213V17.316H35.3933C32.0613 17.316 31.02 19.3493 31.02 21.4386V26.3893H38.46L37.272 34.0186H31.02V52.4586C43.848 50.4813 53.6573 39.5626 53.6573 26.3893Z" fill="white"/>
</svg>
