<?xml version="1.0" encoding="utf-8"?>
<!-- Generator: Adobe Illustrator 28.0.0, SVG Export Plug-In . SVG Version: 6.00 Build 0)  -->
<svg version="1.1" id="レイヤー_1" xmlns="http://www.w3.org/2000/svg" xmlns:xlink="http://www.w3.org/1999/xlink" x="0px"
	 y="0px" viewBox="0 0 774 300" style="enable-background:new 0 0 774 300;" xml:space="preserve">
<style type="text/css">
	.st0{fill:#F5EAE0;}
	.st1{fill:#E4CEB4;}
	.st2{fill:#D7C0A1;}
	.st3{fill:#FFFFFF;}
	.st4{clip-path:url(#SVGID_00000127025033034610663640000013252506313971665792_);}
	.st5{fill:#D6AA6E;}
	.st6{fill:#E9A88F;}
	.st7{fill:#242B36;}
	.st8{fill:#313843;}
	.st9{fill:#262B33;}
	.st10{fill:#49A49E;}
	.st11{fill:#60B3AB;}
	.st12{fill:#5A4638;}
	.st13{fill:#E79A82;}
	.st14{fill:#C74D49;}
	.st15{fill:#172C39;}
	.st16{fill:#1A3073;}
	.st17{fill:#A6AEB3;}
	.st18{fill:#E69582;}
	.st19{fill:#5A9EBB;}
	.st20{fill:#214A55;}
	.st21{fill:#1D3F4B;}
	.st22{fill:#E8A692;}
	.st23{fill:#E38739;}
	.st24{fill:#2B3435;}
	.st25{fill:#468098;}
	.st26{fill:#DB4E40;}
	.st27{fill:none;stroke:#D88033;stroke-width:0.3069;stroke-linecap:round;stroke-miterlimit:10;}
	.st28{fill:none;stroke:#B0D2E7;stroke-width:0.6139;stroke-miterlimit:10;}
</style>
<g>
	<g>
		<g>
			<rect x="212.4" y="58.3" class="st0" width="82" height="116"/>
			<polygon class="st1" points="279.1,116.1 286.1,116.1 272.1,95 279.1,95 265,73.9 251,95 258,95 244,116.1 251,116.1 
				236.9,137.2 260.4,137.2 260.4,153.6 269.7,153.6 269.7,137.2 293.2,137.2 			"/>
			<polygon class="st2" points="259.4,125.9 266.4,125.9 252.4,104.9 259.4,104.9 245.3,83.8 231.3,104.9 238.3,104.9 224.2,125.9 
				231.3,125.9 217.2,147 240.6,147 240.6,163.5 250,163.5 250,147 273.4,147 			"/>
		</g>
		<g>
			<path class="st3" d="M212.4,58.3v29h41v-29H212.4z M252.9,86.8h-40v-28h40V86.8z"/>
			<path class="st3" d="M212.4,87.3v29h41v-29H212.4z M252.9,115.8h-40v-28h40V115.8z"/>
			<path class="st3" d="M212.4,116.3v29h41v-29H212.4z M252.9,144.8h-40v-28h40V144.8z"/>
			<path class="st3" d="M212.4,145.3v29h41v-29H212.4z M252.9,173.8h-40v-28h40V173.8z"/>
			<path class="st3" d="M253.4,58.3v29h41v-29H253.4z M294,86.8h-40v-28h40V86.8z"/>
			<path class="st3" d="M253.4,87.3v29h41v-29H253.4z M294,115.8h-40v-28h40V115.8z"/>
			<path class="st3" d="M253.4,116.3v29h41v-29H253.4z M294,144.8h-40v-28h40V144.8z"/>
			<path class="st3" d="M253.4,145.3v29h41v-29H253.4z M294,173.8h-40v-28h40V173.8z"/>
		</g>
	</g>
	<g>
		<g>
			<rect x="94.3" y="72.8" class="st0" width="82" height="87"/>
			<path class="st2" d="M145.7,95.2c-7.4,0-10.6,6.1-10.6,12.5c0,7.9,4.9,11.8,4.9,14.6c0,1.2-0.9,2.4-2.8,3.4l-10.8,5.8
				c-3.2,1.7-1.9,10-1.9,10h42.5c0,0,1.6-8.2-1.9-10l-10.8-5.8c-2-1.1-2.9-2.2-2.9-3.3c0-2.4,5-6.2,5-14.8
				C156.3,100.1,152.4,95.2,145.7,95.2L145.7,95.2z"/>
			<path class="st1" d="M123.2,102.9c-6.2,0-8.8,5-8.8,10.4c0,6.6,4.1,9.8,4.1,12.1c0,0.9-0.6,2.4-2.3,3.2l-9.1,4.4
				c-3.2,1.6-1.6,8.4-1.6,8.4h14.2c2,0-2-6.7,2.6-11.7c2.9-3.2,9.8-6.4,9.8-16.1C132,107,128.8,102.9,123.2,102.9L123.2,102.9z"/>
		</g>
		<g>
			<path class="st3" d="M94.3,72.8v29h41v-29H94.3z M134.9,101.3h-40v-28h40V101.3z"/>
			<path class="st3" d="M94.3,101.8v29h41v-29H94.3z M134.9,130.3h-40v-28h40V130.3z"/>
			<path class="st3" d="M94.3,130.8v29h41v-29H94.3z M134.9,159.3h-40v-28h40V159.3z"/>
			<path class="st3" d="M135.3,72.8v29h41v-29H135.3z M175.9,101.3h-40v-28h40V101.3z"/>
			<path class="st3" d="M135.3,101.8v29h41v-29H135.3z M175.9,130.3h-40v-28h40V130.3z"/>
			<path class="st3" d="M135.3,130.8v29h41v-29H135.3z M175.9,159.3h-40v-28h40V159.3z"/>
		</g>
	</g>
	<g>
		<g>
			<rect x="0.3" y="75.8" class="st0" width="58" height="81"/>
			<path class="st2" d="M13.8,110.4H22c2.8,0,3.9,8.4,3.9,11.1c0,2.7-1.8,2.7-3.6,5.5c-1.7,2.8,0.4,15.5,0.7,16.2
				c0.3,0.7,1.9,6.4,6.1-0.8c4.2-7.2,12.5-8.4,16-8.4c3.5,0.1,4.1-2.5,4.3-3.6c0.2-1.1-6.3-8.8-6.5-9c-0.2-0.2-0.6-1.1-0.6-1.1
				c-0.1-0.9-0.3-1.7-0.4-2.5c-1.4,1.5-4.5,4-8.3,3.6c-3.9-0.4,1.1-7.8-0.1-13.6c0,0,1.6,2.5,0.5,7c-1.1,4.5-0.3,5.1,1.3,4.8
				c4-0.6,6.2-2.8,5.7-7c-0.6-3.2-1-4.6-1.3-5.5c-0.5-1.4-2.5-3.5-2.5-3.5c-0.1-1.5-0.8-4.2-2-5.9c-1.3-1.7-7.7-2.4-11.1-2.3
				c-3.4,0.1-5.2,2.6-5.8,2.9c-0.7,0.3-6.3,0.2-8.4,0.5c-2.2,0.3-0.8,3.3-0.8,3.3C9.6,110.9,13.8,110.4,13.8,110.4L13.8,110.4z"/>
		</g>
		<g>
			<path class="st3" d="M0.3,157.3h29v-41h-29V157.3z M28.8,116.8v40h-28v-40H28.8z"/>
			<path class="st3" d="M29.3,157.3h29v-41h-29V157.3z M57.8,116.8v40h-28v-40H57.8z"/>
			<path class="st3" d="M0.3,116.3h29v-41h-29V116.3z M28.8,75.8v40h-28v-40H28.8z"/>
			<path class="st3" d="M29.3,116.3h29v-41h-29V116.3z M57.8,75.8v40h-28v-40H57.8z"/>
		</g>
	</g>
	<g>
		<g>
			<g>
				<g>
					<defs>
						<rect id="SVGID_1_" x="330.5" y="58.3" width="164" height="116"/>
					</defs>
					<clipPath id="SVGID_00000100383501570811403620000015535465669767806653_">
						<use xlink:href="#SVGID_1_"  style="overflow:visible;"/>
					</clipPath>
					
						<g id="XMLID_00000009581663842521490850000013300419453815790230_" style="clip-path:url(#SVGID_00000100383501570811403620000015535465669767806653_);">
						
							<rect id="XMLID_00000041982585366827619940000018178526388071974566_" x="319.6" y="49.8" class="st0" width="184.5" height="128.6"/>
						<path class="st2" d="M451.2,146.6c-26,4.6-52.5,4.6-78.5,0c-4.5-0.8-7.5-5-6.8-9.6l8-40.2h0c4.1,0.7,7.1,4.3,7.1,8.4v11.1
							c0,6.2,5,11.2,11.2,11.2c6.2,0,11.2-5,11.2-11.2v-8.4c0-3.1,2.5-5.6,5.6-5.6c1.5,0,2.9,0.6,4,1.6c1.1,1.1,1.6,2.5,1.6,4v18.3
							c0,7,5.7,12.6,12.6,12.6c6.9-0.1,12.5-5.7,12.6-12.6v-20.8c0-4.8,3.9-8.7,8.7-8.7h1.2l8.1,40.3
							C458.7,141.5,455.7,145.7,451.2,146.6L451.2,146.6z M463.1,134.1l-10.4-52c-1.1-6.8-7-11.8-13.9-11.8h-53.9
							c-6.9,0-12.7,5-13.9,11.7l-10.5,52.1c-10.8,3.1-16.2,7.1-16.2,12c0,12.3,35,17.8,67.4,17.8s67.4-5.6,67.4-17.8
							C479.3,141.2,474,137.3,463.1,134.1L463.1,134.1z"/>
					</g>
				</g>
			</g>
			<g>
				<path class="st3" d="M412.5,58.3v29h41v-29H412.5z M453.1,86.8h-40v-28h40V86.8z"/>
				<path class="st3" d="M412.5,87.3v29h41v-29H412.5z M453.1,115.8h-40v-28h40V115.8z"/>
				<path class="st3" d="M412.5,116.3v29h41v-29H412.5z M453.1,144.8h-40v-28h40V144.8z"/>
				<path class="st3" d="M412.5,145.3v29h41v-29H412.5z M453.1,173.8h-40v-28h40V173.8z"/>
				<path class="st3" d="M453.5,58.3v29h41v-29H453.5z M494.1,86.8h-40v-28h40V86.8z"/>
				<path class="st3" d="M453.5,87.3v29h41v-29H453.5z M494.1,115.8h-40v-28h40V115.8z"/>
				<path class="st3" d="M453.5,116.3v29h41v-29H453.5z M494.1,144.8h-40v-28h40V144.8z"/>
				<path class="st3" d="M453.5,145.3v29h41v-29H453.5z M494.1,173.8h-40v-28h40V173.8z"/>
				<path class="st3" d="M330.5,58.3v29h41v-29H330.5z M371,86.8h-40v-28h40V86.8z"/>
				<path class="st3" d="M330.5,87.3v29h41v-29H330.5z M371,115.8h-40v-28h40V115.8z"/>
				<path class="st3" d="M330.5,116.3v29h41v-29H330.5z M371,144.8h-40v-28h40V144.8z"/>
				<path class="st3" d="M330.5,145.3v29h41v-29H330.5z M371,173.8h-40v-28h40V173.8z"/>
				<path class="st3" d="M371.5,58.3v29h41v-29H371.5z M412,86.8h-40v-28h40V86.8z"/>
				<path class="st3" d="M371.5,87.3v29h41v-29H371.5z M412,115.8h-40v-28h40V115.8z"/>
				<path class="st3" d="M371.5,116.3v29h41v-29H371.5z M412,144.8h-40v-28h40V144.8z"/>
				<path class="st3" d="M371.5,145.3v29h41v-29H371.5z M412,173.8h-40v-28h40V173.8z"/>
			</g>
		</g>
	</g>
	<g>
		<g>
			<rect x="648.7" y="0.3" class="st0" width="82" height="232"/>
			<g>
				<path class="st2" d="M674,202.7h32.6l16.1-131.4c0.1-0.9-0.2-1.8-0.8-2.5c-0.6-0.7-1.5-1.1-2.4-1.1h-58.4
					c-0.9,0-1.8,0.4-2.4,1.1c-0.6,0.7-0.9,1.6-0.8,2.5L674,202.7z M708.7,205.1h-36.9L655.5,71.6c-0.2-1.6,0.3-3.2,1.4-4.4
					c1.1-1.2,2.6-1.9,4.2-1.9h58.4c1.6,0,3.2,0.7,4.2,1.9c1.1,1.2,1.6,2.8,1.4,4.4L708.7,205.1z"/>
				<path class="st2" d="M662.9,72.9l13.4,122.4h27.5l13.4-122.4H662.9L662.9,72.9z"/>
				<path class="st2" d="M716.8,215.2h-54.5v-2.4c5.3,0,9.6-4.3,9.6-9.6h2.4c0,3.9-1.9,7.4-4.8,9.6h47.3L716.8,215.2z"/>
				<path class="st2" d="M718.4,215.2c-6.6,0-12-5.4-12-12h2.4c0,5.3,4.3,9.6,9.6,9.6L718.4,215.2z"/>
				<rect x="715.1" y="212.8" class="st2" width="3.4" height="2.4"/>
				<path class="st2" d="M693,65.6h-2.4c0-7.2-5.9-13.1-13.1-13.1c-7.2,0-13.1,5.9-13.1,13.1h-2.4c0-8.6,7-15.5,15.5-15.5
					C686,50.1,693,57,693,65.6L693,65.6z"/>
				<path class="st2" d="M719.7,65.4h-2.4c0-9.7-6-18-15.2-21.2c-8.3-3-18.4,0-24.7,7.3l-1.9-1.6c6.9-8.1,18.2-11.4,27.4-8
					C713.1,45.5,719.7,54.7,719.7,65.4L719.7,65.4z"/>
				<path class="st2" d="M666.9,64.2c-0.2-1.4-0.1-2.8,0.4-4.1c0.5-1.3,1.2-2.6,2.3-3.6c0.2-0.3,0.5-0.5,0.8-0.7l0.4-0.3
					c0.1-0.1,0.3-0.2,0.5-0.3c0.3-0.2,0.6-0.4,0.9-0.5c0.3-0.1,0.7-0.3,1-0.4c0.2-0.1,0.3-0.1,0.5-0.2l0.5-0.1l1-0.2
					c0.7-0.1,1.4-0.1,2.1,0c-0.6,0.3-1.3,0.5-1.9,0.7l-0.9,0.4l-0.4,0.2l-0.4,0.2c-0.3,0.2-0.6,0.3-0.8,0.5l-0.8,0.5
					c-0.1,0.1-0.3,0.2-0.4,0.3l-0.4,0.3c-0.2,0.2-0.5,0.4-0.7,0.6c-0.9,0.9-1.6,1.9-2.3,3C667.7,61.6,667.2,62.9,666.9,64.2
					L666.9,64.2z"/>
				<path class="st2" d="M682.3,50.1c0.8-1.3,1.9-2.3,3.1-3.1c1.2-0.8,2.6-1.5,4-2c0.7-0.2,1.4-0.4,2.2-0.5c0.4-0.1,0.7-0.1,1.1-0.2
					c0.4,0,0.7-0.1,1.1-0.1c0.7-0.1,1.5,0,2.2,0c0.7,0.1,1.5,0.2,2.2,0.4c-0.7,0.2-1.4,0.2-2.1,0.4l-1.1,0.2c-0.2,0-0.4,0.1-0.5,0.1
					l-0.5,0.1c-0.4,0.1-0.7,0.2-1,0.2c-0.3,0.1-0.7,0.2-1,0.3c-0.7,0.1-1.3,0.4-2,0.6c-1.3,0.4-2.6,0.9-3.9,1.5
					C684.7,48.6,683.5,49.3,682.3,50.1L682.3,50.1z"/>
				<path class="st2" d="M704.3,41.3l0.9,1l3.3-20.1c0,0,0.1-1,1-1.7c0.9-0.8,2.4-1.1,4.3-0.8c2.9,0.5,6.3,1.1,9.6,1.8l0.2-1
					c-3.4-0.7-6.8-1.4-9.7-1.8c-2.1-0.3-3.7,0-4.8,0.9c-1.1,0.9-1.3,2.2-1.3,2.4L704.3,41.3z M706.1,45.8l-3.3-4l3.5-19.9
					c0.1-0.4,0.4-2.1,1.8-3.3c1.4-1.2,3.5-1.7,6-1.3c3.1,0.5,6.7,1.2,10.2,1.9l0.8,0.2l-0.6,3.9l-0.7-0.1c0,0-0.1,0-0.2,0
					c-3.5-0.8-7.1-1.4-10.1-1.9c-1.4-0.2-2.5-0.1-3.1,0.4c-0.4,0.3-0.5,0.8-0.5,0.8l0,0.1L706.1,45.8z"/>
			</g>
		</g>
		<g>
			<path class="st3" d="M648.7,0.3v29h41v-29H648.7z M689.2,28.8h-40v-28h40V28.8z"/>
			<path class="st3" d="M648.7,29.3v29h41v-29H648.7z M689.2,57.8h-40v-28h40V57.8z"/>
			<path class="st3" d="M648.7,58.3v29h41v-29H648.7z M689.2,86.8h-40v-28h40V86.8z"/>
			<path class="st3" d="M648.7,87.3v29h41v-29H648.7z M689.2,115.8h-40v-28h40V115.8z"/>
			<path class="st3" d="M648.7,116.3v29h41v-29H648.7z M689.2,144.8h-40v-28h40V144.8z"/>
			<path class="st3" d="M648.7,145.3v29h41v-29H648.7z M689.2,173.8h-40v-28h40V173.8z"/>
			<path class="st3" d="M648.7,174.3v29h41v-29H648.7z M689.2,202.8h-40v-28h40V202.8z"/>
			<path class="st3" d="M648.7,203.3v29h41v-29H648.7z M689.2,231.8h-40v-28h40V231.8z"/>
			<path class="st3" d="M689.7,0.3v29h41v-29H689.7z M730.2,28.8h-40v-28h40V28.8z"/>
			<path class="st3" d="M689.7,29.3v29h41v-29H689.7z M730.2,57.8h-40v-28h40V57.8z"/>
			<path class="st3" d="M689.7,58.3v29h41v-29H689.7z M730.2,86.8h-40v-28h40V86.8z"/>
			<path class="st3" d="M689.7,87.3v29h41v-29H689.7z M730.2,115.8h-40v-28h40V115.8z"/>
			<path class="st3" d="M689.7,116.3v29h41v-29H689.7z M730.2,144.8h-40v-28h40V144.8z"/>
			<path class="st3" d="M689.7,145.3v29h41v-29H689.7z M730.2,173.8h-40v-28h40V173.8z"/>
			<path class="st3" d="M689.7,174.3v29h41v-29H689.7z M730.2,202.8h-40v-28h40V202.8z"/>
			<path class="st3" d="M689.7,203.3v29h41v-29H689.7z M730.2,231.8h-40v-28h40V231.8z"/>
		</g>
	</g>
	<g>
		<g>
			<g>
				<rect x="530.6" y="29.3" class="st0" width="82" height="174"/>
				<path class="st2" d="M595.2,132.8h-47.1c-4.4,0-8.2-2.9-9.4-7.2c-1.1-4.2,0.7-8.7,4.5-10.9c0.7-0.4,1.2-1.2,1.4-2
					c0.1-0.8-0.2-1.7-0.7-2.3c-2.1-2.1-3-5.1-2.6-8.1c0.4-2.9,2.2-5.5,4.7-7c0.7-0.4,1.2-1.2,1.4-2c0.1-0.8-0.2-1.7-0.7-2.3
					c-2.4-2.5-3.3-6-2.3-9.3c0.9-3.3,3.6-5.9,6.9-6.7c0.9-0.2,1.6-0.9,1.9-1.7c0.3-0.9,0.2-1.8-0.4-2.6c-1.2-1.7-1.9-3.6-1.9-5.7
					c0-4.3,2.8-8,6.9-9.3c3.9-1.2,6.8-4.1,7.9-7.8c0.8-3,0.6-6.3-0.7-9.2h5.1c5.4,0,9.8,4.3,9.9,9.5h0c0,1.2-0.2,2.3-0.6,3.4
					c-0.3,0.8-0.2,1.8,0.4,2.5c0.5,0.7,1.4,1.2,2.3,1.2h0.7c3.6,0,7,2,8.6,5.3c1.7,3.3,1.3,7.2-0.8,10.1c-0.5,0.7-0.7,1.7-0.4,2.6
					c0.3,0.9,1,1.5,1.9,1.7c3.3,0.9,5.9,3.4,6.9,6.7c0.9,3.3,0.1,6.9-2.3,9.3c-0.6,0.6-0.9,1.5-0.7,2.3c0.1,0.8,0.6,1.6,1.4,2
					c2.6,1.5,4.3,4.1,4.7,7c0.4,2.9-0.5,5.9-2.6,8.1c-0.6,0.6-0.9,1.5-0.7,2.3c0.1,0.8,0.6,1.6,1.4,2c3.8,2.2,5.6,6.7,4.5,10.9
					C603.5,129.9,599.6,132.8,595.2,132.8L595.2,132.8z M596.6,138.4v11.1c0,3.1-2.5,5.5-5.5,5.5h-36c-3.1,0-5.5-2.5-5.5-5.5v-11.1
					H596.6z M583.1,193.8H563l-4.8-33.2h29.6L583.1,193.8z"/>
			</g>
			<g>
				<path class="st3" d="M530.6,29.3v29h41v-29H530.6z M571.1,57.8h-40v-28h40V57.8z"/>
				<path class="st3" d="M530.6,58.3v29h41v-29H530.6z M571.1,86.8h-40v-28h40V86.8z"/>
				<path class="st3" d="M530.6,87.3v29h41v-29H530.6z M571.1,115.8h-40v-28h40V115.8z"/>
				<path class="st3" d="M530.6,116.3v29h41v-29H530.6z M571.1,144.8h-40v-28h40V144.8z"/>
				<path class="st3" d="M530.6,145.3v29h41v-29H530.6z M571.1,173.8h-40v-28h40V173.8z"/>
				<path class="st3" d="M530.6,174.3v29h41v-29H530.6z M571.1,202.8h-40v-28h40V202.8z"/>
				<path class="st3" d="M571.6,29.3v29h41v-29H571.6z M612.2,57.8h-40v-28h40V57.8z"/>
				<path class="st3" d="M571.6,58.3v29h41v-29H571.6z M612.2,86.8h-40v-28h40V86.8z"/>
				<path class="st3" d="M571.6,87.3v29h41v-29H571.6z M612.2,115.8h-40v-28h40V115.8z"/>
				<path class="st3" d="M571.6,116.3v29h41v-29H571.6z M612.2,144.8h-40v-28h40V144.8z"/>
				<path class="st3" d="M571.6,145.3v29h41v-29H571.6z M612.2,173.8h-40v-28h40V173.8z"/>
				<path class="st3" d="M571.6,174.3v29h41v-29H571.6z M612.2,202.8h-40v-28h40V202.8z"/>
			</g>
		</g>
	</g>
	<g id="XMLID_00000092419883876022512230000003253711903082121884_">
		<ellipse class="st5" cx="481.7" cy="292.9" rx="38.1" ry="6.8"/>
		<ellipse class="st5" cx="734.1" cy="292.9" rx="39.6" ry="6.8"/>
		<g id="XMLID_00000004540145418063785820000009609525227126532798_">
			<path id="XMLID_00000096058934128797653860000003616421499447756167_" class="st6" d="M492.4,116.1c0,0-0.8,3.9,0,7.1l-7.5-1.1"
				/>
			<g id="XMLID_00000145755568009962140130000017132656770769056159_">
				<path id="XMLID_00000163753533521395132510000003490393368174042297_" class="st7" d="M472.2,280.9c0,0,2.8,3.4,6.1,4
					c3.3,0.5,6.9,2.3,6.6,4.8c-0.3,2.5-18.7,6-19.6,4.1c-0.9-1.9,2.1-14.1,2.1-14.1"/>
				<path id="XMLID_00000061468869187753080690000014586582065000559004_" class="st8" d="M489.7,283.1c0,0,2.8,3.4,6.1,4
					c3.3,0.5,6.9,2.3,6.6,4.8c-0.3,2.5-18.7,6-19.6,4.1c-0.9-1.9,2.1-14.1,2.1-14.1"/>
				<path id="XMLID_00000077308339834509154870000015533286321475407779_" class="st6" d="M471.5,175.8c0,0-3.2,5.3-3.2,19.9
					s0,31.3,0,35.8c0,4.5-2.6,28.5-1.7,52.1c0.1,2.4,7.9-0.7,7.9-0.7s6.2-43.2,7.5-54.6c1.3-11.4,7.5-52.6,7.5-52.6"/>
				<path id="XMLID_00000092438972708089379540000004097975119961340604_" class="st6" d="M485,175c0,0-1.7-0.5-1.5,14.1
					c0.3,14.6,1.8,39.6,1.8,44.1c0.1,4.5-2.3,19.8-1.3,52.1c2,1.8,7.9-0.1,7.9-0.1s5.5-42.2,6.6-53.7c1.1-11.4,2-40.4,2-40.4"/>
				<path id="XMLID_00000010296437940984300890000014029095017769323420_" class="st9" d="M474,168.3c0,0-6.5,0-8,27.7
					c-0.1,5.4,1.2,15.9-2.7,20.7c0,0,28.4,7.6,37.3,3.2c0,0,2.6-34.1-2.7-47.8"/>
			</g>
			<path id="XMLID_00000067953112392599952270000013510093614584895674_" class="st10" d="M476.5,124c2.4-0.5,6.4-3.7,14.6-2.7
				c2,0.2,9.6,5.3,7.5,6.1c3.1,4.2,7.1,9.2,6.2,13.3c-0.8,3.9-5.2,11.4-6.2,19.1c-0.4,3.5,0.1,9.8,1.2,13c0,0-23.2,8.6-30.2-1.2
				c0,0,4.8-12.3,2.8-33.8C471.4,126.3,476.5,124,476.5,124z"/>
			<path id="XMLID_00000106111836548498471490000014987331120559667600_" class="st6" d="M494.6,124.3c-4,1.6-3,23.4-2.2,31.5
				c0.8,8.4,8.4,32.7,8.4,32.7h4.2c0,0-2.1-25.4-3.9-34.2C501.2,139.5,502.8,121,494.6,124.3z"/>
			<path id="XMLID_00000108274478665614249390000001625383122446961599_" class="st6" d="M489.6,95c0,0,9.5,9.8,7.4,19
				c-1,3.2-8,3.9-8,3.9s-8.9-8.6-8.9-14.7C480.1,97.2,486.9,92.5,489.6,95z"/>
			<path id="XMLID_00000010295626691720747090000014288267256982548921_" class="st6" d="M500.8,188.5c0,0,0.3,14,1.4,15.8
				c1.1,1.8,4.5-6,4.6-8.5s-1.8-7.3-1.8-7.3"/>
			<path id="XMLID_00000126313791101691686430000004357660956566975880_" class="st11" d="M494.7,123.5c-2.6,1-3.9,12.9-3.8,18.8
				c0.1,5.9,1.4,21.6,3.2,22.2c1.8,0.5,5-3.3,8.4-1.6c1,0.4-1.2-8-1.2-12.6C501.3,145.6,504.4,119.9,494.7,123.5z"/>
			<path id="XMLID_00000123417717172180987740000013264603080310230712_" class="st12" d="M489.6,95c0,0-0.3-2.2-5-2.4
				c-5.5-0.2-14.5,0.4-15.8,19.4c-0.8,11.2,1.4,26.8-1.5,26.5c0,0,14.5,16.3,23.6-4.2c4.3-9.8-1.7-22.5-3.2-30.3
				C485.7,94.5,489.6,95,489.6,95z"/>
		</g>
		<g>
			<path id="XMLID_00000168822982020261842020000007108233278774752165_" class="st13" d="M738.9,109.2c0,0-1-19.9-1.3-28.9
				c-0.4-8.9-1.8-28.2-1.8-28.2s-8.9-6.6-5.1-10.7c0,0-3.3-7.9-1.9-8.6c1.3-0.7,4.3,7.9,4.3,7.9s6.5,0.1,7,1.9
				c0.4,1.8,1.4,9.9,1.4,9.9s2.9,19.1,3.1,26c0.2,6.9,5.5,22.3,5.1,33.5"/>
			<path id="XMLID_00000119087781456686353070000010779635276885022632_" class="st14" d="M738.6,92.8c0,0-0.3,11.8,0.8,12.8
				c1.1,1,9.7,11,11.2,8.9c1.5-2.1-2.1-21.7-2.1-21.7S742.2,92.4,738.6,92.8z"/>
			<path id="XMLID_00000098916195574858889550000012256647667124276611_" class="st6" d="M717.3,92.9c0,0-1,0.7-0.6,2.1
				c0.4,1.5,3.5,6.6,5,4"/>
			<path id="XMLID_00000083064213390585095570000005046229927726364349_" class="st6" d="M739.5,87.2c0,0,1.2,0.1,1.5,1.6
				c0.4,1.5,0.1,7.5-2.5,5.8"/>
			<path id="XMLID_00000086658387384053202850000008732364826159000470_" class="st6" d="M720.8,97.2c0,0,4.8,8.5,3.1,14.3
				c0,0,8,2.8,16.5-3.4c0,0-3.1-7.4-1.8-13.7"/>
			<path id="XMLID_00000019645763994681943070000016768211261723623611_" class="st15" d="M734.3,77c0,0-3.4-7.8-13.3-2
				c-8.7,6.3-7.2,14.6-0.4,23.3c3.5,3.5,3.6,5.1,5.6,5.1c2.1,0,9.8-2.2,10.6-2.7c1.9-1.2,2.5-7.3,3.1-10.4c0.6-3.1,1-6.8-0.6-10.6
				C737.2,74.8,734.3,77,734.3,77z"/>
			<path id="XMLID_00000052085474097790553470000005812218688317650839_" class="st7" d="M746.1,278.1c0,0-3.1,3.8-6.7,4.4
				s-7.6,2.5-7.3,5.3c0.3,2.8,20.6,6.6,21.6,4.5c1-2-2.3-15.5-2.3-15.5"/>
			<path id="XMLID_00000028313814865379768400000009409614402041501353_" class="st8" d="M725.5,281.7c0,0-3.1,3.8-6.7,4.4
				c-3.6,0.6-7.6,2.5-7.3,5.3c0.3,2.8,20.6,6.6,21.6,4.5c1-2-2.3-15.5-2.3-15.5"/>
			<path id="XMLID_00000013191537160070168910000009755110707601635999_" class="st16" d="M746.6,152.8c0,0,5.8,15.1,5.8,31.1
				s0,34.4,0,39.4c0,5,2.5,30.6,1.5,56.6c-0.1,2.6-10.9,0.3-10.9,0.3s-5.2-47-6.7-59.5c-1.5-12.5-10.5-67.9-10.5-67.9"/>
			<path id="XMLID_00000132045756431499213430000008443787818967040176_" class="st16" d="M728,156c0,0,7.2,5.7,6.9,21.7
				c-0.3,16-0.8,44.3-0.9,49.3s0.4,20.5-0.7,56c-2.2,2-11.4,0.3-11.4,0.3s-4.9-46.1-6.2-58.7c-1.2-12.6-4.9-56.3-4.9-56.3"/>
			<path id="XMLID_00000069372010183912080400000016070450826571651768_" class="st14" d="M714.4,120c0,0,9.1-9.3,19.4-14
				c10.3-4.7,15.6-1.4,16.3,5.1s3.3,24.8-0.2,51.9c0.6,1.8-26.5,9.3-33.4,2.9c-6.9-6.4-2.1-42.3-2.1-42.3"/>
			<path id="XMLID_00000057150081190849340880000001493968286754262658_" class="st6" d="M713.8,120c-3.8,2-3.1,27.9-4.7,38.1
				c-1.6,10.2-3.2,38.1-3.2,38.1s-1.5,3.6-1,7.5c0.2,2,1.7,4.4,3.3,6.1c4.4,4.6,5.5-2.6,5.4-5.5c0-2.9-2.6-11.1-2.6-11.1
				s7-25.2,8.1-31.9c1.1-6.6,3.8-18.9,3.9-29.9C723.1,122.4,721,116.3,713.8,120z"/>
			<path id="XMLID_00000121982306109391042390000000202776221272773293_" class="st14" d="M730.4,107.7c0,0-3.9,1.8-8.5,3.7
				c-4.5,1.8-9.2,5.1-10.2,8.9c-1.9,7.6-2.1,22.2-2.1,22.2h14.9"/>
			<g id="XMLID_00000172412063733278755190000000357789191094427307_">
				<path id="XMLID_00000109000112257237373680000007978797041355718554_" class="st17" d="M734.5,204.4
					C734.5,204.4,734.5,204.4,734.5,204.4c-0.3,0-0.4-0.2-0.4-0.4c0-0.1,1.2-9.6,3.4-16.7c2.2-7.1,2.1-15,2.1-15
					c0-0.2,0.2-0.4,0.4-0.4c0,0,0,0,0,0c0.2,0,0.4,0.2,0.4,0.4c0,0.1,0.1,8.1-2.1,15.3c-2.2,7.1-3.4,16.5-3.4,16.6
					C734.8,204.3,734.7,204.4,734.5,204.4z"/>
			</g>
		</g>
	</g>
	<g>
		<path id="XMLID_00000115496490327302070920000011060425104870014343_" class="st5" d="M104.7,290.1c-3.6-0.5-3.6-5.7,0-6.1
			c25.9-3.2,72.3-7.9,125.2-7.9s99.3,4.6,125.2,7.9c3.6,0.5,3.6,5.7,0,6.1c-25.9,3.2-72.3,7.9-125.2,7.9S130.6,293.4,104.7,290.1z"
			/>
		<g id="XMLID_00000106115934373806212020000002279885724164110230_">
			<path id="XMLID_00000083087411256873676330000016112429723771865742_" class="st18" d="M236.9,163c0,0-0.7-8-1.4-9.5
				c-0.6-1.5-2.5-4.4-2.2,3.5c-1.6-7-6.9-9-6.9-9s2.1,17,5.8,19.1C237.1,167,236.9,163,236.9,163z"/>
			<path id="XMLID_00000049187299694817254080000010439596076596296595_" class="st19" d="M265,243.3c0,0,5.3,3.3,4.4,7.2
				c-0.9,3.9-2,6.9-1.9,7.8c-1.9,0.3-1.9,0.3-1.9,0.3l-2.6-4.5c-3.5,0.3-4.3,3-7.7,4.3c-3.4,1.3-9.7,1.1-10.9-0.2
				c-1.3-1.3,2.7-3.3,5.9-4.3c3.2-1,6.2-9.2,6.2-9.2L265,243.3z"/>
			<path id="XMLID_00000143590979657977425980000017181727033542174338_" class="st19" d="M254.3,267.3c0,0,4.6,4.1,3.2,7.8
				c-1.5,3.7-3.1,6.5-3.2,7.3c-1.9,0-1.9,0-1.9,0l-1.8-4.9c-3.5-0.3-4.7,2.3-8.3,3c-3.6,0.7-9.7-0.5-10.8-2c-1-1.5,3.2-2.8,6.6-3.3
				c3.4-0.4,7.6-8,7.6-8H254.3z"/>
			<path id="XMLID_00000005988897438611056010000008436248029974483851_" class="st20" d="M268.1,243.6l-12.2-50.1
				c-6.3-3.1-18.4-4.6-18.4-4.6s-1,3.9,0.4,9.3c2.9,11.2,10.1,30.7,15.9,49.2C259.1,248.8,268.1,243.6,268.1,243.6z"/>
			<path id="XMLID_00000168079271059506187020000011961101597248657320_" class="st21" d="M255.3,267.7l-3.8-51.4
				c-5.7-4-17.4-7.6-17.4-7.6s-1.6,3.7-1.1,9.2c1,11.5,4.9,32,7.7,51.1C245.6,271.5,255.3,267.7,255.3,267.7z"/>
			<path id="XMLID_00000037673187803324128940000006057903188894447019_" class="st21" d="M234.1,208.7c0.9-2.9,7.3-8.1,35.8-5.8
				c24.9,10.1,15.8,19.9,15.8,19.9H240L234.1,208.7z"/>
			<path id="XMLID_00000008132418087269188450000004824099180895693973_" class="st20" d="M269.3,199.4c0,0-19.1-16-26.6-15.3
				c-7.5,0.7-7.2,11.4-0.5,18.2c6.7,6.7,16.5,20.6,29.6,21.2c13.1,0.6,27.4-0.6,30-17.3C284,194.4,269.3,199.4,269.3,199.4z"/>
			<path id="XMLID_00000099643088211607616020000012711179696576623238_" class="st22" d="M250.4,135.3c-0.3-0.8-0.8-1.6-1.4-2.2
				c-3.6-4.2-8.8-7-14.2-7.7l-0.5,0.2c0.6,1.2,1.2,2.5,1.6,3.8c0.4,1.4,0.5,2.9,0.8,4.4c0.3,1.9,1,3.8,1.6,5.7
				c0.4,1.3,0.8,2.5,1.5,3.7c0.5,1,1.2,1.8,2,2.6c0.7,0.7,1.5,1.4,2.4,1.4c0.9,0,1.7-0.5,2.4-1c0.9-0.6,1.7-1.3,2.4-2.1
				c1.4-1.8,1.7-4.2,1.7-6.5C250.7,136.8,250.6,136,250.4,135.3z"/>
			<path id="XMLID_00000176729663829985975510000011794505638219875242_" class="st23" d="M265.9,140.8c0,0,11.7,0,17.9,8.6
				c6.1,8.6,17.4,31.1,19.1,41c1.8,10,2,15.9,2,15.9c-10.7,10.2-32.3,3.2-39.8-9.7c-0.4-3.6-18.4-35.3-21.8-39.2
				c-3.4-3.8,10.6-10.3,10.6-10.3L265.9,140.8z"/>
			<path id="XMLID_00000045604576028667237160000003116374477672110992_" class="st23" d="M259.1,172.8c0,0,1.1,20-5.1,21.3
				c-6.2,1.3-17.8-14.3-23.8-27.6c3.6-5,6.8-5,6.8-5L245,172c-4-13.5-2.2-16.1-2.2-16.1L259.1,172.8z"/>
			<path id="XMLID_00000160898608504916728440000002248766351451198619_" class="st24" d="M240.5,117.8c0,0,6.3-5.3,11.8-3.4
				c5.5,1.8,14.1,12.7,14.1,21.4c0,8.7,16.5,14.6,16.5,14.6c-5.5,6.5-21.2,0.1-23.3-6.5c-0.4,6.3-13.1,9.2-13.1,9.2
				c-3-4.1-1.2-10.8-2.3-15.5c-1.1-4.7-9.4-5.9-10.2-10.9C233.1,121.7,235.6,116.6,240.5,117.8z"/>
			<g id="XMLID_00000150062785710079808520000015253125695012308885_">
				<path id="XMLID_00000155123038759484138550000018131631898616829362_" class="st22" d="M185.1,183c-0.1-0.3,8.1-6.7,8.1-6.7
					l2.9,6c0,0-7.4,11.8-10.9,11.7C181.6,193.8,185.1,183,185.1,183z"/>
				<path id="XMLID_00000139278518811815062310000000714480560240613802_" class="st21" d="M214.1,270l1.6,2.1
					c0,0,5.4,10.7,1.8,12.4c-3.6,1.7-9.9,1.9-10.5-0.8c-0.6-2.8,3-11.6,3-11.6L214.1,270z"/>
				<path id="XMLID_00000142885470902826649240000017620488013940557242_" class="st22" d="M224.8,217.6
					c-1.4,22.2-9.1,54.5-9.1,54.5c-3.3,0.8-5.7,0-5.7,0s-0.8-51.7,0.6-54.5C211.9,214.8,224.8,217.6,224.8,217.6z"/>
				<path id="XMLID_00000083080548642273158750000007948105321532661400_" class="st21" d="M199.3,269.9l-1.4,2.1
					c0,0-5.2,10.9-1.6,12.6c3.6,1.7,9.9,1.9,10.5-0.8c0.6-2.8-3-11.6-3-11.6L199.3,269.9z"/>
				<path id="XMLID_00000158712931404806643720000016162775017511079083_" class="st22" d="M190.1,146.8l-1.8-0.8
					c0,0-5.5,2.7-6.6,10.9c-1.1,8.2-3.7,33.8,2.5,36.9c6.2,3.1,6.9-28.4,6.9-28.4L190.1,146.8z"/>
				<path id="XMLID_00000017492277164150327330000001219326600490496941_" class="st22" d="M227.1,183c0.1-0.3-8.1-6.7-8.1-6.7
					l-2.9,6c0,0,7.4,11.8,11,11.7C230.7,193.8,227.1,183,227.1,183z"/>
				<path id="XMLID_00000121998622281204718890000002365588917972315038_" class="st22" d="M222.2,146.8l1.8-0.8
					c0,0,5.5,2.7,6.6,10.9c1.1,8.2,3.7,33.8-2.5,36.9c-6.2,3.1-6.9-28.4-6.9-28.4L222.2,146.8z"/>
				<path id="XMLID_00000018916435505881656320000003268068410658144162_" class="st22" d="M187.9,217.6c3.2,32.4,10,54.3,10,54.3
					c3.3,0.8,5.9,0.1,5.9,0.1s-0.3-51.7-1.7-54.5C200.7,214.8,187.9,217.6,187.9,217.6z"/>
				<path id="XMLID_00000118355242321068672080000015291821623317206675_" class="st19" d="M230,208.5c0.4-7.8-8.6-16.6-8.6-21.3
					c0-4.7-0.8-11.7,0.8-18.1c0,0,1.2-5.1,3.2-23.1l-11.6-3.9h-7h-0.1h-7l-11.6,3.9c2,18,2.5,24.1,2.5,24.1
					c2.1,11.5,1.3,12.4,1.3,17.1c0,4.7-8.8,13.6-8.4,21.3c0.4,7.7,5.2,14.2,23.2,14.3c0,0,0,0,0,0c0,0,0,0,0.1,0c0,0,0,0,0.1,0
					c0,0,0,0,0,0C224.8,222.8,229.7,216.3,230,208.5z"/>
				<path id="XMLID_00000108997127189209452970000006009249740119742358_" class="st24" d="M206.3,106.9c-3.5,0.5-7.1,1.5-9,4.5
					c-1.9,3-2.5,6.7-2.7,10.2c-0.2,3.8-0.2,7.7-1.4,11.3c-1.2,3.6-3.7,6.6-6.1,9.5c1.2,0.6,2.7,0.3,3.9,0.7c2.5,0.8,3.4,3.8,5.6,5.2
					c1.5,0.9,3.5,0.9,5.2,0.5c1.8-0.3,3.5-0.9,5.3-0.8c2.1,0,4.2,0.8,6.1,0.2c1.8-0.6,3.2-2.5,5.2-2.7c0.6-0.1,1.3,0.1,1.8-0.1
					c0.7-0.2,1.1-0.8,1.8-1.1c0.6-0.2,1.2-0.1,1.9-0.1c1.8,0,3.6-1,4.6-2.5c0,0-4.2-0.4-5.4-7C221.8,128,222.6,104.7,206.3,106.9z"
					/>
			</g>
			<g id="XMLID_00000107578320672221541650000012476745351014894265_">
				<polygon id="XMLID_00000003080221115312577110000004283374541016457389_" class="st25" points="125.5,233.7 125.5,240.8 
					125.5,285.8 133.5,285.8 133.5,240.8 319.8,240.8 319.8,285.8 327.8,285.8 327.8,240.8 327.8,233.7 				"/>
				<path id="XMLID_00000052084799320856273410000016132571682293222324_" class="st26" d="M323.9,233.7H129.3v-9.2
					c0-0.9,0.7-1.7,1.7-1.7h191.2c0.9,0,1.7,0.7,1.7,1.7V233.7z"/>
			</g>
			<path id="XMLID_00000079481721612619535390000006538743349005406130_" class="st27" d="M258.9,182.8c0,0,0.4-10.6-1-18.3"/>
			
				<line id="XMLID_00000178890924386603127140000010036289585044580225_" class="st27" x1="261.4" y1="168.5" x2="258.9" y2="174.7"/>
			<path id="XMLID_00000155859562438266464810000010945312055172525215_" class="st27" d="M245.4,173.1c0,0,1.3,6.8,2,9.9"/>
			<g id="XMLID_00000056417096614237482290000003857588966781578648_">
				<g>
					<path class="st28" d="M108.4,91.5"/>
				</g>
			</g>
		</g>
	</g>
</g>
</svg>
