<?xml version="1.0" standalone="no"?>
<!DOCTYPE svg PUBLIC "-//W3C//DTD SVG 1.1//EN" "http://www.w3.org/Graphics/SVG/1.1/DTD/svg11.dtd">
<svg xmlns="http://www.w3.org/2000/svg" id="_レイヤー_1" data-name="レイヤー_1" version="1.1" viewBox="0 0 600 466" width="600" height="466">
  <!-- Generator: Adobe Illustrator 29.1.0, SVG Export Plug-In . SVG Version: 2.1.0 Build 142)  -->
  <defs>
    <style>
      .st0 {
        fill: #1a3073;
      }

      .st1 {
        fill: #ef9339;
      }

      .st2 {
        fill: #fff;
      }

      .st2, .st3, .st4, .st5 {
        stroke-miterlimit: 10;
      }

      .st2, .st4 {
        stroke: #e2e2e2;
      }

      .st6 {
        fill: #61c9c1;
      }

      .st7 {
        fill: #7f563b;
      }

      .st8 {
        fill: #1d3f4b;
      }

      .st9 {
        fill: #b4bcc1;
      }

      .st10 {
        fill: #262c33;
      }

      .st11 {
        fill: #5b4639;
      }

      .st12 {
        fill: #d6aa6e;
      }

      .st13 {
        fill: #2b3435;
      }

      .st14 {
        fill: #3d8199;
      }

      .st15 {
        fill: #143160;
      }

      .st3 {
        stroke: #e48633;
        stroke-linecap: round;
        stroke-width: .3px;
      }

      .st3, .st4, .st5 {
        fill: none;
      }

      .st16 {
        fill: #ffb7a1;
      }

      .st17 {
        fill: #4687a4;
      }

      .st18 {
        fill: #49bab4;
      }

      .st19 {
        fill: #ffac92;
      }

      .st20 {
        fill: #ffba9f;
      }

      .st21 {
        fill: #603f36;
      }

      .st22 {
        fill: #5a9ebb;
      }

      .st23 {
        fill: #804f4e;
      }

      .st24 {
        fill: #ffa683;
      }

      .st5 {
        stroke: #e74e40;
        stroke-width: .6px;
      }

      .st25 {
        fill: #c74d49;
      }

      .st26 {
        fill: #d3d3d3;
      }

      .st27 {
        fill: #e74e40;
      }

      .st28 {
        fill: #28343d;
      }

      .st29 {
        fill: #f4b29e;
      }

      .st30 {
        fill: #ffb08d;
      }
    </style>
  </defs>
  <ellipse class="st12" cx="412.8" cy="458.4" rx="39.7" ry="7.1"/>
  <ellipse class="st12" cx="304" cy="458.4" rx="39.7" ry="7.1"/>
  <ellipse class="st12" cx="197.4" cy="458.4" rx="39.7" ry="7.1"/>
  <ellipse class="st12" cx="72.7" cy="458.4" rx="39.7" ry="7.1"/>
  <rect class="st2" x="357.1" y="204.9" width="446.2" height="37.4" transform="translate(803.8 -356.6) rotate(90)"/>
  <line class="st4" x1="598.9" y1="25" x2="561.5" y2="25"/>
  <line class="st4" x1="598.9" y1=".5" x2="561.5" y2=".5"/>
  <line class="st4" x1="598.9" y1="446.7" x2="598.9" y2=".5"/>
  <line class="st4" x1="561.5" y1="446.7" x2="561.5" y2=".5"/>
  <line class="st4" x1="598.9" y1="50" x2="561.5" y2="50"/>
  <line class="st4" x1="598.9" y1="74.9" x2="561.5" y2="74.9"/>
  <line class="st4" x1="598.9" y1="99.5" x2="561.5" y2="99.5"/>
  <line class="st4" x1="598.9" y1="124" x2="561.5" y2="124"/>
  <line class="st4" x1="598.9" y1="149" x2="561.5" y2="149"/>
  <line class="st4" x1="598.9" y1="173.9" x2="561.5" y2="173.9"/>
  <line class="st4" x1="598.9" y1="198.5" x2="561.5" y2="198.5"/>
  <line class="st4" x1="598.9" y1="223.8" x2="561.5" y2="223.8"/>
  <line class="st4" x1="598.9" y1="248.7" x2="561.5" y2="248.7"/>
  <line class="st4" x1="598.9" y1="273.6" x2="561.5" y2="273.6"/>
  <line class="st4" x1="598.9" y1="298.2" x2="561.5" y2="298.2"/>
  <line class="st4" x1="598.9" y1="322.8" x2="561.5" y2="322.8"/>
  <line class="st4" x1="598.9" y1="347.7" x2="561.5" y2="347.7"/>
  <line class="st4" x1="598.9" y1="372.6" x2="561.5" y2="372.6"/>
  <line class="st4" x1="598.9" y1="397.2" x2="561.5" y2="397.2"/>
  <line class="st4" x1="598.9" y1="422.1" x2="561.5" y2="422.1"/>
  <line class="st4" x1="598.9" y1="446.7" x2="561.5" y2="446.7"/>
  <g>
    <path class="st23" d="M579.4,17.2l-.9,1.2c-.2.3-.5.3-.7,0,0,0,0,0,0,0l-.2-.2s0,0,0,0c-.3-.4-.6-.4-.6.2v4.8c0,.3-.2.4-.4.4h-1.5c-.3,0-.4-.2-.4-.4v-3.8c0-.6-.3-.7-.8-.4-.1,0-.2.2-.3.2-.3.2-.6.1-.7-.2-.2-.4-.4-.9-.6-1.3-.1-.3,0-.5.2-.7,1.2-.8,2.4-2,3.2-3.3.2-.4,0-.6-.4-.6h-2.3c-.3,0-.4-.2-.4-.4v-1.3c0-.3.2-.4.4-.4h1.1c.3,0,.4-.2.4-.4v-2.2c0-.3.2-.4.4-.4h1.5c.3,0,.4.2.4.4v2.5c0,.1,0,.2.2.2h.2s.2,0,.2,0c.1,0,.2,0,.3,0h0l.9.6c.2.1.2.3.2.5-.4.9-.8,1.9-1.3,2.7-.1.2,0,.4,0,.6.6.5,1.2,1.1,1.6,1.5.2.2.2.4,0,.6ZM586.2,21.5c.2,0,.2-.2.3-1.3,0-.5.3-.7.8-.5.3.1.6.3.9.4.2,0,.3.2.3.5-.2,2.2-.7,2.9-2,2.9h-1c-1.7,0-2-.7-2-2.6v-4.6c0-.2-.1-.3-.3-.3s-.3.1-.3.3c-.2,3.1-.7,5.6-3.2,7.2-.2.2-.5,0-.6-.2-.2-.4-.5-.8-.8-1.1-.3-.3-.2-.6.1-.8,1.7-1.2,2.1-2.9,2.2-5,0-.3-.2-.5-.4-.5h-.4c-.3,0-.4-.2-.4-.4v-6.3c0-.3.2-.4.4-.4h7.5c.3,0,.4.2.4.4v6.3c0,.3-.2.4-.4.4h-.9c-.3,0-.4.2-.4.4v4.5c0,.6,0,.6.2.6h.2ZM581.4,11.1v2.4c0,.2.1.3.3.3h3.1c.2,0,.3-.1.3-.3v-2.4c0-.2-.1-.3-.3-.3h-3.1c-.2,0-.3.1-.3.3Z"/>
    <path class="st23" d="M587.8,33.9v1c0,.3-.2.4-.4.4h-1.4c-.3,0-.4.2-.2.5.2.3,0,.5-.2.6h-.4c-.5.3-.5.5,0,.5h.8c.3,0,.4.2.4.4v3.7c0,.3-.2.4-.4.4h-4.4c-.2,0-.3.1-.3.3s.1.3.3.3h5.3c.2,0,.4.2.4.4,0,.2,0,.3,0,.4h0c-.1,2.2-.3,3.3-.7,3.8-.4.4-.9.6-1.4.7-.4,0-1,0-1.7,0-.2,0-.4-.2-.4-.4,0-.4-.2-.7-.3-1.1-.2-.5,0-.7.5-.6.3,0,.6,0,.8,0h0c.2,0,.4,0,.5-.1,0,0,0,0,0,0,0,0,.1-.3.2-.5,0-.3-.1-.5-.4-.5h-2.6c-.3,0-.4.2-.4.4v3.1c0,.3-.2.4-.4.4h-1.5c-.3,0-.4-.2-.4-.4v-1.5c0-.6-.3-.7-.8-.4-1.1.9-2.4,1.6-3.7,2.1-.2,0-.4,0-.5-.2-.2-.3-.5-.7-.8-1-.3-.4-.2-.6.2-.8,1.1-.4,2.2-.9,3.2-1.5.3-.2.2-.3,0-.3h-.4c0,0-.1,0-.2.1,0,0,0,0,0,0,0,0,0,.1-.2.1h0l-1.7-.2c-.3,0-.5-.3-.4-.6.3-1.1.7-2.5.9-3.8,0-.2.2-.4.4-.4h3.7c.2,0,.3-.1.3-.3s-.1-.3-.3-.3h-4.1c-.3,0-.4-.2-.4-.4v-1.2s0,0,0,0c0,0,0,0,0,0-.3-.2-.9-.6-1.3-.9-.3-.2-.4-.5,0-.8.8-.8,1.5-1.9,2-3,.1-.2.3-.3.5-.2l1.5.4c.2,0,.3.3.2.5-.1.2,0,.4.2.4h2.5c.3,0,.4.2.4.4v.3c0,.4.2.5.5.2.4-.6.8-1.2,1.1-1.9,0-.2.3-.3.5-.3l1.5.4c.3,0,.4.3.3.5-.1.2,0,.4.2.4h3.4c.3,0,.4.2.4.4ZM574.9,36.8h1c.2,0,.4-.1.2-.4-.1-.2-.3-.5-.4-.8-.1-.2-.3-.2-.4,0-.2.2-.4.5-.6.7-.2.3-.2.5.2.5ZM579,41.8h0c0-.3-.1-.4-.3-.4h-1.9c-.1,0-.2,0-.3.2h0c0,.3,0,.5.3.5h1.9c.2,0,.3-.1.3-.3ZM577.8,36.8h2.5c.4,0,.5-.2.1-.4-.3-.2-.7-.5-1-.6-.1,0-.1-.2,0-.3h0c.1-.1,0-.2,0-.2h-.9c-.3,0-.4.2-.2.4,0,.1.1.2.1.3,0,.1,0,.2-.1.3l-.5.2c-.4.2-.4.3,0,.3ZM584.1,39.2h0c0-.3-.1-.4-.3-.4h-2.2c-.2,0-.3.1-.3.3h0c0,.3.1.4.3.4h2.2c.2,0,.3-.1.3-.3ZM581.9,36.8h1.5c.2,0,.3-.2.2-.4-.2-.3-.4-.7-.7-1.1,0,0-.1-.1-.2-.1h0c0,0-.2,0-.2.1-.2.4-.5.7-.8,1-.2.3-.2.5.2.5Z"/>
    <path class="st23" d="M575.4,60c0-1.2.5-2.1,1.4-2.8.4-.3.4-.5,0-.8-.6-.6-1-1.4-1-2.3,0-2.1,1.7-3.5,4.4-3.5s4.3,1.4,4.3,3.4c0,1-.4,1.8-1.1,2.4-.3.3-.3.6,0,.8,1.2.8,1.6,1.7,1.6,2.9,0,1.9-1.9,3.4-4.9,3.4s-4.8-1.5-4.8-3.4ZM582.2,59.9c0-1.1-.9-1.4-3-2.1,0,0-.2,0-.2,0-.6.6-.9,1.2-.9,1.8,0,1,.9,1.7,2.3,1.7s1.9-.7,1.9-1.5ZM581.3,55.9c.6-.6.8-1.1.8-1.7,0-.8-.6-1.6-2-1.6s-1.7.6-1.7,1.5c0,1,1.2,1.5,2.6,1.9,0,0,.2,0,.2,0Z"/>
    <path class="st23" d="M575.4,76.7c0-1.2.5-2.1,1.4-2.8.4-.3.4-.5,0-.8-.6-.6-1-1.4-1-2.3,0-2.1,1.7-3.5,4.4-3.5s4.3,1.4,4.3,3.4c0,1-.4,1.8-1.1,2.4-.3.3-.3.6,0,.8,1.2.8,1.6,1.7,1.6,2.9,0,1.9-1.9,3.4-4.9,3.4s-4.8-1.5-4.8-3.4ZM582.2,76.5c0-1.1-.9-1.4-3-2.1,0,0-.2,0-.2,0-.6.6-.9,1.2-.9,1.8,0,1,.9,1.7,2.3,1.7s1.9-.7,1.9-1.5ZM581.3,72.6c.6-.6.8-1.1.8-1.7,0-.8-.6-1.6-2-1.6s-1.7.6-1.7,1.5c0,1,1.2,1.5,2.6,1.9,0,0,.2,0,.2,0Z"/>
    <path class="st23" d="M573.4,82.8h13.6c.3,0,.4.2.4.4v14.4c0,.3-.2.4-.4.4h-1.8c-.3,0-.4-.2-.4-.4s-.2-.5-.4-.5h-8.5c-.3,0-.4.2-.4.5s-.2.4-.4.4h-1.6c-.3,0-.4-.2-.4-.4v-14.4c0-.3.2-.4.4-.4ZM575.8,94.9h8.8c.2,0,.3-.1.3-.3v-9.2c0-.2-.1-.3-.3-.3h-8.8c-.2,0-.3.1-.3.3v9.2c0,.2.1.3.3.3ZM577.1,86.8h6.2c.3,0,.4.2.4.4v5.7c0,.3-.2.4-.4.4h-6.2c-.3,0-.4-.2-.4-.4v-5.7c0-.3.2-.4.4-.4ZM581.2,91v-1.8c0-.2-.1-.3-.3-.3h-1.8c-.2,0-.3.1-.3.3v1.8c0,.2.1.3.3.3h1.8c.2,0,.3-.1.3-.3Z"/>
    <path class="st23" d="M581.5,111.1v.7c0,.3.2.4.4.4h5.1c.3,0,.4.2.4.4v1.3c0,.3-.2.4-.4.4h-13.4c-.3,0-.4-.2-.4-.4v-1.3c0-.3.2-.4.4-.4h4.9c.3,0,.4-.2.4-.4v-.7c0-.3-.2-.4-.4-.4h-3.5c-.3,0-.4-.2-.4-.4v-1.2c0-.3.2-.4.4-.4h3.5c.3,0,.4-.2.4-.4v-.7c0-.3-.2-.4-.4-.4h-2.6c-.3,0-.4-.2-.4-.4v-.2c0-.4-.2-.5-.6-.3-.3.2-.5.3-.8.5-.2.1-.5,0-.6-.2-.2-.4-.6-.8-.9-1.1-.2-.3-.2-.6.1-.8,2.6-1.4,4.9-3.6,6-5.4,0-.1.2-.2.4-.2h2.1c.1,0,.3,0,.4.2,1.6,2.3,3.9,4.2,6.3,5.2.4.2.4.5.2.8-.3.4-.6.9-.9,1.3-.1.2-.4.3-.6.1-.3-.1-.5-.3-.8-.5-.3-.2-.6,0-.6.3v.2c0,.3-.2.4-.4.4h-2.7c-.3,0-.4.2-.4.4v.7c0,.3.2.4.4.4h3.6c.3,0,.4.2.4.4v1.2c0,.3-.2.4-.4.4h-3.6c-.3,0-.4.2-.4.4ZM577.2,104.9h6c.5,0,.5-.2.2-.5-1.2-.9-2.2-1.9-3-2.9-.1-.2-.3-.2-.4,0-.7,1-1.7,2-2.9,2.9-.4.3-.3.5.2.5Z"/>
    <path class="st23" d="M573.5,116.2h13.4c.3,0,.4.2.4.4v14.3c0,.3-.2.4-.4.4h-1.8c-.2,0-.4-.2-.4-.4s-.2-.4-.4-.4h-8.4c-.2,0-.4.2-.4.4s-.2.4-.4.4h-1.6c-.3,0-.4-.2-.4-.4v-14.3c0-.3.2-.4.4-.4ZM575.8,128.3h8.6c.2,0,.3-.1.3-.3v-9.4c0-.2-.1-.3-.3-.3h-8.6c-.2,0-.3.1-.3.3v9.4c0,.2.1.3.3.3ZM583.9,125.8c.2,0,.4.2.4.4v1.1c0,.3-.2.4-.4.4h-7.5c-.3,0-.4-.2-.4-.4v-1.1c0-.3.2-.4.4-.4h2.2c.3,0,.4-.2.4-.4v-.6c0-.3-.2-.4-.4-.4h-1.6c-.3,0-.4-.2-.4-.4v-1.1c0-.3.2-.4.4-.4h1.6c.3,0,.4-.2.4-.4v-.3c0-.3-.2-.4-.4-.4h-2.1c-.3,0-.4-.2-.4-.4v-1.2c0-.3.2-.4.4-.4h7.2c.3,0,.4.2.4.4v1.2c0,.3-.2.4-.4.4h-2c-.3,0-.4.2-.4.4v.3c0,.3.2.4.4.4h1.7c.3,0,.4.2.4.4v1.3c0,.1,0,.2-.2.2s-.2,0,0,.2c.2.2.4.4.5.6.1.2,0,.4-.1.5-.2.1-.2.2,0,.2ZM581.2,124.5v1c0,.2.1.3.3.3h.3c.3,0,.4-.2.2-.4l-.4-.5c-.1-.1,0-.3,0-.4h.1c.2-.2.2-.3,0-.3h-.3c-.2,0-.3.1-.3.3Z"/>
    <path class="st23" d="M587.8,142.9v1.4c0,.3-.2.4-.4.4h-2.5c-.2,0-.4.1-.4.4-.2,1.1-.5,1.8-.9,2.2-.5.6-1.1.8-1.9.8-.6,0-1.5,0-2.4,0-.2,0-.4-.2-.5-.4,0-.3-.2-.7-.3-1.1-.2-.5,0-.8.5-.8.7,0,1.4,0,1.7,0s.6,0,.8-.2c.1,0,.2-.2.3-.5.1-.3,0-.5-.4-.5h-8.3c-.3,0-.4-.2-.4-.4v-1.4c0-.3.2-.4.4-.4h8.9c.3,0,.4-.2.5-.4,0-.3-.1-.5-.4-.5h-4c-.1,0-.2,0-.3.2h0c0,.2-.1.2-.3.2h-1.7c-.3-.2-.5-.4-.4-.7.4-1.6.8-3.7,1.1-5.5,0-.3-.1-.5-.4-.5h-.3c-.3,0-.4.2-.4.4v1.2c0,.3-.2.4-.4.4h-1.5c-.3,0-.4-.2-.4-.4v-3.4c0-.3.2-.4.4-.4h13.9c.3,0,.4.2.4.4v3.4c0,.3-.2.4-.4.4h-1.7c-.3,0-.4-.2-.4-.4v-1.2c0-.3-.2-.4-.4-.4h-5.8c0,0,0,0,0,0h0s0,.5,0,.5c0,.3.1.5.4.5h4.7c.3,0,.4.2.4.4v1.2c0,.3-.2.4-.4.4h-5.2c-.2,0-.4.1-.4.4v.2c-.1.3,0,.5.4.5h5.9c.3,0,.5.2.4.5v.5c-.1.6-.1,1.1-.2,1.6,0,.3.1.5.4.5h2.1c.3,0,.4.2.4.4Z"/>
    <path class="st23" d="M587.3,161.7h-1.4c-1.1,0-1.2.2-.1.6.5.2,1,.4,1.5.5.4.2.5.5.1.8l-1.3,1c-.1,0-.3.1-.4,0h0c-.9-.4-2.3-1.1-3.8-1.6-.4-.2-.5-.4-.2-.8h0c.4-.4.3-.6-.2-.6h-2.8c-.6,0-.7.2-.2.6l.2.2c.3.2.3.5,0,.7-1.2.6-2.8,1.2-4.2,1.5-.1,0-.3,0-.4-.1-.2-.2-.5-.6-.8-.8-.4-.4-.3-.7.2-.8.6-.1,1.1-.3,1.7-.5,1-.4.9-.7-.2-.7h-1.8c-.3,0-.4-.2-.4-.4v-1.1c0-.3.2-.4.4-.4h14.1c.3,0,.4.2.4.4v1.1c0,.3-.2.4-.4.4ZM578.9,152.2c0-.1-.1-.2-.2-.2h-4.9c-.3,0-.4-.2-.4-.4v-1.1c0-.3.2-.4.4-.4h4.8c.3,0,.4-.2.4-.4v-.2c0-.3.2-.4.4-.4h1.7c.3,0,.4.2.4.4v.2c0,.3.2.4.4.4h5c.3,0,.4.2.4.4v1.1c0,.3-.2.4-.4.4h-5.2c-.1,0-.2.1-.2.2s.1.2.2.2h3.4c.3,0,.4.2.4.4v6c0,.3-.2.4-.4.4h-9.5c-.3,0-.4-.2-.4-.4v-6c0-.3.2-.4.4-.4h3.1c.1,0,.2-.1.2-.2ZM583.1,154.1c0-.1-.1-.2-.2-.2h-5.1c-.1,0-.2.1-.2.2s.1.2.2.2h5.1c.1,0,.2-.1.2-.2ZM583.1,155.9c0-.1-.1-.2-.2-.2h-5.1c-.1,0-.2.1-.2.2s.1.2.2.2h5.1c.1,0,.2-.1.2-.2ZM583.1,157.7c0-.2-.1-.3-.3-.3h-5c-.2,0-.3.1-.3.3s.1.3.3.3h5c.2,0,.3-.1.3-.3Z"/>
    <path class="st23" d="M586.2,180.3h-2.1c-.2,0-.4-.2-.4-.4,0-.2-.2-.4-.4-.4h-6.9c-.5,0-1.2,0-1.8,0-.3,0-.5-.1-.5-.4v-1.9c0-.3.2-.5.5-.4.5,0,1.1,0,1.7,0h7c.3,0,.4-.2.4-.4v-5.5c0-.3-.2-.4-.4-.4h-6.8c-.6,0-1.2,0-1.7,0-.3,0-.5-.2-.5-.4v-1.8c0-.3.2-.5.5-.4.6,0,1.2,0,1.7,0h9.6c.3,0,.5.1.5.4,0,.4,0,.8,0,1.2v8.6c0,.4,0,1.1,0,1.7,0,.3-.2.5-.4.5Z"/>
    <path class="st23" d="M574.3,194.5c2.2-.4,4.1-1.1,5.5-1.9,2.7-1.5,4.8-3.8,6-5.9.3-.4.6-.5.8,0l1,1.9c0,.1,0,.3,0,.4-1.3,2.3-3.6,4.5-6.3,6.1-1.6.9-3.7,1.8-5.7,2.2-.2,0-.4,0-.4-.2l-1.2-1.8c-.2-.4,0-.6.3-.7ZM576.2,183.9c1.1.8,2.7,2.1,3.7,3.1.2.2.2.4,0,.6l-1.4,1.5c-.2.2-.5.2-.6,0-.9-.9-2.4-2.2-3.5-3-.2-.2-.3-.4,0-.7l1.3-1.4c.2-.2.4-.2.6,0Z"/>
    <path class="st23" d="M585.6,204.3c.2,0,.7,0,1.1,0,.3,0,.5.2.5.5v1.6c0,.3-.2.5-.5.4-.4,0-.8,0-1.2,0h-3.2c-.3,0-.4.2-.5.4-.1,1.5-.4,2.8-.9,3.8-.5,1.1-1.7,2.4-3.2,3.2-.1,0-.3,0-.4,0l-1.5-1.1c-.4-.3-.4-.6,0-.8.9-.5,1.7-1.2,2.2-1.9.6-.9.8-1.9.9-3.1,0-.3-.2-.5-.4-.5h-3.5c-.3,0-.8,0-1.2,0-.3,0-.5-.2-.5-.4v-1.7c0-.3.2-.5.5-.4.4,0,.8,0,1.2,0h10.4ZM577.2,202.6c-.4,0-1,0-1.5,0-.3,0-.5-.2-.5-.5v-1.6c0-.3.2-.5.5-.4.5,0,1,0,1.4,0h6.7c.5,0,.9,0,1.4,0,.3,0,.5.1.5.4v1.6c0,.3-.2.4-.5.4-.5,0-1,0-1.5,0h-6.7Z"/>
    <path class="st23" d="M584.3,217.2c.1,0,.3,0,.4,0l1.1.8c.2.1.2.4.1.6h0c-.1.3-.3.6-.5.9-.5,1.2-1.3,2.7-2.3,4.1-.1.2-.1.4,0,.6,1.4,1.3,3,3,4,4,.2.2.1.4,0,.6l-1.6,1.4c-.2.2-.5.2-.6,0-.9-1.3-2.1-2.6-3.4-3.8-.2-.2-.4-.2-.6,0-1.6,1.6-3.5,3.1-5.5,4.1-.2,0-.4,0-.5,0l-1.4-1.5c-.3-.3-.2-.6.2-.7,2.5-1.1,4.8-2.9,6.2-4.4.9-1,1.7-2.2,2.1-3.2.1-.3,0-.6-.4-.6h-4.6c-.5,0-1.2,0-1.7.1-.3,0-.5-.2-.5-.4v-1.9c0-.3.2-.5.5-.5.6,0,1.3,0,1.6,0h5.6c.7,0,1.3,0,1.8-.2h0Z"/>
    <path class="st23" d="M586.4,240.5l-.8,2c-.1.3-.4.4-.6.2-1.4-.7-3.2-1.4-4.7-2-.4-.1-.6,0-.6.4v3.6c0,.4,0,1.3.1,2,0,.3-.1.5-.4.5h-2.2c-.3,0-.5-.2-.4-.5,0-.6.1-1.5.1-2v-9.5c0-.5,0-1.1-.1-1.6,0-.3.1-.5.4-.5h2.1c.3,0,.5.2.4.5,0,.5-.1,1.1-.1,1.7v1.9c0,.2.1.4.3.4,2,.6,4.7,1.6,6.2,2.2.2.1.3.3.2.6Z"/>
    <path class="st23" d="M585.7,257.3h.2s0,0,0,0l1,.4c.2,0,.3.3.3.5-.4,1.2-.9,2.2-1.5,3.1-.2.2-.1.5.1.6.4.2.9.4,1.5.6.5.1.6.4.3.8-.2.3-.5.6-.7.9-.1.2-.3.3-.5.2-.9-.3-1.6-.6-2.3-1.1-.2-.1-.4-.1-.5,0-.6.4-1.2.8-1.9,1.1-.2.1-.5,0-.6-.2l-.4-.6c-.3-.4-.5-.3-.5.2v.3c0,.3-.2.4-.4.4h-1.4c-.3,0-.4-.2-.4-.4v-.3c0-.3-.2-.5-.5-.4-1.5.1-3,.2-4.2.3-.3,0-.5-.1-.5-.4v-1.2c-.1-.3,0-.5.3-.5.2,0,.3,0,.5,0h0c.2,0,.4-.2.4-.4v-3.9c0-.3-.2-.4-.4-.4h-.4c-.3,0-.4-.2-.4-.4v-1c0-.3.2-.4.4-.4h14.1c.3,0,.4.2.4.4v1c0,.3-.2.4-.4.4h-6.7c-.3,0-.4.2-.4.4v4.7c0,.4.2.5.6.4.3-.2.7-.3,1-.5.2-.2.3-.4.1-.6-.3-.4-.6-.9-.8-1.3-.1-.3,0-.5.3-.6h.1c.4-.1.4-.2,0-.2h-.5c-.3,0-.4-.2-.4-.4v-.9c0-.3.2-.4.4-.4h4.7c0,0,0,0,0,0ZM585.8,249.8v4.4c0,.3-.2.4-.4.4h-10.2c-.3,0-.4-.2-.4-.4v-4.4c0-.3.2-.4.4-.4h10.2c.3,0,.4.2.4.4ZM577.7,257h-1.3c-.1,0-.2,0-.2.2s0,.2.2.2h1.3c.1,0,.2,0,.2-.2s0-.2-.2-.2ZM576.1,259.2c0,.1,0,.2.2.2h1.3c.1,0,.2,0,.2-.2s0-.2-.2-.2h-1.3c-.1,0-.2,0-.2.2ZM576.4,261.6h1.2c.1,0,.2-.2.2-.3s0-.2-.2-.2h-1.2c-.2,0-.3.1-.3.3s.1.3.3.2ZM583.3,251.1c0-.1,0-.2-.2-.2h-6c-.1,0-.2,0-.2.2s0,.2.2.2h6c.1,0,.2,0,.2-.2ZM583.3,252.9c0-.1,0-.2-.2-.2h-5.9c-.1,0-.2,0-.2.2s0,.2.2.2h5.9c.1,0,.2,0,.2-.2ZM583.9,259.2h-.7c-.3,0-.4.2-.2.4.1.2.2.4.4.5.1.2.3.1.4,0,.1-.2.2-.4.4-.5.1-.2,0-.4-.2-.4Z"/>
    <path class="st23" d="M575.6,265.6l1.4.4c.2,0,.4.3.3.5-.3.9-.6,1.8-1.1,2.7,0,0,0,0,0,0h0v11.5c0,.3-.2.4-.4.4h-1.4c-.3,0-.4-.2-.4-.4v-6.8c0-.3-.1-.4-.3-.1-.2.3-.4.2-.5-.1-.2-.6-.5-1.3-.8-1.9,0-.2,0-.4,0-.5,1.1-1.4,2.2-3.5,2.8-5.6,0-.2.3-.4.5-.3ZM585.8,276.5h0l.9.5c.2.1.3.4.1.6-.2.3-.5.6-.8.8-.5.4-.5.8.2.8.4,0,.8,0,1.1,0,.6,0,.7.3.4.8-.2.3-.4.6-.5.9,0,.2-.3.2-.4.2h0c-1.6-.2-3-.4-4.2-.9,0,0-.2,0-.3,0-1.2.4-2.6.7-4.1.9-.2,0-.4,0-.5-.2-.1-.2-.3-.5-.5-.8-.3-.4-.2-.7.3-.8.7,0,1.3-.2,2-.3.3,0,.3-.2,0-.4h-.2c-.1-.2-.3-.3-.5-.2-.2.1-.4.2-.7.3-.2,0-.4,0-.5-.2h0c-.1-.2-.2-.4-.4-.5-.4-.4-.3-.7.2-.9,1.1-.3,2-.8,2.6-1.2.2-.1.2-.4,0-.6-.1-.2-.2-.3-.4,0-.3.3-.6.6-.9.9-.2.1-.4.1-.5,0l-.8-.6c-.2-.2-.2-.4,0-.6.2-.2.2-.3-.1-.3h-.3c-.3,0-.4-.2-.4-.4v-1.6c0-.3.2-.4.4-.4h.6c.3,0,.4-.2.4-.4v-3.2c0-.3.2-.4.4-.4h2c.1,0,.2,0,.3-.2h0c0-.1,0-.2-.2-.2h-2.9c-.3,0-.4-.2-.4-.4v-.8c0-.3.2-.4.4-.4h9.3c.3,0,.4.2.4.4v.8c0,.3-.2.4-.4.4h-3.5c-.1,0-.2,0-.3.2h0c0,.1,0,.2.1.2h2.8c.3,0,.4.2.4.4v3.2c0,.3.2.4.4.4h.5c.3,0,.4.2.4.4v1.6c0,.3-.2.4-.5.4s-.4.1-.2.4h0c.2.3,0,.5-.2.6l-.8.4c-.2.1-.5,0-.6-.2l-.2-.2c-.2-.4-.5-.3-.8,0-.3.2-.7.4-1.3.4h-.9c-.1,0-.2,0-.3.1-.1.1-.1.2,0,.2h2.9c0,0,.2,0,.3,0ZM579.8,274.3c.2,0,.3,0,.3-.2h0c0-.2.1-.3.3-.3h1.3c0,0,0,0,0,0h0s-.1,0-.2,0h-2.5c0,0-.1,0-.1.1h0c0,.1,0,0,0,0l.8.4ZM584.4,269.3h-3.7c-.1,0-.2,0-.2.2s0,.2.2.2h3.7c.1,0,.2,0,.2-.2s0-.2-.2-.2ZM584.6,270.8c0-.1,0-.2-.2-.2h-3.7c-.1,0-.2,0-.2.2s0,.2.2.2h3.7c.1,0,.2,0,.2-.2ZM580.5,272.1c0,.1,0,.2.2.2h3.7c.1,0,.2,0,.2-.2s0-.2-.2-.2h-3.7c-.1,0-.2,0-.2.2ZM583.1,277.8h-1.2c-.4,0-.5.2,0,.4l.6.3c0,0,.1,0,.2,0l.6-.3c.4-.2.4-.4,0-.4ZM581.9,274.3v.3c0,.4,0,.4.5.4h.2c.1,0,.1,0,0-.1-.1-.2-.3-.4-.5-.6-.1-.1-.2,0-.2,0ZM583.2,274.9h.3c.2,0,.3,0,.3-.1.1-.2.2-.3.4-.2l.4.2c.2,0,.2,0,0-.1-.1-.1-.1-.2,0-.3l1.1-.5c0,0,0,0,0-.1s0,0,0,0h-1.8c-.2,0-.3.1-.1.3,0,0,0,0,0,0,0,.1,0,.3,0,.3l-.8.4c-.2,0-.2.2,0,.2Z"/>
    <path class="st23" d="M580.9,290.4h-1.5c-.3,0-.4-.2-.4-.4v-.6c0-.6-.3-.7-.7-.3-.3.3-.6.5-.9.8-.7.6-.6.9.3.9h5c.3,0,.5.2.4.5v.5c-.2.3,0,.5.3.5h2.9c.3,0,.4.2.4.5v.4c-.3,2.3-.6,3.5-1.1,4s-1,.6-1.7.7c-.5,0-1.3,0-2.1,0-.3,0-.4-.2-.5-.4,0-.3-.2-.7-.3-1-.2-.5,0-.8.5-.8.6,0,1.1,0,1.4,0s.5,0,.7-.2c.1-.1.3-.4.4-.8,0-.3-.1-.5-.4-.5h-.9c-.2,0-.4.1-.4.4,0,.2-.2.3-.4.3l-1.4-.2c-.3,0-.4-.3-.4-.5,0-.3.2-.6.2-1,0-.3,0-.5-.4-.5h-.4c-.2,0-.4.1-.4.3-.5,2-1.6,3.7-4.7,4.8-.2,0-.4,0-.6-.2-.2-.4-.5-.8-.7-1.2-.3-.4-.2-.6.2-.8,1.8-.6,2.7-1.4,3.1-2.4.2-.3,0-.5-.4-.5h-.8c-.3,0-.4-.2-.4-.4v-.4c0-.4-.2-.5-.6-.4h-.2c-.2.2-.4,0-.6-.1-.2-.3-.5-.7-.8-1.1-.3-.4-.2-.6.2-.8.9-.3,1.7-.7,2.5-1.2.6-.4.5-.7-.2-.7h-1.9c-.3,0-.4-.2-.4-.4v-1.3c0-.3.2-.4.4-.4h5.3c.2,0,.4-.2.4-.4s-.2-.4-.4-.4c-1.4,0-2.8.1-4,.2-.3,0-.4-.2-.5-.4,0-.3-.2-.6-.2-.9-.1-.4,0-.6.4-.6,3.5-.1,7.4-.4,9.9-.8.2,0,.3,0,.4.1l1,1.1c.3.4.2.6-.2.7-1.1.2-2.3.3-3.5.5-.2,0-.4.2-.4.4h0c0,.4.2.6.4.6h5.3c.3,0,.4.2.4.4v1.3c0,.3-.2.4-.4.4h-1.9c-.8,0-.9.3-.2.7.8.4,1.6.8,2.4,1,.5.2.5.4.2.8-.3.4-.6.8-.8,1.1-.1.2-.3.3-.5.2-1.6-.6-3-1.5-4.2-2.6-.4-.4-.7-.3-.7.3v.6c0,.3-.2.4-.4.4Z"/>
    <path class="st23" d="M575.3,302.5v.8c0,.3-.2.4-.4.4h-1.4c-.3,0-.4-.2-.4-.4v-2.4c0-.3.2-.4.4-.4h1c.4,0,.5-.2.3-.5-.2-.3,0-.6.3-.7l1.3-.3c.2,0,.4,0,.5.2.2.4.5.8.6,1.1,0,.2.2.3.4.3h.6c.3,0,.4-.2.4-.4v-.8c0-.3.2-.4.4-.4h1.5c.3,0,.4.2.4.4v.8c0,.3.2.4.4.4h.9c.2,0,.3,0,.4-.2.2-.4.4-.7.6-1.1,0-.2.3-.3.5-.3l1.5.3c.4,0,.5.4.3.7-.3.3-.2.6.2.6h.9c.3,0,.4.2.4.4v2.4c0,.3-.2.4-.4.4h-1.5c-.3,0-.4-.2-.4-.4v-.8c0-.3-.2-.4-.4-.4h-9c-.3,0-.4.2-.4.4ZM585.4,312.1h-.5c-.6,0-.6.1,0,.3.7.2,1.4.5,2,.7.6.2.6.5,0,.8l-1.5.7c-.1,0-.3,0-.4,0-.8-.4-2.1-.8-3.4-1.3-.5-.2-.5-.5-.1-.7.4-.3.4-.5-.1-.5h-2.7c-.6,0-.6.1,0,.4h.1c0,0,0,0,0,0,.5.2.5.5,0,.7-1.2.7-2.8,1.2-4.2,1.5-.2,0-.3,0-.4-.2-.2-.3-.5-.6-.8-.9-.5-.5-.4-.8.3-.8.8-.1,1.5-.2,2.2-.4.6-.2.6-.3,0-.3h-.6c-.3,0-.4-.2-.4-.4v-5.2c0-.3.2-.4.4-.4h10.1c.3,0,.4.2.4.4v5.2c0,.3-.2.4-.4.4ZM584.3,305.6h-8.1c-.3,0-.4-.2-.4-.4v-2.1c0-.3.2-.4.4-.4h8.1c.3,0,.4.2.4.4v2.1c0,.3-.2.4-.4.4ZM577.1,307.5c0,.1,0,.2.2.2h5.9c.1,0,.2,0,.2-.2s0-.2-.2-.2h-5.9c-.1,0-.2,0-.2.2ZM577.1,309.1c0,.1,0,.2.2.2h5.9c.1,0,.2,0,.2-.2s0-.2-.2-.2h-5.9c-.1,0-.2,0-.2.2ZM577.1,310.7c0,.1,0,.2.2.2h5.9c.1,0,.2,0,.2-.2s0-.2-.2-.2h-5.9c-.1,0-.2,0-.2.2ZM578,304.1c0,.1,0,.2.2.2h3.9c.1,0,.2,0,.2-.2s0-.2-.2-.2h-3.9c-.1,0-.2,0-.2.2Z"/>
    <path class="st23" d="M585.5,324.1s0,0,0,0c0,0,0,.1,0,.2-.6,1.2-1.3,2.2-2.2,3-.4.4-.3.7.2.8,1.1.3,2.2.5,3.5.6.6,0,.7.4.4.8-.3.4-.6.9-.8,1.3,0,.2-.3.3-.5.2-2.2-.3-4.1-.8-5.8-1.5-.1,0-.2,0-.4,0-1.7.8-3.7,1.2-5.9,1.5-.2,0-.4,0-.5-.3-.2-.4-.4-.8-.7-1.1-.3-.5-.2-.8.4-.8,1.3-.1,2.5-.3,3.6-.6.5-.1.5-.4.2-.8-.5-.4-.9-.8-1.3-1.3-.2-.2-.1-.4.1-.5.2,0,.2-.2,0-.2s-.4-.2-.4-.4v-1.4c0-.3.2-.4.4-.4h7.9c0,0,0,0,0,0,0,0,.2,0,.3,0l.5.3c.4.2.6,0,.6-.4v-.4c0-.3-.2-.4-.4-.4h-9.3c-.3,0-.4.2-.4.4v.8c0,.3-.2.4-.4.4h-1.4c-.3,0-.4-.2-.4-.4v-2.9c0-.3.2-.4.4-.4h1.2c.4,0,.5-.2.4-.6v-.4c-.3-.3-.2-.5.1-.6h.2c.4-.2.4-.2,0-.2-.4,0-.8,0-1.2,0-.2,0-.4-.2-.5-.4,0-.3-.2-.7-.3-1-.1-.4,0-.6.4-.6,4.2-.1,8.7-.5,11.7-1,.2,0,.3,0,.4.1l1,1.2c.3.4.2.6-.3.7-1.5.2-3.1.4-4.8.6-.4,0-.5.3-.4.6.1.3.2.6.3.9,0,.2,0,.4-.3.5h-.1s0,0,0,0c-.3,0-.3.1,0,.1h1.6c.2,0,.3-.1.4-.3.2-.5.4-1.1.6-1.6,0-.2.3-.4.5-.3l1.6.4c.3,0,.5.3.3.6l-.3.5c-.2.4,0,.7.4.7h.9c.3,0,.4.2.4.4v2.9c0,.3-.2.4-.4.4h-1.7c0,0,0,0,0,0ZM579.2,318.4h.3c.4-.1.3-.2,0-.2-.8,0-1.5.1-2.3.1-.3,0-.4.2-.2.4.2.4.4.7.4,1,0,.1,0,.3-.2.3h-.1c-.2,0-.2.1,0,.1h2c.2,0,.3-.1.3-.3,0-.4-.2-.8-.4-1.2,0-.2,0-.3.2-.4ZM581.3,325.5h-2.5c-.4,0-.5.2-.2.4.4.3.9.6,1.4.9,0,0,.2,0,.2,0,.4-.3.8-.6,1.2-.9.3-.2.2-.4-.2-.4Z"/>
    <path class="st23" d="M575.3,335.9v.8c0,.3-.2.4-.4.4h-1.4c-.3,0-.4-.2-.4-.4v-2.4c0-.3.2-.4.4-.4h1c.4,0,.5-.2.3-.5-.2-.3,0-.6.3-.7l1.3-.3c.2,0,.4,0,.5.2.2.4.5.8.6,1.1,0,.2.2.3.4.3h.6c.3,0,.4-.2.4-.4v-.8c0-.3.2-.4.4-.4h1.5c.3,0,.4.2.4.4v.8c0,.3.2.4.4.4h.9c.2,0,.3,0,.4-.2.2-.4.4-.7.6-1.1,0-.2.3-.3.5-.3l1.5.3c.4,0,.5.4.3.7-.3.3-.2.6.2.6h.9c.3,0,.4.2.4.4v2.4c0,.3-.2.4-.4.4h-1.5c-.3,0-.4-.2-.4-.4v-.8c0-.3-.2-.4-.4-.4h-9c-.3,0-.4.2-.4.4ZM585.4,345.5h-.5c-.6,0-.6.1,0,.3.7.2,1.4.5,2,.7.6.2.6.5,0,.8l-1.5.7c-.1,0-.3,0-.4,0-.8-.4-2.1-.8-3.4-1.3-.5-.2-.5-.5-.1-.7.4-.3.4-.5-.1-.5h-2.7c-.6,0-.6.1,0,.4h.1c0,0,0,0,0,0,.5.2.5.5,0,.7-1.2.7-2.8,1.2-4.2,1.5-.2,0-.3,0-.4-.2-.2-.3-.5-.6-.8-.9-.5-.5-.4-.8.3-.8.8-.1,1.5-.2,2.2-.4.6-.2.6-.3,0-.3h-.6c-.3,0-.4-.2-.4-.4v-5.2c0-.3.2-.4.4-.4h10.1c.3,0,.4.2.4.4v5.2c0,.3-.2.4-.4.4ZM584.3,338.9h-8.1c-.3,0-.4-.2-.4-.4v-2.1c0-.3.2-.4.4-.4h8.1c.3,0,.4.2.4.4v2.1c0,.3-.2.4-.4.4ZM577.1,340.8c0,.1,0,.2.2.2h5.9c.1,0,.2,0,.2-.2s0-.2-.2-.2h-5.9c-.1,0-.2,0-.2.2ZM577.1,342.4c0,.1,0,.2.2.2h5.9c.1,0,.2,0,.2-.2s0-.2-.2-.2h-5.9c-.1,0-.2,0-.2.2ZM577.1,344c0,.1,0,.2.2.2h5.9c.1,0,.2,0,.2-.2s0-.2-.2-.2h-5.9c-.1,0-.2,0-.2.2ZM578,337.4c0,.1,0,.2.2.2h3.9c.1,0,.2,0,.2-.2s0-.2-.2-.2h-3.9c-.1,0-.2,0-.2.2Z"/>
    <path class="st23" d="M579.4,363.8c.9-.2,1.9-.3,2.6-.3,2.6,0,4.8,1.3,4.8,3.8s-.9,3.5-3.7,4.2c-.6.2-1.3.2-1.9.3-.2,0-.4-.1-.4-.3l-.6-1.7c-.1-.4,0-.6.4-.6.6,0,1.1,0,1.5-.1,1.3-.2,2.2-.8,2.2-1.8s-.8-1.6-2.2-1.6-1.7,0-2.5.3c-.2,0-.3.2-.3.4,0,1.1,0,2.1,0,2.5,0,2.3-.8,2.9-2,2.9-1.8,0-4.1-1.4-4.1-3.3s1.5-2.9,3.5-3.8c.2,0,.3-.2.3-.4v-1.6c0-.2-.1-.4-.4-.4h-.4c-.6,0-1.3,0-2,0-.2,0-.4-.2-.4-.4v-1.5c0-.3.1-.5.5-.5.8,0,1.4,0,1.9,0h.4c.2,0,.4-.2.4-.4v-.7c0-.2,0-.7,0-1.1,0-.3.2-.5.5-.5h1.7c.3,0,.5.2.4.5,0,.4,0,.8-.1,1.1v.4c0,.2.1.4.4.4.6-.1,1.3-.2,1.9-.4.3,0,.5,0,.5.4v1.6c0,.2-.1.4-.3.4-.7.1-1.5.3-2.2.4-.2,0-.4.2-.4.4v1c0,.2.1.3.3.2ZM576.9,368.5c0-.2,0-.6,0-1.1,0-.3-.2-.4-.4-.2-.6.4-.9.8-.9,1.2s.5.7.9.7.5,0,.5-.6ZM583,360.7l.7-1.2c.1-.2.3-.3.6-.2,1.1.5,2.6,1.3,3.5,1.9.2.1.3.4.1.6l-.7,1.2c-.2.3-.4.3-.7.1-.9-.6-2.3-1.4-3.3-1.9-.3-.1-.4-.4-.2-.6Z"/>
    <path class="st23" d="M583.3,376.6c0,.1,0,.2.1.2,2.5.7,4.1,2.8,4.1,5.6s-2.4,5.5-5.7,6.1c-.2,0-.4,0-.4-.2l-1-1.5c-.2-.4-.1-.6.3-.7,3.1-.5,4.1-2.2,4.1-3.9s-.7-2.6-1.8-3.2c-.2-.1-.5,0-.6.3-.5,1.5-1.1,3-1.8,4.3,0,.2,0,.4,0,.5l.3.3c.2.2.2.5,0,.7l-1.4,1.1c-.2.1-.4.1-.5,0-.1-.1-.3-.2-.5,0-1.1,1-1.9,1.4-3,1.4s-2.8-1.2-2.8-3.5.8-3.7,2.2-5.1c.1-.1.2-.3.1-.5-.1-.3-.2-.6-.3-.9-.1-.5-.3-.9-.5-1.4-.1-.3,0-.5.3-.6l1.6-.5c.3,0,.5,0,.6.4,0,.4.2.8.3,1.1v.4c.2.3.4.4.7.3.9-.4,1.8-.6,2.8-.7.2,0,.3-.1.3-.3v-.3c.1-.4.2-.9.2-1.2,0-.3.2-.5.5-.5l1.7.2c.3,0,.5.3.4.6-.1.5-.2,1.1-.3,1.4v.2ZM577.3,384.1c0,0,0-.2,0-.3-.4-.6-.7-1.4-1.1-2.2-.1-.3-.3-.3-.4,0-.4.7-.6,1.5-.6,2.3s.3,1.1.8,1.1.9-.3,1.3-.8ZM579.8,378.9c-.6.1-1.1.3-1.5.6-.1,0-.2.2-.1.3.2.5.4,1.1.6,1.5.1.3.3.3.5,0,.3-.7.6-1.4.8-2.1,0-.2,0-.4-.3-.3Z"/>
    <path class="st23" d="M573.5,392.6c.5,0,1,0,1.2,0,1.5-.1,4-.3,7-.6,1.5-.1,3.2-.2,4.3-.3.3,0,.5.2.5.4v1.7c0,.3-.2.4-.4.4-.8,0-1.9,0-2.7.2-1.8.4-3.3,2.3-3.3,4.3s2,3.2,4.6,3.5c.4,0,.5.2.4.6l-.6,1.9c0,.2-.2.3-.4.3-3.5-.4-6.5-2.3-6.5-5.8s.6-2.9,1.2-3.8c.5-.6.3-.9-.5-.8-1.3.2-3.1.4-4.5.7-.3,0-.5,0-.5-.4l-.2-1.8c0-.3.2-.5.4-.5ZM584.5,395.9c.3.5.6,1,.9,1.5.1.2,0,.5-.2.6l-.7.3c-.2.1-.5,0-.6-.2-.3-.6-.5-1-.8-1.4-.2-.3-.1-.5.2-.7l.6-.2c.2,0,.4,0,.5.2ZM586.4,395.1c.3.5.7,1,.9,1.5.1.2,0,.5-.2.6l-.7.3c-.2.1-.5,0-.6-.2-.3-.5-.5-.9-.8-1.4-.2-.3-.1-.5.2-.7l.6-.3c.2,0,.4,0,.5.2Z"/>
    <path class="st23" d="M584.5,409.4l.9,1.5c.1.2,0,.5-.1.6-.5.3-.9.5-1.5.8-1,.5-2.9,1.4-4.4,2.3-1.3.8-2.2,1.7-2.2,2.8s1.1,1.6,3.2,1.6,3.4-.2,4.9-.5c.3,0,.5.1.5.4v2c0,.2-.2.4-.4.4-1.4.2-2.9.4-5,.4-3.4,0-6-.9-6-4s1-3.1,2.4-4.2c.2-.1.2-.4.1-.6-.6-1.2-1.3-2.6-1.9-4.1-.1-.2,0-.5.2-.6l1.7-.7c.2-.1.5,0,.6.2.5,1.3,1.1,2.5,1.6,3.6.1.2.4.3.6.2,1.1-.6,2.1-1.2,2.8-1.5.5-.3.9-.5,1.3-.8.2-.2.5-.1.7.1Z"/>
    <path class="st23" d="M580.8,430.4c-1.8,0-3.4.6-4.2.8-.4.1-.8.3-1.3.5-.3,0-.5,0-.6-.3l-.5-1.9c0-.3,0-.5.4-.6.5,0,1-.2,1.4-.2,1.3-.3,3.1-.7,5-.7,2.8,0,4.6,1.6,4.6,4.3s-3.2,5.7-7.8,6.4c-.2,0-.4,0-.4-.2l-1-1.7c-.2-.4,0-.6.3-.7,3.7-.5,6-1.7,6-3.9s-.7-1.7-2.2-1.7ZM577.2,424c1.9.3,4.9.6,6.7.6.3,0,.5.2.4.5l-.2,1.5c0,.2-.2.4-.5.4-1.9-.1-4.9-.4-6.8-.7-.2,0-.4-.2-.4-.5l.2-1.5c0-.3.2-.4.5-.4Z"/>
  </g>
  <rect class="st2" x="307.9" y="180.1" width="396.7" height="37.4" transform="translate(705.1 -307.5) rotate(90)"/>
  <line class="st2" x1="525" y1="25" x2="487.6" y2="25"/>
  <line class="st2" x1="525" y1=".5" x2="487.6" y2=".5"/>
  <line class="st2" x1="525" y1="397.2" x2="525" y2=".5"/>
  <line class="st2" x1="487.6" y1="397.2" x2="487.6" y2=".5"/>
  <line class="st2" x1="525" y1="50" x2="487.6" y2="50"/>
  <line class="st2" x1="525" y1="74.9" x2="487.6" y2="74.9"/>
  <line class="st2" x1="525" y1="99.5" x2="487.6" y2="99.5"/>
  <line class="st2" x1="525" y1="124" x2="487.6" y2="124"/>
  <line class="st2" x1="525" y1="149" x2="487.6" y2="149"/>
  <line class="st2" x1="525" y1="173.9" x2="487.6" y2="173.9"/>
  <line class="st2" x1="525" y1="198.5" x2="487.6" y2="198.5"/>
  <line class="st2" x1="525" y1="223.8" x2="487.6" y2="223.8"/>
  <line class="st2" x1="525" y1="248.7" x2="487.6" y2="248.7"/>
  <line class="st2" x1="525" y1="273.6" x2="487.6" y2="273.6"/>
  <line class="st2" x1="525" y1="298.2" x2="487.6" y2="298.2"/>
  <line class="st2" x1="525" y1="322.8" x2="487.6" y2="322.8"/>
  <line class="st2" x1="525" y1="347.7" x2="487.6" y2="347.7"/>
  <line class="st2" x1="525" y1="372.6" x2="487.6" y2="372.6"/>
  <line class="st2" x1="525" y1="397.2" x2="487.6" y2="397.2"/>
  <g>
    <path class="st23" d="M505.4,20.6l-1,1.3c-.3.3-.6.3-.8,0,0,0,0,0,0,0l-.2-.2s0,0,0,0c-.4-.5-.6-.4-.6.2v5.3c0,.3-.2.5-.5.5h-1.7c-.3,0-.5-.2-.5-.5v-4.3c0-.6-.3-.8-.8-.4-.1,0-.2.2-.3.3-.3.2-.6.1-.8-.3-.2-.5-.5-1-.7-1.5-.2-.3,0-.6.2-.7,1.4-.9,2.6-2.2,3.6-3.7.3-.4,0-.7-.4-.7h-2.5c-.3,0-.5-.2-.5-.5v-1.4c0-.3.2-.5.5-.5h1.3c.3,0,.5-.2.5-.5v-2.4c0-.3.2-.5.5-.5h1.7c.3,0,.5.2.5.5v2.7c0,.1,0,.2.2.2h.2s.2,0,.2,0c.1,0,.3,0,.3,0h0l1,.6c.2.1.3.3.2.5-.4,1-.9,2.1-1.5,3-.1.2,0,.5,0,.6.6.5,1.4,1.3,1.8,1.7.2.2.2.4,0,.6ZM512.9,25.3c.2,0,.3-.2.3-1.4,0-.6.3-.8.9-.5.3.2.7.3,1,.4.2,0,.4.3.3.5-.2,2.4-.8,3.2-2.2,3.2h-1.1c-1.8,0-2.3-.8-2.3-2.9v-5.1c0-.2-.1-.3-.3-.3s-.3.1-.3.3c-.2,3.4-.8,6.2-3.6,8-.3.2-.5,0-.7-.2-.2-.4-.6-.9-.9-1.2-.3-.3-.3-.6.1-.9,1.9-1.3,2.3-3.2,2.4-5.5,0-.3-.2-.5-.5-.5h-.5c-.3,0-.5-.2-.5-.5v-7c0-.3.2-.5.5-.5h8.3c.3,0,.5.2.5.5v7c0,.3-.2.5-.5.5h-1c-.3,0-.5.2-.5.5v4.9c0,.7,0,.7.2.7h.3ZM507.6,13.8v2.7c0,.2.1.3.3.3h3.5c.2,0,.3-.1.3-.3v-2.7c0-.2-.1-.3-.3-.3h-3.5c-.2,0-.3.1-.3.3Z"/>
    <path class="st23" d="M507.7,50.7v.8c0,.3.2.5.5.5h5.6c.3,0,.5.2.5.5v1.4c0,.3-.2.5-.5.5h-14.8c-.3,0-.5-.2-.5-.5v-1.4c0-.3.2-.5.5-.5h5.4c.3,0,.5-.2.5-.5v-.8c0-.3-.2-.5-.5-.5h-3.9c-.3,0-.5-.2-.5-.5v-1.3c0-.3.2-.5.5-.5h3.9c.3,0,.5-.2.5-.5v-.8c0-.3-.2-.5-.5-.5h-2.9c-.3,0-.5-.2-.5-.5v-.3c0-.4-.3-.6-.6-.4-.3.2-.6.4-.9.5-.3.1-.5,0-.7-.2-.3-.4-.6-.9-1-1.3-.3-.3-.2-.6.1-.8,2.8-1.5,5.4-3.9,6.7-6,0-.1.3-.2.4-.2h2.3c.2,0,.3,0,.4.2,1.8,2.6,4.4,4.6,7,5.8.4.2.5.5.2.8-.4.5-.7,1-1,1.5-.2.2-.4.3-.7.2-.3-.2-.6-.3-.9-.5-.4-.2-.6,0-.6.3v.3c0,.3-.2.5-.5.5h-3c-.3,0-.5.2-.5.5v.8c0,.3.2.5.5.5h4c.3,0,.5.2.5.5v1.3c0,.3-.2.5-.5.5h-4c-.3,0-.5.2-.5.5ZM503,43.9h6.6c.5,0,.6-.2.2-.5-1.3-1-2.5-2.2-3.3-3.2-.2-.2-.3-.2-.5,0-.8,1.1-1.9,2.2-3.2,3.2-.4.3-.3.5.2.5Z"/>
    <path class="st23" d="M498.9,56.4h14.8c.3,0,.5.2.5.5v15.8c0,.3-.2.5-.5.5h-1.9c-.3,0-.4-.2-.4-.4s-.2-.4-.4-.4h-9.3c-.3,0-.4.2-.4.4s-.2.4-.4.4h-1.8c-.3,0-.5-.2-.5-.5v-15.8c0-.3.2-.5.5-.5ZM501.4,69.8h9.6c.2,0,.3-.1.3-.3v-10.4c0-.2-.1-.3-.3-.3h-9.6c-.2,0-.3.1-.3.3v10.4c0,.2.1.3.3.3ZM510.4,67c.3,0,.5.2.5.4v1.2c0,.3-.2.5-.5.5h-8.4c-.3,0-.5-.2-.5-.5v-1.2c0-.3.2-.5.5-.5h2.4c.3,0,.5-.2.5-.5v-.7c0-.3-.2-.5-.5-.5h-1.8c-.3,0-.5-.2-.5-.5v-1.3c0-.3.2-.5.5-.5h1.8c.3,0,.5-.2.5-.5v-.3c0-.3-.2-.5-.5-.5h-2.3c-.3,0-.5-.2-.5-.5v-1.4c0-.3.2-.5.5-.5h7.9c.3,0,.5.2.5.5v1.4c0,.3-.2.5-.5.5h-2.2c-.3,0-.5.2-.5.5v.3c0,.3.2.5.5.5h1.8c.3,0,.5.2.5.5v1.5c0,.2,0,.3-.2.3s-.2,0,0,.2c.2.2.4.5.6.7.2.2,0,.4-.1.5-.2.1-.2.2,0,.2ZM507.4,65.6v1.1c0,.2.1.3.3.3h.3c.3,0,.4-.2.2-.4l-.4-.5c-.1-.2,0-.3,0-.4h.1c.3-.2.3-.3,0-.3h-.4c-.2,0-.3.1-.3.3Z"/>
    <path class="st23" d="M508,75.6h5.9c.3,0,.5.2.5.5v1.3c0,.3-.2.5-.5.5h-15.3c-.3,0-.5-.2-.5-.5v-1.3c0-.3.2-.5.5-.5h5.7c.3,0,.5-.2.5-.5v-.5c0-.3.2-.5.5-.5h1.8c.3,0,.5.2.5.5v.5c0,.3.2.5.5.5ZM513.9,83.6v5.4c0,1.1-.2,1.9-1,2.3-.7.3-1.5.4-2.5.4-.3,0-.4-.2-.5-.4l-.2-.6h0c0-.2-.3-.3-.5-.3h-3.8c-.3,0-.4.2-.4.4s-.2.4-.4.4h-1.4c-.3,0-.5-.2-.5-.5v-4.1c0-.3.2-.5.5-.5h6.1c.3,0,.5.2.5.5v2.2c0,.3.2.5.5.5.2,0,.5,0,.6,0h0c.2,0,.3,0,.3-.3v-3.1c0-.3-.2-.5-.5-.5h-8.8c-.3,0-.5.2-.5.5v5.4c0,.3-.2.5-.5.5h-1.7c-.3,0-.5-.2-.5-.5v-7.6c0-.3.2-.5.5-.5h14.1c.3,0,.5.2.5.5ZM511.4,78.8v3.3c0,.3-.2.5-.5.5h-9.3c-.3,0-.5-.2-.5-.5v-3.3c0-.3.2-.5.5-.5h9.3c.3,0,.5.2.5.5ZM508.7,80.5v-.2c0-.2-.1-.3-.3-.3h-4.4c-.2,0-.3.1-.3.3v.2c0,.2.1.3.3.3h4.4c.2,0,.3-.1.3-.3ZM507.5,88.2v-.2c0-.2-.1-.3-.3-.3h-1.9c-.2,0-.3.1-.3.3v.2c0,.2.1.3.3.3h1.9c.2,0,.3-.1.3-.3Z"/>
    <path class="st23" d="M514.3,102.9h-2.6c-.3,0-.4.2-.4.4s.2.4.4.4h2.1c.3,0,.5.2.5.5v1.3c0,.3-.2.5-.5.5h-2c-.3,0-.5.2-.5.5v1c0,1.2-.3,1.9-1.1,2.3-.8.3-1.7.4-2.8.4-.3,0-.4-.2-.5-.4h0c0-.5-.3-.9-.5-1.3-.2-.5,0-.8.5-.8.6,0,1.1,0,1.3,0,.3,0,.4,0,.4-.3v-.9c0-.3-.2-.5-.5-.5h-2.9c-.8,0-.9.3-.3.9s.4.4.6.6c.2.2.1.5,0,.6l-1.3,1c-.3.2-.5.2-.7-.1-.5-.6-1.2-1.3-1.8-1.9-.3-.2-.3-.5,0-.8.3-.2.2-.3-.1-.3h-2.2c-.3,0-.5-.2-.5-.5v-1.3c0-.3.2-.5.5-.5h9c.2,0,.4-.2.4-.4s-.2-.4-.4-.4h-9.8c-.3,0-.5-.2-.5-.5v-1.3c0-.3.2-.5.5-.5h6.2c.2,0,.3-.1.3-.4s-.1-.3-.3-.3h-4.3c-.3,0-.5-.2-.5-.5v-1.2c0-.3.2-.5.5-.5h1.1c.4,0,.6-.3.4-.6l-.2-.4c-.2-.4-.5-.4-.8,0-.3.3-.6.7-.9,1-.2.2-.4.2-.7,0-.3-.3-.8-.6-1.2-.9-.4-.2-.4-.5,0-.9.9-.9,1.7-2,2.3-3.2.1-.2.3-.3.6-.3l1.8.5c.2,0,.3.2.2.4-.1.2,0,.3.2.3h2.8c.3,0,.5.2.5.5v.3c0,.5.2.6.5.2.4-.6.8-1.3,1.1-2,0-.2.3-.4.6-.3l1.7.4c.2,0,.3.3.2.5,0,.2,0,.4.3.4h3.7c.3,0,.5.2.5.5v1.2c0,.3-.2.5-.5.5h-1.6c-.3,0-.4.2-.2.4.2.3,0,.5-.2.6l-1.4.6c-.3.1-.5,0-.7-.3-.2-.4-.4-.8-.7-1.2,0-.1-.2-.2-.3-.2s-.3,0-.3.2c-.3.5-.7.9-1,1.3,0,0,0,.2,0,.2s0,.1.1.1h4.8c.3,0,.5.2.5.5v1.2c0,.3-.2.5-.5.5h-4.6c-.2,0-.4.1-.4.3s.1.4.4.4h6.3c.3,0,.5.2.5.5v1.3c0,.3-.2.5-.5.5ZM503.2,97.8h1.4c.2,0,.3-.1.3-.3h0c0-.3.1-.4.3-.4h.6c.5,0,.5-.2.1-.4-.2,0-.3-.2-.5-.3-.1,0-.1-.2,0-.3h0c0,0,0-.2,0-.2h-1.1c-.3,0-.4.2-.3.4,0,0,0,.1,0,.2,0,.2,0,.3-.1.4l-.9.3c-.7.3-.6.5,0,.5Z"/>
    <path class="st23" d="M514.6,121.9v1.5c0,.3-.2.5-.5.5h-6c-.3,0-.5.2-.5.5v1.4c0,1.3-.3,2-1.3,2.4-.9.3-2,.4-3.3.4s-.4-.2-.5-.4c-.1-.4-.3-1-.6-1.4-.2-.5,0-.8.5-.8.9,0,1.7,0,2,0s.5,0,.5-.3v-1.3c0-.3-.2-.5-.5-.5h-6c-.3,0-.5-.2-.5-.5v-1.5c0-.3.2-.5.5-.5h6c.3,0,.5-.2.5-.5h0c0-.4.2-.6.5-.6h.5s0,0,0,0h.2c0,0,0,0,0,0l.3-.2c.3-.2.2-.4-.1-.4h-4.5c-.3,0-.5-.2-.5-.5v-1.3c0-.3.2-.5.5-.5h7.5s.3,0,.3,0c.1,0,.3,0,.4,0l1.1.8c.3.2.3.5,0,.7-.5.5-1.1,1.1-1.7,1.6-.7.6-.6,1,.3,1h4.3c.3,0,.5.2.5.5ZM500.7,116.7v1.4c0,.3-.2.5-.5.5h-1.5c-.3,0-.5-.2-.5-.5v-3.8c0-.3.2-.5.5-.5h1c.5,0,.7-.3.4-.7,0-.2-.2-.3-.3-.5-.2-.3-.1-.6.2-.8l1.4-.6c.2,0,.4,0,.6.1.5.5.9,1.2,1.2,1.7.1.2,0,.4-.2.5-.2.1-.2.2,0,.2h1.3c.4,0,.6-.3.4-.6l-.5-.9c-.2-.3,0-.6.3-.7l1.5-.5c.2,0,.4,0,.6.2.4.6.8,1.3,1,1.8,0,.3,0,.5-.3.6-.3.1-.3.2,0,.2h1.7c.2,0,.3,0,.4-.2.4-.7.8-1.4,1.1-2.1.1-.2.3-.3.6-.3l1.8.5c.4.1.5.4.3.8l-.4.5c-.3.5-.2.8.4.8h.7c.3,0,.5.2.5.5v3.8c0,.3-.2.5-.5.5h-1.7c-.3,0-.5-.2-.5-.5v-1.4c0-.3-.2-.5-.5-.5h-10.2c-.3,0-.5.2-.5.5Z"/>
    <path class="st23" d="M504.5,139.5c.1.2,0,.3,0,.5l-.7,1c-.3.4-.6.4-.9-.1h0c-.3-.7-.4-.6-.4,0v5.6c0,.3-.2.5-.5.5h-1.5c-.3,0-.5-.2-.5-.5v-3.9c0-1-.2-1-.6-.1l-.3.6c-.3.5-.6.4-.9,0-.2-.4-.4-.9-.7-1.3,0-.2,0-.4,0-.5.9-1.3,1.7-3.1,2.1-4.9,0-.4,0-.6-.5-.6h-.9c-.3,0-.5-.2-.5-.5v-1.5c0-.3.2-.5.5-.5h1.2c.3,0,.5-.2.5-.5v-2.8c0-.3.2-.5.5-.5h1.5c.3,0,.5.2.5.5v2.8c0,.3.2.5.5.5h.9c.3,0,.5.2.5.5v1.5c0,.3-.2.5-.5.5h-1.1c-.2,0-.3.1-.3.3v.2c0,.1,0,.2,0,.3.5.7,1.5,2.3,2,3h0ZM514.8,138.3l-1.8,1c0,0-.2,0-.2,0,0,0,0,0-.1,0h0c-.3,1-.8,1.8-1.3,2.7-.1.2,0,.5,0,.6.9.7,1.8,1.3,2.9,1.8.5.2.5.5.2.9-.4.4-.8,1-1.1,1.4-.1.2-.4.3-.6.2-1.2-.6-2.3-1.3-3.2-2.2-.2-.2-.5-.2-.7,0-1,.9-2.3,1.6-3.7,2.2-.3,0-.5,0-.6-.2-.2-.4-.5-.8-.7-1.2-.3-.4-.2-.7.3-.8,1.3-.5,2.5-1.2,3.4-2,.2-.2.2-.4,0-.6-.5-.8-1-1.7-1.3-2.7,0-.2-.2-.2-.4,0-.2.2-.4.1-.5,0-.3-.3-.7-.7-1.1-1.1-.3-.2-.3-.5,0-.8.7-.6,1.3-1.5,1.8-2.3.2-.4,0-.7-.4-.7h-.7c-.3,0-.5-.2-.5-.5v-1.5c0-.3.2-.5.5-.5h2.8c.3,0,.5-.2.5-.5v-1.5c0-.3.2-.5.5-.5h1.7c.3,0,.5.2.5.5v1.5c0,.3.2.5.5.5h2.9c.3,0,.5.2.5.5v1.5c0,.3-.2.5-.5.5h-.7c-.7,0-.8.3-.4.8.7.8,1.3,1.7,1.7,2.5.1.2,0,.5-.2.6ZM507.7,138.1h.4c.2-.2.3,0,.3,0,.3.6.5,1.1.8,1.7.1.3.3.3.5,0,.3-.6.5-1.2.6-1.8,0-.2.2-.3.3-.2l.9.2c.4,0,.5-.1.3-.4-.4-.6-.9-1.2-1.3-1.8-.1-.2-.1-.3,0-.4l.6-.3c.6-.3.5-.5-.1-.5h-3.2c-.8,0-.8.2,0,.5l.8.4c.2,0,.2.2.1.4-.4.7-.8,1.4-1.3,2-.3.3-.2.4.2.3Z"/>
    <path class="st23" d="M502,151.2c0-.3.3-.5.6-.4l2.2.5c.3,0,.4.3.4.6-.2.6-.3,1.3-.4,1.6-.3,1.4-.9,3.8-1.5,5.4-.6,1.7-1.6,3.7-2.5,5-.1.2-.3.3-.6.2l-2.2-.9c-.3-.2-.4-.4-.2-.8,1-1.4,2-3.2,2.5-4.7.8-2,1.4-4.3,1.7-6.6ZM507.1,151.9c-.2-.3,0-.6.3-.7l2-.7c.2,0,.5,0,.6.3.8,1.6,2,4.3,2.5,5.8.6,1.5,1.5,4.2,2,6.1,0,.3,0,.5-.3.6l-2.4.8c-.3.1-.5,0-.6-.3-.5-2.2-1-4.2-1.7-6.1-.6-1.7-1.6-4.2-2.4-5.7ZM511.8,149.1c.3.5.7,1.2,1,1.7.1.3,0,.5-.3.7l-.9.4c-.3,0-.5,0-.6-.2-.3-.5-.6-1.1-.9-1.7-.2-.3,0-.6.2-.7l.8-.3c.2,0,.4,0,.6.2ZM514.1,148.2c.3.5.7,1.2,1,1.7.2.3,0,.5-.2.7l-.8.3c-.3,0-.5,0-.6-.2-.3-.5-.6-1.1-.9-1.6-.2-.3-.1-.6.2-.7l.8-.3c.2,0,.5,0,.6.2Z"/>
    <path class="st23" d="M502.2,182.9l-1.6-1.4c-.2-.1-.2-.4-.1-.6.1-.4.1-.7.1-1v-9.7c0-.6,0-1.2-.1-1.7,0-.4.1-.6.5-.6h2.3c.3,0,.5.2.5.5,0,.6-.1,1.1-.1,1.8v8.5c0,.4.3.6.6.4,2.5-.9,5.8-2.9,8.1-5.3.3-.3.6-.3.8,0l1,1.7c.1.2,0,.4,0,.6-2.6,2.9-6.4,5-10.4,6.4-.2,0-.6.2-1,.4-.2.1-.4,0-.6,0Z"/>
    <path class="st23" d="M505,185.6h2.5c.3,0,.5.2.5.5,0,.8,0,1.9,0,2.7v9.8c0,.6,0,1.2,0,1.7,0,.3-.2.5-.5.5h-2.5c-.3,0-.5-.2-.5-.5,0-.5,0-1.2,0-1.7v-9.8c0-.8,0-1.9,0-2.7,0-.3.2-.5.5-.5Z"/>
    <path class="st23" d="M501.5,211.7l1.6.8c.3.1.3.4.2.7-.8,1.4-2.1,3.2-3,4.3-.2.2-.4.2-.6,0l-1.6-1.1c-.3-.2-.3-.5,0-.8,1-1.1,2-2.5,2.7-3.8.2-.3.4-.3.7-.2ZM508.4,210.2c-.3,0-.5.2-.5.5v7.7c0,1.1-.7,1.9-2.1,1.9s-1.9,0-2.8-.1c-.2,0-.4-.2-.4-.4l-.2-1.7c0-.4.2-.6.6-.5.5,0,1,0,1.4,0s.6-.2.6-.6c0-.4,0-4.5,0-6.2s-.2-.5-.5-.5h-3.9c-.4,0-.9,0-1.4,0-.3,0-.5-.2-.5-.5v-1.8c0-.3.2-.5.5-.5.4,0,1,0,1.4,0h3.9c.3,0,.5-.2.5-.5v-.8c0-.3,0-.8,0-1.2,0-.4.1-.6.5-.6h2.1c.3,0,.6.2.5.6,0,.4,0,.9,0,1.2v.8c0,.3.2.5.5.5h3.5c.4,0,1,0,1.5,0,.3,0,.5.2.5.5v1.8c0,.3-.2.5-.5.5-.5,0-1,0-1.5,0h-3.5ZM509.7,212.4l1.6-.9c.2-.1.5,0,.6.1.8,1.1,1.9,2.9,2.6,4.1.2.3,0,.5-.2.7l-1.7,1c-.3.2-.5,0-.7-.2-.7-1.4-1.7-3-2.4-4.1-.2-.3-.1-.5.2-.7ZM512.2,206.4l-.9.4c-.3,0-.5,0-.6-.2-.2-.5-.5-1-.8-1.5-.2-.3,0-.6.2-.7l.8-.3c.2,0,.5,0,.6.2.3.5.7,1.1.9,1.6.2.3,0,.5-.2.7ZM514.8,205.9l-.8.4c-.3,0-.5,0-.6-.2-.2-.5-.5-1-.8-1.5-.2-.3,0-.6.2-.7l.8-.3c.2,0,.5,0,.6.2.3.5.7,1.1.9,1.6.1.3,0,.5-.3.7Z"/>
    <path class="st23" d="M505,222.5h2.5c.3,0,.5.2.5.5,0,.8,0,1.9,0,2.7v9.8c0,.6,0,1.2,0,1.7,0,.3-.2.5-.5.5h-2.5c-.3,0-.5-.2-.5-.5,0-.5,0-1.2,0-1.7v-9.8c0-.8,0-1.9,0-2.7,0-.3.2-.5.5-.5Z"/>
    <path class="st23" d="M499.9,256.7l-1.8-1.3c-.3-.3-.3-.6,0-.8,1.3-1.1,2-2.5,2.4-3.8.5-1.5.5-4.7.5-7s0-.9,0-1.3c0-.4.1-.6.5-.6h2.1c.3,0,.5.2.5.6,0,.3,0,.8,0,1.3,0,2.3,0,5.9-.5,7.8-.5,2-1.6,3.7-3,5.1-.2.2-.4.2-.6,0ZM507.7,256.8l-1.4-1.1c-.1-.1-.2-.3-.2-.5h0c0-.4.1-.8.1-1.3v-10.4c0-.4,0-.8,0-1.1,0-.3.1-.6.5-.6h2.2c.3,0,.5.2.5.6,0,.3,0,.7,0,1.2v8.2c0,.4.3.6.6.4,1-.6,2.1-1.5,3-2.7.3-.3.6-.3.8,0l1.1,1.6c.1.2.1.4,0,.6-1.5,1.8-4.1,3.7-6,4.7-.3.1-.4.3-.6.4-.2.1-.4.1-.6,0Z"/>
    <path class="st23" d="M514,272.9h-.3c-.8.4-.7.5,0,.5.2,0,.5,0,.7,0,.5,0,.7.2.5.7-.2.4-.3.9-.4,1.3,0,.2-.2.4-.5.4-2.5.1-6.4.2-8.7,0-1.9,0-3.2-.5-4.3-1.6-.2-.3-.5-.3-.8,0-.4.4-.8.8-1.3,1.3-.3.3-.6.2-.8-.1l-.8-1.6c-.1-.2,0-.5.2-.6.5-.3,1-.7,1.5-1.1,0,0,.2-.2.2-.4v-3c0-.3-.2-.5-.5-.5h-.8c-.3,0-.5-.2-.5-.5v-1.5c0-.3.2-.5.5-.5h3.2c.3,0,.5.2.5.5v5.5c0,0,0,0,0,0,.3.5.7.8,1.2,1.1.6.3.7,0,.2-.4-.5-.4-.4-.7.1-.9.2,0,.4-.1.6-.2.9-.3.8-.6-.1-.6h-1c-.3,0-.5-.2-.5-.5v-1c0-.3.2-.5.5-.5h1.9c.3,0,.5-.2.5-.5s-.2-.5-.5-.5h-1.4c-.3,0-.5-.2-.5-.5v-.9c0-.3.2-.5.5-.5h1.4c.2,0,.4-.2.4-.4s.2-.4.4-.4h1.7c.2,0,.4.2.4.4s.2.4.4.4h.9c.2,0,.4-.2.4-.4s.2-.4.4-.4h1.7c.2,0,.4.2.4.4s.2.4.4.4h1.5c.3,0,.5.2.5.5v.9c0,.3-.2.5-.5.5h-1.4c-.3,0-.5.2-.5.5s.2.5.5.5h2c.3,0,.5.2.5.5v1c0,.3-.2.5-.5.5h-1.1c-1,0-1,.3-.2.7.3.2.7.3,1,.5.5.3.5.6,0,.8ZM501.7,262.3l-1.4,1c-.3.2-.6,0-.7-.2-.4-.7-1-1.5-1.7-2.2-.2-.3-.2-.6.1-.8l1.3-.8c.2-.1.4,0,.6,0,.7.7,1.5,1.6,2,2.4.1.2,0,.5-.2.6ZM505.8,261c0-.2,0-.3-.3-.3h-2.5c-.3,0-.5-.2-.5-.5v-.7c0-.3.2-.5.5-.5h4.5c.3,0,.5.2.5.5v2.9c0,.3-.2.5-.5.5s-.3,0,0,.2h0c.3,0,.5.2.8.3.3,0,.4.3.4.6-.3.9-.9,1.2-1.9,1.2h-1.7c-1.8,0-2.3-.5-2.3-2.2v-1.2c0-.3.2-.5.5-.5h2.3c.2,0,.3,0,.3-.3ZM507.5,271.1h.3c.3.2.3.4,0,.6-.8.6-1.8,1.2-2.8,1.6-.2,0-.2.2,0,.2h.3c1.4,0,3.6,0,5.8,0,.5,0,.6-.2.2-.5-.5-.4-1.2-.8-1.8-1.1-.3-.2-.3-.4,0-.5h.2c.4-.3.4-.5,0-.5h-2.1c-.5,0-.5,0,0,.3ZM506.5,263.5c.2,0,.3,0,.4-.2,0-.2,0-.3-.3-.3h-1.4c-.2,0-.3.2-.3.3,0,.2.2.2.4.2h1.1ZM507.7,268.2v.4c0,.2.1.3.3.3h1.1c.2,0,.3-.1.3-.3v-.4c0-.2-.1-.3-.3-.3h-1.1c-.2,0-.3.1-.3.3ZM511.9,261c0-.2,0-.3-.3-.3h-2.7c-.3,0-.5-.2-.5-.5v-.7c0-.3.2-.5.5-.5h4.7c.3,0,.5.2.5.5v2.9c0,.3-.2.5-.5.5s-.3.1,0,.2c.3,0,.5.2.8.3.3,0,.4.3.3.6-.3.9-.9,1.2-1.9,1.2h-1.7c-1.8,0-2.3-.5-2.3-2.2v-1.2c0-.3.2-.5.5-.5h2.3c.2,0,.3,0,.3-.3ZM512.5,263.5c.2,0,.3,0,.4-.2,0-.2,0-.3-.3-.3h-1.4c-.2,0-.3.2-.3.3,0,.2.2.2.5.2h1.1Z"/>
    <path class="st23" d="M512.2,283.7h.2s0,0,0,0l1.1.3c.3,0,.4.3.3.5-.3,2.3-1,4.2-1.8,5.7-.1.2,0,.5.2.6.7.5,1.5.8,2.3,1.1.5.2.6.5.3.9-.3.4-.7.9-.9,1.3-.1.2-.3.3-.6.2-1-.4-2-.9-2.8-1.5-.2-.2-.4-.2-.6,0-.6.5-1.3,1-2,1.4-.3.1-.5,0-.7-.2-.2-.4-.5-.8-.8-1.1-.3-.3-.2-.7.2-.9.5-.3,1-.6,1.4-1,.2-.2.2-.4,0-.6h0c0-.2-.2-.3-.2-.4-.3-.4-.6-.4-.8,0-.6,1.5-1.5,2.8-2.7,4-.2.2-.5.2-.7,0-.2-.3-.5-.6-.7-.8-.3-.3-.6-.2-.9.2-.1.2-.3.4-.6.6-.6.4-1.4.4-2.6.5-.3,0-.5-.2-.5-.4,0-.4-.2-.8-.4-1.3-.2-.4,0-.7.5-.7h.8c.3,0,.3,0,.3-.3v-2.6c0-.4-.3-.6-.6-.5l-.6.2c-.3,0-.5,0-.6-.4l-.4-1.7c0-.3,0-.5.4-.6l1.5-.3c.2,0,.4-.2.4-.5v-2.1c0-.3-.2-.5-.5-.5h-1c-.3,0-.5-.2-.5-.5v-1.5c0-.3.2-.5.5-.5h1c.3,0,.5-.2.5-.5v-2.4c0-.3.2-.5.5-.5h1.7c.3,0,.5.2.5.5v2.4c0,.3.2.5.5.5h.5c.3,0,.5.2.5.5v1.5c0,.3-.2.5-.5.5h-.5c-.3,0-.5.2-.5.5v1.2c0,.4.2.6.6.5h.5c.3-.2.5,0,.6.3l.2,1.5c0,.3,0,.5-.3.5-.4.1-.8.3-1.2.4-.2,0-.3.2-.3.5v4c0,.2,0,.2.2,0,2.5-2.3,3.2-5.6,3.4-9.5,0-.3-.2-.5-.5-.5h-1c-.3,0-.5-.2-.5-.5v-1.5c0-.3.2-.5.5-.5h1c.3,0,.5-.2.5-.5,0-.6,0-1.1,0-1.7s.2-.5.5-.5h1.6c.3,0,.5.2.5.5,0,.6,0,1.1,0,1.7s.2.5.5.5h5.3c.3,0,.5.2.5.5v1.5c0,.3-.2.5-.5.5h-5.4c-.3,0-.5.2-.5.4,0,.2,0,.4,0,.6h0c0,.3.2.6.5.6h3.2c0,0,0,0,0,0ZM510.6,286.1h-1.8c-.3,0-.4.2-.3.4.3.7.7,1.3,1.1,2,.1.2.3.2.5,0,.3-.6.6-1.3.8-1.9,0-.2,0-.4-.3-.4Z"/>
    <path class="st23" d="M514.1,303.1h-5.1c-.4,0-.6.3-.4.6,1.1,2.8,3,5.1,5.7,6.4.4.2.5.5.2.9-.4.5-.9,1.1-1.2,1.6-.2.2-.4.3-.6.2-2.6-1.3-4.4-3.3-5.8-5.9-.3-.6-.7-.6-1,0-1.1,2.3-2.9,4.4-5.8,5.9-.3.1-.5,0-.7-.2-.3-.4-.7-.9-1.1-1.4-.4-.3-.3-.7.1-.9,3.2-1.7,4.8-4.1,5.6-6.6,0-.4,0-.6-.5-.6h-5c-.3,0-.5-.2-.5-.5v-1.8c0-.3.2-.5.5-.5h5.6c.3,0,.5-.2.5-.4,0-1.3,0-2.6,0-3.8,0-.3.2-.5.5-.5h2c.3,0,.5.2.5.5,0,1.2,0,2.5-.1,3.8,0,.3.2.5.5.5h6.1c.3,0,.5.2.5.5v1.8c0,.3-.2.5-.5.5Z"/>
    <path class="st23" d="M502,321.4v-.2c0-.4-.2-.5-.6-.3-.7.4-1.3.8-2,1.2-.3.1-.5,0-.6-.2-.3-.4-.6-.9-.9-1.3-.3-.3-.2-.6.2-.8,2.8-1.3,5.3-3.6,6.6-5.5t0,0c0,0,.2-.2.4-.2h2.3c.2,0,.3,0,.4.2,1.8,2.4,4.2,4.1,6.8,5.1.4.2.5.5.2.8-.4.5-.7,1-1,1.5-.1.2-.4.3-.6.2-.6-.3-1.3-.7-1.9-1.1-.4-.2-.6,0-.6.3v.3c0,.3-.2.5-.5.5h-7.6c-.3,0-.5-.2-.5-.5ZM513.6,325.5h-2.1c-.8,0-.9.3-.3.9,1,1,2.1,2.2,2.7,3.2.2.2,0,.5-.2.7l-1.6,1c-.3.2-.5,0-.7-.2l-.3-.4c0-.1-.3-.2-.4-.2-4,.2-8.1.4-11.1.6-.3,0-.5-.2-.5-.4l-.2-1.6c0-.3.1-.5.5-.6h2c.2,0,.3-.2.4-.4.3-.6.5-1.3.8-1.9.1-.4,0-.6-.4-.6h-2.8c-.3,0-.5-.2-.5-.5v-1.5c0-.3.2-.5.5-.5h14.4c.3,0,.5.2.5.5v1.5c0,.3-.2.5-.5.5ZM504.3,319.4h4.1c.5,0,.6-.2.2-.5-.8-.7-1.5-1.4-2.1-2-.1-.2-.3-.2-.5,0-.5.7-1.2,1.4-2,2-.3.3-.3.5.2.5ZM508.4,325.5h-2.3c0,0-.2,0-.3.2-.4.7-.7,1.4-1.1,2.1-.2.3,0,.4.3.4h3.4c.4-.1.4-.3.2-.6l-.7-.8c-.2-.2-.2-.3,0-.5l.6-.3c.6-.3.5-.5-.1-.5Z"/>
    <path class="st23" d="M505.3,343.7l-.9,1.2c-.3.3-.6.3-.8,0l-.2-.3c-.4-.5-.7-.4-.7.2v4.6c0,.3-.2.5-.5.5h-1.7c-.3,0-.5-.2-.5-.5v-4.1c0-.6-.3-.7-.7-.3l-.2.2c-.3.3-.6.2-.8-.2-.2-.5-.5-1-.8-1.4-.2-.3-.1-.6.1-.8,1.3-1,2.6-2.5,3.5-4.1.3-.4,0-.7-.4-.7h-2.6c-.3,0-.5-.2-.5-.5v-1.4c0-.3.2-.5.5-.5h1.3c.3,0,.5-.2.5-.5v-2.2c0-.3.2-.5.5-.5h1.7c.3,0,.5.2.5.5v2.5c0,.1,0,.2.2.2h.2s.2,0,.2,0c.1,0,.3,0,.4,0l1,.7c.2.1.3.3.2.6-.5,1.3-1.2,2.6-1.9,3.9,0,.1,0,.3,0,.3h0c.1.1.2.1.3,0,.3-.4.6-.9.9-1.4.2-.3.5-.4.8-.1l.8.7c.3.2.3.5,0,.8-.3.3-.7.7-1,1-.2.2-.2.5,0,.7.2.2.3.3.5.4.2.2.2.4,0,.6ZM505.2,333.6h9.1c.3,0,.5.2.5.5s0,.7,0,.9c-.2,9.2-.3,12.5-1,13.5-.5.9-1,1.1-1.8,1.3-.6.1-1.4.1-2.3.1-.3,0-.4-.2-.5-.4,0-.5-.2-1-.4-1.5-.2-.5,0-.8.5-.8.5,0,.9,0,1.2,0s.5,0,.7-.4c.5-.6.7-3.4.8-10.2,0-.3-.2-.5-.5-.5h-1.1c-.3,0-.5.2-.5.5-.1,5.1-.7,9.8-4.3,13-.3.2-.5.2-.7-.1-.3-.4-.7-.9-1.1-1.2-.3-.3-.3-.6,0-.8,3-2.6,3.4-6.5,3.5-10.7,0-.3-.2-.5-.5-.5h-1.4c-.3,0-.5-.2-.5-.5v-1.6c0-.3.2-.5.5-.5Z"/>
    <path class="st23" d="M511.6,360.4h1.8c.3,0,.5.2.5.5v7c0,.3-.2.5-.5.5h-1.8c-.3,0-.5-.2-.5-.5s-.2-.5-.5-.5h-8.6c-.3,0-.5.2-.5.5s-.2.5-.5.5h-1.8c-.3,0-.5-.2-.5-.5v-7c0-.3.2-.5.5-.5h1.8c.3,0,.5.2.5.5v3.3c0,.3.2.5.5.5h2.3c.3,0,.5-.2.5-.5v-4.2c0-.3-.2-.5-.5-.5h-4.3c-.3,0-.5-.2-.5-.5v-6c0-.3.2-.5.5-.5h1.7c.3,0,.5.2.5.5v3.4c0,.3.2.5.5.5h1.6c.3,0,.5-.2.5-.5v-4.9c0-.3.2-.5.5-.5h1.8c.3,0,.5.2.5.5v4.9c0,.3.2.5.5.5h1.7c.3,0,.5-.2.5-.5v-3.4c0-.3.2-.5.5-.5h1.9c.3,0,.5.2.5.5v6c0,.3-.2.5-.5.5h-4.6c-.3,0-.5.2-.5.5v4.2c0,.3.2.5.5.5h2.5c.3,0,.5-.2.5-.5v-3.3c0-.3.2-.5.5-.5Z"/>
    <path class="st23" d="M514.6,378.9h-6.5c-.2,0-.4.1-.4.3-.1.2,0,.3.2.3h6.5c.3,0,.4.2.4.4,0,.2,0,.3,0,.4h0c-.2,3.5-.5,5-1,5.6-.4.4-.8.6-1.3.7-.4,0-.9,0-1.5,0-.3,0-.5-.2-.5-.4,0-.2,0-.4-.1-.6-.1-.5-.5-.5-.8-.1-.3.3-.6.7-.9,1-.2.2-.5.2-.7,0-.3-.3-.6-.5-.9-.7-.4-.3-.4-.6,0-.9,1-.8,1.8-1.9,2.5-3,0-.2,0-.3-.2-.3s-.4,0-.4.2c-.9,1.5-2.4,3-3.8,4-.2.1-.4,0-.6,0-.2-.2-.5-.5-.8-.7-.4-.3-.4-.7,0-1,.9-.6,1.8-1.4,2.5-2.2.1-.2,0-.3-.1-.3h-.1c-.1,0-.3,0-.3.1h0c-.4.5-1,.9-1.5,1.3-.2.1-.4.1-.6,0-.2-.3-.5-.5-.8-.8-.2-.1-.4-.2-.5,0-1.1.6-2.3,1.2-3.4,1.7-.3.2-.6,0-.7-.3l-.6-1.7c0-.3,0-.5.3-.6l1.3-.5c.2,0,.3-.3.3-.4v-4c0-.3-.2-.5-.5-.5h-.7c-.3,0-.5-.2-.5-.5v-1.6c0-.3.2-.5.5-.5h.7c.3,0,.5-.2.5-.5v-2.6c0-.3.2-.5.5-.5h1.5c.3,0,.5.2.5.5v2.6c0,.3.2.5.5.5h.6c.3,0,.5.2.5.5v1.6c0,.3-.2.5-.5.5h-.6c-.3,0-.5.2-.5.5v2.7c0,.4.3.5.7.4.3-.1.6,0,.7.3v.3c.2.4.5.6.9.2l.4-.4c.3-.4.2-.7-.3-.7h-.4c-.3,0-.5-.2-.5-.5v-1.3c0-.3.2-.5.5-.5h10.7c.3,0,.5.2.5.5v1.3c0,.3-.2.5-.5.5ZM513.8,370.2v5.4c0,.3-.2.5-.5.5h-8c-.3,0-.5-.2-.5-.5v-5.4c0-.3.2-.5.5-.5h8c.3,0,.5.2.5.5ZM511.3,371.8c0-.2-.1-.3-.3-.3h-3.6c-.2,0-.3.1-.3.3s.1.3.3.3h3.6c.2,0,.3-.1.3-.3ZM511.3,374c0-.2-.1-.3-.3-.3h-3.6c-.2,0-.3.1-.3.3s.1.3.3.3h3.6c.2,0,.3-.1.3-.3ZM512,381.6c0,0-.2,0-.2.1-.3.9-.8,1.8-1.4,2.6-.1.2,0,.4.2.4h.4c.3,0,.4,0,.5-.2.2-.2.4-1,.6-2.8,0,0,0-.1-.1-.1Z"/>
  </g>
  <rect class="st2" x="1.1" y="49.9" width="446.2" height="37.4"/>
  <line class="st4" x1="25.6" y1="49.9" x2="25.6" y2="87.3"/>
  <line class="st4" x1="1.1" y1="49.9" x2="1.1" y2="87.3"/>
  <line class="st4" x1="447.3" y1="49.9" x2="1.1" y2="49.9"/>
  <line class="st4" x1="447.3" y1="87.3" x2="1.1" y2="87.3"/>
  <line class="st4" x1="50.6" y1="49.9" x2="50.6" y2="87.3"/>
  <line class="st4" x1="75.5" y1="49.9" x2="75.5" y2="87.3"/>
  <line class="st4" x1="100.1" y1="49.9" x2="100.1" y2="87.3"/>
  <line class="st4" x1="124.6" y1="49.9" x2="124.6" y2="87.3"/>
  <line class="st4" x1="149.6" y1="49.9" x2="149.6" y2="87.3"/>
  <line class="st4" x1="174.5" y1="49.9" x2="174.5" y2="87.3"/>
  <line class="st4" x1="199.1" y1="49.9" x2="199.1" y2="87.3"/>
  <line class="st4" x1="224.4" y1="49.9" x2="224.4" y2="87.3"/>
  <line class="st4" x1="249.3" y1="49.9" x2="249.3" y2="87.3"/>
  <line class="st4" x1="274.2" y1="49.9" x2="274.2" y2="87.3"/>
  <line class="st4" x1="298.8" y1="49.9" x2="298.8" y2="87.3"/>
  <line class="st4" x1="323.4" y1="49.9" x2="323.4" y2="87.3"/>
  <line class="st4" x1="348.3" y1="49.9" x2="348.3" y2="87.3"/>
  <line class="st4" x1="373.2" y1="49.9" x2="373.2" y2="87.3"/>
  <line class="st4" x1="397.8" y1="49.9" x2="397.8" y2="87.3"/>
  <line class="st4" x1="422.7" y1="49.9" x2="422.7" y2="87.3"/>
  <line class="st4" x1="447.3" y1="49.9" x2="447.3" y2="87.3"/>
  <g>
    <path class="st23" d="M16,70.5l-.9,1.2c-.2.3-.5.3-.7,0,0,0,0,0,0,0l-.2-.2s0,0,0,0c-.3-.4-.6-.4-.6.2v4.8c0,.3-.2.4-.4.4h-1.5c-.3,0-.4-.2-.4-.4v-3.8c0-.6-.3-.7-.8-.4-.1,0-.2.2-.3.2-.3.2-.6.1-.7-.2-.2-.4-.4-.9-.6-1.3-.1-.3,0-.5.2-.7,1.2-.8,2.4-2,3.2-3.3.2-.4,0-.6-.4-.6h-2.3c-.3,0-.4-.2-.4-.4v-1.3c0-.3.2-.4.4-.4h1.1c.3,0,.4-.2.4-.4v-2.2c0-.3.2-.4.4-.4h1.5c.3,0,.4.2.4.4v2.5c0,.1,0,.2.2.2h.2s.2,0,.2,0c.1,0,.2,0,.3,0h0l.9.6c.2.1.2.3.2.5-.4.9-.8,1.9-1.3,2.7-.1.2,0,.4,0,.6.6.5,1.2,1.1,1.6,1.5.2.2.2.4,0,.6ZM22.8,74.7c.2,0,.2-.2.3-1.3,0-.5.3-.7.8-.5.3.1.6.3.9.4.2,0,.3.2.3.5-.2,2.2-.7,2.9-2,2.9h-1c-1.7,0-2-.7-2-2.6v-4.6c0-.2-.1-.3-.3-.3s-.3.1-.3.3c-.2,3.1-.7,5.6-3.2,7.2-.2.2-.5,0-.6-.2-.2-.4-.5-.8-.8-1.1-.3-.3-.2-.6.1-.8,1.7-1.2,2.1-2.9,2.2-5,0-.3-.2-.5-.4-.5h-.4c-.3,0-.4-.2-.4-.4v-6.3c0-.3.2-.4.4-.4h7.5c.3,0,.4.2.4.4v6.3c0,.3-.2.4-.4.4h-.9c-.3,0-.4.2-.4.4v4.5c0,.6,0,.6.2.6h.2ZM18,64.4v2.4c0,.2.1.3.3.3h3.1c.2,0,.3-.1.3-.3v-2.4c0-.2-.1-.3-.3-.3h-3.1c-.2,0-.3.1-.3.3Z"/>
    <path class="st23" d="M49,62.6v1c0,.3-.2.4-.4.4h-1.4c-.3,0-.4.2-.2.5.2.3,0,.5-.2.6h-.4c-.5.3-.5.5,0,.5h.8c.3,0,.4.2.4.4v3.7c0,.3-.2.4-.4.4h-4.4c-.2,0-.3.1-.3.3s.1.3.3.3h5.3c.2,0,.4.2.4.4,0,.2,0,.3,0,.4h0c-.1,2.2-.3,3.3-.7,3.8-.4.4-.9.6-1.4.7-.4,0-1,0-1.7,0-.2,0-.4-.2-.4-.4,0-.4-.2-.7-.3-1.1-.2-.5,0-.7.5-.6.3,0,.6,0,.8,0h0c.2,0,.4,0,.5-.1,0,0,0,0,0,0,0,0,.1-.3.2-.5,0-.3-.1-.5-.4-.5h-2.6c-.3,0-.4.2-.4.4v3.1c0,.3-.2.4-.4.4h-1.5c-.3,0-.4-.2-.4-.4v-1.5c0-.6-.3-.7-.8-.4-1.1.9-2.4,1.6-3.7,2.1-.2,0-.4,0-.5-.2-.2-.3-.5-.7-.8-1-.3-.4-.2-.6.2-.8,1.1-.4,2.2-.9,3.2-1.5.3-.2.2-.3,0-.3h-.4c0,0-.1,0-.2.1,0,0,0,0,0,0,0,0,0,.1-.2.1h0l-1.7-.2c-.3,0-.5-.3-.4-.6.3-1.1.7-2.5.9-3.8,0-.2.2-.4.4-.4h3.7c.2,0,.3-.1.3-.3s-.1-.3-.3-.3h-4.1c-.3,0-.4-.2-.4-.4v-1.2s0,0,0,0c0,0,0,0,0,0-.3-.2-.9-.6-1.3-.9-.3-.2-.4-.5,0-.8.8-.8,1.5-1.9,2-3,.1-.2.3-.3.5-.2l1.5.4c.2,0,.3.3.2.5-.1.2,0,.4.2.4h2.5c.3,0,.4.2.4.4v.3c0,.4.2.5.5.2.4-.6.8-1.2,1.1-1.9,0-.2.3-.3.5-.3l1.5.4c.3,0,.4.3.3.5-.1.2,0,.4.2.4h3.4c.3,0,.4.2.4.4ZM36.1,65.6h1c.2,0,.4-.1.2-.4-.1-.2-.3-.5-.4-.8-.1-.2-.3-.2-.4,0-.2.2-.4.5-.6.7-.2.3-.2.5.2.5ZM40.1,70.5h0c0-.3-.1-.4-.3-.4h-1.9c-.1,0-.2,0-.3.2h0c0,.3,0,.5.3.5h1.9c.2,0,.3-.1.3-.3ZM38.9,65.6h2.5c.4,0,.5-.2.1-.4-.3-.2-.7-.5-1-.6-.1,0-.1-.2,0-.3h0c.1-.1,0-.2,0-.2h-.9c-.3,0-.4.2-.2.4,0,.1.1.2.1.3,0,.1,0,.2-.1.3l-.5.2c-.4.2-.4.3,0,.3ZM45.2,67.9h0c0-.3-.1-.4-.3-.4h-2.2c-.2,0-.3.1-.3.3h0c0,.3.1.4.3.4h2.2c.2,0,.3-.1.3-.3ZM43.1,65.6h1.5c.2,0,.3-.2.2-.4-.2-.3-.4-.7-.7-1.1,0,0-.1-.1-.2-.1h0c0,0-.2,0-.2.1-.2.4-.5.7-.8,1-.2.3-.2.5.2.5Z"/>
    <path class="st23" d="M53.2,72c0-1.2.5-2.1,1.4-2.8.4-.3.4-.5,0-.8-.6-.6-1-1.4-1-2.3,0-2.1,1.7-3.5,4.4-3.5s4.3,1.4,4.3,3.4c0,1-.4,1.8-1.1,2.4-.3.3-.3.6,0,.8,1.2.8,1.6,1.7,1.6,2.9,0,1.9-1.9,3.4-4.9,3.4s-4.8-1.5-4.8-3.4ZM60,71.9c0-1.1-.9-1.4-3-2.1,0,0-.2,0-.2,0-.6.6-.9,1.2-.9,1.8,0,1,.9,1.7,2.3,1.7s1.9-.7,1.9-1.5ZM59.1,67.9c.6-.6.8-1.1.8-1.7,0-.8-.6-1.6-2-1.6s-1.7.6-1.7,1.5c0,1,1.2,1.5,2.6,1.9,0,0,.2,0,.2,0Z"/>
    <path class="st23" d="M69.9,72c0-1.2.5-2.1,1.4-2.8.4-.3.4-.5,0-.8-.6-.6-1-1.4-1-2.3,0-2.1,1.7-3.5,4.4-3.5s4.3,1.4,4.3,3.4c0,1-.4,1.8-1.1,2.4-.3.3-.3.6,0,.8,1.2.8,1.6,1.7,1.6,2.9,0,1.9-1.9,3.4-4.9,3.4s-4.8-1.5-4.8-3.4ZM76.6,71.9c0-1.1-.9-1.4-3-2.1,0,0-.2,0-.2,0-.6.6-.9,1.2-.9,1.8,0,1,.9,1.7,2.3,1.7s1.9-.7,1.9-1.5ZM75.7,67.9c.6-.6.8-1.1.8-1.7,0-.8-.6-1.6-2-1.6s-1.7.6-1.7,1.5c0,1,1.2,1.5,2.6,1.9,0,0,.2,0,.2,0Z"/>
    <path class="st23" d="M84.5,61.5h13.6c.3,0,.4.2.4.4v14.4c0,.3-.2.4-.4.4h-1.8c-.3,0-.4-.2-.4-.4s-.2-.5-.4-.5h-8.5c-.3,0-.4.2-.4.5s-.2.4-.4.4h-1.6c-.3,0-.4-.2-.4-.4v-14.4c0-.3.2-.4.4-.4ZM86.9,73.7h8.8c.2,0,.3-.1.3-.3v-9.2c0-.2-.1-.3-.3-.3h-8.8c-.2,0-.3.1-.3.3v9.2c0,.2.1.3.3.3ZM88.2,65.6h6.2c.3,0,.4.2.4.4v5.7c0,.3-.2.4-.4.4h-6.2c-.3,0-.4-.2-.4-.4v-5.7c0-.3.2-.4.4-.4ZM92.4,69.8v-1.8c0-.2-.1-.3-.3-.3h-1.8c-.2,0-.3.1-.3.3v1.8c0,.2.1.3.3.3h1.8c.2,0,.3-.1.3-.3Z"/>
    <path class="st23" d="M109.2,73.1v.7c0,.3.2.4.4.4h5.1c.3,0,.4.2.4.4v1.3c0,.3-.2.4-.4.4h-13.4c-.3,0-.4-.2-.4-.4v-1.3c0-.3.2-.4.4-.4h4.9c.3,0,.4-.2.4-.4v-.7c0-.3-.2-.4-.4-.4h-3.5c-.3,0-.4-.2-.4-.4v-1.2c0-.3.2-.4.4-.4h3.5c.3,0,.4-.2.4-.4v-.7c0-.3-.2-.4-.4-.4h-2.6c-.3,0-.4-.2-.4-.4v-.2c0-.4-.2-.5-.6-.3-.3.2-.5.3-.8.5-.2.1-.5,0-.6-.2-.2-.4-.6-.8-.9-1.1-.2-.3-.2-.6.1-.8,2.6-1.4,4.9-3.6,6-5.4,0-.1.2-.2.4-.2h2.1c.1,0,.3,0,.4.2,1.6,2.3,3.9,4.2,6.3,5.2.4.2.4.5.2.8-.3.4-.6.9-.9,1.3-.1.2-.4.3-.6.1-.3-.1-.5-.3-.8-.5-.3-.2-.6,0-.6.3v.2c0,.3-.2.4-.4.4h-2.7c-.3,0-.4.2-.4.4v.7c0,.3.2.4.4.4h3.6c.3,0,.4.2.4.4v1.2c0,.3-.2.4-.4.4h-3.6c-.3,0-.4.2-.4.4ZM105,66.9h6c.5,0,.5-.2.2-.5-1.2-.9-2.2-1.9-3-2.9-.1-.2-.3-.2-.4,0-.7,1-1.7,2-2.9,2.9-.4.3-.3.5.2.5Z"/>
    <path class="st23" d="M118,61.6h13.4c.3,0,.4.2.4.4v14.3c0,.3-.2.4-.4.4h-1.8c-.2,0-.4-.2-.4-.4s-.2-.4-.4-.4h-8.4c-.2,0-.4.2-.4.4s-.2.4-.4.4h-1.6c-.3,0-.4-.2-.4-.4v-14.3c0-.3.2-.4.4-.4ZM120.3,73.7h8.6c.2,0,.3-.1.3-.3v-9.4c0-.2-.1-.3-.3-.3h-8.6c-.2,0-.3.1-.3.3v9.4c0,.2.1.3.3.3ZM128.4,71.1c.2,0,.4.2.4.4v1.1c0,.3-.2.4-.4.4h-7.5c-.3,0-.4-.2-.4-.4v-1.1c0-.3.2-.4.4-.4h2.2c.3,0,.4-.2.4-.4v-.6c0-.3-.2-.4-.4-.4h-1.6c-.3,0-.4-.2-.4-.4v-1.1c0-.3.2-.4.4-.4h1.6c.3,0,.4-.2.4-.4v-.3c0-.3-.2-.4-.4-.4h-2.1c-.3,0-.4-.2-.4-.4v-1.2c0-.3.2-.4.4-.4h7.2c.3,0,.4.2.4.4v1.2c0,.3-.2.4-.4.4h-2c-.3,0-.4.2-.4.4v.3c0,.3.2.4.4.4h1.7c.3,0,.4.2.4.4v1.3c0,.1,0,.2-.2.2s-.2,0,0,.2c.2.2.4.4.5.6.1.2,0,.4-.1.5-.2.1-.2.2,0,.2ZM125.7,69.9v1c0,.2.1.3.3.3h.3c.3,0,.4-.2.2-.4l-.4-.5c-.1-.1,0-.3,0-.4h.1c.2-.2.2-.3,0-.3h-.3c-.2,0-.3.1-.3.3Z"/>
    <path class="st23" d="M148.9,71.6v1.4c0,.3-.2.4-.4.4h-2.5c-.2,0-.4.1-.4.4-.2,1.1-.5,1.8-.9,2.2-.5.6-1.1.8-1.9.8-.6,0-1.5,0-2.4,0-.2,0-.4-.2-.5-.4,0-.3-.2-.7-.3-1.1-.2-.5,0-.8.5-.8.7,0,1.4,0,1.7,0s.6,0,.8-.2c.1,0,.2-.2.3-.5.1-.3,0-.5-.4-.5h-8.3c-.3,0-.4-.2-.4-.4v-1.4c0-.3.2-.4.4-.4h8.9c.3,0,.4-.2.5-.4,0-.3-.1-.5-.4-.5h-4c-.1,0-.2,0-.3.2h0c0,.2-.1.2-.3.2h-1.7c-.3-.2-.5-.4-.4-.7.4-1.6.8-3.7,1.1-5.5,0-.3-.1-.5-.4-.5h-.3c-.3,0-.4.2-.4.4v1.2c0,.3-.2.4-.4.4h-1.5c-.3,0-.4-.2-.4-.4v-3.4c0-.3.2-.4.4-.4h13.9c.3,0,.4.2.4.4v3.4c0,.3-.2.4-.4.4h-1.7c-.3,0-.4-.2-.4-.4v-1.2c0-.3-.2-.4-.4-.4h-5.8c0,0,0,0,0,0h0s0,.5,0,.5c0,.3.1.5.4.5h4.7c.3,0,.4.2.4.4v1.2c0,.3-.2.4-.4.4h-5.2c-.2,0-.4.1-.4.4v.2c-.1.3,0,.5.4.5h5.9c.3,0,.5.2.4.5v.5c-.1.6-.1,1.1-.2,1.6,0,.3.1.5.4.5h2.1c.3,0,.4.2.4.4Z"/>
    <path class="st23" d="M165,73.8h-1.4c-1.1,0-1.2.2-.1.6.5.2,1,.4,1.5.5.4.2.5.5.1.8l-1.3,1c-.1,0-.3.1-.4,0h0c-.9-.4-2.3-1.1-3.8-1.6-.4-.2-.5-.4-.2-.8h0c.4-.4.3-.6-.2-.6h-2.8c-.6,0-.7.2-.2.6l.2.2c.3.2.3.5,0,.7-1.2.6-2.8,1.2-4.2,1.5-.1,0-.3,0-.4-.1-.2-.2-.5-.6-.8-.8-.4-.4-.3-.7.2-.8.6-.1,1.1-.3,1.7-.5,1-.4.9-.7-.2-.7h-1.8c-.3,0-.4-.2-.4-.4v-1.1c0-.3.2-.4.4-.4h14.1c.3,0,.4.2.4.4v1.1c0,.3-.2.4-.4.4ZM156.7,64.3c0-.1-.1-.2-.2-.2h-4.9c-.3,0-.4-.2-.4-.4v-1.1c0-.3.2-.4.4-.4h4.8c.3,0,.4-.2.4-.4v-.2c0-.3.2-.4.4-.4h1.7c.3,0,.4.2.4.4v.2c0,.3.2.4.4.4h5c.3,0,.4.2.4.4v1.1c0,.3-.2.4-.4.4h-5.2c-.1,0-.2.1-.2.2s.1.2.2.2h3.4c.3,0,.4.2.4.4v6c0,.3-.2.4-.4.4h-9.5c-.3,0-.4-.2-.4-.4v-6c0-.3.2-.4.4-.4h3.1c.1,0,.2-.1.2-.2ZM160.8,66.1c0-.1-.1-.2-.2-.2h-5.1c-.1,0-.2.1-.2.2s.1.2.2.2h5.1c.1,0,.2-.1.2-.2ZM160.8,68c0-.1-.1-.2-.2-.2h-5.1c-.1,0-.2.1-.2.2s.1.2.2.2h5.1c.1,0,.2-.1.2-.2ZM160.8,69.7c0-.2-.1-.3-.3-.3h-5c-.2,0-.3.1-.3.3s.1.3.3.3h5c.2,0,.3-.1.3-.3Z"/>
    <path class="st23" d="M180.6,75.7h-2.1c-.2,0-.4-.2-.4-.4,0-.2-.2-.4-.4-.4h-6.9c-.5,0-1.2,0-1.8,0-.3,0-.5-.1-.5-.4v-1.9c0-.3.2-.5.5-.4.5,0,1.1,0,1.7,0h7c.3,0,.4-.2.4-.4v-5.5c0-.3-.2-.4-.4-.4h-6.8c-.6,0-1.2,0-1.7,0-.3,0-.5-.2-.5-.4v-1.8c0-.3.2-.5.5-.4.6,0,1.2,0,1.7,0h9.6c.3,0,.5.1.5.4,0,.4,0,.8,0,1.2v8.6c0,.4,0,1.1,0,1.7,0,.3-.2.5-.4.5Z"/>
    <path class="st23" d="M185.4,73.2c2.2-.4,4.1-1.1,5.5-1.9,2.7-1.5,4.8-3.8,6-5.9.3-.4.6-.5.8,0l1,1.9c0,.1,0,.3,0,.4-1.4,2.3-3.6,4.5-6.3,6.1-1.6.9-3.7,1.8-5.7,2.2-.2,0-.4,0-.4-.2l-1.2-1.8c-.2-.4,0-.6.3-.7ZM187.2,62.7c1.1.8,2.7,2.1,3.7,3.1.2.2.2.4,0,.6l-1.4,1.5c-.2.2-.5.2-.6,0-.9-.9-2.4-2.2-3.5-3-.2-.2-.3-.4,0-.7l1.3-1.4c.2-.2.4-.2.6,0Z"/>
    <path class="st23" d="M213.3,66.5c.2,0,.7,0,1.1,0,.3,0,.5.2.5.5v1.6c0,.3-.2.5-.5.4-.4,0-.8,0-1.2,0h-3.2c-.3,0-.4.2-.5.4-.1,1.5-.4,2.8-.9,3.8-.5,1.1-1.7,2.4-3.2,3.2-.1,0-.3,0-.4,0l-1.5-1.1c-.4-.3-.4-.6,0-.8.9-.5,1.7-1.2,2.2-1.9.6-.9.8-1.9.9-3.1,0-.3-.2-.5-.4-.5h-3.5c-.3,0-.8,0-1.2,0-.3,0-.5-.2-.5-.4v-1.7c0-.3.2-.5.5-.4.4,0,.8,0,1.2,0h10.4ZM205,64.7c-.4,0-1,0-1.5,0-.3,0-.5-.2-.5-.5v-1.6c0-.3.2-.5.5-.4.5,0,1,0,1.4,0h6.7c.5,0,.9,0,1.4,0,.3,0,.5.1.5.4v1.6c0,.3-.2.4-.5.4-.5,0-1,0-1.5,0h-6.7Z"/>
    <path class="st23" d="M228.7,62.7c.1,0,.3,0,.4,0l1.1.8c.2.1.2.4.1.6h0c-.1.3-.3.6-.5.9-.5,1.2-1.3,2.7-2.3,4.1-.1.2-.1.4,0,.6,1.4,1.3,3,3,4,4.1.2.2.1.4,0,.6l-1.6,1.4c-.2.2-.5.2-.6,0-.9-1.3-2.1-2.6-3.4-3.8-.2-.2-.4-.2-.6,0-1.6,1.6-3.5,3.1-5.5,4.1-.2,0-.4,0-.5,0l-1.4-1.5c-.3-.3-.2-.6.2-.7,2.5-1.1,4.8-2.9,6.2-4.4.9-1,1.7-2.2,2.1-3.2.1-.3,0-.6-.4-.6h-4.6c-.5,0-1.2,0-1.7.1-.3,0-.5-.2-.5-.4v-1.9c0-.3.2-.5.5-.5.6,0,1.3,0,1.6,0h5.6c.7,0,1.4,0,1.8-.2h0Z"/>
    <path class="st23" d="M247.5,69.2l-.8,2c-.1.3-.4.4-.6.2-1.4-.7-3.2-1.4-4.7-2-.4-.1-.6,0-.6.4v3.6c0,.4,0,1.3.1,2,0,.3-.1.5-.4.5h-2.2c-.3,0-.5-.2-.4-.5,0-.6.1-1.5.1-2v-9.5c0-.5,0-1.1-.1-1.6,0-.3.1-.5.4-.5h2.1c.3,0,.5.2.4.5,0,.5-.1,1.1-.1,1.7v1.9c0,.2.1.4.3.4,2,.6,4.7,1.6,6.2,2.2.2.1.3.3.2.6Z"/>
    <path class="st23" d="M263.4,69.4h.2s0,0,0,0l1,.4c.2,0,.3.3.3.5-.4,1.2-.9,2.2-1.5,3.1-.2.2-.1.5.1.6.4.2.9.4,1.5.6.5.1.6.4.3.8-.2.3-.5.6-.7.9-.1.2-.3.3-.5.2-.9-.3-1.6-.6-2.3-1.1-.2-.1-.4-.1-.5,0-.6.4-1.2.8-1.9,1.1-.2.1-.5,0-.6-.2l-.4-.6c-.3-.4-.5-.3-.5.2v.3c0,.3-.2.4-.4.4h-1.4c-.3,0-.4-.2-.4-.4v-.3c0-.3-.2-.5-.5-.4-1.5.1-3,.2-4.2.3-.3,0-.5-.1-.5-.4v-1.2c-.1-.3,0-.5.3-.5.2,0,.3,0,.5,0h0c.2,0,.4-.2.4-.4v-3.9c0-.3-.2-.4-.4-.4h-.4c-.3,0-.4-.2-.4-.4v-1c0-.3.2-.4.4-.4h14.1c.3,0,.4.2.4.4v1c0,.3-.2.4-.4.4h-6.7c-.3,0-.4.2-.4.4v4.7c0,.4.2.5.6.4.3-.2.7-.3,1-.5.2-.2.3-.4.1-.6-.3-.4-.6-.9-.8-1.3-.1-.3,0-.5.3-.6h.1c.4-.1.4-.2,0-.2h-.5c-.3,0-.4-.2-.4-.4v-.9c0-.3.2-.4.4-.4h4.7c0,0,0,0,0,0ZM263.5,61.9v4.4c0,.3-.2.4-.4.4h-10.2c-.3,0-.4-.2-.4-.4v-4.4c0-.3.2-.4.4-.4h10.2c.3,0,.4.2.4.4ZM255.4,69.1h-1.3c-.1,0-.2,0-.2.2s0,.2.2.2h1.3c.1,0,.2,0,.2-.2s0-.2-.2-.2ZM253.9,71.3c0,.1,0,.2.2.2h1.3c.1,0,.2,0,.2-.2s0-.2-.2-.2h-1.3c-.1,0-.2,0-.2.2ZM254.1,73.7h1.2c.1,0,.2-.2.2-.3s0-.2-.2-.2h-1.2c-.2,0-.3.1-.3.3s.1.3.3.2ZM261.1,63.2c0-.1,0-.2-.2-.2h-6c-.1,0-.2,0-.2.2s0,.2.2.2h6c.1,0,.2,0,.2-.2ZM261.1,65c0-.1,0-.2-.2-.2h-5.9c-.1,0-.2,0-.2.2s0,.2.2.2h5.9c.1,0,.2,0,.2-.2ZM261.7,71.3h-.7c-.3,0-.4.2-.2.4.1.2.2.4.4.5.1.2.3.1.4,0,.1-.2.2-.4.4-.5.1-.2,0-.4-.2-.4Z"/>
    <path class="st23" d="M270,61.1l1.4.4c.2,0,.4.3.3.5-.3.9-.6,1.8-1.1,2.7,0,0,0,0,0,0h0v11.5c0,.3-.2.4-.4.4h-1.4c-.3,0-.4-.2-.4-.4v-6.8c0-.3-.1-.4-.3-.1s-.4.2-.5-.1c-.2-.6-.5-1.3-.8-1.9,0-.2,0-.4,0-.5,1.1-1.4,2.2-3.5,2.8-5.6,0-.2.3-.4.5-.3ZM280.2,72h0l.9.5c.2.1.3.4.1.6-.2.3-.5.6-.8.8-.5.4-.5.8.2.8.4,0,.8,0,1.1,0,.6,0,.7.3.4.8-.2.3-.4.6-.5.9,0,.2-.3.2-.4.2h0c-1.6-.2-3-.4-4.2-.9,0,0-.2,0-.3,0-1.2.4-2.6.7-4.1.9-.2,0-.4,0-.5-.2-.1-.2-.3-.5-.5-.8-.3-.4-.2-.7.3-.8.7,0,1.3-.2,2-.3.3,0,.3-.2,0-.4h-.2c-.1-.2-.3-.3-.5-.2-.2.1-.4.2-.7.3-.2,0-.4,0-.5-.2h0c-.1-.2-.2-.4-.4-.5-.4-.4-.3-.7.2-.9,1.1-.3,2-.8,2.6-1.2.2-.1.2-.4,0-.6-.1-.2-.2-.3-.4,0-.3.3-.6.6-.9.9-.2.1-.4.1-.5,0l-.8-.6c-.2-.2-.2-.4,0-.6.2-.2.2-.3-.1-.3h-.3c-.3,0-.4-.2-.4-.4v-1.6c0-.3.2-.4.4-.4h.6c.3,0,.4-.2.4-.4v-3.2c0-.3.2-.4.4-.4h2c.1,0,.2,0,.3-.2h0c0-.1,0-.2-.2-.2h-2.9c-.3,0-.4-.2-.4-.4v-.8c0-.3.2-.4.4-.4h9.3c.3,0,.4.2.4.4v.8c0,.3-.2.4-.4.4h-3.5c-.1,0-.2,0-.3.2h0c0,.1,0,.2.1.2h2.8c.3,0,.4.2.4.4v3.2c0,.3.2.4.4.4h.5c.3,0,.4.2.4.4v1.6c0,.3-.2.4-.5.4s-.4.1-.2.4h0c.2.3,0,.5-.2.6l-.8.4c-.2.1-.5,0-.6-.2l-.2-.2c-.2-.4-.5-.3-.8,0-.3.2-.7.4-1.3.4h-.9c-.1,0-.2,0-.3.1-.1.1-.1.2,0,.2h2.9c0,0,.2,0,.3,0ZM274.2,69.7c.2,0,.3,0,.3-.2h0c0-.2.1-.3.3-.3h1.3c0,0,0,0,0,0h0s-.1,0-.2,0h-2.5c0,0-.1,0-.1.1h0c0,.1,0,0,0,0l.8.4ZM278.8,64.8h-3.7c-.1,0-.2,0-.2.2s0,.2.2.2h3.7c.1,0,.2,0,.2-.2s0-.2-.2-.2ZM279,66.3c0-.1,0-.2-.2-.2h-3.7c-.1,0-.2,0-.2.2s0,.2.2.2h3.7c.1,0,.2,0,.2-.2ZM274.8,67.6c0,.1,0,.2.2.2h3.7c.1,0,.2,0,.2-.2s0-.2-.2-.2h-3.7c-.1,0-.2,0-.2.2ZM277.5,73.3h-1.2c-.4,0-.5.2,0,.4l.6.3c0,0,.1,0,.2,0l.6-.3c.4-.2.4-.4,0-.4ZM276.3,69.7v.3c0,.4,0,.4.5.4h.2c.1,0,.1,0,0-.1-.1-.2-.3-.4-.5-.6-.1-.1-.2,0-.2,0ZM277.6,70.4h.3c.2,0,.3,0,.3-.1.1-.2.2-.3.4-.2l.4.2c.2,0,.2,0,0-.1-.1-.1-.1-.2,0-.3l1.1-.5c0,0,0,0,0-.1s0,0,0,0h-1.8c-.2,0-.3.1-.1.3,0,0,0,0,0,0,0,.1,0,.3,0,.3l-.8.4c-.2,0-.2.2,0,.2Z"/>
    <path class="st23" d="M292,69.2h-1.5c-.3,0-.4-.2-.4-.4v-.6c0-.6-.3-.7-.7-.3-.3.3-.6.5-.9.8-.7.6-.6.9.3.9h5c.3,0,.5.2.4.5v.5c-.2.3,0,.5.3.5h2.9c.3,0,.4.2.4.5v.4c-.3,2.3-.6,3.5-1.1,4-.5.5-1,.6-1.7.7-.5,0-1.3,0-2.1,0-.3,0-.4-.2-.5-.4,0-.3-.2-.7-.3-1-.2-.5,0-.8.5-.8.6,0,1.1,0,1.4,0s.5,0,.7-.2c.1-.1.3-.4.4-.8,0-.3-.1-.5-.4-.5h-.9c-.2,0-.4.1-.4.4,0,.2-.2.3-.4.3l-1.4-.2c-.3,0-.4-.3-.4-.5,0-.3.2-.6.2-1,0-.3,0-.5-.4-.5h-.4c-.2,0-.4.1-.4.3-.5,2-1.6,3.7-4.7,4.8-.2,0-.4,0-.6-.2-.2-.4-.5-.8-.7-1.2-.3-.4-.2-.6.2-.8,1.8-.6,2.7-1.4,3.1-2.4.2-.3,0-.5-.4-.5h-.8c-.3,0-.4-.2-.4-.4v-.4c0-.4-.2-.5-.6-.4h-.2c-.2.2-.4,0-.6-.1-.2-.3-.5-.7-.8-1.1-.3-.4-.2-.6.2-.8.9-.3,1.7-.7,2.5-1.2.6-.4.5-.7-.2-.7h-1.9c-.3,0-.4-.2-.4-.4v-1.3c0-.3.2-.4.4-.4h5.3c.2,0,.4-.2.4-.4s-.2-.4-.4-.4c-1.4,0-2.8.1-4,.2-.3,0-.4-.2-.5-.4,0-.3-.2-.6-.2-.9-.1-.4,0-.6.4-.6,3.5-.1,7.4-.4,9.9-.8.2,0,.3,0,.4.1l1,1.1c.3.4.2.6-.2.7-1.1.2-2.3.3-3.5.5-.2,0-.4.2-.4.4h0c0,.4.2.6.4.6h5.3c.3,0,.4.2.4.4v1.3c0,.3-.2.4-.4.4h-1.9c-.8,0-.9.3-.2.7.8.4,1.6.8,2.4,1,.5.2.5.4.2.8-.3.4-.6.8-.8,1.1-.1.2-.3.3-.5.2-1.6-.6-3-1.5-4.2-2.6-.4-.4-.7-.3-.7.3v.6c0,.3-.2.4-.4.4Z"/>
    <path class="st23" d="M303.1,64.7v.8c0,.3-.2.4-.4.4h-1.4c-.3,0-.4-.2-.4-.4v-2.4c0-.3.2-.4.4-.4h1c.4,0,.5-.2.3-.5-.2-.3,0-.6.3-.7l1.3-.3c.2,0,.4,0,.5.2.2.4.5.8.6,1.1,0,.2.2.3.4.3h.6c.3,0,.4-.2.4-.4v-.8c0-.3.2-.4.4-.4h1.5c.3,0,.4.2.4.4v.8c0,.3.2.4.4.4h.9c.2,0,.3,0,.4-.2.2-.4.4-.7.6-1.1,0-.2.3-.3.5-.3l1.5.3c.4,0,.5.4.3.7-.3.3-.2.6.2.6h.9c.3,0,.4.2.4.4v2.4c0,.3-.2.4-.4.4h-1.5c-.3,0-.4-.2-.4-.4v-.8c0-.3-.2-.4-.4-.4h-9c-.3,0-.4.2-.4.4ZM313.1,74.3h-.5c-.6,0-.6.1,0,.3.7.2,1.4.5,2,.7.6.2.6.5,0,.8l-1.5.7c-.1,0-.3,0-.4,0-.8-.4-2.1-.8-3.4-1.3-.5-.2-.5-.5-.1-.7s.4-.5-.1-.5h-2.7c-.6,0-.6.1,0,.4h.1c0,0,0,0,0,0,.5.2.5.5,0,.7-1.2.7-2.8,1.2-4.2,1.5-.2,0-.3,0-.4-.2-.2-.3-.5-.6-.8-.9-.5-.5-.4-.8.3-.8.8-.1,1.5-.2,2.2-.4.6-.2.6-.3,0-.3h-.6c-.3,0-.4-.2-.4-.4v-5.2c0-.3.2-.4.4-.4h10.1c.3,0,.4.2.4.4v5.2c0,.3-.2.4-.4.4ZM312,67.7h-8.1c-.3,0-.4-.2-.4-.4v-2.1c0-.3.2-.4.4-.4h8.1c.3,0,.4.2.4.4v2.1c0,.3-.2.4-.4.4ZM304.8,69.6c0,.1,0,.2.2.2h5.9c.1,0,.2,0,.2-.2s0-.2-.2-.2h-5.9c-.1,0-.2,0-.2.2ZM304.8,71.2c0,.1,0,.2.2.2h5.9c.1,0,.2,0,.2-.2s0-.2-.2-.2h-5.9c-.1,0-.2,0-.2.2ZM304.8,72.8c0,.1,0,.2.2.2h5.9c.1,0,.2,0,.2-.2s0-.2-.2-.2h-5.9c-.1,0-.2,0-.2.2ZM305.8,66.2c0,.1,0,.2.2.2h3.9c.1,0,.2,0,.2-.2s0-.2-.2-.2h-3.9c-.1,0-.2,0-.2.2Z"/>
    <path class="st23" d="M329.9,69.6s0,0,0,0c0,0,0,.1,0,.2-.6,1.2-1.3,2.2-2.2,3-.4.4-.3.7.2.8,1.1.3,2.2.5,3.5.6.6,0,.7.4.4.8-.3.4-.6.9-.8,1.3,0,.2-.3.3-.5.2-2.2-.3-4.1-.8-5.8-1.5-.1,0-.2,0-.4,0-1.7.8-3.7,1.2-5.9,1.5-.2,0-.4,0-.5-.3-.2-.4-.4-.8-.7-1.1-.3-.5-.2-.8.4-.8,1.3-.1,2.5-.3,3.6-.6.5-.1.5-.4.2-.8-.5-.4-.9-.8-1.3-1.3-.2-.2-.1-.4.1-.5.2,0,.2-.2,0-.2s-.4-.2-.4-.4v-1.4c0-.3.2-.4.4-.4h7.9c0,0,0,0,0,0,0,0,.2,0,.3,0l.5.3c.4.2.6,0,.6-.4v-.4c0-.3-.2-.4-.4-.4h-9.3c-.3,0-.4.2-.4.4v.8c0,.3-.2.4-.4.4h-1.4c-.3,0-.4-.2-.4-.4v-2.9c0-.3.2-.4.4-.4h1.2c.4,0,.5-.2.4-.6v-.4c-.3-.3-.2-.5.1-.6h.2c.4-.2.4-.2,0-.2-.4,0-.8,0-1.2,0-.2,0-.4-.2-.5-.4,0-.3-.2-.7-.3-1-.1-.4,0-.6.4-.6,4.2-.1,8.7-.5,11.7-1,.2,0,.3,0,.4.1l1,1.2c.3.4.2.6-.3.7-1.5.2-3.1.4-4.8.6-.4,0-.5.3-.4.6.1.3.2.6.3.9,0,.2,0,.4-.3.5h-.1s0,0,0,0c-.3,0-.3.1,0,.1h1.6c.2,0,.3-.1.4-.3.2-.5.4-1.1.6-1.6,0-.2.3-.4.5-.3l1.6.4c.3,0,.5.3.3.6l-.3.5c-.2.4,0,.7.4.7h.9c.3,0,.4.2.4.4v2.9c0,.3-.2.4-.4.4h-1.7c0,0,0,0,0,0ZM323.6,63.9h.3c.4-.1.3-.2,0-.2-.8,0-1.5.1-2.3.1-.3,0-.4.2-.2.4.2.4.4.7.4,1,0,.1,0,.3-.2.3h-.1c-.2,0-.2.1,0,.1h2c.2,0,.3-.1.3-.3,0-.4-.2-.8-.4-1.2,0-.2,0-.3.2-.4ZM325.7,71h-2.5c-.4,0-.5.2-.2.4.4.3.9.6,1.4.9,0,0,.2,0,.2,0,.4-.3.8-.6,1.2-.9.3-.2.2-.4-.2-.4Z"/>
    <path class="st23" d="M336.4,64.7v.8c0,.3-.2.4-.4.4h-1.4c-.3,0-.4-.2-.4-.4v-2.4c0-.3.2-.4.4-.4h1c.4,0,.5-.2.3-.5-.2-.3,0-.6.3-.7l1.3-.3c.2,0,.4,0,.5.2.2.4.5.8.6,1.1,0,.2.2.3.4.3h.6c.3,0,.4-.2.4-.4v-.8c0-.3.2-.4.4-.4h1.5c.3,0,.4.2.4.4v.8c0,.3.2.4.4.4h.9c.2,0,.3,0,.4-.2.2-.4.4-.7.6-1.1,0-.2.3-.3.5-.3l1.5.3c.4,0,.5.4.3.7-.3.3-.2.6.2.6h.9c.3,0,.4.2.4.4v2.4c0,.3-.2.4-.4.4h-1.5c-.3,0-.4-.2-.4-.4v-.8c0-.3-.2-.4-.4-.4h-9c-.3,0-.4.2-.4.4ZM346.4,74.3h-.5c-.6,0-.6.1,0,.3.7.2,1.4.5,2,.7.6.2.6.5,0,.8l-1.5.7c-.1,0-.3,0-.4,0-.8-.4-2.1-.8-3.4-1.3-.5-.2-.5-.5-.1-.7s.4-.5-.1-.5h-2.7c-.6,0-.6.1,0,.4h.1c0,0,0,0,0,0,.5.2.5.5,0,.7-1.2.7-2.8,1.2-4.2,1.5-.2,0-.3,0-.4-.2-.2-.3-.5-.6-.8-.9-.5-.5-.4-.8.3-.8.8-.1,1.5-.2,2.2-.4.6-.2.6-.3,0-.3h-.6c-.3,0-.4-.2-.4-.4v-5.2c0-.3.2-.4.4-.4h10.1c.3,0,.4.2.4.4v5.2c0,.3-.2.4-.4.4ZM345.3,67.7h-8.1c-.3,0-.4-.2-.4-.4v-2.1c0-.3.2-.4.4-.4h8.1c.3,0,.4.2.4.4v2.1c0,.3-.2.4-.4.4ZM338.1,69.6c0,.1,0,.2.2.2h5.9c.1,0,.2,0,.2-.2s0-.2-.2-.2h-5.9c-.1,0-.2,0-.2.2ZM338.1,71.2c0,.1,0,.2.2.2h5.9c.1,0,.2,0,.2-.2s0-.2-.2-.2h-5.9c-.1,0-.2,0-.2.2ZM338.1,72.8c0,.1,0,.2.2.2h5.9c.1,0,.2,0,.2-.2s0-.2-.2-.2h-5.9c-.1,0-.2,0-.2.2ZM339.1,66.2c0,.1,0,.2.2.2h3.9c.1,0,.2,0,.2-.2s0-.2-.2-.2h-3.9c-.1,0-.2,0-.2.2Z"/>
    <path class="st23" d="M365,68.1c.9-.2,1.9-.3,2.6-.3,2.6,0,4.8,1.3,4.8,3.8s-.9,3.5-3.7,4.2c-.6.2-1.3.2-1.9.3-.2,0-.4-.1-.4-.3l-.6-1.7c-.1-.4,0-.6.4-.6.6,0,1.1,0,1.5-.1,1.3-.2,2.2-.8,2.2-1.8s-.8-1.6-2.2-1.6-1.7,0-2.5.3c-.2,0-.3.2-.3.4,0,1.1,0,2.1,0,2.5,0,2.3-.8,2.9-2,2.9-1.8,0-4.1-1.4-4.1-3.3s1.5-2.9,3.5-3.8c.2,0,.3-.2.3-.4v-1.6c0-.2-.1-.4-.4-.4h-.4c-.6,0-1.3,0-2,0-.2,0-.4-.2-.4-.4v-1.5c0-.3.1-.5.5-.5.8,0,1.4,0,1.9,0h.4c.2,0,.4-.2.4-.4v-.7c0-.2,0-.7,0-1.1,0-.3.2-.5.5-.5h1.7c.3,0,.5.2.4.5,0,.4,0,.8-.1,1.1v.4c0,.2.1.4.4.4.6-.1,1.3-.2,1.9-.4.3,0,.5,0,.5.4v1.6c0,.2-.1.4-.3.4-.7.1-1.5.3-2.2.4-.2,0-.4.2-.4.4v1c0,.2.1.3.3.2ZM362.5,72.8c0-.2,0-.6,0-1.1,0-.3-.2-.4-.4-.2-.6.4-.9.8-.9,1.2s.5.7.9.7.5,0,.5-.6ZM368.6,64.9l.7-1.2c.1-.2.3-.3.6-.2,1.1.5,2.6,1.3,3.5,1.9.2.1.3.4.1.6l-.7,1.2c-.2.3-.4.3-.7.1-.9-.6-2.3-1.4-3.3-1.9-.3-.1-.4-.4-.2-.6Z"/>
    <path class="st23" d="M385.6,64.2c0,.1,0,.2.1.2,2.5.7,4.1,2.8,4.1,5.6s-2.4,5.5-5.7,6.1c-.2,0-.4,0-.4-.2l-1-1.5c-.2-.4-.1-.6.3-.7,3.1-.5,4.1-2.2,4.1-3.9s-.7-2.6-1.8-3.2c-.2-.1-.5,0-.6.3-.5,1.5-1.1,3-1.8,4.3,0,.2,0,.4,0,.5l.3.3c.2.2.2.5,0,.7l-1.4,1.1c-.2.1-.4.1-.5,0-.1-.1-.3-.2-.5,0-1.1,1-1.9,1.4-3,1.4s-2.8-1.2-2.8-3.5.8-3.7,2.2-5.1c.1-.1.2-.3.1-.5-.1-.3-.2-.6-.3-.9-.1-.5-.3-.9-.5-1.4-.1-.3,0-.5.3-.6l1.6-.5c.3,0,.5,0,.6.4,0,.4.2.8.3,1.1v.4c.2.3.4.4.7.3.9-.4,1.8-.6,2.8-.7.2,0,.3-.1.3-.3v-.3c.1-.4.2-.9.2-1.2,0-.3.2-.5.5-.5l1.7.2c.3,0,.5.3.4.6-.1.5-.2,1.1-.3,1.4v.2ZM379.6,71.8c0,0,0-.2,0-.3-.4-.6-.7-1.4-1.1-2.2-.1-.3-.3-.3-.4,0-.4.7-.6,1.5-.6,2.3s.3,1.1.8,1.1.9-.3,1.3-.8ZM382,66.5c-.6.1-1.1.3-1.5.6-.1,0-.2.2-.1.3.2.5.4,1.1.6,1.5.1.3.3.3.5,0,.3-.7.6-1.4.8-2.1,0-.2,0-.4-.3-.3Z"/>
    <path class="st23" d="M392.4,63.6c.5,0,1,0,1.2,0,1.5-.1,4-.3,7-.6,1.5-.1,3.2-.2,4.3-.3.3,0,.5.2.5.4v1.7c0,.3-.2.4-.4.4-.8,0-1.9,0-2.7.2-1.8.4-3.3,2.3-3.3,4.3s2,3.2,4.6,3.5c.4,0,.5.2.4.6l-.6,1.9c0,.2-.2.3-.4.3-3.5-.4-6.5-2.3-6.5-5.8s.6-2.9,1.2-3.8c.5-.6.3-.9-.5-.8-1.3.2-3.1.4-4.5.7-.3,0-.5,0-.5-.4l-.2-1.8c0-.3.2-.5.4-.5ZM403.4,66.8c.3.5.6,1,.9,1.5.1.2,0,.5-.2.6l-.7.3c-.2.1-.5,0-.6-.2-.3-.6-.5-1-.8-1.4-.2-.3-.1-.5.2-.7l.6-.2c.2,0,.4,0,.5.2ZM405.3,66c.3.5.7,1,.9,1.5.1.2,0,.5-.2.6l-.7.3c-.2.1-.5,0-.6-.2-.3-.5-.5-.9-.8-1.4-.2-.3-.1-.5.2-.7l.6-.3c.2,0,.4,0,.5.2Z"/>
    <path class="st23" d="M420,63.8l.9,1.5c.1.2,0,.5-.1.6-.5.3-.9.5-1.5.8-1,.5-2.9,1.4-4.4,2.3-1.3.8-2.2,1.7-2.2,2.8s1.1,1.6,3.2,1.6,3.4-.2,4.9-.5c.3,0,.5.1.5.4v2c0,.2-.2.4-.4.4-1.4.2-2.9.4-5,.4-3.4,0-6-.9-6-4s1-3.1,2.4-4.2c.2-.1.2-.4.1-.6-.6-1.2-1.3-2.6-1.9-4.1-.1-.2,0-.5.2-.6l1.7-.7c.2-.1.5,0,.6.2.5,1.3,1.1,2.5,1.6,3.6.1.2.4.3.6.2,1.1-.6,2.1-1.2,2.8-1.5.5-.3.9-.5,1.3-.8.2-.2.5-.1.7.1Z"/>
    <path class="st23" d="M433,68c-1.8,0-3.4.6-4.2.8-.4.1-.8.3-1.3.5-.3,0-.5,0-.6-.3l-.5-1.9c0-.3,0-.5.4-.6.5,0,1-.2,1.4-.2,1.3-.3,3.1-.7,5-.7,2.8,0,4.6,1.6,4.6,4.3s-3.2,5.7-7.8,6.4c-.2,0-.4,0-.4-.2l-1-1.7c-.2-.4,0-.6.3-.7,3.7-.5,6-1.7,6-3.9s-.7-1.7-2.2-1.7ZM429.4,61.7c1.9.3,4.9.6,6.7.6.3,0,.5.2.4.5l-.2,1.5c0,.2-.2.4-.5.4-1.9-.1-4.9-.4-6.8-.7-.2,0-.4-.2-.4-.5l.2-1.5c0-.3.2-.4.5-.4Z"/>
  </g>
  <rect class="st2" x="50.9" y="137.3" width="396.7" height="37.4"/>
  <line class="st4" x1="75.5" y1="137.3" x2="75.5" y2="174.7"/>
  <line class="st4" x1="50.9" y1="137.3" x2="50.9" y2="174.7"/>
  <line class="st4" x1="447.7" y1="137.3" x2="50.9" y2="137.3"/>
  <line class="st4" x1="447.7" y1="174.7" x2="50.9" y2="174.7"/>
  <line class="st4" x1="100.4" y1="137.3" x2="100.4" y2="174.7"/>
  <line class="st4" x1="125.4" y1="137.3" x2="125.4" y2="174.7"/>
  <line class="st4" x1="149.9" y1="137.3" x2="149.9" y2="174.7"/>
  <line class="st4" x1="174.5" y1="137.3" x2="174.5" y2="174.7"/>
  <line class="st4" x1="199.4" y1="137.3" x2="199.4" y2="174.7"/>
  <line class="st4" x1="224.4" y1="137.3" x2="224.4" y2="174.7"/>
  <line class="st4" x1="248.9" y1="137.3" x2="248.9" y2="174.7"/>
  <line class="st4" x1="274.2" y1="137.3" x2="274.2" y2="174.7"/>
  <line class="st4" x1="299.2" y1="137.3" x2="299.2" y2="174.7"/>
  <line class="st4" x1="324.1" y1="137.3" x2="324.1" y2="174.7"/>
  <line class="st4" x1="348.7" y1="137.3" x2="348.7" y2="174.7"/>
  <line class="st4" x1="373.2" y1="137.3" x2="373.2" y2="174.7"/>
  <line class="st4" x1="398.2" y1="137.3" x2="398.2" y2="174.7"/>
  <line class="st4" x1="423.1" y1="137.3" x2="423.1" y2="174.7"/>
  <line class="st4" x1="447.7" y1="137.3" x2="447.7" y2="174.7"/>
  <g>
    <path class="st23" d="M67.8,158.4l-1,1.3c-.3.3-.6.3-.8,0,0,0,0,0,0,0l-.2-.2s0,0,0,0c-.4-.5-.6-.4-.6.2v5.3c0,.3-.2.5-.5.5h-1.7c-.3,0-.5-.2-.5-.5v-4.3c0-.6-.3-.8-.8-.4-.1,0-.2.2-.3.3-.3.2-.6.1-.8-.3-.2-.5-.5-1-.7-1.5-.2-.3,0-.6.2-.7,1.4-.9,2.6-2.2,3.6-3.7.3-.4,0-.7-.4-.7h-2.5c-.3,0-.5-.2-.5-.5v-1.4c0-.3.2-.5.5-.5h1.3c.3,0,.5-.2.5-.5v-2.4c0-.3.2-.5.5-.5h1.7c.3,0,.5.2.5.5v2.7c0,.1,0,.2.2.2h.2s.2,0,.2,0c.1,0,.3,0,.3,0h0l1,.6c.2.1.3.3.2.5-.4,1-.9,2.1-1.5,3-.1.2,0,.5,0,.6.6.5,1.4,1.3,1.8,1.7.2.2.2.4,0,.6ZM75.3,163c.2,0,.3-.2.3-1.4,0-.6.3-.8.9-.5.3.2.7.3,1,.4.2,0,.4.3.3.5-.2,2.4-.8,3.2-2.2,3.2h-1.1c-1.8,0-2.3-.8-2.3-2.9v-5.1c0-.2-.1-.3-.3-.3s-.3.1-.3.3c-.2,3.4-.8,6.2-3.6,8-.3.2-.5,0-.7-.2-.2-.4-.6-.9-.9-1.2-.3-.3-.3-.6.1-.9,1.9-1.3,2.3-3.2,2.4-5.5,0-.3-.2-.5-.5-.5h-.5c-.3,0-.5-.2-.5-.5v-7c0-.3.2-.5.5-.5h8.3c.3,0,.5.2.5.5v7c0,.3-.2.5-.5.5h-1c-.3,0-.5.2-.5.5v4.9c0,.7,0,.7.2.7h.3ZM70,151.6v2.7c0,.2.1.3.3.3h3.5c.2,0,.3-.1.3-.3v-2.7c0-.2-.1-.3-.3-.3h-3.5c-.2,0-.3.1-.3.3Z"/>
    <path class="st23" d="M97.2,161.3v.8c0,.3.2.5.5.5h5.6c.3,0,.5.2.5.5v1.4c0,.3-.2.5-.5.5h-14.8c-.3,0-.5-.2-.5-.5v-1.4c0-.3.2-.5.5-.5h5.4c.3,0,.5-.2.5-.5v-.8c0-.3-.2-.5-.5-.5h-3.9c-.3,0-.5-.2-.5-.5v-1.3c0-.3.2-.5.5-.5h3.9c.3,0,.5-.2.5-.5v-.8c0-.3-.2-.5-.5-.5h-2.9c-.3,0-.5-.2-.5-.5v-.3c0-.4-.3-.6-.6-.4-.3.2-.6.4-.9.5-.3.1-.5,0-.7-.2-.3-.4-.6-.9-1-1.3-.3-.3-.2-.6.1-.8,2.8-1.5,5.4-3.9,6.7-6,0-.1.3-.2.4-.2h2.3c.2,0,.3,0,.4.2,1.8,2.6,4.4,4.6,7,5.8.4.2.5.5.2.8-.4.5-.7,1-1,1.5-.2.2-.4.3-.7.2-.3-.2-.6-.3-.9-.5-.4-.2-.6,0-.6.3v.3c0,.3-.2.5-.5.5h-3c-.3,0-.5.2-.5.5v.8c0,.3.2.5.5.5h4c.3,0,.5.2.5.5v1.3c0,.3-.2.5-.5.5h-4c-.3,0-.5.2-.5.5ZM92.6,154.4h6.6c.5,0,.6-.2.2-.5-1.3-1-2.5-2.2-3.3-3.2-.2-.2-.3-.2-.5,0-.8,1.1-1.9,2.2-3.2,3.2-.4.3-.3.5.2.5Z"/>
    <path class="st23" d="M106.9,148.5h14.8c.3,0,.5.2.5.5v15.9c0,.3-.2.5-.5.5h-1.9c-.3,0-.4-.2-.4-.4s-.2-.4-.4-.4h-9.3c-.3,0-.4.2-.4.4s-.2.4-.4.4h-1.8c-.3,0-.5-.2-.5-.5v-15.9c0-.3.2-.5.5-.5ZM109.4,161.9h9.6c.2,0,.3-.1.3-.3v-10.4c0-.2-.1-.3-.3-.3h-9.6c-.2,0-.3.1-.3.3v10.4c0,.2.1.3.3.3ZM118.5,159.1c.3,0,.5.2.5.4v1.2c0,.3-.2.5-.5.5h-8.4c-.3,0-.5-.2-.5-.5v-1.2c0-.3.2-.5.5-.5h2.4c.3,0,.5-.2.5-.5v-.7c0-.3-.2-.5-.5-.5h-1.8c-.3,0-.5-.2-.5-.5v-1.3c0-.3.2-.5.5-.5h1.8c.3,0,.5-.2.5-.5v-.3c0-.3-.2-.5-.5-.5h-2.3c-.3,0-.5-.2-.5-.5v-1.4c0-.3.2-.5.5-.5h7.9c.3,0,.5.2.5.5v1.4c0,.3-.2.5-.5.5h-2.2c-.3,0-.5.2-.5.5v.3c0,.3.2.5.5.5h1.8c.3,0,.5.2.5.5v1.5c0,.2,0,.3-.2.3s-.2,0,0,.2c.2.2.4.5.6.7.2.2,0,.4-.1.5-.2.1-.2.2,0,.2ZM115.5,157.7v1.1c0,.2.1.3.3.3h.3c.3,0,.4-.2.2-.4l-.4-.5c-.1-.2,0-.3,0-.4h.1c.3-.2.3-.3,0-.3h-.4c-.2,0-.3.1-.3.3Z"/>
    <path class="st23" d="M134.5,149.2h5.9c.3,0,.5.2.5.5v1.3c0,.3-.2.5-.5.5h-15.3c-.3,0-.5-.2-.5-.5v-1.3c0-.3.2-.5.5-.5h5.7c.3,0,.5-.2.5-.5v-.5c0-.3.2-.5.5-.5h1.8c.3,0,.5.2.5.5v.5c0,.3.2.5.5.5ZM140.4,157.3v5.4c0,1.1-.2,1.9-1,2.3-.7.3-1.5.4-2.5.4-.3,0-.4-.2-.5-.4l-.2-.6h0c0-.2-.3-.3-.5-.3h-3.8c-.3,0-.4.2-.4.4s-.2.4-.4.4h-1.4c-.3,0-.5-.2-.5-.5v-4.1c0-.3.2-.5.5-.5h6.1c.3,0,.5.2.5.5v2.2c0,.3.2.5.5.5.2,0,.5,0,.6,0h0c.2,0,.3,0,.3-.3v-3.1c0-.3-.2-.5-.5-.5h-8.8c-.3,0-.5.2-.5.5v5.4c0,.3-.2.5-.5.5h-1.7c-.3,0-.5-.2-.5-.5v-7.6c0-.3.2-.5.5-.5h14.1c.3,0,.5.2.5.5ZM137.9,152.5v3.3c0,.3-.2.5-.5.5h-9.3c-.3,0-.5-.2-.5-.5v-3.3c0-.3.2-.5.5-.5h9.3c.3,0,.5.2.5.5ZM135.2,154.2v-.2c0-.2-.1-.3-.3-.3h-4.4c-.2,0-.3.1-.3.3v.2c0,.2.1.3.3.3h4.4c.2,0,.3-.1.3-.3ZM134,161.9v-.2c0-.2-.1-.3-.3-.3h-1.9c-.2,0-.3.1-.3.3v.2c0,.2.1.3.3.3h1.9c.2,0,.3-.1.3-.3Z"/>
    <path class="st23" d="M159.2,158.2h-2.6c-.3,0-.4.2-.4.4s.2.4.4.4h2.1c.3,0,.5.2.5.5v1.3c0,.3-.2.5-.5.5h-2c-.3,0-.5.2-.5.5v1c0,1.2-.3,1.9-1.1,2.3-.8.3-1.7.4-2.8.4-.3,0-.4-.2-.5-.4h0c0-.5-.3-.9-.5-1.3-.2-.5,0-.8.5-.8.6,0,1.1,0,1.3,0,.3,0,.4,0,.4-.3v-.9c0-.3-.2-.5-.5-.5h-2.9c-.8,0-.9.3-.3.9s.4.4.6.6c.2.2.1.5,0,.6l-1.3,1c-.3.2-.5.2-.7-.1-.5-.6-1.2-1.3-1.8-1.9-.3-.2-.3-.5,0-.8.3-.2.2-.3-.1-.3h-2.2c-.3,0-.5-.2-.5-.5v-1.3c0-.3.2-.5.5-.5h9c.2,0,.4-.2.4-.4s-.2-.4-.4-.4h-9.8c-.3,0-.5-.2-.5-.5v-1.3c0-.3.2-.5.5-.5h6.2c.2,0,.3-.1.3-.4s-.1-.3-.3-.3h-4.3c-.3,0-.5-.2-.5-.5v-1.2c0-.3.2-.5.5-.5h1.1c.4,0,.6-.3.4-.6l-.2-.4c-.2-.4-.5-.4-.8,0-.3.3-.6.7-.9,1-.2.2-.4.2-.7,0-.3-.3-.8-.6-1.2-.9-.4-.2-.4-.5,0-.9.9-.9,1.7-2,2.3-3.2.1-.2.3-.3.6-.3l1.8.5c.2,0,.3.2.2.4-.1.2,0,.3.2.3h2.8c.3,0,.5.2.5.5v.3c0,.5.2.6.5.2.4-.6.8-1.3,1.1-2,0-.2.3-.4.6-.3l1.7.4c.2,0,.3.3.2.5s0,.4.3.4h3.7c.3,0,.5.2.5.5v1.2c0,.3-.2.5-.5.5h-1.6c-.3,0-.4.2-.2.4.2.3,0,.5-.2.6l-1.4.6c-.3.1-.5,0-.7-.3-.2-.4-.4-.8-.7-1.2,0-.1-.2-.2-.3-.2s-.3,0-.3.2c-.3.5-.7.9-1,1.3,0,0,0,.2,0,.2s0,.1.1.1h4.8c.3,0,.5.2.5.5v1.2c0,.3-.2.5-.5.5h-4.6c-.2,0-.4.1-.4.3s.1.4.4.4h6.3c.3,0,.5.2.5.5v1.3c0,.3-.2.5-.5.5ZM148.1,153h1.4c.2,0,.3-.1.3-.3h0c0-.3.1-.4.3-.4h.6c.5,0,.5-.2.1-.4-.2,0-.3-.2-.5-.3-.1,0-.1-.2,0-.3h0c0,0,0-.2,0-.2h-1.1c-.3,0-.4.2-.3.4,0,0,0,.1,0,.2,0,.2,0,.3-.1.4l-.9.3c-.7.3-.6.5,0,.5Z"/>
    <path class="st23" d="M178,158.7v1.5c0,.3-.2.5-.5.5h-6c-.3,0-.5.2-.5.5v1.4c0,1.3-.3,2-1.3,2.4-.9.3-2,.4-3.3.4s-.4-.2-.5-.4c-.1-.4-.3-1-.6-1.4-.2-.5,0-.8.5-.8.9,0,1.7,0,2,0s.5,0,.5-.3v-1.3c0-.3-.2-.5-.5-.5h-6c-.3,0-.5-.2-.5-.5v-1.5c0-.3.2-.5.5-.5h6c.3,0,.5-.2.5-.5h0c0-.4.2-.6.5-.6h.5s0,0,0,0h.2c0,0,0,0,0,0l.3-.2c.3-.2.2-.4-.1-.4h-4.5c-.3,0-.5-.2-.5-.5v-1.3c0-.3.2-.5.5-.5h7.5s.3,0,.3,0c.1,0,.3,0,.4,0l1.1.8c.3.2.3.5,0,.7-.5.5-1.1,1.1-1.7,1.6-.7.6-.6,1,.3,1h4.3c.3,0,.5.2.5.5ZM164,153.5v1.4c0,.3-.2.5-.5.5h-1.5c-.3,0-.5-.2-.5-.5v-3.8c0-.3.2-.5.5-.5h1c.5,0,.7-.3.4-.7,0-.2-.2-.3-.3-.5-.2-.3-.1-.6.2-.8l1.4-.6c.2,0,.4,0,.6.1.5.5.9,1.2,1.2,1.7.1.2,0,.4-.2.5-.2.1-.2.2,0,.2h1.3c.4,0,.6-.3.4-.6l-.5-.9c-.2-.3,0-.6.3-.7l1.5-.5c.2,0,.4,0,.6.2.4.6.8,1.3,1,1.8,0,.3,0,.5-.3.6-.3.1-.3.2,0,.2h1.7c.2,0,.3,0,.4-.2.4-.7.8-1.4,1.1-2.1.1-.2.3-.3.6-.3l1.8.5c.4.1.5.4.3.8l-.4.5c-.3.5-.2.8.4.8h.7c.3,0,.5.2.5.5v3.8c0,.3-.2.5-.5.5h-1.7c-.3,0-.5-.2-.5-.5v-1.4c0-.3-.2-.5-.5-.5h-10.2c-.3,0-.5.2-.5.5Z"/>
    <path class="st23" d="M186.3,157.8c.1.2,0,.3,0,.5l-.7,1c-.3.4-.6.4-.9-.1h0c-.3-.7-.4-.6-.4,0v5.6c0,.3-.2.5-.5.5h-1.5c-.3,0-.5-.2-.5-.5v-3.9c0-1-.2-1-.6-.1l-.3.6c-.3.5-.6.4-.9,0-.2-.4-.4-.9-.7-1.3,0-.2,0-.4,0-.5.9-1.3,1.7-3.1,2.1-4.9,0-.4,0-.6-.5-.6h-.9c-.3,0-.5-.2-.5-.5v-1.5c0-.3.2-.5.5-.5h1.2c.3,0,.5-.2.5-.5v-2.8c0-.3.2-.5.5-.5h1.5c.3,0,.5.2.5.5v2.8c0,.3.2.5.5.5h.9c.3,0,.5.2.5.5v1.5c0,.3-.2.5-.5.5h-1.1c-.2,0-.3.1-.3.3v.2c0,.1,0,.2,0,.3.5.7,1.5,2.3,2,3h0ZM196.7,156.6l-1.8,1c0,0-.2,0-.2,0s0,0-.1,0h0c-.3,1-.8,1.8-1.3,2.7-.1.2,0,.5,0,.6.9.7,1.8,1.3,2.9,1.8.5.2.5.5.2.9-.4.4-.8,1-1.1,1.4-.1.2-.4.3-.6.2-1.2-.6-2.3-1.3-3.2-2.2-.2-.2-.5-.2-.7,0-1,.9-2.3,1.6-3.7,2.2-.3,0-.5,0-.6-.2-.2-.4-.5-.8-.7-1.2s-.2-.7.3-.8c1.3-.5,2.5-1.2,3.4-2,.2-.2.2-.4,0-.6-.5-.8-1-1.7-1.3-2.7,0-.2-.2-.2-.4,0-.2.2-.4.1-.5,0-.3-.3-.7-.7-1.1-1.1-.3-.2-.3-.5,0-.8.7-.6,1.3-1.5,1.8-2.3.2-.4,0-.7-.4-.7h-.7c-.3,0-.5-.2-.5-.5v-1.5c0-.3.2-.5.5-.5h2.8c.3,0,.5-.2.5-.5v-1.5c0-.3.2-.5.5-.5h1.7c.3,0,.5.2.5.5v1.5c0,.3.2.5.5.5h2.9c.3,0,.5.2.5.5v1.5c0,.3-.2.5-.5.5h-.7c-.7,0-.8.3-.4.8.7.8,1.3,1.7,1.7,2.5.1.2,0,.5-.2.6ZM189.5,156.4h.4c.2-.2.3,0,.4,0,.3.6.5,1.1.8,1.7.1.3.3.3.5,0,.3-.6.5-1.2.6-1.8,0-.2.2-.3.3-.2l.9.2c.4,0,.5-.1.3-.4-.4-.6-.9-1.2-1.3-1.8-.1-.2-.1-.3,0-.4l.6-.3c.6-.3.5-.5-.1-.5h-3.2c-.8,0-.8.2,0,.5l.8.4c.2,0,.2.2.1.4-.4.7-.8,1.4-1.3,2-.3.3-.2.4.2.3Z"/>
    <path class="st23" d="M202.3,151.2c0-.3.3-.5.6-.4l2.2.5c.3,0,.4.3.4.6-.2.6-.3,1.3-.4,1.6-.3,1.4-.9,3.8-1.5,5.4-.6,1.7-1.6,3.7-2.5,5.1-.1.2-.3.3-.6.2l-2.2-.9c-.3-.2-.4-.4-.2-.8,1-1.4,2-3.2,2.5-4.7.8-2,1.4-4.3,1.7-6.6ZM207.3,151.8c-.2-.3,0-.6.3-.7l2-.7c.2,0,.5,0,.6.3.8,1.6,2,4.3,2.5,5.8.6,1.5,1.5,4.2,2,6.1,0,.3,0,.5-.3.6l-2.4.8c-.3.1-.5,0-.6-.3-.5-2.2-1-4.2-1.7-6.1-.6-1.7-1.6-4.2-2.4-5.7ZM212.1,149c.3.5.7,1.2,1,1.7.1.3,0,.5-.3.7l-.9.4c-.3,0-.5,0-.6-.2-.3-.5-.6-1.1-.9-1.7-.2-.3,0-.6.2-.7l.8-.3c.2,0,.4,0,.6.2ZM214.4,148.1c.3.5.7,1.2,1,1.7.2.3,0,.5-.2.7l-.8.3c-.3,0-.5,0-.6-.2-.3-.5-.6-1.1-.9-1.6-.2-.3-.1-.6.2-.7l.8-.3c.2,0,.5,0,.6.2Z"/>
    <path class="st23" d="M221,164.4l-1.6-1.4c-.2-.1-.2-.4-.1-.6.1-.4.1-.7.1-1v-9.7c0-.6,0-1.2-.1-1.7,0-.4.1-.6.5-.6h2.3c.3,0,.5.2.5.5,0,.6-.1,1.1-.1,1.8v8.4c0,.4.3.6.6.4,2.5-.9,5.8-2.9,8.1-5.3.3-.3.6-.3.8,0l1,1.7c.1.2,0,.4,0,.6-2.6,2.9-6.4,5-10.4,6.4-.2,0-.6.2-1,.4-.2.1-.4,0-.6,0Z"/>
    <path class="st23" d="M235.8,157.7v-2.5c0-.3.2-.5.5-.5.8,0,1.9,0,2.7,0h9.8c.6,0,1.2,0,1.7,0,.3,0,.5.2.5.5v2.5c0,.3-.2.5-.5.5-.5,0-1.2,0-1.7,0h-9.8c-.8,0-1.9,0-2.7,0-.3,0-.5-.2-.5-.5Z"/>
    <path class="st23" d="M257.1,156.3l1.6.8c.3.1.3.4.2.7-.8,1.4-2.1,3.2-3,4.3-.2.2-.4.2-.6,0l-1.6-1.1c-.3-.2-.3-.5,0-.8,1-1.1,2-2.5,2.7-3.8.2-.3.4-.3.7-.2ZM264,154.7c-.3,0-.5.2-.5.5v7.7c0,1.1-.7,1.9-2.1,1.9s-1.9,0-2.8-.1c-.2,0-.4-.2-.4-.4l-.2-1.7c0-.4.2-.6.6-.5.5,0,1,0,1.4,0s.6-.2.6-.6c0-.4,0-4.5,0-6.2s-.2-.5-.5-.5h-3.9c-.4,0-.9,0-1.4,0-.3,0-.5-.2-.5-.5v-1.8c0-.3.2-.5.5-.5.4,0,1,0,1.4,0h3.9c.3,0,.5-.2.5-.5v-.8c0-.3,0-.8,0-1.2,0-.4.1-.6.5-.6h2.1c.4,0,.6.2.5.6,0,.4,0,.9,0,1.2v.8c0,.3.2.5.5.5h3.5c.4,0,1,0,1.5,0,.3,0,.5.2.5.5v1.8c0,.3-.2.5-.5.5-.5,0-1,0-1.5,0h-3.5ZM265.3,157l1.6-.9c.2-.1.5,0,.6.1.8,1.1,1.9,2.9,2.6,4.1.2.3,0,.5-.2.7l-1.7,1c-.3.2-.5,0-.7-.2-.7-1.4-1.7-3-2.4-4.1-.2-.3-.1-.5.2-.7ZM267.8,151l-.9.4c-.3,0-.5,0-.6-.2-.2-.5-.5-1-.8-1.5-.2-.3,0-.6.2-.7l.8-.3c.2,0,.5,0,.6.2.3.5.7,1.1.9,1.6.2.3,0,.5-.2.7ZM270.4,150.5l-.8.4c-.3,0-.5,0-.6-.2-.2-.5-.5-1-.8-1.5-.2-.3,0-.6.2-.7l.8-.3c.2,0,.5,0,.6.2.3.5.7,1.1.9,1.6.1.3,0,.5-.3.7Z"/>
    <path class="st23" d="M272.7,157.7v-2.5c0-.3.2-.5.5-.5.8,0,1.9,0,2.7,0h9.8c.6,0,1.2,0,1.7,0,.3,0,.5.2.5.5v2.5c0,.3-.2.5-.5.5-.5,0-1.2,0-1.7,0h-9.8c-.8,0-1.9,0-2.7,0-.3,0-.5-.2-.5-.5Z"/>
    <path class="st23" d="M292.4,164.4l-1.8-1.3c-.3-.3-.3-.6,0-.8,1.3-1.1,2-2.5,2.4-3.8.5-1.5.5-4.7.5-7s0-.9,0-1.3c0-.4.1-.6.5-.6h2.1c.3,0,.5.2.5.6,0,.3,0,.8,0,1.3,0,2.3,0,5.9-.5,7.8-.5,2-1.6,3.7-3,5.1-.2.2-.4.2-.6,0ZM300.2,164.5l-1.4-1.1c-.1-.1-.2-.3-.2-.5h0c0-.4.1-.8.1-1.3v-10.4c0-.4,0-.8,0-1.1,0-.3.1-.6.5-.6h2.2c.3,0,.5.2.5.6,0,.3,0,.7,0,1.2v8.2c0,.4.3.6.6.4,1-.6,2.1-1.5,3-2.7.3-.3.6-.3.8,0l1.1,1.6c.1.2.1.4,0,.6-1.5,1.8-4.1,3.7-6,4.7-.3.1-.4.3-.6.4-.2.1-.4.1-.6,0Z"/>
    <path class="st23" d="M324.9,162h-.3c-.8.4-.7.5,0,.5.2,0,.5,0,.7,0,.5,0,.7.2.5.7-.2.4-.3.9-.4,1.3,0,.2-.2.4-.5.4-2.5.1-6.4.2-8.7,0-1.9,0-3.2-.5-4.3-1.6-.2-.3-.5-.3-.8,0-.4.4-.8.8-1.3,1.3-.3.3-.6.2-.8-.1l-.8-1.6c-.1-.2,0-.5.2-.6.5-.3,1-.7,1.5-1.1,0,0,.2-.2.2-.4v-3c0-.3-.2-.5-.5-.5h-.8c-.3,0-.5-.2-.5-.5v-1.5c0-.3.2-.5.5-.5h3.2c.3,0,.5.2.5.5v5.5c0,0,0,0,0,0,.3.5.7.8,1.2,1.1.6.3.7,0,.2-.4-.5-.4-.4-.7.1-.9.2,0,.4-.1.6-.2.9-.3.8-.6-.1-.6h-1c-.3,0-.5-.2-.5-.5v-1c0-.3.2-.5.5-.5h1.9c.3,0,.5-.2.5-.5s-.2-.5-.5-.5h-1.4c-.3,0-.5-.2-.5-.5v-.9c0-.3.2-.5.5-.5h1.4c.2,0,.4-.2.4-.4s.2-.4.4-.4h1.7c.2,0,.4.2.4.4s.2.4.4.4h.9c.2,0,.4-.2.4-.4s.2-.4.4-.4h1.7c.2,0,.4.2.4.4s.2.4.4.4h1.5c.3,0,.5.2.5.5v.9c0,.3-.2.5-.5.5h-1.4c-.3,0-.5.2-.5.5s.2.5.5.5h2c.3,0,.5.2.5.5v1c0,.3-.2.5-.5.5h-1.1c-1,0-1,.3-.2.7.3.2.7.3,1,.5.5.3.5.6,0,.8ZM312.6,151.5l-1.4,1c-.3.2-.6,0-.7-.2-.4-.7-1-1.5-1.7-2.2-.2-.3-.2-.6.1-.8l1.3-.8c.2-.1.4,0,.6,0,.7.7,1.5,1.6,2,2.3.1.2,0,.5-.2.6ZM316.7,150.2c0-.2,0-.3-.3-.3h-2.5c-.3,0-.5-.2-.5-.5v-.7c0-.3.2-.5.5-.5h4.5c.3,0,.5.2.5.5v2.9c0,.3-.2.5-.5.5s-.3,0,0,.2h0c.3,0,.5.2.8.3.3,0,.4.3.4.6-.3.9-.9,1.2-1.9,1.2h-1.7c-1.8,0-2.3-.5-2.3-2.2v-1.2c0-.3.2-.5.5-.5h2.3c.2,0,.3,0,.3-.3ZM318.4,160.3h.3c.3.2.3.4,0,.6-.8.6-1.8,1.2-2.8,1.6-.2,0-.2.2,0,.2h.3c1.4,0,3.6,0,5.8,0,.5,0,.6-.2.2-.5-.5-.4-1.2-.8-1.8-1.1-.3-.2-.3-.4,0-.5h.2c.4-.3.4-.5,0-.5h-2.1c-.5,0-.5,0,0,.3ZM317.4,152.6c.2,0,.3,0,.4-.2,0-.2,0-.3-.3-.3h-1.4c-.2,0-.3.2-.3.3,0,.2.2.2.4.2h1.1ZM318.6,157.4v.4c0,.2.1.3.3.3h1.1c.2,0,.3-.1.3-.3v-.4c0-.2-.1-.3-.3-.3h-1.1c-.2,0-.3.1-.3.3ZM322.8,150.2c0-.2,0-.3-.3-.3h-2.7c-.3,0-.5-.2-.5-.5v-.7c0-.3.2-.5.5-.5h4.7c.3,0,.5.2.5.5v2.9c0,.3-.2.5-.5.5s-.3.1,0,.2c.3,0,.5.2.8.3.3,0,.4.3.3.6-.3.9-.9,1.2-1.9,1.2h-1.7c-1.8,0-2.3-.5-2.3-2.2v-1.2c0-.3.2-.5.5-.5h2.3c.2,0,.3,0,.3-.3ZM323.5,152.6c.2,0,.3,0,.4-.2,0-.2,0-.3-.3-.3h-1.4c-.2,0-.3.2-.3.3,0,.2.2.2.5.2h1.1Z"/>
    <path class="st23" d="M341.6,154.5h.2s0,0,0,0l1.1.3c.3,0,.4.3.3.5-.3,2.3-1,4.2-1.8,5.7-.1.2,0,.5.2.6.7.5,1.5.8,2.3,1.1.5.2.6.5.3.9-.3.4-.7.9-.9,1.3-.1.2-.3.3-.6.2-1-.4-2-.9-2.8-1.5-.2-.2-.4-.2-.6,0-.6.5-1.3,1-2,1.4-.3.1-.5,0-.7-.2-.2-.4-.5-.8-.8-1.1-.3-.3-.2-.7.2-.9.5-.3,1-.6,1.4-1,.2-.2.2-.4,0-.6h0c0-.2-.2-.3-.2-.4-.3-.4-.6-.4-.8,0-.6,1.5-1.5,2.8-2.7,4-.2.2-.5.2-.7,0-.2-.3-.5-.6-.7-.8-.3-.3-.6-.2-.9.2-.1.2-.3.4-.6.6-.6.4-1.4.4-2.6.5-.3,0-.5-.2-.5-.4,0-.4-.2-.8-.4-1.3-.2-.4,0-.7.5-.7h.8c.3,0,.3,0,.3-.3v-2.6c0-.4-.3-.6-.6-.5l-.6.2c-.3,0-.5,0-.6-.4l-.4-1.7c0-.3,0-.5.4-.6l1.5-.3c.2,0,.4-.2.4-.5v-2.1c0-.3-.2-.5-.5-.5h-1c-.3,0-.5-.2-.5-.5v-1.5c0-.3.2-.5.5-.5h1c.3,0,.5-.2.5-.5v-2.4c0-.3.2-.5.5-.5h1.7c.3,0,.5.2.5.5v2.4c0,.3.2.5.5.5h.5c.3,0,.5.2.5.5v1.5c0,.3-.2.5-.5.5h-.5c-.3,0-.5.2-.5.5v1.2c0,.4.2.6.6.5h.5c.3-.2.5,0,.6.3l.2,1.5c0,.3,0,.5-.3.5-.4.1-.8.3-1.2.4-.2,0-.3.2-.3.5v4c0,.2,0,.2.2,0,2.5-2.3,3.2-5.6,3.4-9.5,0-.3-.2-.5-.5-.5h-1c-.3,0-.5-.2-.5-.5v-1.5c0-.3.2-.5.5-.5h1c.3,0,.5-.2.5-.5,0-.6,0-1.1,0-1.7s.2-.5.5-.5h1.6c.3,0,.5.2.5.5,0,.6,0,1.1,0,1.7s.2.5.5.5h5.3c.3,0,.5.2.5.5v1.5c0,.3-.2.5-.5.5h-5.4c-.3,0-.5.2-.5.4,0,.2,0,.4,0,.6h0c0,.3.2.6.5.6h3.2c0,0,0,0,0,0ZM340,156.9h-1.8c-.3,0-.4.2-.3.4.3.7.7,1.3,1.1,2,.1.2.3.2.5,0,.3-.6.6-1.3.8-1.9,0-.2,0-.4-.3-.4Z"/>
    <path class="st23" d="M361.9,155.4h-5.1c-.4,0-.6.3-.4.6,1.1,2.8,3,5.1,5.7,6.4.4.2.5.5.2.9-.4.5-.9,1.1-1.2,1.6-.2.2-.4.3-.6.2-2.6-1.3-4.4-3.3-5.8-5.9-.3-.6-.7-.6-1,0-1.1,2.3-2.9,4.4-5.8,5.9-.3.1-.5,0-.7-.2-.3-.4-.7-.9-1.1-1.4-.4-.3-.3-.7.1-.9,3.2-1.7,4.8-4.1,5.6-6.6,0-.4,0-.6-.5-.6h-5c-.3,0-.5-.2-.5-.5v-1.8c0-.3.2-.5.5-.5h5.6c.3,0,.5-.2.5-.4,0-1.3,0-2.6,0-3.8,0-.3.2-.5.5-.5h2c.3,0,.5.2.5.5,0,1.2,0,2.5-.1,3.8,0,.3.2.5.5.5h6.1c.3,0,.5.2.5.5v1.8c0,.3-.2.5-.5.5Z"/>
    <path class="st23" d="M368.3,155.2v-.2c0-.4-.2-.5-.6-.3-.7.4-1.3.8-2,1.2-.3.1-.5,0-.6-.2-.3-.4-.6-.9-.9-1.3-.3-.3-.2-.6.2-.8,2.8-1.3,5.3-3.6,6.6-5.5t0,0c0,0,.2-.2.4-.2h2.3c.2,0,.3,0,.4.2,1.8,2.4,4.2,4.1,6.8,5.1.4.2.5.5.2.8-.4.5-.7,1-1,1.5-.1.2-.4.3-.6.2-.6-.3-1.3-.7-1.9-1.1-.4-.2-.6,0-.6.3v.3c0,.3-.2.5-.5.5h-7.6c-.3,0-.5-.2-.5-.5ZM379.8,159.3h-2.1c-.8,0-.9.3-.3.9,1,1,2.1,2.2,2.7,3.2.2.2,0,.5-.2.7l-1.6,1c-.3.2-.5,0-.7-.2l-.3-.4c0-.1-.3-.2-.4-.2-4,.2-8.1.4-11.1.6-.3,0-.5-.2-.5-.4l-.2-1.6c0-.3.1-.5.5-.6h2c.2,0,.3-.2.4-.4.3-.6.5-1.3.8-1.9.1-.4,0-.6-.4-.6h-2.8c-.3,0-.5-.2-.5-.5v-1.5c0-.3.2-.5.5-.5h14.4c.3,0,.5.2.5.5v1.5c0,.3-.2.5-.5.5ZM370.6,153.3h4.1c.5,0,.6-.2.2-.5-.8-.7-1.5-1.4-2.1-2-.1-.2-.3-.2-.5,0-.5.7-1.2,1.4-2,2-.3.3-.3.5.2.5ZM374.7,159.3h-2.3c0,0-.2,0-.3.2-.4.7-.7,1.4-1.1,2.1-.2.3,0,.4.3.4h3.4c.4-.1.4-.3.2-.6l-.7-.8c-.2-.2-.2-.3,0-.5l.6-.3c.6-.3.5-.5-.1-.5Z"/>
    <path class="st23" d="M390,159.2l-.9,1.2c-.3.3-.6.3-.8,0l-.2-.3c-.4-.5-.7-.4-.7.2v4.6c0,.3-.2.5-.5.5h-1.7c-.3,0-.5-.2-.5-.5v-4.1c0-.6-.3-.7-.7-.3l-.2.2c-.3.3-.6.2-.8-.2-.2-.5-.5-1-.8-1.4-.2-.3-.1-.6.1-.8,1.3-1,2.6-2.5,3.5-4.1.3-.4,0-.7-.4-.7h-2.6c-.3,0-.5-.2-.5-.5v-1.4c0-.3.2-.5.5-.5h1.3c.3,0,.5-.2.5-.5v-2.2c0-.3.2-.5.5-.5h1.7c.3,0,.5.2.5.5v2.5c0,.1,0,.2.2.2h.2s.2,0,.2,0c.1,0,.3,0,.4,0l1,.7c.2.1.3.3.2.6-.5,1.3-1.2,2.6-1.9,3.9,0,.1,0,.3,0,.3h0c.1.1.2.1.3,0,.3-.4.6-.9.9-1.4.2-.3.5-.4.8-.1l.8.7c.3.2.3.5,0,.8-.3.3-.7.7-1,1-.2.2-.2.5,0,.7.2.2.3.3.5.4.2.2.2.4,0,.6ZM389.9,149.1h9.1c.3,0,.5.2.5.5s0,.7,0,.9c-.2,9.2-.3,12.5-1,13.5-.5.9-1,1.1-1.8,1.3-.6.1-1.4.1-2.3.1-.3,0-.4-.2-.5-.4,0-.5-.2-1-.4-1.5-.2-.5,0-.8.5-.8.5,0,.9,0,1.2,0s.5,0,.7-.4c.5-.6.7-3.4.8-10.2,0-.3-.2-.5-.5-.5h-1.1c-.3,0-.5.2-.5.5-.1,5-.7,9.8-4.3,13-.3.2-.5.2-.7-.1-.3-.4-.7-.9-1.1-1.2-.3-.3-.3-.6,0-.8,3-2.6,3.4-6.5,3.5-10.7,0-.3-.2-.5-.5-.5h-1.4c-.3,0-.5-.2-.5-.5v-1.6c0-.3.2-.5.5-.5Z"/>
    <path class="st23" d="M414.7,157.4h1.8c.3,0,.5.2.5.5v7c0,.3-.2.5-.5.5h-1.8c-.3,0-.5-.2-.5-.5s-.2-.5-.5-.5h-8.6c-.3,0-.5.2-.5.5s-.2.5-.5.5h-1.8c-.3,0-.5-.2-.5-.5v-7c0-.3.2-.5.5-.5h1.8c.3,0,.5.2.5.5v3.3c0,.3.2.5.5.5h2.3c.3,0,.5-.2.5-.5v-4.2c0-.3-.2-.5-.5-.5h-4.3c-.3,0-.5-.2-.5-.5v-6c0-.3.2-.5.5-.5h1.7c.3,0,.5.2.5.5v3.4c0,.3.2.5.5.5h1.6c.3,0,.5-.2.5-.5v-4.9c0-.3.2-.5.5-.5h1.8c.3,0,.5.2.5.5v4.9c0,.3.2.5.5.5h1.7c.3,0,.5-.2.5-.5v-3.4c0-.3.2-.5.5-.5h1.9c.3,0,.5.2.5.5v6c0,.3-.2.5-.5.5h-4.6c-.3,0-.5.2-.5.5v4.2c0,.3.2.5.5.5h2.5c.3,0,.5-.2.5-.5v-3.3c0-.3.2-.5.5-.5Z"/>
    <path class="st23" d="M436.2,157.4h-6.5c-.2,0-.4.1-.4.3-.1.2,0,.3.2.3h6.5c.3,0,.4.2.4.4,0,.2,0,.3,0,.4h0c-.2,3.5-.5,5-1,5.6-.4.4-.8.6-1.3.7-.4,0-.9,0-1.5,0-.3,0-.5-.2-.5-.4,0-.2,0-.4-.1-.6-.1-.5-.5-.5-.8-.1-.3.3-.6.7-.9,1-.2.2-.5.2-.7,0-.3-.3-.6-.5-.9-.7-.4-.3-.4-.6,0-.9,1-.8,1.8-1.9,2.5-3,0-.2,0-.3-.2-.3s-.4,0-.4.2c-.9,1.5-2.4,3-3.8,4-.2.1-.4,0-.6,0-.2-.2-.5-.5-.8-.7-.4-.3-.4-.7,0-1,.9-.6,1.8-1.4,2.5-2.2.1-.2,0-.3-.1-.3h-.1c-.1,0-.3,0-.3.1h0c-.4.5-1,.9-1.5,1.3-.2.1-.4.1-.6,0-.2-.3-.5-.5-.8-.8-.2-.1-.4-.2-.5,0-1.1.6-2.3,1.2-3.4,1.7-.3.2-.6,0-.7-.3l-.6-1.7c0-.3,0-.5.3-.6l1.3-.5c.2,0,.3-.3.3-.4v-4c0-.3-.2-.5-.5-.5h-.7c-.3,0-.5-.2-.5-.5v-1.6c0-.3.2-.5.5-.5h.7c.3,0,.5-.2.5-.5v-2.6c0-.3.2-.5.5-.5h1.5c.3,0,.5.2.5.5v2.6c0,.3.2.5.5.5h.6c.3,0,.5.2.5.5v1.6c0,.3-.2.5-.5.5h-.6c-.3,0-.5.2-.5.5v2.7c0,.4.3.5.7.4.3-.1.6,0,.7.3v.3c.2.4.5.6.9.2l.4-.4c.4-.4.2-.7-.3-.7h-.4c-.3,0-.5-.2-.5-.5v-1.3c0-.3.2-.5.5-.5h10.7c.3,0,.5.2.5.5v1.3c0,.3-.2.5-.5.5ZM435.5,148.7v5.4c0,.3-.2.5-.5.5h-8c-.3,0-.5-.2-.5-.5v-5.4c0-.3.2-.5.5-.5h8c.3,0,.5.2.5.5ZM433,150.3c0-.2-.1-.3-.3-.3h-3.6c-.2,0-.3.1-.3.3s.1.3.3.3h3.6c.2,0,.3-.1.3-.3ZM433,152.6c0-.2-.1-.3-.3-.3h-3.6c-.2,0-.3.1-.3.3s.1.3.3.3h3.6c.2,0,.3-.1.3-.3ZM433.6,160.1c0,0-.2,0-.2.1-.3.9-.8,1.8-1.4,2.6-.1.2,0,.4.2.4h.4c.3,0,.4,0,.5-.2.2-.2.4-1,.6-2.8,0,0,0-.1-.1-.1Z"/>
  </g>
  <path class="st21" d="M85.2,444.7s-2.9,11.6-1.9,12.9c1,1.3,11.4.8,12.3,0s-1.3-10.5-3.3-14.4"/>
  <path class="st21" d="M53.4,444.8s-3.8,11.4-2.9,12.7,12.6.9,13.5.2c.9-.7-2.2-9.6-4.1-13.3"/>
  <path class="st16" d="M44.4,295s-19.4,16.4-19.6,22.5c-.2,6.1,13.2,18.1,21.7,26.3,2.1,3.7,5.7,11.2,5.7,11.2l5.4-13.9s-5.7-1.2-7.9-2.6c-2.1-1.4-12.1-19.2-14.4-20.7l18.5-14.8"/>
  <path class="st16" d="M100.4,295s19.4,16.4,19.6,22.5c.2,6.1-13.2,18.1-21.7,26.3-2.1,3.7-5.7,11.2-5.7,11.2l-5.4-13.9s5.7-1.2,7.9-2.6,12.1-19.2,14.4-20.7l-18.5-14.8"/>
  <path class="st16" d="M62.6,270.8s-.9.4-.8,1.6,1.6,5.8,3.3,4"/>
  <path class="st16" d="M81.1,270s.9.3,1,1.5c0,1.2-1.2,5.9-3,4.2"/>
  <path class="st16" d="M64.6,274.7s2.4,7.5,0,11.9c0,0,5.9,3.6,13.6,0,0,0-1.2-6.4.9-11.2"/>
  <path class="st11" d="M78.7,261s-1.3-6.8-10.2-3.8c-8,3.5-8.2,10.3-4.3,18.4,2.1,3.4,1.9,4.6,3.6,5s8.1,0,8.8-.3c1.7-.7,3.2-5.3,4.2-7.7s1.9-5.2,1.3-8.5-3.5-3-3.5-3Z"/>
  <path class="st0" d="M56.6,339.7s-6.6,17.1-6.1,29.7c1.2,32.6-1,78.1-1,78.1,0,0,8.1,1.6,12.9-.1,0,0,2-39.8,4.1-51.1,2-11.3,6.3-30.4,6.3-30.4v-28.4"/>
  <path class="st0" d="M88.9,340.6s6.6,17.1,6.1,29.7c-1.2,32.6,1,78.1,1,78.1,0,0-8.1,1.6-12.9-.1,0,0-2-39.8-4.1-51.1-2-11.3-6.3-30.4-6.3-30.4v-28.4"/>
  <path class="st25" d="M63.7,284.5s-9,1.4-13,3.7c-4,2.2-12.7,12-12.7,12,0,0,3.4,8.1,7.9,10l4.6-2.4s3.3,15,3.7,21.9c.4,6.8-1.5,14.5-1.5,14.5,0,0,18.4,8.5,39.3,0,0,0-2.1-7.5-1.6-15.7.5-8.2,3.2-21.7,3.2-21.7l3.8,2.7s7.2-3.8,9.9-9c0,0-10.9-9.9-14.8-12.1-4-2.2-12.6-3.9-12.6-3.9h-16.4Z"/>
  <path class="st7" d="M305,448.3s-.7,9.7.3,10.1,10.5.5,11.2,0c1.7-1.1-2.6-14.7-2.6-14.7"/>
  <path class="st7" d="M303.8,447.9s.7,10-.3,10.5-10,.4-11.2,0c-1.9-.6,2.6-14.7,2.6-14.7"/>
  <path class="st10" d="M284.3,355l7.8,96.2s5.3,2.1,12.3,0l.9-111.1"/>
  <path class="st10" d="M324.7,353.6l-8.1,97.6c0,0-5.8,2.2-12.2,0l-1-111.1"/>
  <path class="st20" d="M297.1,269s-.9.4-.9,1.7,1.7,6.2,3.5,4.2"/>
  <path class="st20" d="M316.8,268.2s1,.3,1,1.6-1.3,6.3-3.1,4.5"/>
  <path class="st20" d="M299.2,273.3s2.5,8,0,12.6c0,0,6.3,3.8,14.5,0,0,0-1.3-6.8.9-11.9"/>
  <path class="st18" d="M307.1,281.8c-15.8.5-22,4.9-23.4,8.7s3,45.6-1.7,67.1c0,0,20.6,8,44.7,0,0,0-5.2-29.6,2.4-67.1-.7-5.2-12.1-9-22-8.7Z"/>
  <path class="st19" d="M296.2,351.4s3.3,10.6,5.5,12.6c2.1,1.9,6.9-3.6,5.8-7.2s-7.4-9.3-7.4-9.3"/>
  <path class="st20" d="M315.6,351.3s-3.4,10.6-5.6,12.5-6.8-3.7-5.7-7.3c1.1-3.6,7.5-9.2,7.5-9.2"/>
  <path class="st6" d="M283.3,289.4c-2.8,5.3-2.6,30-.3,37.7,2.3,7.8,13,26.6,13,26.6l6.9-4.3-10.1-24.3s1.4-23.5,1.6-31.2c.2-9-8.4-9.6-11.1-4.5Z"/>
  <path class="st6" d="M329.1,289.4c2.8,5.3,2.3,30-.1,37.7-2.4,7.7-13.3,26.4-13.3,26.4l-6.8-4.4,10.3-24.2s-1.2-23.5-1.3-31.2c-.1-9,8.5-9.5,11.1-4.4Z"/>
  <path class="st11" d="M314.3,258.6s-1.4-7.2-10.8-4.1c-8.5,3.7-8.7,11-4.5,19.6,2.3,3.6,2.1,4.9,3.8,5.3s8.6,0,9.4-.3c1.9-.7,3.4-5.7,4.5-8.2s2.1-5.5,1.4-9.1c-.9-4.5-3.7-3.2-3.7-3.2Z"/>
  <path class="st9" d="M304.4,446.9h0c-.2,0-.3-.2-.3-.3l.3-76.4c0-.2.2-.3.3-.3h0c.2,0,.3.2.3.3l-.3,76.4c0,.2-.2.3-.3.3Z"/>
  <path class="st14" d="M193.5,451.4c.5-.2,2.1-1.2,3.7-2.1,1.1.2,2.3.4,3.6.5,5.6.6,6.4,2,5.7,3.4s-17.3,3.1-21.5,2.8c-4.1-.3-4.5-2.3-4.6-4.2,1.9.4,3.8.5,5.8.5,2.5,0,5-.2,7.3-1Z"/>
  <path class="st29" d="M182.2,444.5c0-2.5-2.6-19.6-3.5-26.5-.9-6.9.9-14.8,1.8-18,.8-3.3,2.2-12.8.2-21.1-2-8.2-2.9-13.6-2.9-13.6l18.7,5.1.4,6.2s-2,14-2.5,17.9c-.5,3.9-3.7,11.9-4.7,18.4-1,6.5-.7,29.5.1,32.3.6,2.2,3.6,3.4,7.4,4.1-1.6.9-3.2,1.9-3.7,2.1-2.3.8-4.8,1-7.3,1-1.9,0-3.9,0-5.8-.5,0,0,0,0,0-.1,0-1.9,1.8-4.8,1.8-7.2Z"/>
  <path class="st29" d="M211.2,453.8c-1.5,1.1-3.4,1.2-5.2,1.1-4.2-.2-8.2-1.4-11.9-3.3,1-1.6,2.2-3.5,2.4-6.1.3-4.3,0-20.8,2.5-26.8,2.5-6,5.8-13.6,5.1-16-.7-2.4-11.2-25.7-11.2-25.7l6.1-8.9,9.8,3s8.1,23.8,7.5,31.4c-.6,7.6-2.5,6.8-3.8,13.1-1.3,6.3-10.6,30.3-9.2,32.4.9,1.3,5.7,2.5,9.5,3.6-.3.9-.9,1.6-1.6,2.1Z"/>
  <path class="st17" d="M205.9,454.9c1.8.1,3.8,0,5.2-1.1.7-.5,1.3-1.3,1.6-2.1,2.2.7,4.1,1.3,4.7,1.9,1.6,1.8,1.5,5.4-7.1,5.1-8.6-.3-17.6-1.1-17.6-3.8s.6-2.1,1.2-3.2c3.7,1.9,7.8,3,11.9,3.3Z"/>
  <path class="st29" d="M216.6,340.4s6.6.1,7.9.4c1.3.2,5.9,7.7,4.8,10s-6.5-2.5-6.5-2.5c-3.8-2.6-4-4.6-4-4.6l-2.2-3.3Z"/>
  <path class="st5" d="M176.8,302.5c-6.3,9.6-5.6,23-5.8,23.7"/>
  <path class="st8" d="M177,357.4l-1.2,30.2c4.9,7.6,27.3,12.4,40,0-1.7-8-6.1-21.8-6.1-21.8l-9.6-8-23.1-.4Z"/>
  <path class="st27" d="M161.8,342c.9-2.3,2.1-4.4,3-6.7,1.7-4.6,1.7-10,1.6-14.9,1.7,0,14.6,1.9,14.6,1.9l-.7.4c.4,3.9,1.5,7.8,2.6,11.6,1,3.5,2,7,3.5,10.3.9,2,2,4,2.6,6.2.6,2.2.6,4.6-.6,6.5-1.5,2.3-4.5,3.3-7.3,3.1-2.8-.2-5.3-1.4-7.8-2.6-3-1.4-6-2.9-9.1-4.3-1.3-.6-2.8-1.4-3.4-2.8-.3-.7-.3-1.5-.3-2.2,0-2.2.5-4.4,1.3-6.4Z"/>
  <path class="st29" d="M200.3,296.1c0,0-.2,0-.2,0-.7,0-.9,3.6-1.1,4.2-.6,2.6-1.2,5.1-1.6,7.7,0,0-9.8-17.6-9.7-18.2,0-.5,6.5-12.4,6.5-12.4,1.4-.4,3,.2,4.1,1.2,2.3,2.1,3.2,4.8,6.1,6.3.3.2.7.3.9.6.3.5.1,1.2-.4,1.5-.2,0-.4.1-.6.3-.2.2-.2.6,0,.9.4,1.2,1.2,2.3,1.6,3.5.4,1.2.3,2.8-.7,3.6-.6.5-1.4.5-2.2.6-.9,0-1.7.1-2.6.2Z"/>
  <path class="st1" d="M187.7,304.8c1.4,0,11-.5,11.8,3.6.8,4.2,11.2,58.2,11.2,58.2-11.1,3.1-20.2-3.6-26-3.6s-8.7-.4-8.7-.4c0,0,2.2-10.8,0-22.3-2.2-11.5,2.6-35.2,11.6-35.6Z"/>
  <path class="st1" d="M219.3,340l.7,5.9c-8.5,3-32.1-1.5-32.7-5.5-.6-4,3.3-24.4,3.3-24.4l8.4-8.3s3.4,5.7,2.2,15.3-1.7,12.3-1.7,12.3c3.7,0,19.8,4.7,19.8,4.7Z"/>
  <path class="st13" d="M171.4,304.2c.4-1.9.8-3.8,1.9-5.3,2-2.7,5.7-3.5,7.2-6.5.7-1.5.7-3.2.7-4.9,0-2.3,0-4.6.8-6.7.9-2,2.5-3.4,4.4-4.3,1.8-.9,3.9-1.2,5.9-1.2,1.8,0,4.6.8,4.6.8.7,0,1.1.9,1.2,1.7.2,1.9-.3,4,.4,5.7.4.8.9,1.4,1.2,2.2.3.8.1,1.9-.6,2.2-.3.1-.6,0-.9,0-1.2,0-2.4,0-3.6.2-.2,0-.5,0-.6.3-.2.2-.3.6-.2,1,.3,5.2,4.7,8.9,6.4,13.8,1.4,4.1.6,8.6,1.1,12.9-1.1-2.4-2.4-4.6-3.9-6.8-.6-.8-1.4-1.7-2.3-1.8-.6,0-1.2.3-1.8.6-1.9.8-4,.6-6.1.7-.5,0-.9.1-1.4.3-.4.2-.7.5-1,.8-1.6,1.9-2,4.6-1.9,7.2.1,2.6.7,5.1.6,7.7,0,.5-.1,1.1-.6,1.2-.3,0-.6-.2-.9-.4-1.2-1-2.9-1.2-4.2-.5-1.4.7-2.3,2.2-2.4,3.8-1.6-2.1-1.6-5.1-1.4-7.8s.5-5.5-.5-8c-.7-1.7-2-3.2-2.3-5-.3-1.3,0-2.7.3-4.1Z"/>
  <path class="st13" d="M199.2,287.9c-.5.8-1.4,1.1-2,1.9-.9,1.1-.8,2.9-.3,4.2.5,1.4,1.3,2.6,1.7,4.1.5,1.6.4,3.3.3,4.9,0,0,0,.2,0,.2,0,0-.1.1-.2.1-.9.4-2,.4-2.9,0-.9-.3-1.8-.8-2.6-1.4-2.2-1.6-4.1-3.6-5.7-5.9-.9-1.3-1.7-2.7-2.2-4.2-.5-1.5-.6-3.3,0-4.8.4-1.3,1.3-2.4,2.2-3.3,1.2-1.2,2.7-2.1,4.4-1.9"/>
  <path class="st3" d="M205.5,346.1s-14.5.4-18.2-3.5c-3.7-3.9,1.1-25.5,1.1-25.5"/>
  <path class="st3" d="M203.6,336.2l-4-.9c.8-8.4,1.7-12.8,1.7-12.8"/>
  <polyline class="st28" points="406.8 446.9 408.2 456 409 456.1 409 449.4"/>
  <path class="st24" d="M421.9,349.8s-1.3,35.4-3.7,45.6c-2.4,10.3-2.8,39.3-2.7,43.7.1,4.3,4.7,12.4,6,13,1.3.6,5.6,2.5,5.4,3.7-.2,1.2-9,2.1-10.5,1-1.5-1.2-5.7-6.1-7.7-7.2s-2.7-1.5-2.7-3.8c0-2.3,2-7.1,2-7.1,0,0-4.1-28.8-.7-41.5,1.8-7-3.5-51.9-3.5-51.9"/>
  <path class="st28" d="M407.2,440.4c.5,2.3,7.2,11.5,9.2,12.7,1.4.8,3.7-.3,5-1.1,0,0,0,0,0,0,1.3.6,5.6,2.5,5.4,3.7-.2,1.2-9,2.1-10.5,1-1.5-1.2-5.7-6.1-7.7-7.2s-2.7-1.5-2.7-3.8c0-1.4.7-3.7,1.3-5.3Z"/>
  <polyline class="st28" points="400.4 449.7 401.9 458.8 402.7 459 402.7 452.3"/>
  <path class="st30" d="M415.5,352.6s-1.3,35.4-3.7,45.6c-2.4,10.3-2.8,39.3-2.7,43.7.1,4.3,4.7,12.4,6,13,1.3.6,5.6,2.5,5.4,3.7-.2,1.2-9,2.1-10.5,1-1.5-1.2-5.7-6.1-7.7-7.2-2-1-2.7-1.5-2.7-3.8,0-2.3,2-7.1,2-7.1,0,0-4.1-28.8-.7-41.5,1.8-7-3-47.7-3-47.7"/>
  <path class="st28" d="M400.9,443.3c.5,2.3,7.2,11.5,9.2,12.7,1.4.8,3.7-.3,5-1.1,0,0,0,0,0,0,1.3.6,5.6,2.5,5.4,3.7-.2,1.2-9,2.1-10.5,1-1.5-1.2-5.7-6.1-7.7-7.2-2-1-2.7-1.5-2.7-3.8,0-1.4.7-3.7,1.3-5.3Z"/>
  <path class="st15" d="M441.5,284.8l1.9.2c.2,0,.4-.1.3-.3l-2.7-16c0-.1-.1-.2-.3-.2l-1.9-.2c-.2,0-.4.1-.3.3v.9c.1,0,2.7,15.1,2.7,15.1,0,.1.1.2.3.2Z"/>
  <path class="st30" d="M440.5,305.7s1.1-9.9,1.6-11.8c.4-1.9,3.4-7.4,3.3-8.3s-2-8.1-2.3-8.6-1.4,4.2-2.3,3.9-1-8.1-1.9-8.6-.6,5.4-.9,8.3c-1.2,1.9-2.3,3.5-2.3,4.3s1,4.7,1.1,6.1-2.6,13.9-2.6,13.9"/>
  <path class="st30" d="M402.6,290.6s.7,3.8-1.7,6.6l10.4,3.3s-.5-7.5,1.4-9.5c1.3-.6,2.9,0,3.6-.9s1.2-6.4-2.4-13.4c-1.9-3.9-5.5-4.9-5.5-4.9l-9.6,4.1"/>
  <path class="st30" d="M413.6,277s4.1,4.3,3.9,4.7-2,.9-2,.9"/>
  <path class="st22" d="M400,295.1s8.7,1.7,12.2,3.8c3.6,2.1,16.2,13.6,17.4,13.6s5-12.7,5.9-14.7c0,0,5.4,0,7,3.2,0,0-2.3,21-6.6,24-3.6,2.3-13.1-1.8-14.1-1.4s6.1,42.6,6.5,69.3c0,0-20.7,5.2-40.9,0,0,0,11.4-43.2,12.9-54.4,1.7-11.9-5.2-24.6-5.5-29.5-.4-7.2,5.2-13.9,5.2-13.9Z"/>
  <path class="st28" d="M402.8,291.8s1.7-1,1.1-2.5-2.1-2.5-1.6-5c.5-1.3,1.3-.9,2.6.4s1.7,1.1,1.7,1.1c0,0-.8-2.5-1.2-5.6-.3-2.7.4-5.3.4-6.5-.1-1.8,3.3-.2,4.3-1.2,0,0-3.6-4.2-9.3-1.7-4.9,2.1-5.9,5.6-6.1,8.4-.3,2.7,1.8,9.4,4.1,11.3,1.6,1.4,3.9,1.4,3.9,1.4Z"/>
  <path class="st28" d="M397.3,273.2c-3.6,3.3-5.1,10.2-3.3,16.3s2,5.6-1.3,14.6c-3.2,9,1.5,13.7,4.1,13.7s1.5-10,2-13.4c.4-3.4,7.2-9.8,5.2-14.8"/>
  <path class="st28" d="M405.8,270s6.2-2.5,7,4.6,0,.2,0,.4c0,0-3.7-3.1-8.2-1.2"/>
  <path class="st26" d="M420.6,323.2c.1,0,.2,0,.3-.2,0-.2,0-.3-.1-.4-.5-.2-11.3-5.5-12.9-6-.2,0-.3,0-.4.2s0,.3.2.4c1.6.5,12.7,5.9,12.8,5.9,0,0,0,0,.1,0Z"/>
</svg>