<?xml version="1.0" encoding="utf-8"?>
<!-- Generator: Adobe Illustrator 25.0.0, SVG Export Plug-In . SVG Version: 6.00 Build 0)  -->
<svg version="1.1" id="レイヤー_1" xmlns="http://www.w3.org/2000/svg" xmlns:xlink="http://www.w3.org/1999/xlink" x="0px"
	 y="0px" viewBox="0 0 270 80" style="enable-background:new 0 0 270 80;" xml:space="preserve">
<style type="text/css">
	.st0{fill:#47443F;stroke:#47443F;stroke-width:1.261;stroke-linecap:round;stroke-linejoin:round;stroke-miterlimit:10;}
	.st1{fill:#7FBE26;}
	.st2{fill:#EF8200;}
</style>
<g>
	<g>
		<path class="st0" d="M38.9,60.5c0,0.2-0.1,0.4-0.3,0.4c-1,0.3-2.1,0.4-3.4,0.4c-1.8,0-2.9-0.3-3.5-0.8c-0.3-0.3-0.5-0.7-0.5-1.1
			c0-0.2,0-0.4,0.1-0.7c0.1-0.2,0.2-0.3,0.4-0.3c0.1,0,0.2,0,0.3,0.1c0.1,0.1,0.1,0.2,0.1,0.3c0,0,0,0.1,0,0.2c0,0.1,0,0.2,0,0.3
			c0,0.2,0.1,0.3,0.2,0.5c0.4,0.4,1.4,0.6,2.9,0.6c1.1,0,2.1-0.1,3.1-0.4c0.1,0,0.1,0,0.2,0C38.7,60.1,38.9,60.2,38.9,60.5z
			 M37.5,54.2c0,0-0.1,0-0.1,0c-0.9-0.2-2-0.4-3.4-0.4c-0.7,0-1.3,0-1.9,0.1c-0.1,0-0.2,0-0.3-0.1c-0.1-0.1-0.2-0.2-0.2-0.3
			c0-0.1,0-0.3,0.1-0.4C31.8,53,31.9,53,32,53c0.6-0.1,1.3-0.1,2-0.1c1.4,0,2.6,0.1,3.6,0.4c0.2,0.1,0.4,0.2,0.4,0.5
			c0,0.1,0,0.2-0.1,0.3C37.7,54.1,37.6,54.2,37.5,54.2z"/>
		<path class="st0" d="M50.1,60.5c0,0.2-0.1,0.4-0.3,0.4c-1,0.3-2.1,0.4-3.4,0.4c-1.8,0-2.9-0.3-3.5-0.8c-0.3-0.3-0.5-0.7-0.5-1.1
			c0-0.2,0-0.4,0.1-0.7c0.1-0.2,0.2-0.3,0.4-0.3c0.1,0,0.2,0,0.3,0.1c0.1,0.1,0.1,0.2,0.1,0.3c0,0,0,0.1,0,0.2c0,0.1,0,0.2,0,0.3
			c0,0.2,0.1,0.3,0.2,0.5c0.4,0.4,1.4,0.6,2.9,0.6c1.1,0,2.1-0.1,3.1-0.4c0.1,0,0.1,0,0.2,0C50,60.1,50.1,60.2,50.1,60.5z
			 M48.7,54.2c0,0-0.1,0-0.1,0c-0.9-0.2-2-0.4-3.4-0.4c-0.7,0-1.3,0-1.9,0.1c-0.1,0-0.2,0-0.3-0.1c-0.1-0.1-0.2-0.2-0.2-0.3
			c0-0.1,0-0.3,0.1-0.4C43,53,43.2,53,43.3,53c0.6-0.1,1.3-0.1,2-0.1c1.4,0,2.6,0.1,3.6,0.4c0.2,0.1,0.4,0.2,0.4,0.5
			c0,0.1,0,0.2-0.1,0.3C49,54.1,48.9,54.2,48.7,54.2z"/>
		<path class="st0" d="M55.3,53.1c-0.4,2.4-0.6,4.1-0.6,5.2c0,1.2,0.2,2.1,0.5,2.6c0,0.1,0.1,0.1,0.1,0.2c0,0.1,0,0.2-0.1,0.3
			c-0.1,0.1-0.2,0.1-0.3,0.1c-0.2,0-0.3-0.1-0.4-0.2c-0.4-0.7-0.6-1.7-0.6-3.1c0-1.1,0.2-2.9,0.6-5.3c0-0.1,0.1-0.2,0.2-0.3
			c0.1-0.1,0.2-0.1,0.4-0.1c0.1,0,0.2,0.1,0.3,0.2C55.3,52.8,55.3,52.9,55.3,53.1z M62.9,60.3c0,0.3-0.1,0.4-0.4,0.4
			c-0.9,0.2-1.7,0.2-2.5,0.2c-0.7,0-1.2-0.1-1.7-0.2c-0.8-0.3-1.2-0.7-1.2-1.4c0-0.2,0-0.4,0.1-0.6c0.1-0.2,0.2-0.3,0.4-0.3
			c0.1,0,0.2,0,0.3,0.1c0.1,0.1,0.1,0.2,0.1,0.3c0,0.3,0,0.4,0,0.4c0,0.2,0.1,0.4,0.3,0.5c0.3,0.2,0.9,0.3,1.7,0.3
			c0.7,0,1.4-0.1,2.3-0.2c0.1,0,0.3,0,0.4,0.1C62.8,60.1,62.9,60.2,62.9,60.3z M62.3,54.1c0,0.3-0.2,0.5-0.5,0.5c-0.1,0-0.4,0-0.8,0
			c-0.3,0-0.6,0-0.8,0c-0.9,0-1.7,0-2.4,0.1c-0.1,0-0.2,0-0.3-0.1c-0.1-0.1-0.1-0.2-0.1-0.3c0-0.3,0.1-0.4,0.4-0.5
			c0.7-0.1,1.5-0.2,2.4-0.2c0.6,0,1.2,0,1.8,0.1C62.1,53.7,62.3,53.8,62.3,54.1z"/>
		<path class="st0" d="M75.2,58.7c0,0.7-0.2,1.4-0.7,2c-0.4,0.6-1.1,1-1.9,1.3c0,0-0.1,0-0.1,0c-0.1,0-0.2,0-0.3-0.1
			c-0.1-0.1-0.1-0.2-0.1-0.3c0-0.2,0.1-0.3,0.3-0.4c0.6-0.2,1.1-0.5,1.4-1c0.3-0.4,0.5-0.9,0.5-1.4c0-0.5-0.2-1-0.5-1.4
			c-0.4-0.4-0.8-0.7-1.4-0.8c-0.3,1.4-0.9,2.6-1.9,3.6c-1,1-1.9,1.4-2.9,1.4c-0.5,0-0.9-0.2-1.3-0.5c-0.3-0.3-0.5-0.7-0.5-1.2
			c0-0.7,0.3-1.5,1-2.2c0.5-0.6,1.2-1.1,2-1.5c0-0.5,0.1-1.1,0.2-1.9c-0.9,0.1-1.7,0.1-2.4,0.1c-0.3,0-0.4-0.1-0.4-0.4
			c0-0.3,0.1-0.4,0.4-0.5c0.6,0,1.4,0,2.5-0.1c0.1-0.6,0.2-1.1,0.4-1.6c0.1-0.2,0.2-0.3,0.4-0.3c0.1,0,0.2,0,0.3,0.1
			c0.1,0.1,0.1,0.2,0.1,0.3c0,0.1,0,0.3-0.1,0.7c-0.1,0.5-0.2,0.7-0.2,0.8c1-0.1,1.9-0.2,2.8-0.3c0.1,0,0.2,0,0.3,0.1
			c0.1,0.1,0.2,0.2,0.2,0.3c0,0.3-0.1,0.4-0.4,0.5c-0.9,0.1-1.9,0.2-3.1,0.3c-0.1,0.6-0.1,1.1-0.2,1.6c0.6-0.2,1.2-0.3,1.8-0.3
			c1,0,1.9,0.3,2.6,0.8C74.8,57,75.2,57.7,75.2,58.7z M69.2,60.1c-0.4-0.6-0.5-1.6-0.5-2.9c-0.5,0.3-1,0.7-1.3,1.1
			c-0.5,0.5-0.7,1-0.7,1.5c0,0.6,0.3,0.9,0.9,0.9C68,60.7,68.5,60.5,69.2,60.1z M71.5,56.4c-0.7,0-1.4,0.1-2,0.4
			c0,1.1,0.1,2,0.4,2.7C70.7,58.7,71.3,57.6,71.5,56.4z"/>
		<path class="st0" d="M86.7,58.5c0,1.2-0.5,2.1-1.5,2.7c-0.7,0.4-1.5,0.6-2.4,0.6c-0.6,0-1-0.1-1.4-0.3c-0.5-0.3-0.7-0.6-0.7-1.1
			c0-0.5,0.2-0.8,0.5-1.1c0.3-0.3,0.7-0.4,1.1-0.4c0.5,0,0.9,0.1,1.4,0.4c0.5,0.3,0.9,0.6,1.1,1c0.6-0.5,0.9-1.1,0.9-1.8
			c0-0.6-0.2-1.1-0.6-1.4c-0.4-0.3-0.9-0.4-1.5-0.4c-1.4,0-2.6,0.5-3.6,1.5c-0.1,0.1-0.4,0.4-0.8,0.9c-0.1,0.1-0.2,0.1-0.4,0.1
			c-0.3,0-0.4-0.1-0.4-0.5c0-0.1,0-0.2,0.1-0.3c0.5-0.6,1.1-1.2,1.7-1.9c0.5-0.6,1.1-1.1,1.6-1.7c0.6-0.7,1.1-1.3,1.6-1.8
			c-1,0.1-1.6,0.2-1.7,0.2c-0.7,0.1-1.2,0.1-1.7,0.1c-0.1,0-0.2,0-0.3-0.1c-0.1-0.1-0.1-0.2-0.1-0.3c0-0.1,0-0.2,0.1-0.3
			c0.1-0.1,0.2-0.1,0.3-0.1c0.7,0,1.9-0.1,3.5-0.4c0.1,0,0.2,0,0.3,0c0.6,0,0.9,0.2,0.9,0.6c0,0.2-0.3,0.7-0.9,1.3
			c-0.4,0.5-1,1.1-1.8,2c0.6-0.2,1.1-0.3,1.7-0.3c0.9,0,1.6,0.2,2.1,0.7C86.4,57,86.7,57.7,86.7,58.5z M84.2,60.8
			c-0.2-0.3-0.4-0.5-0.8-0.7c-0.3-0.2-0.7-0.3-1-0.3c-0.5,0-0.7,0.2-0.7,0.6c0,0.2,0.2,0.4,0.5,0.5c0.2,0.1,0.5,0.1,0.8,0.1
			C83.3,61.1,83.8,61,84.2,60.8z"/>
		<path class="st0" d="M99.6,59.2c0,0.8-0.3,1.4-0.9,1.9c-0.5,0.4-1.1,0.6-1.9,0.8c-0.1,0-0.2,0-0.3-0.1c-0.1-0.1-0.2-0.2-0.2-0.3
			c0-0.1,0-0.2,0.1-0.3c0.1-0.1,0.2-0.2,0.3-0.2c0.5-0.1,0.9-0.3,1.3-0.5c0.4-0.3,0.6-0.7,0.6-1.2c0-0.5-0.2-0.9-0.6-1.2
			c-0.4-0.2-0.8-0.3-1.4-0.3c-0.7,0-1.4,0.1-2.2,0.4l0,2c0,0.5-0.1,1-0.3,1.3c-0.2,0.3-0.5,0.5-1,0.5c-0.5,0-1-0.2-1.6-0.6
			c-0.6-0.4-0.8-0.8-0.8-1.3c0-0.5,0.3-0.9,0.8-1.4c0.5-0.4,1.2-0.8,2-1.1l0-2.3c-0.8,0.1-1.6,0.1-2.3,0.1c-0.3,0-0.4-0.2-0.4-0.5
			c0-0.1,0-0.2,0.1-0.3c0.1-0.1,0.2-0.1,0.3-0.1c0.7,0,1.5,0,2.3-0.1l0-2.2c0-0.1,0-0.2,0.1-0.3c0.1-0.1,0.2-0.1,0.3-0.1
			c0.1,0,0.2,0,0.3,0.1c0.1,0.1,0.1,0.2,0.1,0.3l0,2.1c0.7-0.1,1.4-0.2,2-0.4c0,0,0.1,0,0.1,0c0.1,0,0.2,0,0.3,0.1
			c0.1,0.1,0.1,0.2,0.1,0.3c0,0.2-0.1,0.4-0.3,0.4c-0.6,0.2-1.4,0.3-2.2,0.4l0,2.1c0.8-0.2,1.5-0.4,2.2-0.4c0.8,0,1.5,0.2,2,0.6
			C99.2,57.8,99.6,58.4,99.6,59.2z M93.5,60.1c0-0.2,0-0.8,0-1.7c-0.6,0.3-1.1,0.6-1.5,0.9c-0.3,0.2-0.4,0.4-0.4,0.6
			c0,0.2,0.1,0.4,0.4,0.6c0.5,0.3,0.9,0.5,1.1,0.5c0.1,0,0.2-0.1,0.3-0.2C93.5,60.6,93.5,60.4,93.5,60.1z M100.4,55.2
			c0,0.1,0.1,0.2,0.1,0.2c0,0.1,0,0.2-0.1,0.3c-0.1,0.1-0.2,0.1-0.3,0.1c-0.2,0-0.3-0.1-0.4-0.2c-0.3-0.4-0.8-1.1-1.7-1.9
			c-0.1-0.1-0.1-0.2-0.1-0.3c0-0.1,0-0.2,0.1-0.3C98,53,98.1,53,98.3,53c0.1,0,0.2,0,0.3,0.1C99.5,54,100.1,54.7,100.4,55.2z"/>
		<path class="st0" d="M107.2,60.1c0,0.2-0.1,0.3-0.2,0.4c-0.5,0.4-0.9,0.6-1.4,0.6c-0.8,0-1.4-0.5-1.8-1.5
			c-0.3-0.9-0.5-2.1-0.5-3.6c0-0.8,0-1.6,0.1-2.3c0-0.1,0.1-0.2,0.2-0.3c0.1-0.1,0.2-0.1,0.4-0.1c0.1,0,0.2,0.1,0.3,0.2
			c0.1,0.1,0.1,0.2,0.1,0.4c-0.1,0.8-0.1,1.5-0.1,2.1c0,1.4,0.1,2.5,0.4,3.3c0.2,0.6,0.5,0.8,0.8,0.8c0.2,0,0.5-0.1,0.7-0.3
			c0.1-0.1,0.2-0.1,0.3-0.1c0.1,0,0.3,0,0.4,0.2C107.2,59.8,107.2,59.9,107.2,60.1z M112.9,58.9c0,0.2,0,0.3-0.1,0.4
			c-0.1,0.1-0.2,0.2-0.4,0.2c-0.3,0-0.5-0.2-0.5-0.5c-0.1-0.8-0.3-1.6-0.7-2.4c-0.4-0.8-0.8-1.5-1.4-2.1c-0.1-0.1-0.1-0.2-0.1-0.4
			c0-0.1,0-0.3,0.1-0.4c0.1-0.1,0.2-0.1,0.4-0.1c0.1,0,0.3,0,0.4,0.1c0.6,0.6,1.2,1.4,1.6,2.4C112.6,57.1,112.8,58,112.9,58.9z"/>
		<path class="st0" d="M124.2,59c-0.5,1-1.2,1.7-2.1,2.2c-0.8,0.5-1.6,0.7-2.4,0.7c-0.8,0-1.5-0.2-2-0.7c-0.6-0.5-0.9-1.1-0.9-1.9
			l0-1.4c0-0.8,0-2.7,0.1-5.5c0-0.1,0.1-0.3,0.2-0.4c0.1-0.1,0.2-0.1,0.4-0.1c0.1,0,0.2,0.1,0.3,0.2c0.1,0.1,0.1,0.2,0.1,0.4
			c-0.1,2.4-0.1,4.2-0.1,5.4c0,0.6,0,1,0,1.3c0,0.5,0.2,0.9,0.6,1.2c0.3,0.3,0.8,0.4,1.3,0.4c0.6,0,1.2-0.2,1.9-0.6
			c0.7-0.4,1.3-1.1,1.7-1.9c0.1-0.2,0.2-0.2,0.4-0.2c0.1,0,0.2,0,0.3,0.1c0.1,0.1,0.1,0.2,0.1,0.3C124.2,58.9,124.2,58.9,124.2,59z"
			/>
		<path class="st0" d="M136.4,53.9c0,0.1,0,0.2-0.1,0.3c-0.1,0.1-0.2,0.2-0.3,0.2c-0.7,0.1-1.4,0.2-2.3,0.3c0.9,1.4,1.4,2.5,1.7,3.1
			c0,0.1,0,0.1,0,0.2c0,0.1,0,0.2-0.1,0.3c-0.1,0.1-0.2,0.1-0.3,0.1c0,0-0.1,0-0.2,0c-1.3-0.5-2.4-0.7-3.3-0.7c-0.6,0-1,0.1-1.5,0.3
			c-0.5,0.3-0.8,0.7-0.8,1.2c0,0.4,0.2,0.8,0.6,1.1c0.4,0.2,0.8,0.4,1.2,0.5c0.9,0.1,1.8,0.2,2.5,0.1c0.3,0,0.5,0.1,0.5,0.4
			c0,0.1,0,0.2-0.1,0.3c-0.1,0.1-0.2,0.2-0.3,0.2c-0.3,0.1-0.7,0.1-1.1,0.1c-0.5,0-1.1,0-1.7-0.1c-0.7-0.1-1.3-0.4-1.8-0.8
			c-0.6-0.5-0.9-1-0.9-1.7c0-0.8,0.4-1.4,1.1-1.8c0.6-0.4,1.3-0.6,2.1-0.6c0.8,0,1.6,0.1,2.6,0.4c-0.4-0.7-0.9-1.5-1.4-2.5
			c-2.1,0.2-3.6,0.4-4.6,0.4c-0.1,0-0.2,0-0.3-0.1c-0.1-0.1-0.1-0.2-0.1-0.3c0-0.1,0-0.2,0.1-0.3c0.1-0.1,0.2-0.1,0.3-0.1
			c1.4,0,2.7-0.1,4-0.3c-0.4-0.6-0.7-1.1-1-1.6c0-0.1-0.1-0.2-0.1-0.3c0-0.3,0.2-0.5,0.5-0.5c0.2,0,0.3,0.1,0.4,0.2
			c0.4,0.6,0.8,1.3,1.3,2c0.5-0.1,1.4-0.2,2.6-0.4c0.1,0,0.2,0,0.3,0.1C136.3,53.7,136.4,53.8,136.4,53.9z"/>
		<path class="st0" d="M148,56.3c0,0.2-0.1,0.3-0.3,0.4c-1,0.4-1.8,0.8-2.4,1.1c0.1,0.5,0.2,1.1,0.2,1.8c0,0.1,0,0.2-0.1,0.3
			c-0.1,0.1-0.2,0.1-0.3,0.1c-0.1,0-0.2,0-0.3-0.1c-0.1-0.1-0.1-0.2-0.1-0.3c0-0.5-0.1-1-0.1-1.4c-0.6,0.4-1.1,0.7-1.4,1
			c-0.3,0.3-0.4,0.6-0.4,0.8c0,0.3,0.1,0.5,0.4,0.6c0.4,0.2,1,0.3,1.8,0.3c0.6,0,1.3-0.1,2.1-0.2c0.1,0,0.2,0,0.3,0.1
			c0.1,0.1,0.2,0.2,0.2,0.3c0,0.1,0,0.2-0.1,0.3c-0.1,0.1-0.2,0.2-0.3,0.2c-0.8,0.1-1.5,0.2-2.2,0.2c-0.8,0-1.4-0.1-1.8-0.2
			c-0.9-0.3-1.3-0.8-1.3-1.6c0-0.5,0.2-1,0.6-1.4c0.4-0.4,1-0.9,1.8-1.3c-0.2-0.5-0.6-0.7-1-0.7c-0.8,0-1.3,0.2-1.7,0.5
			c-0.3,0.4-0.7,0.8-1.1,1.2c-0.1,0.1-0.2,0.1-0.3,0.1c-0.1,0-0.2,0-0.3-0.1c-0.1-0.1-0.1-0.2-0.1-0.3c0-0.1,0-0.2,0.1-0.3
			c1-0.9,1.8-2.1,2.5-3.4c-0.6,0-1.1,0-1.7-0.1c-0.1,0-0.2-0.1-0.3-0.2c-0.1-0.1-0.1-0.2-0.1-0.3c0-0.1,0.1-0.2,0.2-0.3
			c0.1-0.1,0.2-0.1,0.3-0.1c0.7,0.1,1.4,0.1,2.1,0.1c0.2-0.5,0.4-1.1,0.6-1.7c0.1-0.2,0.2-0.3,0.5-0.3c0.1,0,0.2,0,0.3,0.1
			c0.1,0.1,0.1,0.2,0.1,0.3c0,0.2-0.2,0.7-0.5,1.5c0.8,0,1.4-0.1,1.8-0.3c0,0,0.1,0,0.1,0c0.1,0,0.2,0,0.3,0.1
			c0.1,0.1,0.1,0.2,0.1,0.3c0,0.2-0.1,0.4-0.3,0.4c-0.6,0.2-1.4,0.3-2.5,0.3c-0.3,0.5-0.5,1-0.8,1.5c0.3-0.1,0.5-0.1,0.7-0.1
			c0.8,0,1.4,0.4,1.8,1.2c0.7-0.4,1.5-0.7,2.4-1.1c0,0,0.1,0,0.2,0c0.1,0,0.2,0,0.3,0.1C148,56.1,148,56.2,148,56.3z"/>
		<path class="st0" d="M153.1,61.6c0.1,0.1,0.1,0.2,0.1,0.3c0,0.1,0,0.2-0.1,0.3c-0.1,0.1-0.2,0.1-0.3,0.1c-0.1,0-0.3-0.1-0.4-0.2
			c-0.6-0.7-1.3-1.4-2.1-2.1c-0.1-0.1-0.2-0.2-0.2-0.4c0-0.1,0-0.2,0.1-0.3c0.1-0.1,0.2-0.1,0.3-0.1c0.1,0,0.2,0,0.3,0.1
			C151.8,60.1,152.5,60.9,153.1,61.6z"/>
		<path class="st0" d="M165.5,59.2c0,0.8-0.3,1.4-0.9,1.9c-0.5,0.4-1.1,0.6-1.9,0.8c-0.1,0-0.2,0-0.3-0.1c-0.1-0.1-0.2-0.2-0.2-0.3
			c0-0.1,0-0.2,0.1-0.3c0.1-0.1,0.2-0.2,0.3-0.2c0.5-0.1,0.9-0.3,1.3-0.5c0.4-0.3,0.6-0.7,0.6-1.2c0-0.5-0.2-0.9-0.6-1.2
			c-0.3-0.2-0.8-0.3-1.4-0.3c-0.7,0-1.4,0.1-2.2,0.4l0,2c0,0.5-0.1,1-0.3,1.3c-0.2,0.3-0.5,0.5-1,0.5c-0.4,0-1-0.2-1.6-0.6
			c-0.6-0.4-0.8-0.8-0.8-1.3c0-0.5,0.3-0.9,0.8-1.4c0.5-0.4,1.2-0.8,2-1.1l0-2.3c-0.8,0.1-1.6,0.1-2.3,0.1c-0.3,0-0.4-0.2-0.4-0.5
			c0-0.1,0-0.2,0.1-0.3c0.1-0.1,0.2-0.1,0.3-0.1c0.7,0,1.5,0,2.3-0.1l0-2.2c0-0.1,0-0.2,0.1-0.3c0.1-0.1,0.2-0.1,0.3-0.1
			c0.1,0,0.2,0,0.3,0.1c0.1,0.1,0.1,0.2,0.1,0.3l0,2.1c0.7-0.1,1.4-0.2,2-0.4c0,0,0.1,0,0.1,0c0.1,0,0.2,0,0.3,0.1
			c0.1,0.1,0.1,0.2,0.1,0.3c0,0.2-0.1,0.4-0.3,0.4c-0.6,0.2-1.4,0.3-2.2,0.4l0,2.1c0.8-0.2,1.5-0.4,2.2-0.4c0.8,0,1.5,0.2,2,0.6
			C165.2,57.8,165.5,58.4,165.5,59.2z M159.5,60.1c0-0.2,0-0.8,0-1.7c-0.6,0.3-1.1,0.6-1.5,0.9c-0.3,0.2-0.4,0.4-0.4,0.6
			c0,0.2,0.1,0.4,0.4,0.6c0.5,0.3,0.9,0.5,1.1,0.5c0.1,0,0.2-0.1,0.3-0.2C159.5,60.6,159.5,60.4,159.5,60.1z M166.4,55.2
			c0,0.1,0.1,0.2,0.1,0.2c0,0.1,0,0.2-0.1,0.3c-0.1,0.1-0.2,0.1-0.3,0.1c-0.2,0-0.3-0.1-0.4-0.2c-0.3-0.4-0.8-1.1-1.7-1.9
			c-0.1-0.1-0.1-0.2-0.1-0.3c0-0.1,0-0.2,0.1-0.3c0.1-0.1,0.2-0.1,0.3-0.1c0.1,0,0.2,0,0.3,0.1C165.5,54,166.1,54.7,166.4,55.2z"/>
		<path class="st0" d="M179.8,58.3c0,0.3-0.1,0.4-0.4,0.4h-4.6v2.2c0,0.7-0.2,1.1-0.6,1.4c-0.2,0.1-0.6,0.2-1.1,0.2
			c-0.1,0-0.2,0-0.3-0.1c-0.1-0.1-0.1-0.2-0.1-0.3c0-0.3,0.1-0.4,0.4-0.4c0.4,0,0.6,0,0.7-0.1c0.1-0.1,0.2-0.3,0.2-0.6v-2.2H169
			c-0.3,0-0.4-0.1-0.4-0.4c0-0.1,0-0.2,0.1-0.3c0.1-0.1,0.2-0.1,0.3-0.1h4.9v-2.1H170c-0.1,0-0.2,0-0.3-0.1
			c-0.1-0.1-0.1-0.2-0.1-0.3c0-0.1,0-0.2,0.1-0.3c0.1-0.1,0.2-0.1,0.3-0.1h3.9v-2c-1.5,0.1-2.7,0.1-3.8,0.1c-0.3,0-0.4-0.1-0.4-0.4
			c0-0.3,0.1-0.4,0.4-0.4c2.1,0,4.8-0.2,8.2-0.5c0.1,0,0.2,0,0.3,0.1c0.1,0.1,0.1,0.2,0.1,0.3c0,0.3-0.1,0.4-0.4,0.4
			c-1.4,0.2-2.6,0.3-3.6,0.3V55h3.6c0.3,0,0.4,0.1,0.4,0.4c0,0.3-0.1,0.4-0.4,0.4h-3.6v2.1h4.6c0.1,0,0.2,0,0.3,0.1
			C179.7,58.1,179.8,58.2,179.8,58.3z"/>
		<path class="st0" d="M190.5,60.5c0,0.2-0.1,0.4-0.3,0.4c-1,0.3-2.1,0.4-3.3,0.4c-1.7,0-2.9-0.3-3.5-0.8c-0.3-0.3-0.5-0.7-0.5-1.1
			c0-0.2,0-0.4,0.1-0.7c0.1-0.2,0.2-0.3,0.4-0.3c0.1,0,0.2,0,0.3,0.1c0.1,0.1,0.1,0.2,0.1,0.3c0,0.1,0,0.1,0,0.3c0,0.1,0,0.2,0,0.2
			c0,0.2,0.1,0.3,0.2,0.5c0.4,0.4,1.3,0.6,2.9,0.6c1.1,0,2.1-0.1,3-0.4c0.1,0,0.1,0,0.2,0C190.3,60.1,190.5,60.2,190.5,60.5z
			 M189,54.3c0,0-0.1,0-0.1,0c-0.9-0.2-2-0.3-3.3-0.3c-0.7,0-1.3,0-1.9,0.1c-0.1,0-0.2,0-0.3-0.1c-0.1-0.1-0.2-0.2-0.2-0.3
			c0-0.1,0-0.2,0.1-0.3c0.1-0.1,0.2-0.2,0.3-0.2c0.6-0.1,1.3-0.1,2-0.1c1.4,0,2.6,0.1,3.5,0.4c0.2,0.1,0.3,0.2,0.3,0.4
			c0,0.1,0,0.2-0.1,0.3C189.2,54.3,189.1,54.3,189,54.3z M190.9,53.4c0,0.1,0.1,0.1,0.1,0.2c0,0.2-0.1,0.4-0.4,0.4
			c-0.1,0-0.2-0.1-0.3-0.2c-0.2-0.3-0.4-0.6-0.7-1c0-0.1-0.1-0.1-0.1-0.2c0-0.2,0.1-0.4,0.3-0.4c0.1,0,0.2,0,0.3,0.1
			C190.4,52.7,190.7,53.1,190.9,53.4z M192.1,52.7c0,0.1,0.1,0.1,0.1,0.2c0,0.2-0.1,0.4-0.4,0.4c-0.1,0-0.2-0.1-0.3-0.2
			c-0.2-0.4-0.5-0.7-0.7-1c-0.1-0.1-0.1-0.1-0.1-0.2c0-0.2,0.1-0.4,0.4-0.4c0.1,0,0.2,0,0.3,0.1C191.6,51.9,191.9,52.3,192.1,52.7z"
			/>
		<path class="st0" d="M203.3,58.7c0,0.8-0.3,1.5-0.9,2c-0.4,0.4-1,0.7-1.8,1c-0.7,0.2-1.3,0.3-2,0.4c-0.1,0-0.2,0-0.3-0.1
			c-0.1-0.1-0.1-0.2-0.1-0.3c0-0.1,0-0.2,0.1-0.3c0.1-0.1,0.2-0.1,0.3-0.1c0.6,0,1.1-0.1,1.7-0.3c0.6-0.2,1.1-0.5,1.5-0.8
			c0.4-0.4,0.6-0.8,0.6-1.3c0-0.6-0.2-1-0.6-1.3c-0.4-0.3-0.9-0.4-1.5-0.4c-0.6,0-1.2,0.1-1.8,0.3c-0.8,0.3-1.5,0.7-2.1,1.3
			c-0.1,0.2-0.4,0.4-0.7,0.8c-0.1,0.1-0.2,0.2-0.4,0.2c-0.3,0-0.4-0.1-0.4-0.4c0-0.1,0-0.2,0.1-0.3c1.1-1.2,2.7-3,4.9-5.4
			c-1,0.1-2.2,0.2-3.6,0.2c-0.1,0-0.2,0-0.3-0.1c-0.1-0.1-0.1-0.2-0.1-0.3s0-0.2,0.1-0.3c0.1-0.1,0.2-0.1,0.3-0.1
			c1.6,0,2.9-0.1,3.8-0.3c0.2,0,0.4,0,0.6,0c0.3,0.1,0.4,0.3,0.4,0.6c0,0.2-0.1,0.4-0.3,0.7c-0.7,0.7-1.5,1.7-2.5,2.8
			c0.7-0.3,1.4-0.4,2.1-0.4c0.9,0,1.6,0.2,2.1,0.7C203,57.2,203.3,57.8,203.3,58.7z"/>
		<path class="st0" d="M208.5,53.1c-0.4,2.4-0.6,4.1-0.6,5.2c0,1.2,0.2,2.1,0.5,2.6c0,0.1,0.1,0.1,0.1,0.2c0,0.1,0,0.2-0.1,0.3
			c-0.1,0.1-0.2,0.1-0.3,0.1c-0.2,0-0.3-0.1-0.4-0.2c-0.4-0.7-0.6-1.7-0.6-3.1c0-1.1,0.2-2.9,0.6-5.3c0-0.1,0.1-0.2,0.2-0.3
			c0.1-0.1,0.2-0.1,0.4-0.1c0.1,0,0.2,0.1,0.3,0.2C208.4,52.8,208.5,52.9,208.5,53.1z M216.1,60.3c0,0.3-0.1,0.4-0.4,0.4
			c-0.9,0.2-1.7,0.2-2.5,0.2c-0.7,0-1.2-0.1-1.7-0.2c-0.8-0.3-1.2-0.7-1.2-1.4c0-0.2,0-0.4,0.1-0.6c0.1-0.2,0.2-0.3,0.4-0.3
			c0.1,0,0.2,0,0.3,0.1c0.1,0.1,0.1,0.2,0.1,0.3c0,0.3,0,0.4,0,0.4c0,0.2,0.1,0.4,0.3,0.5c0.3,0.2,0.9,0.3,1.7,0.3
			c0.7,0,1.4-0.1,2.3-0.2c0.1,0,0.3,0,0.4,0.1C216,60.1,216.1,60.2,216.1,60.3z M215.5,54.1c0,0.3-0.2,0.5-0.5,0.5
			c-0.1,0-0.4,0-0.8,0c-0.3,0-0.6,0-0.8,0c-0.9,0-1.7,0-2.4,0.1c-0.1,0-0.2,0-0.3-0.1c-0.1-0.1-0.1-0.2-0.1-0.3
			c0-0.3,0.1-0.4,0.4-0.5c0.7-0.1,1.5-0.2,2.4-0.2c0.6,0,1.2,0,1.8,0.1C215.3,53.7,215.5,53.8,215.5,54.1z"/>
	</g>
	<path class="st1" d="M86.1,66.7c0,0-0.9,0.4-2.7,1c-1.8,0.6-4.3,1.5-7.7,2.4c-3.3,0.9-7.4,1.9-12.2,2.7c-4.8,0.8-10.2,1.5-16.2,1.5
		c-3,0-6.1-0.1-9.3-0.6c-0.8-0.1-1.6-0.2-2.4-0.4l-0.3-0.1L35,73.3c-0.2,0-0.4-0.1-0.6-0.1c-0.4-0.1-0.8-0.2-1.2-0.3
		c-0.8-0.3-1.6-0.6-2.4-1c-0.8-0.4-1.6-1-2.2-1.7c-0.3-0.4-0.6-0.8-0.8-1.4c-0.2-0.5-0.2-1.2,0-1.7c0.2-0.6,0.6-1,1-1.4
		c0.4-0.3,0.9-0.6,1.3-0.7c0.9-0.3,1.9-0.4,2.8-0.4c0.2,0,0.5,0,0.7,0l0.7,0c0.4,0,0.9,0.1,1.4,0.1c3.6,0.4,7.2,1.3,10.7,2.2
		c3.6,0.9,7.2,1.8,10.9,2.5c3.7,0.7,7.5,1.4,11.3,1.8c1.9,0.2,3.8,0.4,5.8,0.6c1.9,0.2,3.9,0.3,5.8,0.4c2,0.1,3.9,0.2,5.9,0.2
		c2,0.1,3.9,0.2,5.9,0.2c2,0.1,3.9,0.1,5.9,0.1c2,0.1,3.9,0.1,5.9,0.1c3.9,0,7.8,0,11.7-0.2c3.9-0.2,7.7-0.5,11.5-0.9
		c3.8-0.4,7.5-0.9,11.1-1.4c3.7-0.5,7.3-1,10.8-1.5c1.8-0.2,3.5-0.5,5.2-0.7c1.7-0.2,3.4-0.4,5.1-0.6c6.7-0.8,13.2-1.3,19.1-1.6
		c3-0.1,5.8-0.2,8.5-0.2c1.4,0,2.7,0,4,0c1.3,0,2.5,0,3.7,0.1c2.4,0.1,4.7,0.2,6.7,0.4c2.1,0.2,4,0.3,5.7,0.5c3.4,0.4,6.1,0.8,8,1.1
		c0.9,0.1,1.6,0.3,2.1,0.4c0.5,0.1,0.7,0.1,0.7,0.1c0.2,0,0.4,0.3,0.3,0.5c0,0.2-0.2,0.3-0.4,0.3l0,0c0,0-0.2,0-0.7-0.1
		c-0.5-0.1-1.2-0.1-2.1-0.2c-1.8-0.2-4.5-0.5-7.9-0.7c-3.4-0.2-7.6-0.5-12.4-0.5c-1.2,0-2.4,0-3.7,0c-1.3,0-2.6,0-3.9,0
		c-2.7,0-5.5,0.1-8.4,0.2c-5.9,0.3-12.2,0.7-19,1.5c-1.7,0.2-3.4,0.4-5.1,0.6c-1.7,0.2-3.5,0.4-5.2,0.6c-3.5,0.4-7.1,0.9-10.8,1.4
		c-7.3,1-14.9,2-22.7,2.4c-3.9,0.3-7.8,0.4-11.7,0.5c-2,0-3.9,0.1-5.9,0c-2,0-3.9,0-5.9-0.1c-2,0-3.9-0.1-5.9-0.2
		c-2-0.1-4-0.1-5.9-0.3C76,74,72.1,73.6,68.2,73c-3.9-0.6-7.7-1.3-11.4-2.2c-3.7-0.9-7.4-1.9-10.9-2.8c-3.6-0.9-7.1-1.9-10.6-2.2
		c-1.7-0.1-3.5-0.2-5,0.4c-0.7,0.3-1.3,0.8-1.4,1.3c-0.1,0.5,0.1,1.1,0.6,1.7c0.5,0.5,1.1,0.9,1.8,1.3c0.7,0.3,1.4,0.6,2.2,0.8
		c0.4,0.1,0.8,0.2,1.1,0.3l0.6,0.1l0.3,0.1l0.3,0c0.8,0.1,1.6,0.2,2.4,0.3c3.1,0.4,6.2,0.5,9.1,0.5c2.9,0,5.7-0.1,8.4-0.4
		c2.7-0.2,5.2-0.5,7.5-0.9c4.7-0.7,8.8-1.5,12.2-2.3c3.4-0.8,6-1.5,7.7-2c1.8-0.5,2.7-0.8,2.7-0.8c0.2-0.1,0.3,0,0.4,0.2
		C86.4,66.5,86.3,66.7,86.1,66.7z"/>
	<g>
		<g>
			<path class="st1" d="M240.5,65.5c-0.1-0.2-0.7-0.2-0.9-0.1c-0.3,0.1-0.6,0.3-0.9,0.1c-0.3-0.1-0.5-0.5-0.7-0.8
				c-0.3-0.5-0.3-1-0.2-1.6c0-0.2,0.1-0.3,0.2-0.4c0.1-0.2,0-0.4,0.1-0.6c0-0.2,0.2-0.4,0.3-0.7c0.2-0.5,0.5-1,0.6-1.6
				c0.1-0.4-0.3-0.5-0.7-0.4c-0.1,0.1-0.2,0.1-0.3,0.2c-0.3,0.2-0.6,0.4-0.8,0.6c-0.5,0.5-1.2,1.2-2,1.1c-0.7-0.1-1.1-0.6-1.6-1.2
				c-0.1-0.1-0.1-0.2-0.2-0.3c-0.1-0.1-0.6-0.3-0.7-0.4c-0.3-0.1-0.6-0.4-0.9-0.4c-0.3-0.1-0.7-0.2-1-0.3c-0.5-0.2-1.1-0.4-1.6-0.8
				c-0.9-0.6-1.6-1.6-2.3-2.5c-0.5-0.6-0.9-1.3-1.3-1.9c-0.6-0.9-1.2-1.8-1.7-2.7c-0.3-0.5-0.6-1.3-1.3-1.2
				c-0.5,0.1-1.3,0.8-1.5,1.3c0,0.1,0,0.3,0,0.5c0.1,1,0.4,2.1,0.5,3.1c0.1,0.9-0.2,1.8-0.5,2.7c-0.2,0.8-0.1,1.8-0.6,2.5
				c-0.4,0.6-0.9,1.1-1.1,1.8c0,0.1-0.1,0.3-0.1,0.4c0,0.1,0,0.3,0,0.4c0,0.5,0,1.1,0,1.6c0,0.6-0.3,1-0.7,1.4
				c-0.2,0.2-0.6,0.3-0.9,0.1c-0.2-0.1-0.4-0.3-0.6-0.3c-0.1,0-0.2-0.1-0.3-0.1c-0.3-0.1-0.5-0.2-0.8-0.3c-0.1-0.1-0.3-0.1-0.4-0.2
				c-0.1-0.1-0.2-0.2-0.3-0.3c-0.1-0.1-0.2-0.1-0.4-0.1c-0.4-0.1-1.1,0.2-1.1,0.7c0,0.1,0.1,0.3,0.1,0.4c0.1,0.7,0.4,1.5-0.2,2.1
				c-0.6,0.6-1.5,0.6-2.1,1.1c-0.1,0.1-0.1,0.2-0.2,0.3c-0.1,0.1-0.1,0.2-0.2,0.3c-0.2,0.3-0.3,0.6-0.3,1c0,0.3-0.1,0.9,0,1.2
				c0.1,0.4,0.4,0.7,0.6,1c0.2,0.2,0.5,0.7,0.6,0.9c0,0.1,0.1,0.2,0.1,0.4c0,0.3-0.2,0.5-0.3,0.8c-0.1,0.3-0.1,0.5-0.2,0.7
				c-0.2,0.5-0.6,1.6,0.2,1.7c1.5,0.3,2-1.6,3.2-2c0.2-0.1,0.3-0.1,0.4-0.2c0.4,0,0.8,0.1,1.2,0.1c0.3,0,0.6,0,0.5-0.4
				c-0.3-0.7-0.9-1.3-1.6-1.6c-0.3-0.2-0.7-0.3-1.1-0.5c-0.3-0.1-0.6-0.2-0.9-0.3c-0.1-0.1-0.2-0.2-0.3-0.3
				c-0.1-0.1-0.2-0.2-0.2-0.3c0-0.1,0-0.2,0-0.4c0-0.2,0.3-0.7,0.5-0.9c0.2-0.3,0.5-0.6,0.9-0.8c0.1,0,0.2-0.1,0.4-0.1
				c0.5,0,0.8,0.3,1,0.7c0.2,0.3,0.4,1,0.8,1.2c0.7,0.3,1.3-0.4,1.8-0.8c0.5-0.4,1.1-0.7,1.7-0.8c0.6-0.1,1.1,0.3,1.6,0.6
				c0.2,0.1,0.4,0.3,0.6,0.4c0.2,0.1,0.4,0.2,0.6,0.4c0.4,0.3,0.9,0.6,1.4,1c0.2,0.2,0.4,0.3,0.6,0.5c0.2,0.3,0.5,0.5,0.8,0.7
				c0.4,0.4,0.9,0.8,1.4,0.7c0.7-0.1,1-1.2,1.2-1.8c0.3-0.8,0.6-1.6,1.2-2.2c0.7-0.8,1.5-1.5,2.4-1.8c1.1-0.4,2.1-0.2,3.3-0.3
				c0.8,0,1.4-0.3,2-0.7c0.6-0.3,1.3-0.5,2-0.7c0.4-0.1,1.1-0.4,1.3-0.8C240.5,65.6,240.5,65.5,240.5,65.5z"/>
		</g>
	</g>
	<g>
		<path class="st2" d="M44.2,29.9c0.6,4.1,3.7,5.7,8.7,5.7c2.8,0,5.3-0.6,8.7-2.2l1.3,7c-3.6,1.5-8.1,2.1-11.9,2.1
			c-9.8,0-17.3-5.8-17.3-15.6s6.7-15.5,15.9-15.5c11,0,15,7.8,15,16.7v1.9H44.2z M55.5,24.1c0-3.4-1.6-6.2-5.7-6.2
			c-3.7,0-5.5,2.8-5.7,6.2H55.5z"/>
		<path class="st2" d="M98.9,34.9c-4.4,0-7.8-3-7.9-8c0.1-5,3.5-8,7.9-8c2.5,0,3.7,0.5,5.6,1.7l1.4-7.5c-2.3-1.1-5.1-1.7-8.2-1.7
			c-9.8,0-17.3,5.7-17.3,15.5l0,0c0,0,0,0,0,0c0,0,0,0,0,0l0,0c0,9.8,7.5,15.5,17.3,15.5c3.1,0,5.8-0.5,8.2-1.7l-1.4-7.5
			C102.6,34.4,101.4,34.9,98.9,34.9z"/>
		<path class="st2" d="M1.4,40.8c3.8,1.1,7.8,1.6,13.3,1.6c7.9,0,17.4-2.1,17.4-12.2c0-8.4-6.7-9.9-12.7-11.3
			c-3.9-0.9-7.6-1.8-7.6-4.9c0-1.7,1.3-3.7,7.3-3.7c3.4,0,6.5,0.8,9.3,2.1l1.4-7.3c-3.6-1.3-7.8-1.9-12.8-1.9C9,3.1,1,6.8,1,15
			c0,7.7,6.2,9.3,11.7,10.7c4,1,7.7,2,7.7,5.5c0,4.2-4.9,4.2-6.5,4.2c-4.5,0-8.6-1.1-11.1-2L1.4,40.8z"/>
		<path class="st2" d="M77.7,41.8V12.1c0,0-10.3-1.5-10.3,7.7c0,3.5,0,22,0,22H77.7z"/>
		<g>
			<g>
				<g>
					<path class="st2" d="M112.5,19.1c-0.2,0-0.4,0.2-0.4,0.5c0,0.2,0.2,0.4,0.4,0.4c0.3,0,0.5-0.2,0.5-0.4
						C113,19.3,112.8,19.1,112.5,19.1z"/>
				</g>
				<path class="st2" d="M128.1,35.6c0.1,0,0.1,0,0.1,0c1,0.2,1.9,0.4,2.7,0.4c2.8,0,5-1.3,6.3-3.1c0-0.1,0.1-0.1,0.2-0.1
					c0.1,0,0.1,0.1,0,0.2c-0.9,2.4-2.7,4.6-3.3,5.1c-0.4,0.4-1.1,0.4-1.1,0.4c-2.3,0-3.9-1-5.1-2.3c-0.1-0.1-0.1-0.1-0.1-0.2
					c0-0.1,0-0.1,0-0.2C127.9,35.7,128,35.6,128.1,35.6z"/>
				<g>
					<path class="st2" d="M128.4,31.6c4.7,0,5.5-2.7,6.6-4.9c0,0,1.2-2.6,3.2-3.1c0.1,0,0.1-0.1,0.1-0.2c-0.7-3.2-2.3-6-4.6-8.2
						c0,0-0.1,0-0.1,0c0,0-0.1,0-0.1,0.1c0,0-0.9,1.2-0.9,3.5c0,1.6,0.5,3.1,0.5,4.7c0,1-0.2,2-0.6,3.2c-0.7,1.7-1.9,2.8-3,3.4
						c0,0-0.7,0.5-2.1,0.8c-0.2,0-0.3,0.2-0.2,0.4c0,0.1,0.1,0.2,0.2,0.2C127.3,31.5,127.6,31.6,128.4,31.6z"/>
				</g>
				<path class="st2" d="M116.3,19.1C116.3,19.1,116.4,19.1,116.3,19.1C116.4,19.1,116.4,19.2,116.3,19.1c-3.1,3.9-1.5,7.9,1.2,9
					c0.5,0.2,3.3,1.1,4.8-2.6c0.8-2,0.6-3.9,1.5-6.1c1.6-3.8,4.5-5.6,7.2-6.1c0,0,0.1,0,0.1-0.1c0-0.1,0-0.1-0.1-0.2
					c-2.5-1.6-5.5-2.5-8.7-2.5c-9,0-16.3,7.3-16.3,16.3c0,9,7.3,16.3,16.3,16.3c3.4,0,6.5-1,9.2-2.8c0,0,0,0,0-0.1c0,0,0,0-0.1,0
					c0,0-6.1,1.7-12.3-0.6c-11.1-4.2-7.4-14.5-7.5-17.7c0-1.1-0.4-1.6-0.8-2c-0.4-0.4-1-0.8-0.9-1.1c0.1-0.3,1.1-0.3,2.1-0.2
					c1.1,0.1,1.8,0.4,2.4,0.5C115.2,19.2,116,19.1,116.3,19.1z"/>
			</g>
		</g>
		<g>
			<path class="st2" d="M236.3,17.6V12c-2.6-0.1-9.3,0.3-9.3,7.8c0,3.5,0,22,0,22h10.2V29.3c0-5.8,1.9-10.1,6.9-10.1h6.3v12.2
				c0,7,2.3,11.1,11.4,11.1c2.6,0,3.8-0.2,6-0.7l-1.2-6.4c-0.3,0.1-0.9,0.3-1.9,0.3c-3.2,0-4.1-1.8-4.1-5.4V19.2h7.2v-7.3h-7.1h0
				V3.2c0,0-10.3-1.5-10.3,7.7c0,0.3,0,0.7,0,1h-5c-2.8,0-7.7,1.4-9.1,5.7v0L236.3,17.6L236.3,17.6"/>
		</g>
		<path class="st2" d="M150.1,12c-2.6-0.1-9.4,0.3-9.4,7.8c0,3.5,0,22,0,22H151V29.2c0-6.4,2.2-9.3,5.8-9.3c2.9,0,4.1,2.5,4.1,5.9
			v16h10.3V29.2c0-6.4,2.2-9.3,5.8-9.3c2.9,0,4.1,2.5,4.1,5.9v16h10.3V24.2c0-8.1-1.9-12.9-10.5-12.9c-4.2,0-8.2,1.7-10.6,5.7
			c-1.6-3.9-5.1-5.7-9.3-5.7c-4.7,0-8.8,1.9-10.9,6.2h-0.1L150.1,12z"/>
		<g>
			<path class="st2" d="M224.2,41.7c-0.5-2.3-0.6-4.7-0.6-7V23.7c0-9.1-6.6-12.3-14.2-12.3c-4.4,0-8.1,0.6-11.7,2.1v7
				c2.9-1.6,6.2-2.2,9.5-2.2c3.7,0,6.7,1.1,6.8,5.1c-1.3-0.2-3.1-0.4-4.8-0.4c-5.5,0-15.4,1.1-15.4,10.2c0,6.5,5.3,9.4,11.1,9.4
				c4.2,0,7.1-1.7,9.4-5.4h0.1C216.4,42.8,224,41.8,224.2,41.7L224.2,41.7z M207.7,35.6c-2.4,0-4.2-1.2-4.2-3.3
				c0-2.9,2.7-3.9,6.2-3.9c1.5,0,3,0.1,4.3,0.2C214,32.1,211.5,35.6,207.7,35.6z"/>
		</g>
	</g>
</g>
</svg>
