<?xml version="1.0" encoding="utf-8"?>
<!-- Generator: Adobe Illustrator 28.0.0, SVG Export Plug-In . SVG Version: 6.00 Build 0)  -->
<svg version="1.1" id="レイヤー_1" xmlns="http://www.w3.org/2000/svg" xmlns:xlink="http://www.w3.org/1999/xlink" x="0px"
	 y="0px" viewBox="0 0 144 204" style="enable-background:new 0 0 144 204;" xml:space="preserve">
<style type="text/css">
	.st0{fill:#D7C9BB;}
	.st1{fill:#73D9A7;}
	.st2{fill:#5FC494;}
	.st3{fill:#FFFFFF;}
</style>
<g>
	<g>
		<rect x="-0.1" y="0.1" class="st0" width="144.1" height="203.8"/>
		<polygon class="st1" points="117.1,101.7 129.5,101.7 104.8,64.6 117.1,64.6 92.4,27.5 67.7,64.6 80,64.6 55.3,101.7 67.7,101.7 
			43,138.8 84.2,138.8 84.2,167.6 100.6,167.6 100.6,138.8 141.8,138.8 		"/>
		<polygon class="st2" points="82.5,119 94.8,119 70.1,81.9 82.5,81.9 57.7,44.8 33,81.9 45.4,81.9 20.7,119 33,119 8.3,156.1 
			49.5,156.1 49.5,184.9 66,184.9 66,156.1 107.2,156.1 		"/>
	</g>
	<path class="st3" d="M72,0.1H-0.1v51v51v51v51H72h72.1v-51v-51V51v-51H72z M72.9,0.9h70.3v49.2H72.9V0.9z M0.8,0.9h70.3v49.2H0.8
		V0.9z M71.1,51.9v49.2H0.8V51.9H71.1z M71.1,102.9v49.2H0.8v-49.2H71.1z M71.1,203.1H0.8v-49.2h70.3V203.1z M143.2,203.1H72.9
		v-49.2h70.3V203.1z M72.9,152.1v-49.2h70.3v49.2H72.9z M72.9,101.1V51.9h70.3v49.2H72.9z"/>
</g>
<g>
	<g>
		<path class="st3" d="M100.5,19.1c0.3-1.1,0.9-2.1,1.6-2.9s1.6-1.5,2.6-2c1.1-0.5,2.3-0.7,3.6-0.7c1,0,2,0.2,3,0.5
			c0.9,0.3,1.8,0.8,2.5,1.4c0.7,0.6,1.3,1.4,1.7,2.3s0.6,1.9,0.6,3c0,1.2-0.2,2.1-0.6,3c-0.4,0.8-0.9,1.6-1.5,2.2
			c-0.6,0.6-1.3,1.2-2.1,1.8c-0.8,0.5-1.6,1-2.3,1.6c-0.8,0.5-1.5,1.1-2.3,1.7c-0.7,0.6-1.4,1.3-2,2.1h10.8v4H99.5
			c0-1.3,0.2-2.5,0.6-3.5c0.4-1,0.9-1.9,1.6-2.6c0.7-0.8,1.4-1.5,2.3-2.1s1.8-1.3,2.8-2c0.5-0.3,1-0.7,1.6-1.1s1.1-0.8,1.6-1.2
			c0.5-0.4,0.9-0.9,1.2-1.5c0.3-0.5,0.5-1.2,0.5-1.9c0-1.1-0.3-2-1-2.6c-0.6-0.6-1.5-0.9-2.5-0.9c-0.7,0-1.2,0.2-1.7,0.5
			c-0.5,0.3-0.8,0.7-1.1,1.2c-0.3,0.5-0.5,1.1-0.6,1.7c-0.1,0.6-0.2,1.2-0.2,1.8h-4.4C100,21.5,100.2,20.3,100.5,19.1z"/>
	</g>
	<g>
		<path class="st3" d="M36.5,36.9V22h-5.8v-3.5c0.8,0,1.6,0,2.3-0.2c0.8-0.1,1.4-0.4,2-0.8c0.6-0.4,1.1-0.8,1.5-1.4
			c0.4-0.6,0.7-1.3,0.8-2.2h3.7v22.9H36.5z"/>
	</g>
	<g>
		<path class="st3" d="M99.4,82.3V78l9.9-13.3h4.2v13.8h3v3.8h-3v5.3h-4.4v-5.3H99.4z M109,70.5l-5.9,7.9h6L109,70.5L109,70.5z"/>
	</g>
	<g>
		<path class="st3" d="M37.3,74c0.6,0,1.1-0.2,1.6-0.4s0.9-0.5,1.2-0.9c0.3-0.4,0.5-0.9,0.5-1.6c0-1-0.3-1.7-1-2.3s-1.4-0.8-2.3-0.8
			c-1.2,0-2.1,0.4-2.7,1.2c-0.6,0.8-0.9,1.8-0.9,2.9h-4.4c0-1.2,0.3-2.3,0.6-3.2c0.4-1,0.9-1.8,1.6-2.5c0.7-0.7,1.5-1.2,2.5-1.6
			c1-0.4,2-0.6,3.2-0.6c0.9,0,1.8,0.1,2.7,0.4s1.7,0.7,2.5,1.2c0.7,0.5,1.3,1.2,1.8,2c0.5,0.8,0.7,1.7,0.7,2.7
			c0,1.1-0.3,2.1-0.8,2.9c-0.5,0.8-1.3,1.4-2.4,1.7v0.1c1.3,0.3,2.3,0.9,3,1.8s1.1,2.1,1.1,3.4c0,1.2-0.2,2.3-0.7,3.2
			c-0.5,0.9-1.1,1.7-1.9,2.4c-0.8,0.6-1.7,1.1-2.7,1.4c-1,0.3-2.1,0.5-3.2,0.5c-1.3,0-2.5-0.2-3.5-0.6c-1.1-0.4-2-0.9-2.7-1.6
			c-0.7-0.7-1.3-1.6-1.7-2.6c-0.4-1-0.6-2.2-0.6-3.5h4.4c0,0.6,0.1,1.2,0.3,1.8c0.2,0.6,0.4,1,0.8,1.4c0.3,0.4,0.7,0.7,1.2,1
			c0.5,0.2,1.1,0.4,1.8,0.4c1,0,1.9-0.3,2.6-1s1.1-1.5,1.1-2.6c0-0.9-0.2-1.5-0.5-2c-0.3-0.5-0.8-0.8-1.3-1s-1.1-0.3-1.7-0.4
			s-1.2,0-1.8,0V74C36.2,74,36.8,74,37.3,74z"/>
	</g>
	<g>
		<path class="st3" d="M110.5,119.7c-0.5-0.6-1.2-0.9-2-0.9c-0.8,0-1.5,0.2-2.1,0.7s-1,1.1-1.3,1.8c-0.3,0.7-0.6,1.5-0.7,2.3
			c-0.2,0.8-0.2,1.5-0.3,2.2l0.1,0.1c0.6-0.9,1.4-1.6,2.2-2s1.8-0.6,2.9-0.6c1,0,1.9,0.2,2.9,0.6c0.9,0.4,1.7,1,2.4,1.7
			c0.6,0.7,1.1,1.5,1.3,2.4c0.3,0.9,0.4,1.8,0.4,2.7c0,1.2-0.2,2.3-0.6,3.3c-0.4,1-0.9,1.9-1.6,2.6c-0.7,0.8-1.6,1.3-2.5,1.8
			c-1,0.4-2.1,0.6-3.3,0.6c-1.7,0-3.2-0.3-4.3-1c-1.1-0.7-2-1.6-2.7-2.7c-0.7-1.1-1.1-2.4-1.4-3.8c-0.3-1.4-0.4-2.8-0.4-4.3
			c0-1.4,0.2-2.8,0.5-4.3s0.9-2.7,1.6-3.8c0.7-1.1,1.6-2.1,2.8-2.8c1.1-0.7,2.5-1.1,4.2-1.1c1,0,1.9,0.1,2.7,0.4s1.6,0.7,2.3,1.2
			c0.7,0.5,1.2,1.2,1.6,2c0.4,0.8,0.7,1.7,0.8,2.7h-4.4C111.4,120.9,111,120.2,110.5,119.7z M106.6,127.1c-0.5,0.2-0.9,0.5-1.2,0.9
			c-0.3,0.4-0.5,0.8-0.7,1.4c-0.2,0.5-0.2,1.1-0.2,1.6c0,0.5,0.1,1,0.2,1.6s0.4,1,0.7,1.4c0.3,0.4,0.7,0.7,1.2,1
			c0.5,0.2,1,0.4,1.6,0.4c0.6,0,1.1-0.1,1.5-0.4c0.4-0.2,0.8-0.6,1.1-0.9c0.3-0.4,0.5-0.8,0.7-1.3c0.2-0.5,0.2-1,0.2-1.5
			c0-0.5-0.1-1.1-0.2-1.6c-0.1-0.5-0.4-1-0.6-1.4c-0.3-0.4-0.6-0.7-1.1-1c-0.4-0.3-1-0.4-1.6-0.4
			C107.6,126.8,107.1,126.9,106.6,127.1z"/>
	</g>
	<g>
		<path class="st3" d="M35.2,119.6l-0.9,5.2l0.1,0.1c0.6-0.6,1.3-1.1,2-1.4c0.7-0.3,1.5-0.4,2.5-0.4c1.1,0,2.1,0.2,3,0.6
			c0.9,0.4,1.6,1,2.2,1.7c0.6,0.7,1.1,1.5,1.4,2.5c0.3,0.9,0.5,2,0.5,3c0,1.2-0.2,2.3-0.7,3.3c-0.5,1-1.1,1.9-1.8,2.6
			c-0.8,0.7-1.7,1.3-2.7,1.7c-1,0.4-2.1,0.6-3.3,0.6c-1.1,0-2.2-0.1-3.2-0.4c-1-0.3-1.9-0.7-2.7-1.4c-0.8-0.6-1.4-1.4-1.9-2.3
			c-0.5-0.9-0.7-2-0.7-3.2h4.6c0.1,1,0.5,1.9,1.2,2.5c0.7,0.6,1.5,0.9,2.6,0.9c0.6,0,1.2-0.1,1.7-0.4c0.5-0.2,0.9-0.6,1.2-1
			c0.3-0.4,0.6-0.9,0.8-1.4c0.2-0.5,0.3-1.1,0.3-1.7c0-0.6-0.1-1.1-0.3-1.7c-0.2-0.5-0.4-1-0.8-1.4c-0.3-0.4-0.8-0.7-1.2-0.9
			c-0.5-0.2-1-0.3-1.7-0.3c-0.8,0-1.5,0.1-2,0.4s-1,0.8-1.5,1.4h-4.2l2.3-12.7h12.8v3.8H35.2z"/>
	</g>
	<g>
		<path class="st3" d="M100.9,168.4c0.5-0.8,1.1-1.4,1.8-2c0.7-0.5,1.6-0.9,2.5-1.2s1.8-0.4,2.8-0.4c1.4,0,2.6,0.2,3.6,0.7
			c1,0.4,1.8,1,2.4,1.6c0.6,0.6,1,1.3,1.3,2c0.3,0.7,0.4,1.3,0.4,1.9c0,1.1-0.3,2.1-0.8,3s-1.4,1.5-2.5,1.8v0.1
			c1.4,0.3,2.4,1,3.2,1.9c0.7,1,1.1,2.2,1.1,3.6c0,1.2-0.2,2.3-0.7,3.2c-0.5,0.9-1.1,1.6-1.9,2.2c-0.8,0.6-1.7,1-2.7,1.3
			c-1,0.3-2.1,0.4-3.1,0.4c-1.1,0-2.2-0.1-3.2-0.4c-1-0.3-2-0.7-2.8-1.3s-1.5-1.3-2-2.2c-0.5-0.9-0.7-2-0.7-3.2
			c0-1.5,0.4-2.7,1.1-3.7s1.8-1.6,3.2-2v-0.1c-1.1-0.3-2-0.9-2.5-1.7c-0.6-0.8-0.9-1.8-0.9-3C100.3,170.1,100.5,169.1,100.9,168.4z
			 M104.3,182.9c0.2,0.5,0.5,0.9,0.9,1.2c0.4,0.3,0.8,0.6,1.3,0.8c0.5,0.2,1,0.3,1.6,0.3c0.6,0,1.1-0.1,1.6-0.3
			c0.5-0.2,0.9-0.4,1.2-0.8s0.6-0.7,0.8-1.2c0.2-0.5,0.3-1,0.3-1.6c0-0.5-0.1-1-0.3-1.5c-0.2-0.4-0.5-0.8-0.9-1.2
			c-0.4-0.3-0.8-0.6-1.2-0.8c-0.5-0.2-1-0.3-1.5-0.3c-1.1,0-2.1,0.3-2.9,0.9c-0.8,0.6-1.2,1.5-1.2,2.7
			C104,181.8,104.1,182.4,104.3,182.9z M105.5,173.7c0.7,0.5,1.5,0.8,2.5,0.8c1,0,1.8-0.3,2.5-0.8c0.7-0.5,1-1.3,1-2.2
			c0-0.3,0-0.6-0.1-1c-0.1-0.4-0.3-0.7-0.5-1c-0.3-0.3-0.6-0.6-1-0.8c-0.4-0.2-1-0.3-1.8-0.3c-0.5,0-0.9,0.1-1.3,0.2
			c-0.4,0.1-0.8,0.3-1.1,0.6s-0.6,0.6-0.8,1c-0.2,0.4-0.3,0.9-0.3,1.4C104.5,172.5,104.8,173.2,105.5,173.7z"/>
	</g>
	<g>
		<path class="st3" d="M42,173.1c-0.9,1.5-1.7,3.2-2.3,4.9s-1.1,3.5-1.4,5.2c-0.3,1.8-0.5,3.4-0.5,4.9h-5c0.3-3.4,1.1-6.7,2.4-9.9
			c1.3-3.2,3.1-6.1,5.3-8.7H29.6v-4.3h15.6v4C44,170.3,42.9,171.6,42,173.1z"/>
	</g>
</g>
</svg>
