<?xml version="1.0" encoding="utf-8"?>
<!-- Generator: Adobe Illustrator 28.0.0, SVG Export Plug-In . SVG Version: 6.00 Build 0)  -->
<svg version="1.1" id="レイヤー_1" xmlns="http://www.w3.org/2000/svg" xmlns:xlink="http://www.w3.org/1999/xlink" x="0px"
	 y="0px" viewBox="0 0 103 145" style="enable-background:new 0 0 103 145;" xml:space="preserve">
<style type="text/css">
	.st0{fill:#D7C9BB;}
	.st1{fill:#5FC494;}
	.st2{fill:#FFFFFF;}
</style>
<g>
	<g>
		<rect x="0.5" y="1.3" class="st0" width="101.9" height="142.4"/>
		<path class="st1" d="M24.4,62.1h14.3c4.9,0,6.9,14.7,6.9,19.5s-3.2,4.8-6.2,9.7c-3.1,4.9,0.7,27.3,1.2,28.5
			c0.5,1.2,3.3,11.3,10.8-1.5c7.4-12.7,22-14.8,28.2-14.7c6.1,0.1,7.2-4.4,7.6-6.4s-11-15.4-11.4-15.8s-1-2-1-2
			c-0.2-1.6-0.5-3-0.7-4.4c-2.5,2.6-7.9,7-14.7,6.4c-6.8-0.7,2-13.7-0.1-23.8c0,0,2.8,4.4,0.9,12.4c-1.9,8-0.5,8.9,2.3,8.5
			c7-1.1,10.9-4.9,10-12.3c-1.1-5.6-1.8-8-2.3-9.6c-0.9-2.4-4.4-6.1-4.4-6.1c-0.2-2.6-1.3-7.3-3.6-10.3c-2.2-2.9-13.5-4.2-19.5-4
			c-6,0.1-9.1,4.5-10.3,5s-11,0.4-14.8,0.9s-1.3,5.8-1.3,5.8C17,63.1,24.4,62.1,24.4,62.1L24.4,62.1z"/>
	</g>
	<path class="st2" d="M51.5,0.4h-51v72.1v72.1h51h51V72.5V0.4H51.5z M52.4,1.3h49.2v70.3H52.4V1.3z M1.4,1.3h49.2v70.3H1.4V1.3z
		 M50.6,143.7H1.4V73.4h49.2C50.6,73.4,50.6,143.7,50.6,143.7z M101.6,143.7H52.4V73.4h49.2C101.6,73.4,101.6,143.7,101.6,143.7z"/>
</g>
<g>
	<g>
		<path class="st2" d="M70.2,31.1c0.3-1.1,0.9-2.1,1.6-2.9s1.6-1.5,2.6-2c1.1-0.5,2.3-0.7,3.6-0.7c1,0,2,0.2,3,0.5
			c0.9,0.3,1.8,0.8,2.5,1.4s1.3,1.4,1.7,2.3c0.4,0.9,0.6,1.9,0.6,3c0,1.2-0.2,2.1-0.6,3c-0.4,0.8-0.9,1.6-1.5,2.2
			c-0.6,0.6-1.3,1.2-2.1,1.8c-0.8,0.5-1.6,1-2.3,1.6S77.8,42.4,77,43c-0.7,0.6-1.4,1.3-2,2.1h10.8v4H69.2c0-1.3,0.2-2.5,0.6-3.5
			s0.9-1.9,1.6-2.6c0.7-0.8,1.4-1.5,2.3-2.1c0.9-0.7,1.8-1.3,2.8-2c0.5-0.3,1-0.7,1.6-1.1c0.6-0.4,1.1-0.8,1.6-1.2s0.9-0.9,1.2-1.5
			c0.3-0.5,0.5-1.2,0.5-1.9c0-1.1-0.3-2-1-2.6s-1.6-1.1-2.6-1.1c-0.7,0-1.2,0.2-1.7,0.5s-0.8,0.7-1.1,1.2c-0.3,0.5-0.5,1.1-0.6,1.7
			s-0.2,1.2-0.2,1.8h-4.4C69.7,33.4,69.8,32.2,70.2,31.1z"/>
	</g>
	<g>
		<path class="st2" d="M26.5,48.8V34h-5.8v-3.5c0.8,0,1.6,0,2.3-0.2c0.8-0.1,1.4-0.4,2-0.8s1.1-0.8,1.5-1.4s0.7-1.3,0.8-2.2H31v22.9
			H26.5z"/>
	</g>
	<g>
		<path class="st2" d="M69,114.5v-4.3l9.9-13.3h4.2v13.8h3v3.8h-3v5.3h-4.4v-5.3H69z M78.6,102.8l-5.9,7.9h6L78.6,102.8L78.6,102.8z
			"/>
	</g>
	<g>
		<path class="st2" d="M27.4,106.2c0.6,0,1.1-0.2,1.6-0.4s0.9-0.5,1.2-0.9c0.3-0.4,0.5-0.9,0.5-1.6c0-1-0.3-1.7-1-2.3
			c-0.7-0.5-1.4-0.8-2.3-0.8c-1.2,0-2.1,0.4-2.7,1.2c-0.6,0.8-0.9,1.8-0.9,2.9h-4.4c0-1.2,0.3-2.3,0.6-3.2c0.4-1,0.9-1.8,1.6-2.5
			s1.5-1.2,2.5-1.6s2-0.6,3.2-0.6c0.9,0,1.8,0.1,2.7,0.4c0.9,0.3,1.7,0.7,2.5,1.2c0.7,0.5,1.3,1.2,1.8,2s0.7,1.7,0.7,2.7
			c0,1.1-0.3,2.1-0.8,2.9s-1.3,1.4-2.4,1.7v0.1c1.3,0.3,2.3,0.9,3,1.8s1.1,2.1,1.1,3.4c0,1.2-0.2,2.3-0.7,3.2
			c-0.5,0.9-1.1,1.7-1.9,2.4c-0.8,0.6-1.7,1.1-2.7,1.4s-2.1,0.5-3.2,0.5c-1.3,0-2.5-0.2-3.5-0.6c-1.1-0.4-2-0.9-2.7-1.6
			s-1.3-1.6-1.7-2.6c-0.4-1-0.6-2.2-0.6-3.5h4.4c0,0.6,0.1,1.2,0.3,1.8c0.2,0.6,0.4,1,0.8,1.4c0.3,0.4,0.7,0.7,1.2,1
			c0.5,0.2,1.1,0.4,1.8,0.4c1,0,1.9-0.3,2.6-1s1.1-1.5,1.1-2.6c0-0.9-0.2-1.5-0.5-2s-0.8-0.8-1.3-1s-1.1-0.3-1.7-0.4s-1.2,0-1.8,0
			v-3.3C26.3,106.2,26.8,106.2,27.4,106.2z"/>
	</g>
</g>
</svg>
