<?xml version="1.0" encoding="utf-8"?>
<!-- Generator: Adobe Illustrator 28.0.0, SVG Export Plug-In . SVG Version: 6.00 Build 0)  -->
<svg version="1.1" id="レイヤー_1" xmlns="http://www.w3.org/2000/svg" xmlns:xlink="http://www.w3.org/1999/xlink" x="0px"
	 y="0px" viewBox="0 0 86 49" style="enable-background:new 0 0 86 49;" xml:space="preserve">
<style type="text/css">
	.st0{fill:#FFC880;}
</style>
<g>
	<path class="st0" d="M85.8,24.1c-0.1-1-0.5-1.9-1.1-2.6L68,2c-0.8-1-1.9-1.6-3.2-1.7s-2.5,0.3-3.4,1.1c-1,0.8-1.5,2-1.6,3.2
		c-0.1,1.3,0.4,2.5,1.2,3.4L75,24.5L60.9,41c-0.8,0.9-1.3,2.2-1.2,3.4c0.1,1.3,0.7,2.4,1.6,3.2c1,0.8,2.2,1.2,3.5,1.1
		C66,48.6,67.2,48,68,47l16.7-19.5C85.5,26.6,85.9,25.3,85.8,24.1z"/>
	<circle class="st0" cx="47.4" cy="24.5" r="6.8"/>
	<circle class="st0" cx="27.2" cy="24.5" r="6.8"/>
	<circle class="st0" cx="7.1" cy="24.5" r="6.8"/>
</g>
</svg>
