<?xml version="1.0" encoding="utf-8"?>
<!-- Generator: Adobe Illustrator 28.0.0, SVG Export Plug-In . SVG Version: 6.00 Build 0)  -->
<svg version="1.1" id="レイヤー_1" xmlns="http://www.w3.org/2000/svg" xmlns:xlink="http://www.w3.org/1999/xlink" x="0px"
	 y="0px" viewBox="0 0 500 438.5" style="enable-background:new 0 0 500 438.5;" xml:space="preserve">
<style type="text/css">
	.st0{fill:#FFC880;}
	.st1{fill:#FFFFFF;}
</style>
<g>
	<g>
		<g>
			<g>
				<g id="XMLID_00000018223211787721710600000000491726279219771568_">
					<path class="st0" d="M297.7,257.2c-62.6,11-126.5,11-189.1,0c-10.8-2-18.1-12.2-16.4-23l19.4-96.9h0
						c9.8,1.8,17.1,10.3,17.2,20.3v26.7c0,14.9,12.1,27.1,27.1,27.1c14.9,0,27.1-12.1,27.1-27.1V164c0-7.5,6.1-13.5,13.5-13.5
						c3.6,0,7,1.4,9.6,4c2.5,2.5,4,6,4,9.6v44c0,16.8,13.7,30.4,30.5,30.5c16.7-0.2,30.2-13.7,30.3-30.5v-50.2
						c0-11.5,9.4-20.9,20.9-20.9h2.9l19.5,97.1C315.7,244.9,308.5,255.2,297.7,257.2L297.7,257.2z M326.3,227.3L301.2,102
						c-2.7-16.4-16.8-28.4-33.4-28.4H138c-16.5,0-30.6,11.9-33.4,28.2L79.5,227.3c-26.1,7.6-39,17.1-39,28.9
						c0,29.5,84.2,42.9,162.4,42.9s162.4-13.5,162.4-42.9C365.3,244.3,352.5,234.8,326.3,227.3L326.3,227.3z"/>
				</g>
			</g>
		</g>
		<path class="st1" d="M307.3,40.5h-8.2h-90.5h-8.2h-90.5h-8.2H2.8v69.8v8.2v61.6v8.2V250v8.2V328h98.8h8.2h90.5h8.2h90.5h8.2h98.8
			v-69.8V250v-61.6v-8.2v-61.6v-8.2V40.5H307.3z M396.7,259.4v59.3h-88.2v-59.3H396.7z M297.9,259.4v59.3h-88.2v-59.3H297.9z
			 M199.2,259.4v59.3H111v-59.3H199.2z M100.4,259.4v59.3H12.2v-59.3H100.4z M12.2,109.2V49.9h88.2v59.3H12.2z M111,109.2V49.9h88.2
			v59.3H111z M209.8,109.2V49.9h88.2v59.3H209.8z M297.9,179h-88.2v-59.3h88.2V179z M111,179v-59.3h88.2V179H111z M199.2,189.6v59.3
			H111v-59.3H199.2z M297.9,189.6v59.3h-88.2v-59.3H297.9z M12.2,119.7h88.2V179H12.2V119.7z M12.2,189.6h88.2v59.3H12.2V189.6z
			 M396.7,248.8h-88.2v-59.3h88.2V248.8z M396.7,179h-88.2v-59.3h88.2V179z M396.7,109.2h-88.2V49.9h88.2V109.2z"/>
	</g>
	<path class="st1" d="M436,332.3c0,0-2.3-9.2-6.3-13.7c-4-4.6-1.7-18.9,0-23.5c1.7-4.6-1.1-10.3-5.2-9.7c-4,0.6-7.4-9.7-4.6-10.9
		c2.9-1.1,6.9-9.2,10.9-10.3s7.2-7.3,5.2-10.3c-3.1-4.6,6.3-1.1,8.6,6.9c0,0,13.2,4,13.7,15.5c0.6,11.5,1.7,12.6,9.7,16.6
		s26.6,14.9,28.6,30.9c3.1,24.6-10.9,37.2-4.6,42.9c6.3,5.7,6,41.3-41.8,28.6c-28-7.4,0.2-7.4,7.5-5.7c7.3,1.7,33.7,1.1,25.1-14.9
		h-33.2c-4.6,0-0.3-8,8.1-8c6.8,0,0.5-8-4.1-6.9c-4.6,1.1-10.9,14.9-16,14.9h-9.2c-3.4,0-4-6,1.1-7.2c5.2-1.1,9.7-4.3,9.7-8.9
		C439.4,354,437.1,335.8,436,332.3L436,332.3z"/>
</g>
</svg>
