<?xml version="1.0" encoding="utf-8"?>
<!-- Generator: Adobe Illustrator 28.0.0, SVG Export Plug-In . SVG Version: 6.00 Build 0)  -->
<svg version="1.1" id="レイヤー_1" xmlns="http://www.w3.org/2000/svg" xmlns:xlink="http://www.w3.org/1999/xlink" x="0px"
	 y="0px" viewBox="0 0 500 440" style="enable-background:new 0 0 500 440;" xml:space="preserve">
<style type="text/css">
	.st0{fill:#FFFFFF;}
	.st1{fill:#FFC880;}
</style>
<g>
	<g>
		<g>
			<path class="st0" d="M417.9,189.3h-28.2c-7.8,0-14.1-6.3-14.1-14.1c0-7.8,6.3-14.1,14.1-14.1h28.2c7.8,0,14.1,6.3,14.1,14.1
				C432,183,425.7,189.3,417.9,189.3z M417.9,231.6h-28.2c-7.8,0-14.1-6.3-14.1-14.1c0-7.8,6.3-14.1,14.1-14.1h28.2
				c7.8,0,14.1,6.3,14.1,14.1C432,225.3,425.7,231.6,417.9,231.6z M417.9,273.8h-28.2c-7.8,0-14.1-6.3-14.1-14.1
				c0-7.8,6.3-14.1,14.1-14.1h28.2c7.8,0,14.1,6.3,14.1,14.1C432,267.5,425.7,273.8,417.9,273.8z M417.9,316h-28.2
				c-7.8,0-14.1-6.3-14.1-14.1c0-7.8,6.3-14.1,14.1-14.1h28.2c7.8,0,14.1,6.3,14.1,14.1C432,309.7,425.7,316,417.9,316z
				 M436.3,196.4c8.9-7.7,12-20.1,7.9-31.1c-4.1-11-14.6-18.2-26.4-18.2h-21.1V55.6c0-27.2-22.1-49.2-49.3-49.3H192.7
				c-27.2,0-49.2,22.1-49.3,49.3v39.1c-4.3-2.6-9.1-3.9-14.1-3.9h-21.1c-3.9,0-7,3.1-7,7v222.4l-47.2,47.2l10,10l49.3-49.3
				c1.3-1.3,2-3.1,2-5V104.9h14.1c7.8,0,14.1,6.3,14.1,14.1v56.3c0,1.3,0.3,2.5,1,3.6l7.1,11.8c8.5,14.2,13,30.5,13,47.1V248
				c0,12.8-3.4,25.3-10.1,36.2l12.1,7.3c7.9-13.2,12-28.2,12-43.6v-10.2c0-19.1-5.2-37.9-15.1-54.3l-6.1-10.1V55.6
				c0-19.4,15.7-35.2,35.2-35.2h154.9c9.3,0,18.3,3.7,24.9,10.3c6.6,6.6,10.3,15.6,10.3,24.9v92.5c-10.1,2.6-18,10.5-20.4,20.7
				c-2.4,10.2,1.1,20.8,9,27.6c-6.2,5.3-9.7,13-9.7,21.1c0,8.1,3.6,15.8,9.7,21.1c-6.2,5.3-9.7,13-9.7,21.1c0,8.1,3.6,15.8,9.7,21.1
				c-7.9,6.8-11.4,17.5-9,27.6c2.4,10.2,10.3,18.1,20.4,20.7v8c0,9.3-3.7,18.3-10.3,24.9c-6.6,6.6-15.6,10.3-24.9,10.3H192.7
				c-19.4,0-35.2-15.7-35.2-35.2V302h-14.1v35.2c0,27.2,22.1,49.2,49.3,49.3h88.6L244,423.7l10,10l47.2-47.2h46.4
				c27.2,0,49.2-22.1,49.3-49.3v-7h21.1c11.7,0,22.3-7.2,26.4-18.2c4.1-11,1-23.4-7.9-31.1c6.2-5.3,9.7-13,9.7-21.1
				c0-8.1-3.6-15.8-9.7-21.1c6.2-5.3,9.7-13,9.7-21.1C446.1,209.4,442.5,201.7,436.3,196.4L436.3,196.4z"/>
			<rect x="220.8" y="34.5" class="st0" width="14.1" height="14.1"/>
			<rect x="249" y="34.5" class="st0" width="42.2" height="14.1"/>
		</g>
	</g>
	<path class="st1" d="M319.8,234.1c-32.8,5.7-66.3,5.7-99.1,0c-5.7-1-9.5-6.4-8.6-12.1l10.1-50.8h0c5.2,0.9,8.9,5.4,9,10.6v14
		c0,7.8,6.4,14.2,14.2,14.2c7.8,0,14.2-6.4,14.2-14.2v-10.6c0-3.9,3.2-7.1,7.1-7.1c1.9,0,3.7,0.8,5,2.1c1.3,1.3,2.1,3.1,2.1,5v23.1
		c0,8.8,7.2,15.9,16,16c8.8-0.1,15.8-7.2,15.9-16V182c0-6,4.9-10.9,11-11h1.5l10.2,50.9C329.2,227.6,325.4,233,319.8,234.1
		L319.8,234.1z M334.8,218.4l-13.2-65.7c-1.4-8.6-8.8-14.9-17.5-14.9h-68c-8.7,0-16,6.3-17.5,14.8l-13.2,65.8
		c-13.7,4-20.4,8.9-20.4,15.1c0,15.5,44.1,22.5,85.1,22.5s85.1-7.1,85.1-22.5C355.2,227.3,348.5,222.3,334.8,218.4L334.8,218.4z"/>
</g>
</svg>
